<?xml version="1.0" encoding="UTF-8"?>
<!-- Generated by jsxcad -->
<!DOCTYPE svg PUBLIC "-//W3C//DTD SVG 1.1 Tiny//EN" "http://www.w3.org/Graphics/SVG/1.1/DTD/svg11-tiny.dtd">
<svg viewBox="-250 -250 500 500" width="500" height="500" xmlns="http://www.w3.org/2000/svg"><path d="M-98.37249954427061,-46.29643608200568L-94.16802899792278,70.1471288801761L-82.88637066789794,-62.98614922684108zM-110.64228747468218,-28.43562810672349L-108.69965714610792,58.13992101866596L-98.37249954427061,-46.29643608200568zM-82.88637066789794,-62.98614922684108L-75.26354441625217,78.7494457472332L-64.72562934103759,-78.04697426891164zM-119.19167625448289,-9.922339211199255L-118.49136237608259,43.404983227849115L-110.64228747468218,-28.43562810672349zM-64.72562934103759,-78.04697426891164L-52.62311037792332,83.37731020375946L-44.45916867670917,-91.07652696658093zM-123.42112299661072,26.66898716930631L-119.19167625448289,-9.922339211199255L-123.5727898839471,8.660805778860462zM-44.45916867670917,-91.07652696658093L-27.153692087352603,83.63145152393881L-22.678877867534514,-101.72231173657956zM-22.678877867534514,-101.72231173657956L2.8279741879206986e-14,79.34033169988847L-1.9440562691870807e-14,-109.67795339276981zM-1.9440562691870807e-14,-109.67795339276981L27.52307506917818,70.60071472844504L22.935970554804758,-114.6825049503562zM-119.19167625448289,-9.922339211199255L-123.42112299661072,26.66898716930631L-118.49136237608259,43.404983227849115z" style="fill:rgb(83,212,212)"/><path d="M-81.300122250327,99.9301706490751L-118.49136237608259,43.404983227849115L-91.18092322532556,85.05100685798733z" style="fill:rgb(21,57,142)"/><path d="M22.935970554804758,-114.6825049503562L54.028346815334935,57.79091671207004L45.45807223779221,-116.52387453440907zM-110.64228747468218,-28.43562810672349L-118.49136237608259,43.404983227849115L-108.69965714610792,58.13992101866596z" style="fill:rgb(83,212,212)"/><path d="M126.65293982014391,-75.74226358518709L148.9090784048604,-11.477947376345407L143.84724534248704,-28.818465671712794z" style="fill:rgb(246,167,149)"/><path d="M45.45807223779221,-116.52387453440907L78.17147601025648,41.55070097231938L66.86469622703198,-115.04710794079284zM-98.37249954427061,-46.29643608200568L-108.69965714610792,58.13992101866596L-94.16802899792278,70.1471288801761zM66.86469622703198,-115.04710794079284L98.7648438206933,22.72889077807875L86.42702798311782,-110.16790640200205z" style="fill:rgb(83,212,212)"/><path d="M-66.90744185877259,112.16476755326279L-108.69965714610792,58.13992101866596L-81.300122250327,99.9301706490751z" style="fill:rgb(34,46,160)"/><path d="M-118.49136237608259,43.404983227849115L-81.300122250327,99.9301706490751L-108.69965714610792,58.13992101866596z" style="fill:rgb(21,57,142)"/><path d="M86.42702798311782,-110.16790640200205L114.87115120861972,2.307123412985293L103.39991854475714,-101.89099299112804zM-82.88637066789794,-62.98614922684108L-94.16802899792278,70.1471288801761L-75.26354441625217,78.7494457472332z" style="fill:rgb(83,212,212)"/><path d="M148.9090784048604,-11.477947376345407L126.65293982014391,-75.74226358518709L131.6111349868769,-58.52700302306494z" style="fill:rgb(246,167,149)"/><path d="M103.39991854475714,-101.89099299112804L125.86249396740007,-18.686754871832065L117.04283485224663,-90.33227282107708z" style="fill:rgb(83,212,212)"/><path d="M148.9090784048604,-11.477947376345407L131.4391086058824,-39.26111201875606L149.0466277592205,7.7712234100958195z" style="fill:rgb(246,149,167)"/><path d="M-64.72562934103759,-78.04697426891164L-75.26354441625217,78.7494457472332L-52.62311037792332,83.37731020375946zM117.04283485224663,-90.33227282107708L131.4391086058824,-39.26111201875606L126.65293982014391,-75.74226358518709z" style="fill:rgb(83,212,212)"/><path d="M-48.384625117611506,121.08174981416242L-94.16802899792278,70.1471288801761L-66.90744185877259,112.16476755326279z" style="fill:rgb(51,38,177)"/><path d="M-108.69965714610792,58.13992101866596L-66.90744185877259,112.16476755326279L-94.16802899792278,70.1471288801761z" style="fill:rgb(34,46,160)"/><path d="M131.4391086058824,-39.26111201875606L148.9090784048604,-11.477947376345407L131.6111349868769,-58.52700302306494z" style="fill:rgb(246,149,167)"/><path d="M-44.45916867670917,-91.07652696658093L-52.62311037792332,83.37731020375946L-27.153692087352603,83.63145152393881z" style="fill:rgb(83,212,212)"/><path d="M149.0466277592205,7.7712234100958195L125.86249396740007,-18.686754871832065L143.99509775009219,28.180228940532647z" style="fill:rgb(242,130,183)"/><path d="M126.65293982014391,-75.74226358518709L131.4391086058824,-39.26111201875606L131.6111349868769,-58.52700302306494zM-22.678877867534514,-101.72231173657956L-27.153692087352603,83.63145152393881L2.8279741879206986e-14,79.34033169988847zM117.04283485224663,-90.33227282107708L125.86249396740007,-18.686754871832065L131.4391086058824,-39.26111201875606z" style="fill:rgb(83,212,212)"/><path d="M-94.16802899792278,70.1471288801761L-48.384625117611506,121.08174981416242L-75.26354441625217,78.7494457472332z" style="fill:rgb(51,38,177)"/><path d="M-1.9440562691870807e-14,-109.67795339276981L2.8279741879206986e-14,79.34033169988847L27.52307506917818,70.60071472844504z" style="fill:rgb(83,212,212)"/><path d="M-52.62311037792332,83.37731020375946L-48.384625117611506,121.08174981416242L-26.36727579907492,126.112244695475z" style="fill:rgb(71,33,192)"/><path d="M125.86249396740007,-18.686754871832065L149.0466277592205,7.7712234100958195L131.4391086058824,-39.26111201875606z" style="fill:rgb(242,130,183)"/><path d="M103.39991854475714,-101.89099299112804L114.87115120861972,2.307123412985293L125.86249396740007,-18.686754871832065zM22.935970554804758,-114.6825049503562L27.52307506917818,70.60071472844504L54.028346815334935,57.79091671207004zM86.42702798311782,-110.16790640200205L98.7648438206933,22.72889077807875L114.87115120861972,2.307123412985293z" style="fill:rgb(83,212,212)"/><path d="M143.99509775009219,28.180228940532647L114.87115120861972,2.307123412985293L133.74051088109744,48.86508657382013z" style="fill:rgb(233,112,197)"/><path d="M45.45807223779221,-116.52387453440907L54.028346815334935,57.79091671207004L78.17147601025648,41.55070097231938zM66.86469622703198,-115.04710794079284L78.17147601025648,41.55070097231938L98.7648438206933,22.72889077807875z" style="fill:rgb(83,212,212)"/><path d="M-48.384625117611506,121.08174981416242L-52.62311037792332,83.37731020375946L-75.26354441625217,78.7494457472332z" style="fill:rgb(71,33,192)"/><path d="M-27.153692087352603,83.63145152393881L-26.36727579907492,126.112244695475L-1.7417501665797626,126.8518075309618z" style="fill:rgb(92,32,204)"/><path d="M114.87115120861972,2.307123412985293L143.99509775009219,28.180228940532647L125.86249396740007,-18.686754871832065z" style="fill:rgb(233,112,197)"/><path d="M133.74051088109744,48.86508657382013L98.7648438206933,22.72889077807875L118.56158426845235,68.8514582702076z" style="fill:rgb(220,94,208)"/><path d="M3.139490894759446e-14,79.34033169988847L-1.7417501665797626,126.8518075309618L24.38805357315325,123.1155898581572z" style="fill:rgb(115,34,214)"/><path d="M-26.36727579907492,126.112244695475L-27.153692087352603,83.63145152393881L-52.62311037792332,83.37731020375946z" style="fill:rgb(92,32,204)"/><path d="M118.56158426845235,68.8514582702076L78.17147601025648,41.55070097231938L99.04645430885554,87.13990796383352z" style="fill:rgb(203,77,216)"/><path d="M27.52307506917818,70.60071472844504L24.38805357315325,123.1155898581572L50.7658741694611,114.97772049851865z" style="fill:rgb(139,40,220)"/><path d="M78.17147601025648,41.55070097231938L76.07524245976067,102.78510510710665L99.04645430885554,87.13990796383352z" style="fill:rgb(183,62,221)"/><path d="M98.7648438206933,22.72889077807875L133.74051088109744,48.86508657382013L114.87115120861972,2.307123412985293z" style="fill:rgb(220,94,208)"/><path d="M54.028346815334935,57.79091671207004L50.7658741694611,114.97772049851865L76.07524245976067,102.78510510710665z" style="fill:rgb(162,50,222)"/><path d="M-1.7417501665797626,126.8518075309618L3.139490894759446e-14,79.34033169988847L-27.153692087352603,83.63145152393881z" style="fill:rgb(115,34,214)"/><path d="M78.17147601025648,41.55070097231938L118.56158426845235,68.8514582702076L98.7648438206933,22.72889077807875z" style="fill:rgb(203,77,216)"/><path d="M24.38805357315325,123.1155898581572L27.52307506917818,70.60071472844504L3.305368439075825e-14,79.34033169988847z" style="fill:rgb(139,40,220)"/><path d="M76.07524245976067,102.78510510710665L78.17147601025648,41.55070097231938L54.028346815334935,57.79091671207004z" style="fill:rgb(183,62,221)"/><path d="M50.7658741694611,114.97772049851865L54.028346815334935,57.79091671207004L27.52307506917818,70.60071472844504z" style="fill:rgb(162,50,222)"/><path d="M70.42910064538935,46.75871559697026L97.74554191289857,167.1465517204214L91.67912232266511,92.15763962282766zM45.29566624417954,-41.7873391945418L70.42910064538935,46.75871559697026L67.93149218930827,8.179681843949968zM97.74554191289857,167.1465517204214L70.42910064538935,46.75871559697026L45.29566624417954,-41.7873391945418z" style="fill:rgb(247,158,158)"/><path d="M75.32775863754864,122.42530527929557L-44.020314693839424,197.05751378438444L97.74554191289857,167.1465517204214zM-44.020314693839424,197.05751378438444L75.32775863754864,122.42530527929557L-72.62388930964508,155.41643321333828z" style="fill:rgb(127,37,217)"/><path d="M-93.83400529636828,-4.952097048439818L50.49321512595405,72.88286270175008L45.29566624417954,-41.7873391945418z" style="fill:rgb(83,212,212)"/><path d="M97.74554191289857,167.1465517204214L45.29566624417954,-41.7873391945418L50.49321512595405,72.88286270175008z" style="fill:rgb(247,158,158)"/><path d="M50.49321512595405,72.88286270175008L-93.83400529636828,-4.952097048439818L-104.19465967106937,109.45570942381494z" style="fill:rgb(83,212,212)"/><path d="M50.49321512595405,72.88286270175008L-72.62388930964508,155.41643321333828L75.32775863754864,122.42530527929557zM-72.62388930964508,155.41643321333828L50.49321512595405,72.88286270175008L-104.19465967106937,109.45570942381494z" style="fill:rgb(127,37,217)"/></svg>
