<svg viewBox="-250 -250 500 500" width="500" height="500" xmlns="http://www.w3.org/2000/svg"><path d="M-5.56339787198297,-3.665611728880817L-2.7335787075822156,-0.20986370811402905L-3.717459409701994,-2.031702097751068zM-5.5694595044548345,-2.5352506228491594L-2.014931796023841,1.8007740954012614L-2.7335787075822156,-0.20986370811402905zM-3.717459409701994,-2.031702097751068L-4.798846492197985,-3.353063972320607L-5.562632131942571,-3.8084048751337667zM-3.717459409701994,-2.031702097751068L-5.562632131942571,-3.8084048751337667L-5.563032278409345,-3.7337866254737415zM-5.56339787198297,-3.665611728880817L-3.717459409701994,-2.031702097751068L-5.563032278409345,-3.7337866254737415zM-5.577236325943591,-1.085044814885942L-1.6844298838237617,3.6569911093904888L-2.014931796023841,1.8007740954012614zM-5.567932144501117,-2.8200695914898772L-2.7335787075822156,-0.20986370811402905L-5.56339787198297,-3.665611728880817zM-5.5694595044548345,-2.5352506228491594L-2.7335787075822156,-0.20986370811402905L-5.567932144501117,-2.8200695914898772zM-5.563032278409345,-3.7337866254737415L-5.562632131942571,-3.8084048751337667L-5.792588258141994,-3.945492257435191zM-5.575167172624558,-1.470896305134004L-2.014931796023841,1.8007740954012614L-5.5694595044548345,-2.5352506228491594zM-5.563032278409345,-3.7337866254737415L-5.792588258141994,-3.945492257435191L-5.56339787198297,-3.665611728880817zM-5.58539182307127,0.43577563440121725L-1.7997627851978628,5.040484770251394L-1.6844298838237617,3.6569911093904888zM-5.577236325943591,-1.085044814885942L-2.014931796023841,1.8007740954012614L-5.575167172624558,-1.470896305134004zM-5.56339787198297,-3.665611728880817L-5.792588258141994,-3.945492257435191L-6.526935695217561,-3.703229702923505zM-2.087656249597453,5.395840059412255L-1.7997627851978628,5.040484770251394L-4.142684836783324,2.897873162136247zM-5.56339787198297,-3.665611728880817L-6.526935695217561,-3.703229702923505L-5.567932144501117,-2.8200695914898772z" style="fill:rgb(237,172,172)"/><path d="M-2.3430955447724475,5.711130492781968L-5.225908653807388,6.507788695947946L-4.58793517844775,6.623489159870193z" style="fill:rgb(164,8,154)"/><path d="M-5.583498954290099,0.08279731162133744L-1.6844298838237617,3.6569911093904888L-5.577236325943591,-1.085044814885942zM-2.9767002794159683,4.941423850376344L-2.3430955447724475,5.711130492781968L-2.087656249597453,5.395840059412255zM-5.567932144501117,-2.8200695914898772L-6.526935695217561,-3.703229702923505L-5.5694595044548345,-2.5352506228491594zM-2.9767002794159683,4.941423850376344L-2.087656249597453,5.395840059412255L-2.9749243379552124,4.317330665367388z" style="fill:rgb(237,172,172)"/><path d="M-2.3430955447724475,5.711130492781968L-4.603268649129305,6.2546373579848105L-5.225908653807388,6.507788695947946z" style="fill:rgb(164,8,154)"/><path d="M-5.58539182307127,0.43577563440121725L-1.6844298838237617,3.6569911093904888L-5.583498954290099,0.08279731162133744z" style="fill:rgb(237,172,172)"/><path d="M-4.603268649129305,6.2546373579848105L-2.3430955447724475,5.711130492781968L-2.9785575021274764,5.594080265434962z" style="fill:rgb(164,8,154)"/><path d="M-2.9785575021274764,5.594080265434962L-2.3430955447724475,5.711130492781968L-2.9767002794159683,4.941423850376344z" style="fill:rgb(237,172,172)"/><path d="M-4.603268649129305,6.2546373579848105L-5.4710803363386376,6.4633226581658585L-5.225908653807388,6.507788695947946z" style="fill:rgb(164,8,154)"/><path d="M-2.9767002794159683,4.941423850376344L-2.9749243379552124,4.317330665367388L-4.142684836783324,2.897873162136247zM-5.589166226807722,1.1396187634918913L-4.142684836783324,2.897873162136247L-1.7997627851978628,5.040484770251394zM-5.5694595044548345,-2.5352506228491594L-6.873170877715685,-2.663693568999424L-5.575167172624558,-1.470896305134004zM-5.5694595044548345,-2.5352506228491594L-6.526935695217561,-3.703229702923505L-6.873170877715685,-2.663693568999424z" style="fill:rgb(237,172,172)"/><path d="M-8.769867257084222,-2.781856161080997L-6.873170877715685,-2.663693568999424L-6.526935695217561,-3.703229702923505z" style="fill:rgb(66,229,173)"/><path d="M-4.603268649129305,6.2546373579848105L-3.2227663023392368,5.549100371240151L-5.4710803363386376,6.4633226581658585z" style="fill:rgb(164,8,154)"/><path d="M-5.589166226807722,1.1396187634918913L-1.7997627851978628,5.040484770251394L-5.58539182307127,0.43577563440121725z" style="fill:rgb(237,172,172)"/><path d="M-4.603268649129305,6.2546373579848105L-2.9785575021274764,5.594080265434962L-3.2227663023392368,5.549100371240151z" style="fill:rgb(164,8,154)"/><path d="M-9.119811655405538,-1.7415832682438601L-6.873170877715685,-2.663693568999424L-8.769867257084222,-2.781856161080997z" style="fill:rgb(66,229,173)"/><path d="M-5.575167172624558,-1.470896305134004L-6.873170877715685,-2.663693568999424L-5.577236325943591,-1.085044814885942z" style="fill:rgb(237,172,172)"/><path d="M-5.4710803363386376,6.4633226581658585L-3.2227663023392368,5.549100371240151L-6.5384801654689815,5.494598029439938z" style="fill:rgb(140,23,199)"/><path d="M-2.9767002794159683,4.941423850376344L-4.142684836783324,2.897873162136247L-5.591489916925836,1.5729356325637045zM-5.593536526948926,1.954583419229414L-2.9785575021274764,5.594080265434962L-2.9767002794159683,4.941423850376344zM-5.577236325943591,-1.085044814885942L-6.769004859444353,-1.0039335290801026L-5.583498954290099,0.08279731162133744zM-5.593536526948926,1.954583419229414L-3.2227663023392368,5.549100371240151L-2.9785575021274764,5.594080265434962zM-5.577236325943591,-1.085044814885942L-6.873170877715685,-2.663693568999424L-6.769004859444353,-1.0039335290801026z" style="fill:rgb(237,172,172)"/><path d="M-6.5384801654689815,5.494598029439938L-3.2227663023392368,5.549100371240151L-4.287619861615579,4.578094591070381z" style="fill:rgb(140,23,199)"/><path d="M-2.9767002794159683,4.941423850376344L-5.591489916925836,1.5729356325637045L-5.5925130487152765,1.7637272859226536z" style="fill:rgb(237,172,172)"/><path d="M-9.119811655405538,-1.7415832682438601L-6.769004859444353,-1.0039335290801026L-6.873170877715685,-2.663693568999424z" style="fill:rgb(64,195,214)"/><path d="M-5.591489916925836,1.5729356325637045L-4.142684836783324,2.897873162136247L-5.589166226807722,1.1396187634918913zM-5.593536526948926,1.954583419229414L-2.9767002794159683,4.941423850376344L-5.5925130487152765,1.7637272859226536zM-5.583498954290099,0.08279731162133744L-6.769004859444353,-1.0039335290801026L-5.58539182307127,0.43577563440121725z" style="fill:rgb(237,172,172)"/><path d="M-9.018726015616759,-0.0820644905350209L-6.769004859444353,-1.0039335290801026L-9.119811655405538,-1.7415832682438601z" style="fill:rgb(64,195,214)"/><path d="M-6.5384801654689815,5.494598029439938L-4.287619861615579,4.578094591070381L-7.604539448793765,3.8829362491115034z" style="fill:rgb(114,55,231)"/><path d="M-3.2227663023392368,5.549100371240151L-5.352504349391904,2.9641428123689444L-4.287619861615579,4.578094591070381zM-5.593536526948926,1.954583419229414L-5.352504349391904,2.9641428123689444L-3.2227663023392368,5.549100371240151zM-5.58539182307127,0.43577563440121725L-6.230963468623298,0.9881353822171436L-5.591489916925836,1.5729356325637045zM-5.58539182307127,0.43577563440121725L-6.769004859444353,-1.0039335290801026L-6.230963468623298,0.9881353822171436z" style="fill:rgb(237,172,172)"/><path d="M-8.482589440853477,1.908829533788469L-6.230963468623298,0.9881353822171436L-9.018726015616759,-0.0820644905350209z" style="fill:rgb(72,150,240)"/><path d="M-7.604539448793765,3.8829362491115034L-4.287619861615579,4.578094591070381L-5.352504349391904,2.9641428123689444z" style="fill:rgb(114,55,231)"/><path d="M-6.2207172274624,2.6714239341803707L-8.482589440853477,1.908829533788469L-7.847936267866292,3.335712050918541zM-5.352504349391904,2.9641428123689444L-7.847936267866292,3.335712050918541L-7.604539448793765,3.8829362491115034z" style="fill:rgb(90,100,246)"/><path d="M-9.018726015616759,-0.0820644905350209L-6.230963468623298,0.9881353822171436L-6.769004859444353,-1.0039335290801026z" style="fill:rgb(72,150,240)"/><path d="M-5.591489916925836,1.5729356325637045L-6.230963468623298,0.9881353822171436L-5.5925130487152765,1.7637272859226536z" style="fill:rgb(237,172,172)"/><path d="M-5.352504349391904,2.9641428123689444L-6.2207172274624,2.6714239341803707L-7.847936267866292,3.335712050918541z" style="fill:rgb(90,100,246)"/><path d="M-5.5925130487152765,1.7637272859226536L-6.230963468623298,0.9881353822171436L-5.593536526948926,1.954583419229414z" style="fill:rgb(237,172,172)"/><path d="M-6.2207172274624,2.6714239341803707L-6.230963468623298,0.9881353822171436L-8.482589440853477,1.908829533788469z" style="fill:rgb(90,100,246)"/><path d="M-5.155524483183861,5.389841674746535L-5.238000865522906,8.931878482078712L-2.9854556738694202,8.018198370923226z" style="fill:rgb(127,37,217)"/><path d="M-5.593536526948926,1.954583419229414L-5.596013032401211,2.4163969800020193L-5.352504349391904,2.9641428123689444zM-5.593536526948926,1.954583419229414L-6.230963468623298,0.9881353822171436L-5.596013032401211,2.4163969800020193z" style="fill:rgb(237,172,172)"/><path d="M-6.2207172274624,2.6714239341803707L-5.352504349391904,2.9641428123689444L-5.596013032401211,2.4163969800020193zM-6.2207172274624,2.6714239341803707L-5.596013032401211,2.4163969800020193L-6.230963468623298,0.9881353822171436z" style="fill:rgb(90,100,246)"/><path d="M-5.596013032401211,2.4163969800020193L-7.847936267866292,3.335712050918541L-7.866151322253026,5.759890319698555zM-5.592578041370903,1.7758468594853016L5.262487298460113,-3.295862774018068L-5.589166226807722,1.1396187634918913z" style="fill:rgb(63,205,205)"/><path d="M-5.155524483183861,5.389841674746535L-7.603790337608463,6.0765368088143425L-5.238000865522906,8.931878482078712z" style="fill:rgb(127,37,217)"/><path d="M-5.596013032401211,2.4163969800020193L-7.866151322253026,5.759890319698555L-5.609012901765408,4.840586226098868z" style="fill:rgb(63,205,205)"/><path d="M-6.301280292951633,5.546259712309447L-7.866151322253026,5.759890319698555L-7.603790337608463,6.0765368088143425zM-2.9854556738694202,8.018198370923226L7.882479053656391,3.6099407236221333L-5.155524483183861,5.389841674746535zM-5.155524483183861,5.389841674746535L-6.301280292951633,5.546259712309447L-7.603790337608463,6.0765368088143425zM-5.347115256308629,5.157794961096203L-7.866151322253026,5.759890319698555L-6.301280292951633,5.546259712309447zM-5.347115256308629,5.157794961096203L-6.301280292951633,5.546259712309447L-5.155524483183861,5.389841674746535zM-5.347115256308629,5.157794961096203L-5.609012901765408,4.840586226098868L-7.866151322253026,5.759890319698555z" style="fill:rgb(127,37,217)"/><path d="M-5.609012901765408,4.840586226098868L5.281253916080941,0.4051218933844917L-5.592578041370903,1.7758468594853016zM-5.592578041370903,1.7758468594853016L5.281253916080941,0.4051218933844917L5.262487298460113,-3.295862774018068z" style="fill:rgb(63,205,205)"/><path d="M5.281253916080941,0.4051218933844917L7.854555059102351,-0.09103982444158569L5.262487298460113,-3.295862774018068zM7.854555059102351,-0.09103982444158569L5.281253916080941,0.4051218933844917L7.882479053656391,3.6099407236221333z" style="fill:rgb(237,172,172)"/><path d="M-5.155524483183861,5.389841674746535L5.281253916080941,0.4051218933844917L-5.609012901765408,4.840586226098868zM-5.155524483183861,5.389841674746535L7.882479053656391,3.6099407236221333L5.281253916080941,0.4051218933844917z" style="fill:rgb(127,37,217)"/></svg>