<svg viewBox="-250 -250 500 500" width="500" height="500" xmlns="http://www.w3.org/2000/svg"><path d="M-14.676631554326104,-7.83688655387996L-22.220487376293775,-3.0833845998252167L-14.709050456283435,-5.55449838078864zM-14.709050456283435,-5.55449838078864L-22.220487376293775,-3.0833845998252167L-14.71648393808679,-5.031257747182355zM-4.904431570632577,-13.994629726776871L52.621720668461066,-32.9739614513431L13.665204147136565,-22.762183483279074zM-14.71648393808679,-5.031257747182355L-22.220487376293775,-3.0833845998252167L-37.82302688256438,9.698726428173696zM33.007756871653655,-29.153008769598024L13.665204147136565,-22.762183483279074L52.621720668461066,-32.9739614513431zM-14.676631554326104,-7.83688655387996L71.98447911434836,-34.07545644784651L-4.904431570632577,-13.994629726776871zM-14.71648393808679,-5.031257747182355L-37.82302688256438,9.698726428173696L-14.8186636875594,2.1626126106033174zM-14.676631554326104,-7.83688655387996L-14.709050456283435,-5.55449838078864L71.98447911434836,-34.07545644784651zM-14.71648393808679,-5.031257747182355L71.98447911434836,-34.07545644784651L-14.709050456283435,-5.55449838078864zM71.98447911434836,-34.07545644784651L52.621720668461066,-32.9739614513431L-4.904431570632577,-13.994629726776871zM-14.8186636875594,2.1626126106033174L-37.82302688256438,9.698726428173696L-14.841684509171666,3.7833448416798467zM-14.841684509171666,3.7833448416798467L-37.82302688256438,9.698726428173696L-14.864778364159267,5.4091211800045045zM-14.864778364159267,5.4091211800045045L-37.82302688256438,9.698726428173696L-51.27423564008369,24.03824931055442zM-14.8186636875594,2.1626126106033174L90.55332414793482,-32.35712050892936L-14.71648393808679,-5.031257747182355zM-14.864778364159267,5.4091211800045045L-51.27423564008369,24.03824931055442L-14.998158451576797,14.799485673761351zM-14.71648393808679,-5.031257747182355L90.55332414793482,-32.35712050892936L71.98447911434836,-34.07545644784651zM-14.841684509171666,3.7833448416798467L90.55332414793482,-32.35712050892936L-14.8186636875594,2.1626126106033174zM-14.998158451576797,14.799485673761351L-51.27423564008369,24.03824931055442L-62.16153688524149,39.578325844231586zM-14.864778364159267,5.4091211800045045L107.76932851923964,-27.776795881134063L-14.841684509171666,3.7833448416798467zM-14.998158451576797,14.799485673761351L-62.16153688524149,39.578325844231586L-15.133953821968188,24.359893446985733zM-14.841684509171666,3.7833448416798467L107.76932851923964,-27.776795881134063L90.55332414793482,-32.35712050892936zM-15.133953821968188,24.359893446985733L-62.16153688524149,39.578325844231586L-15.18230835189594,27.764307491653188zM-15.18230835189594,27.764307491653188L-62.16153688524149,39.578325844231586L-70.10533527667279,55.91664513741989zM-14.998158451576797,14.799485673761351L123.0649679405189,-20.36215373995861L-14.864778364159267,5.4091211800045045zM-15.133953821968188,24.359893446985733L123.0649679405189,-20.36215373995861L-14.998158451576797,14.799485673761351zM-14.864778364159267,5.4091211800045045L123.0649679405189,-20.36215373995861L107.76932851923964,-27.776795881134063zM-15.18230835189594,27.764307491653188L-70.10533527667279,55.91664513741989L-15.332374595249101,38.32943314398983zM-15.18230835189594,27.764307491653188L123.0649679405189,-20.36215373995861L-15.133953821968188,24.359893446985733zM-15.332374595249101,38.32943314398983L-70.10533527667279,55.91664513741989L-15.389546821074267,42.354426627334455zM-15.389546821074267,42.354426627334455L-70.10533527667279,55.91664513741989L-74.77015260836124,72.60379062160354zM-15.332374595249101,38.32943314398983L135.87810879655717,-10.223436862866789L-15.18230835189594,27.764307491653188zM-15.389546821074267,42.354426627334455L-74.77015260836124,72.60379062160354L-15.551454220444171,53.7533071966949zM-15.18230835189594,27.764307491653188L135.87810879655717,-10.223436862866789L123.0649679405189,-20.36215373995861zM-15.389546821074267,42.354426627334455L135.87810879655717,-10.223436862866789L-15.332374595249101,38.32943314398983zM-15.551454220444171,53.7533071966949L-74.77015260836124,72.60379062160354L-15.614221177016379,58.172288034828846zM-15.614221177016379,58.172288034828846L-74.77015260836124,72.60379062160354L-75.88060250681468,89.14421987956914zM-15.551454220444171,53.7533071966949L145.67194105600382,2.432569766973855L-15.389546821074267,42.354426627334455zM-15.614221177016379,58.172288034828846L-75.88060250681468,89.14421987956914L-15.784952104185335,70.19216427740466zM-15.389546821074267,42.354426627334455L145.67194105600382,2.432569766973855L135.87810879655717,-10.223436862866789zM-15.614221177016379,58.172288034828846L145.67194105600382,2.432569766973855L-15.551454220444171,53.7533071966949zM-15.784952104185335,70.19216427740466L-75.88060250681468,89.14421987956914L-15.849621963438924,74.74522426834089zM-15.849621963438924,74.74522426834089L-75.88060250681468,89.14421987956914L-15.914825418820486,79.33564248508807zM-15.914825418820486,79.33564248508807L-75.88060250681468,89.14421987956914L-73.24211015713537,105.00201439697658zM-15.784952104185335,70.19216427740466L151.96186597843996,17.290922756246133L-15.614221177016379,58.172288034828846z" style="fill:rgb(83,212,212)"/><path d="M-35.874965137917215,164.0287222907728L-56.49047448431376,132.39864912794846L-46.11199494013012,151.19780999860748z" style="fill:rgb(25,53,148)"/><path d="M-15.914825418820486,79.33564248508807L-73.24211015713537,105.00201439697658L-16.088036140657454,91.53031244181628zM-15.614221177016379,58.172288034828846L151.96186597843996,17.290922756246133L145.67194105600382,2.432569766973855zM-15.849621963438924,74.74522426834089L151.96186597843996,17.290922756246133L-15.784952104185335,70.19216427740466z" style="fill:rgb(83,212,212)"/><path d="M165.23686213356012,52.69063778088056L151.96186597843996,17.290922756246133L167.7420778811517,69.2742511127747z" style="fill:rgb(247,158,158)"/><path d="M-46.11199494013012,151.19780999860748L-56.49047448431376,132.39864912794846L-66.76507567739318,119.6120796106081z" style="fill:rgb(25,53,148)"/><path d="M-16.088036140657454,91.53031244181628L-73.24211015713537,105.00201439697658L-66.76507567739318,119.6120796106081zM-15.914825418820486,79.33564248508807L154.34959059637623,33.92131826024452L-15.849621963438924,74.74522426834089zM-16.088036140657454,91.53031244181628L-66.76507567739318,119.6120796106081L-16.265060419043408,103.99325137228466z" style="fill:rgb(83,212,212)"/><path d="M-22.18345884017306,174.5322022601132L-42.61392919472418,142.8016107190802L-35.874965137917215,164.0287222907728z" style="fill:rgb(38,43,165)"/><path d="M167.7420778811517,69.2742511127747L154.34959059637623,33.92131826024452L166.20589090248674,86.99601097474624z" style="fill:rgb(245,141,174)"/><path d="M-15.849621963438924,74.74522426834089L154.34959059637623,33.92131826024452L151.96186597843996,17.290922756246133zM-16.265060419043408,103.99325137228466L-66.76507567739318,119.6120796106081L-16.320926401521408,107.92650535736007z" style="fill:rgb(83,212,212)"/><path d="M167.7420778811517,69.2742511127747L151.96186597843996,17.290922756246133L154.34959059637623,33.92131826024452z" style="fill:rgb(247,158,158)"/><path d="M-16.088036140657454,91.53031244181628L152.56024866468002,51.77841343793651L-15.914825418820486,79.33564248508807z" style="fill:rgb(83,212,212)"/><path d="M-35.874965137917215,164.0287222907728L-42.61392919472418,142.8016107190802L-56.49047448431376,132.39864912794846z" style="fill:rgb(38,43,165)"/><path d="M-16.320926401521408,107.92650535736007L-66.76507567739318,119.6120796106081L-56.49047448431376,132.39864912794846zM-16.265060419043408,103.99325137228466L152.56024866468002,51.77841343793651L-16.088036140657454,91.53031244181628z" style="fill:rgb(83,212,212)"/><path d="M-5.4092804941378105,182.20185213396164L-25.50408524866138,150.31049066242377L-22.18345884017306,174.5322022601132z" style="fill:rgb(55,36,180)"/><path d="M-16.320926401521408,107.92650535736007L-56.49047448431376,132.39864912794846L-16.49447426794885,120.14480124126031z" style="fill:rgb(83,212,212)"/><path d="M-5.536060552239776,170.47749585318937L-5.4092804941378105,182.20185213396164L2.9406040649362115,184.1106650725068z" style="fill:rgb(74,33,194)"/><path d="M-15.914825418820486,79.33564248508807L152.56024866468002,51.77841343793651L154.34959059637623,33.92131826024452z" style="fill:rgb(83,212,212)"/><path d="M166.20589090248674,86.99601097474624L152.56024866468002,51.77841343793651L160.51669580130746,105.20989246307647z" style="fill:rgb(239,123,188)"/><path d="M-16.320926401521408,107.92650535736007L152.56024866468002,51.77841343793651L-16.265060419043408,103.99325137228466zM-16.49447426794885,120.14480124126031L-56.49047448431376,132.39864912794846L-16.53922932468923,123.2956997306597z" style="fill:rgb(83,212,212)"/><path d="M166.20589090248674,86.99601097474624L154.34959059637623,33.92131826024452L152.56024866468002,51.77841343793651z" style="fill:rgb(245,141,174)"/><path d="M-22.18345884017306,174.5322022601132L-25.50408524866138,150.31049066242377L-42.61392919472418,142.8016107190802z" style="fill:rgb(55,36,180)"/><path d="M-16.53922932468923,123.2956997306597L-56.49047448431376,132.39864912794846L-42.61392919472418,142.8016107190802zM-16.49447426794885,120.14480124126031L91.97579990903627,83.71113455842105L-16.333028862681353,108.77843747503051zM-16.333028862681353,108.77843747503051L146.4801196447135,70.21292958870015L-16.320926401521408,107.92650535736007z" style="fill:rgb(83,212,212)"/><path d="M-5.536060552239776,170.47749585318937L-25.50408524866138,150.31049066242377L-5.4092804941378105,182.20185213396164z" style="fill:rgb(74,33,194)"/><path d="M146.4801196447135,70.21292958870015L159.9738685947132,106.20968665241905L160.51669580130746,105.20989246307647z" style="fill:rgb(229,106,201)"/><path d="M-5.708993290408034,154.50271495894737L2.9406040649362115,184.1106650725068L13.905501556111012,186.61741897363447z" style="fill:rgb(74,33,194)"/><path d="M-16.53922932468923,123.2956997306597L-42.61392919472418,142.8016107190802L-16.704518240648593,134.9325483816784z" style="fill:rgb(83,212,212)"/><path d="M146.72577102417023,73.26146744923186L150.74848279000759,123.1963688384973L159.9738685947132,106.20968665241905z" style="fill:rgb(229,106,201)"/><path d="M-5.708993290408034,154.50271495894737L-5.536060552239776,170.47749585318937L2.9406040649362115,184.1106650725068z" style="fill:rgb(74,33,194)"/><path d="M93.16858206745061,98.2983895015473L-16.49447426794885,120.14480124126031L-16.53922932468923,123.2956997306597zM-16.320926401521408,107.92650535736007L146.4801196447135,70.21292958870015L152.56024866468002,51.77841343793651zM-16.704518240648593,134.9325483816784L-42.61392919472418,142.8016107190802L-16.73377695251489,136.99244580547153zM-16.49447426794885,120.14480124126031L92.23112341094668,86.83363772965566L91.97579990903627,83.71113455842105z" style="fill:rgb(83,212,212)"/><path d="M160.51669580130746,105.20989246307647L152.56024866468002,51.77841343793651L146.4801196447135,70.21292958870015z" style="fill:rgb(239,123,188)"/><path d="M-16.73377695251489,136.99244580547153L-42.61392919472418,142.8016107190802L-25.50408524866138,150.31049066242377zM-16.704518240648593,134.9325483816784L93.16858206745061,98.2983895015473L-16.53922932468923,123.2956997306597zM-16.333028862681353,108.77843747503051L134.69027689417757,73.82511700349792L146.4801196447135,70.21292958870015z" style="fill:rgb(83,212,212)"/><path d="M35.057525420149645,187.48294911227921L16.051705487406302,155.0838788705836L13.905501556111012,186.61741897363447z" style="fill:rgb(94,32,205)"/><path d="M93.16858206745061,98.2983895015473L92.23112341094668,86.83363772965566L-16.49447426794885,120.14480124126031z" style="fill:rgb(83,212,212)"/><path d="M146.4801196447135,70.21292958870015L146.72577102417023,73.26146744923186L159.9738685947132,106.20968665241905z" style="fill:rgb(229,106,201)"/><path d="M150.74848279000759,123.1963688384973L136.18919990769825,88.49595166216227L137.179461591564,140.19883594749464z" style="fill:rgb(216,89,211)"/><path d="M-5.536060552239776,170.47749585318937L-16.948680454909937,152.12231329776958L-25.50408524866138,150.31049066242377z" style="fill:rgb(74,33,194)"/><path d="M-16.73377695251489,136.99244580547153L93.42898751685381,101.48305125800537L-16.704518240648593,134.9325483816784zM-16.73377695251489,136.99244580547153L-25.50408524866138,150.31049066242377L-16.88604960230554,147.712790020573zM92.23112341094668,86.83363772965566L134.69027689417757,73.82511700349792L91.97579990903627,83.71113455842105z" style="fill:rgb(83,212,212)"/><path d="M-5.536060552239776,170.47749585318937L-5.708993290408034,154.50271495894737L-16.948680454909937,152.12231329776958z" style="fill:rgb(74,33,194)"/><path d="M-16.88604960230554,147.712790020573L-25.50408524866138,150.31049066242377L-16.895845170903744,148.40254193002082z" style="fill:rgb(83,212,212)"/><path d="M146.72577102417023,73.26146744923186L136.18919990769825,88.49595166216227L150.74848279000759,123.1963688384973z" style="fill:rgb(229,106,201)"/><path d="M57.20927269785985,184.66124708532666L38.91400503082813,151.9228720476219L35.057525420149645,187.48294911227921z" style="fill:rgb(116,34,214)"/><path d="M-16.895845170903744,148.40254193002082L-25.50408524866138,150.31049066242377L-16.948680454909937,152.12231329776958z" style="fill:rgb(83,212,212)"/><path d="M102.77048996823537,142.30053664809228L100.77038574934146,168.32799372172306L111.80911063610426,161.05907434754027z" style="fill:rgb(180,60,221)"/><path d="M-16.704518240648593,134.9325483816784L93.42898751685381,101.48305125800537L93.16858206745061,98.2983895015473z" style="fill:rgb(83,212,212)"/><path d="M137.179461591564,140.19883594749464L121.98124974578798,105.8557870655459L120.29494088039029,155.47096624534498z" style="fill:rgb(199,74,218)"/><path d="M13.905501556111012,186.61741897363447L16.051705487406302,155.0838788705836L-5.708993290408034,154.50271495894737z" style="fill:rgb(94,32,205)"/><path d="M93.16858206745061,98.2983895015473L134.69027689417757,73.82511700349792L92.23112341094668,86.83363772965566zM-16.88604960230554,147.712790020573L94.29470075100464,112.07038271482647L-16.73377695251489,136.99244580547153zM145.90845625760667,71.22873016990202L146.4801196447135,70.21292958870015L134.69027689417757,73.82511700349792zM93.16858206745061,98.2983895015473L145.90845625760667,71.22873016990202L134.69027689417757,73.82511700349792z" style="fill:rgb(83,212,212)"/><path d="M146.72577102417023,73.26146744923186L146.4801196447135,70.21292958870015L145.90845625760667,71.22873016990202z" style="fill:rgb(229,106,201)"/><path d="M79.43331060378627,178.19753748656967L61.91535836808908,145.0763411752939L57.20927269785985,184.66124708532666z" style="fill:rgb(138,40,220)"/><path d="M104.36690711609421,121.5255137273924L111.80911063610426,161.05907434754027L120.29494088039029,155.47096624534498z" style="fill:rgb(180,60,221)"/><path d="M-16.73377695251489,136.99244580547153L94.29470075100464,112.07038271482647L93.42898751685381,101.48305125800537zM-16.895845170903744,148.40254193002082L94.46472956048025,114.14976743251744L-16.88604960230554,147.712790020573z" style="fill:rgb(83,212,212)"/><path d="M100.77038574934146,168.32799372172306L84.05572197752963,134.7976023215611L79.43331060378627,178.19753748656967z" style="fill:rgb(160,49,222)"/><path d="M111.80911063610426,161.05907434754027L95.69839742016296,129.2370355388311L111.98819138088469,162.98456832405915z" style="fill:rgb(247,158,158)"/><path d="M146.72577102417023,73.26146744923186L145.90845625760667,71.22873016990202L136.18919990769825,88.49595166216227z" style="fill:rgb(229,106,201)"/><path d="M93.16858206745061,98.2983895015473L136.18919990769825,88.49595166216227L145.90845625760667,71.22873016990202z" style="fill:rgb(83,212,212)"/><path d="M137.179461591564,140.19883594749464L136.18919990769825,88.49595166216227L121.98124974578798,105.8557870655459z" style="fill:rgb(216,89,211)"/><path d="M93.42898751685381,101.48305125800537L136.18919990769825,88.49595166216227L93.16858206745061,98.2983895015473z" style="fill:rgb(83,212,212)"/><path d="M35.057525420149645,187.48294911227921L38.91400503082813,151.9228720476219L16.051705487406302,155.0838788705836z" style="fill:rgb(116,34,214)"/><path d="M-16.948680454909937,152.12231329776958L95.23336643243206,123.54989218221624L-16.895845170903744,148.40254193002082zM-16.88604960230554,147.712790020573L94.46472956048025,114.14976743251744L94.29470075100464,112.07038271482647z" style="fill:rgb(83,212,212)"/><path d="M104.36690711609421,121.5255137273924L102.77048996823537,142.30053664809228L111.80911063610426,161.05907434754027zM102.77048996823537,142.30053664809228L84.05572197752963,134.7976023215611L100.77038574934146,168.32799372172306z" style="fill:rgb(180,60,221)"/><path d="M-16.948680454909937,152.12231329776958L-5.708993290408034,154.50271495894737L95.2901822606528,124.24473052664436zM94.29470075100464,112.07038271482647L136.18919990769825,88.49595166216227L93.42898751685381,101.48305125800537z" style="fill:rgb(83,212,212)"/><path d="M114.56930086715589,190.73675578882958L111.98819138088469,162.98456832405915L95.69839742016296,129.2370355388311z" style="fill:rgb(247,158,158)"/><path d="M120.29494088039029,155.47096624534498L121.98124974578798,105.8557870655459L104.36690711609421,121.5255137273924z" style="fill:rgb(199,74,218)"/><path d="M-16.895845170903744,148.40254193002082L95.23336643243206,123.54989218221624L94.46472956048025,114.14976743251744z" style="fill:rgb(83,212,212)"/><path d="M57.20927269785985,184.66124708532666L61.91535836808908,145.0763411752939L38.91400503082813,151.9228720476219z" style="fill:rgb(138,40,220)"/><path d="M111.80911063610426,161.05907434754027L95.53948586686552,127.29360620682101L95.69839742016296,129.2370355388311z" style="fill:rgb(247,158,158)"/><path d="M79.43331060378627,178.19753748656967L84.05572197752963,134.7976023215611L61.91535836808908,145.0763411752939z" style="fill:rgb(160,49,222)"/><path d="M94.29470075100464,112.07038271482647L121.98124974578798,105.8557870655459L136.18919990769825,88.49595166216227zM-16.948680454909937,152.12231329776958L95.2901822606528,124.24473052664436L95.23336643243206,123.54989218221624zM94.46472956048025,114.14976743251744L121.98124974578798,105.8557870655459L94.29470075100464,112.07038271482647zM84.05572197752963,134.7976023215611L-5.708993290408034,154.50271495894737L16.051705487406302,155.0838788705836zM95.2901822606528,124.24473052664436L-5.708993290408034,154.50271495894737L84.05572197752963,134.7976023215611zM95.23336643243206,123.54989218221624L121.98124974578798,105.8557870655459L94.46472956048025,114.14976743251744z" style="fill:rgb(83,212,212)"/><path d="M102.77048996823537,142.30053664809228L104.36690711609421,121.5255137273924L95.53948586686552,127.29360620682101zM102.77048996823537,142.30053664809228L95.53948586686552,127.29360620682101L84.05572197752963,134.7976023215611z" style="fill:rgb(180,60,221)"/><path d="M61.91535836808908,145.0763411752939L16.051705487406302,155.0838788705836L38.91400503082813,151.9228720476219zM95.23336643243206,123.54989218221624L104.36690711609421,121.5255137273924L121.98124974578798,105.8557870655459zM84.05572197752963,134.7976023215611L16.051705487406302,155.0838788705836L61.91535836808908,145.0763411752939zM95.2901822606528,124.24473052664436L104.36690711609421,121.5255137273924L95.23336643243206,123.54989218221624zM95.2901822606528,124.24473052664436L95.53948586686552,127.29360620682101L104.36690711609421,121.5255137273924zM95.2901822606528,124.24473052664436L84.05572197752963,134.7976023215611L95.53948586686552,127.29360620682101z" style="fill:rgb(83,212,212)"/><path d="M2.0957567169851448,199.96739247596528L-17.686677587532692,204.0794509132653L3.0638483963828764,235.46156494227205z" style="fill:rgb(127,37,217)"/><path d="M114.56930086715589,190.73675578882958L95.69839742016296,129.2370355388311L97.99081439398263,157.27239431106898zM97.99081439398263,157.27239431106898L116.62658018200413,212.8566921197623L114.56930086715589,190.73675578882958z" style="fill:rgb(247,158,158)"/><path d="M99.82089035249004,179.6535000054371L3.0638483963828764,235.46156494227205L116.62658018200413,212.8566921197623zM99.82089035249004,179.6535000054371L2.0957567169851448,199.96739247596528L3.0638483963828764,235.46156494227205z" style="fill:rgb(127,37,217)"/><path d="M97.99081439398263,157.27239431106898L98.37419127634591,161.96094564312995L116.62658018200413,212.8566921197623zM98.37419127634591,161.96094564312995L99.82089035249004,179.6535000054371L116.62658018200413,212.8566921197623zM91.97579990903627,83.71113455842105L-3.668623257132481,-122.58117447228767L98.37419127634591,161.96094564312995z" style="fill:rgb(247,158,158)"/><path d="M2.0957567169851448,199.96739247596528L-144.94911912161368,11.614201524541395L-17.686677587532692,204.0794509132653zM99.82089035249004,179.6535000054371L-4.056051554573139,-25.57839091679964L2.0957567169851448,199.96739247596528z" style="fill:rgb(127,37,217)"/><path d="M98.37419127634591,161.96094564312995L-4.056051554573139,-25.57839091679964L99.82089035249004,179.6535000054371zM98.37419127634591,161.96094564312995L-3.668623257132481,-122.58117447228767L-4.056051554573139,-25.57839091679964z" style="fill:rgb(247,158,158)"/><path d="M-144.94911912161368,11.614201524541395L-3.668623257132481,-122.58117447228767L-131.54170772285784,-85.76063715048664z" style="fill:rgb(83,212,212)"/><path d="M2.0957567169851448,199.96739247596528L-4.056051554573139,-25.57839091679964L-144.94911912161368,11.614201524541395z" style="fill:rgb(127,37,217)"/><path d="M-3.668623257132481,-122.58117447228767L-144.94911912161368,11.614201524541395L-4.056051554573139,-25.57839091679964z" style="fill:rgb(83,212,212)"/></svg>