solid JSxCAD
facet normal 0 -1 0
outer loop
vertex 15 -5 5
vertex 15 -5 29
vertex 6.72414 -5 5
endloop
endfacet
facet normal 0 -1 0
outer loop
vertex 6.72414 -5 5
vertex 15 -5 29
vertex 5 -5 29
endloop
endfacet
facet normal 0 -1 0
outer loop
vertex 6.72414 -5 5
vertex 5 -5 29
vertex 5 -5 5
endloop
endfacet
facet normal 0 -1 0
outer loop
vertex 8.45786 -5 5
vertex 8.45786 -5 0
vertex 15 -5 0
endloop
endfacet
facet normal 0 -1 0
outer loop
vertex 8.45786 -5 5
vertex 15 -5 0
vertex 15 -5 5
endloop
endfacet
facet normal -1 0 0
outer loop
vertex 5 -5 5
vertex 5 -5 29
vertex 5 3.27586 5
endloop
endfacet
facet normal -1 0 0
outer loop
vertex 5 3.27586 5
vertex 5 -5 29
vertex 5 5 29
endloop
endfacet
facet normal -1 0 0
outer loop
vertex 5 3.27586 5
vertex 5 5 29
vertex 5 5 5
endloop
endfacet
facet normal 1 0 0
outer loop
vertex 15 5 5
vertex 15 5 29
vertex 15 -3.27586 5
endloop
endfacet
facet normal 1 0 0
outer loop
vertex 15 -3.27586 5
vertex 15 5 29
vertex 15 -5 29
endloop
endfacet
facet normal 1 0 0
outer loop
vertex 15 -3.27586 5
vertex 15 -5 29
vertex 15 -5 5
endloop
endfacet
facet normal 1 0 0
outer loop
vertex 15 -3.27586 5
vertex 15 -4.00449 2.88699
vertex 15 -4.00449 0
endloop
endfacet
facet normal 1 0 0
outer loop
vertex 15 -3.27586 5
vertex 15 -4.00449 0
vertex 15 5 0
endloop
endfacet
facet normal 1 0 0
outer loop
vertex 15 -3.27586 5
vertex 15 5 0
vertex 15 5 5
endloop
endfacet
facet normal 1 0 0
outer loop
vertex 15 -4.00449 5
vertex 15 -4.00449 2.88699
vertex 15 -3.27586 5
endloop
endfacet
facet normal 1 0 0
outer loop
vertex 15 -4.00449 2.88699
vertex 15 -5 0
vertex 15 -4.00449 0
endloop
endfacet
facet normal 1 0 0
outer loop
vertex 15 -4.00449 5
vertex 15 -5 5
vertex 15 -5 0
endloop
endfacet
facet normal 1 0 0
outer loop
vertex 15 -4.00449 5
vertex 15 -5 0
vertex 15 -4.00449 2.88699
endloop
endfacet
facet normal 0 1 0
outer loop
vertex 5 5 5
vertex 5 5 29
vertex 13.27586 5 5
endloop
endfacet
facet normal 0 1 0
outer loop
vertex 13.27586 5 5
vertex 5 5 29
vertex 15 5 29
endloop
endfacet
facet normal 0 1 0
outer loop
vertex 13.27586 5 5
vertex 15 5 29
vertex 15 5 5
endloop
endfacet
facet normal 0 1 0
outer loop
vertex 8.45786 5 5
vertex 13.27586 5 5
vertex 15 5 0
endloop
endfacet
facet normal 0 1 0
outer loop
vertex 8.45786 5 5
vertex 15 5 0
vertex 8.45786 5 0
endloop
endfacet
facet normal 0 1 0
outer loop
vertex 13.27586 5 5
vertex 15 5 5
vertex 15 5 0
endloop
endfacet
facet normal 0 0 1
outer loop
vertex 5 5 29
vertex 15 -5 29
vertex 15 5 29
endloop
endfacet
facet normal 0 0 1
outer loop
vertex 15 -5 29
vertex 5 5 29
vertex 5 -5 29
endloop
endfacet
facet normal 0 0 -1
outer loop
vertex 15 -4.00449 0
vertex 8.45786 5 0
vertex 15 5 0
endloop
endfacet
facet normal 0 0 -1
outer loop
vertex 15 -5 0
vertex 11.21084 -1.21084 0
vertex 12.09057 0 0
endloop
endfacet
facet normal 0 0 -1
outer loop
vertex 15 -5 0
vertex 12.09057 0 0
vertex 15 -4.00449 0
endloop
endfacet
facet normal 0 0 -1
outer loop
vertex 11.21084 -1.21084 0
vertex 15 -5 0
vertex 8.45786 -5 0
endloop
endfacet
facet normal 0 0 -1
outer loop
vertex 10 0 0
vertex 10.47318 2.22614 0
vertex 12.09057 0 0
endloop
endfacet
facet normal 0 0 -1
outer loop
vertex 10 0 0
vertex 12.09057 0 0
vertex 11.21084 -1.21084 0
endloop
endfacet
facet normal 0 0 -1
outer loop
vertex 9.13545 -4.06737 0
vertex 10 0 0
vertex 11.21084 -1.21084 0
endloop
endfacet
facet normal 0 0 -1
outer loop
vertex 9.13545 4.06737 0
vertex 10.47318 2.22614 0
vertex 10 0 0
endloop
endfacet
facet normal 0 0 -1
outer loop
vertex 10 0 5
vertex 9.13545 -4.06737 5
vertex 9.13545 4.06737 5
endloop
endfacet
facet normal 0 0 -1
outer loop
vertex 8.45786 -5 5
vertex 7.20813 -5 5
vertex 9.13545 4.06737 5
endloop
endfacet
facet normal 0 0 -1
outer loop
vertex 8.45786 -5 5
vertex 9.13545 4.06737 5
vertex 9.13545 -4.06737 5
endloop
endfacet
facet normal 0 0 -1
outer loop
vertex 6.69131 -5 5
vertex 6.69131 5 5
vertex 8.45786 5 5
endloop
endfacet
facet normal 0 0 -1
outer loop
vertex 6.69131 -5 5
vertex 8.45786 5 5
vertex 9.13545 4.06737 5
endloop
endfacet
facet normal 0 0 -1
outer loop
vertex 6.69131 -5 5
vertex 9.13545 4.06737 5
vertex 7.20813 -5 5
endloop
endfacet
facet normal 0 0 -1
outer loop
vertex 5 0.52552 5
vertex 5 5 5
vertex 6.69131 5 5
endloop
endfacet
facet normal 0 0 -1
outer loop
vertex 5 0.52552 5
vertex 6.69131 5 5
vertex 6.69131 -5 5
endloop
endfacet
facet normal 0 0 -1
outer loop
vertex 5 0.52552 5
vertex 6.69131 -5 5
vertex 6.17449 -5 5
endloop
endfacet
facet normal 0 0 -1
outer loop
vertex 6.17449 -5 5
vertex 5 -5 5
vertex 5 0.52552 5
endloop
endfacet
facet normal -0.9781474140169616 0.2079125692495061 0
outer loop
vertex 9.13545 -4.06737 0
vertex 10 0 5
vertex 10 0 0
endloop
endfacet
facet normal -0.9781474140169616 0.2079125692495061 0
outer loop
vertex 9.13545 -4.06737 5
vertex 10 0 5
vertex 9.13545 -4.06737 0
endloop
endfacet
facet normal -0.9781474140169616 -0.2079125692495061 0
outer loop
vertex 10 0 0
vertex 9.13545 4.06737 5
vertex 9.13545 4.06737 0
endloop
endfacet
facet normal -0.9781474140169616 -0.2079125692495061 0
outer loop
vertex 10 0 5
vertex 9.13545 4.06737 5
vertex 10 0 0
endloop
endfacet
facet normal -0.8090192045096504 -0.5877822102909991 0
outer loop
vertex 8.45786 5 1.38616
vertex 8.45786 5 0
vertex 9.13545 4.06737 0
endloop
endfacet
facet normal -0.8090192045096505 -0.5877822102909992 0
outer loop
vertex 8.45786 5 5
vertex 8.45786 5 1.38616
vertex 9.13545 4.06737 0
endloop
endfacet
facet normal -0.8090192045096504 -0.5877822102909992 0
outer loop
vertex 8.45786 5 5
vertex 9.13545 4.06737 0
vertex 9.13545 4.06737 5
endloop
endfacet
facet normal -0.8090192045096504 0.5877822102909992 0
outer loop
vertex 8.45786 -5 3.61384
vertex 9.13545 -4.06737 5
vertex 9.13545 -4.06737 0
endloop
endfacet
facet normal -0.8090192045096505 0.5877822102909992 0
outer loop
vertex 8.45786 -5 3.61384
vertex 9.13545 -4.06737 0
vertex 8.45786 -5 0
endloop
endfacet
facet normal -0.8090192045096505 0.5877822102909992 0
outer loop
vertex 8.45786 -5 5
vertex 9.13545 -4.06737 5
vertex 8.45786 -5 3.61384
endloop
endfacet
facet normal 0 0 -1
outer loop
vertex 8.45786 -5 0
vertex 6.69131 -7.43145 0
vertex 7.20813 -5 0
endloop
endfacet
facet normal 0 0 -1
outer loop
vertex 7.20813 -5 0
vertex 6.69131 -7.43145 0
vertex 6.69131 -5 0
endloop
endfacet
facet normal 0 0 -1
outer loop
vertex 6.69131 -5 0
vertex 6.69131 -7.43145 0
vertex 6.17449 -5 0
endloop
endfacet
facet normal 0 0 -1
outer loop
vertex 3.09017 -9.51057 0
vertex 3.09017 -5 0
vertex 6.17449 -5 0
endloop
endfacet
facet normal 0 0 -1
outer loop
vertex 3.09017 -9.51057 0
vertex 6.17449 -5 0
vertex 6.69131 -7.43145 0
endloop
endfacet
facet normal 0 0 -1
outer loop
vertex 3.09017 -5 0
vertex 3.09017 -9.51057 0
vertex 2.13142 -5 0
endloop
endfacet
facet normal 0 0 -1
outer loop
vertex -1.04528 -9.94522 0
vertex -1.04528 -5 0
vertex 2.13142 -5 0
endloop
endfacet
facet normal 0 0 -1
outer loop
vertex -1.04528 -9.94522 0
vertex 2.13142 -5 0
vertex 3.09017 -9.51057 0
endloop
endfacet
facet normal 0 0 -1
outer loop
vertex -1.04528 -5 0
vertex -1.04528 -9.94522 0
vertex -2.09642 -5 0
endloop
endfacet
facet normal 0 0 -1
outer loop
vertex -5 -8.66025 0
vertex -5 -5 0
vertex -2.09642 -5 0
endloop
endfacet
facet normal 0 0 -1
outer loop
vertex -5 -8.66025 0
vertex -2.09642 -5 0
vertex -1.04528 -9.94522 0
endloop
endfacet
facet normal 0 0 -1
outer loop
vertex -5 -5 0
vertex -5 -8.66025 0
vertex -5.77801 -5 0
endloop
endfacet
facet normal 0 0 -1
outer loop
vertex -8.09017 -5.87785 0
vertex -8.09017 -5 0
vertex -5.77801 -5 0
endloop
endfacet
facet normal 0 0 -1
outer loop
vertex -8.09017 -5.87785 0
vertex -5.77801 -5 0
vertex -5 -8.66025 0
endloop
endfacet
facet normal 0 0 -1
outer loop
vertex -8.09017 -5 0
vertex -8.09017 -5.87785 0
vertex -8.27676 -5 0
endloop
endfacet
facet normal 0 0 -1
outer loop
vertex -8.27676 -5 0
vertex -8.09017 -5.87785 0
vertex -8.48102 -5 0
endloop
endfacet
facet normal 0 0 -1
outer loop
vertex 5 0.52552 0
vertex 3.09017 9.51057 0
vertex 5 8.40792 0
endloop
endfacet
facet normal 0 0 -1
outer loop
vertex 3.09017 9.51057 0
vertex 5 0.52552 0
vertex 5 -5 0
endloop
endfacet
facet normal 0 0 -1
outer loop
vertex 3.09017 9.51057 0
vertex 5 -5 0
vertex 3.09017 -5 0
endloop
endfacet
facet normal 0 0 -1
outer loop
vertex 2.13142 -5 0
vertex -1.04528 9.94522 0
vertex 3.09017 9.51057 0
endloop
endfacet
facet normal 0 0 -1
outer loop
vertex 2.13142 -5 0
vertex 3.09017 9.51057 0
vertex 3.09017 -5 0
endloop
endfacet
facet normal 0 0 -1
outer loop
vertex -1.04528 9.94522 0
vertex 2.13142 -5 0
vertex -1.04528 -5 0
endloop
endfacet
facet normal 0 0 -1
outer loop
vertex -2.09642 -5 0
vertex -5 8.66025 0
vertex -1.04528 9.94522 0
endloop
endfacet
facet normal 0 0 -1
outer loop
vertex -2.09642 -5 0
vertex -1.04528 9.94522 0
vertex -1.04528 -5 0
endloop
endfacet
facet normal 0 0 -1
outer loop
vertex -5 8.66025 0
vertex -2.09642 -5 0
vertex -5 -5 0
endloop
endfacet
facet normal 0 0 -1
outer loop
vertex -5.77801 -5 0
vertex -8.09017 5.87785 0
vertex -5 8.66025 0
endloop
endfacet
facet normal 0 0 -1
outer loop
vertex -5.77801 -5 0
vertex -5 8.66025 0
vertex -5 -5 0
endloop
endfacet
facet normal 0 0 -1
outer loop
vertex -8.09017 5.87785 0
vertex -5.77801 -5 0
vertex -8.09017 -5 0
endloop
endfacet
facet normal 0 0 -1
outer loop
vertex -8.27676 -5 0
vertex -9.78148 2.07912 0
vertex -8.09017 5.87785 0
endloop
endfacet
facet normal 0 0 -1
outer loop
vertex -8.27676 -5 0
vertex -8.09017 5.87785 0
vertex -8.09017 -5 0
endloop
endfacet
facet normal 0 0 -1
outer loop
vertex -8.27676 -5 0
vertex -8.48102 -5 0
vertex -9.78148 -2.07912 0
endloop
endfacet
facet normal 0 0 -1
outer loop
vertex -8.27676 -5 0
vertex -9.78148 -2.07912 0
vertex -9.78148 2.07912 0
endloop
endfacet
facet normal 0 0 -1
outer loop
vertex 6.69131 5 0
vertex 6.69131 7.43145 0
vertex 8.45786 5 0
endloop
endfacet
facet normal 0 0 -1
outer loop
vertex 5 5 0
vertex 5 8.40792 0
vertex 6.69131 7.43145 0
endloop
endfacet
facet normal 0 0 -1
outer loop
vertex 5 5 0
vertex 6.69131 7.43145 0
vertex 6.69131 5 0
endloop
endfacet
facet normal 0 0 -1
outer loop
vertex 10 0 0
vertex 9.13545 -4.06737 0
vertex 9.13545 4.06737 0
endloop
endfacet
facet normal 0 0 -1
outer loop
vertex 8.45786 -5 0
vertex 7.20813 -5 0
vertex 9.13545 4.06737 0
endloop
endfacet
facet normal 0 0 -1
outer loop
vertex 8.45786 -5 0
vertex 9.13545 4.06737 0
vertex 9.13545 -4.06737 0
endloop
endfacet
facet normal 0 0 -1
outer loop
vertex 6.69131 -5 0
vertex 6.69131 5 0
vertex 8.45786 5 0
endloop
endfacet
facet normal 0 0 -1
outer loop
vertex 6.69131 -5 0
vertex 8.45786 5 0
vertex 9.13545 4.06737 0
endloop
endfacet
facet normal 0 0 -1
outer loop
vertex 6.69131 -5 0
vertex 9.13545 4.06737 0
vertex 7.20813 -5 0
endloop
endfacet
facet normal 0 0 -1
outer loop
vertex 5 0.52552 0
vertex 5 5 0
vertex 6.69131 5 0
endloop
endfacet
facet normal 0 0 -1
outer loop
vertex 5 0.52552 0
vertex 6.69131 5 0
vertex 6.69131 -5 0
endloop
endfacet
facet normal 0 0 -1
outer loop
vertex 5 0.52552 0
vertex 6.69131 -5 0
vertex 6.17449 -5 0
endloop
endfacet
facet normal 0 0 -1
outer loop
vertex 6.17449 -5 0
vertex 5 -5 0
vertex 5 0.52552 0
endloop
endfacet
facet normal 0 0 1
outer loop
vertex 7.20813 -5 5
vertex 6.69131 -7.43145 5
vertex 8.45786 -5 5
endloop
endfacet
facet normal 0 0 1
outer loop
vertex 6.69131 -5 5
vertex 6.69131 -7.43145 5
vertex 7.20813 -5 5
endloop
endfacet
facet normal 0 0 1
outer loop
vertex 6.17449 -5 5
vertex 6.69131 -7.43145 5
vertex 6.69131 -5 5
endloop
endfacet
facet normal 0 0 1
outer loop
vertex 3.09017 -5 5
vertex 3.09017 -9.51057 5
vertex 6.69131 -7.43145 5
endloop
endfacet
facet normal 0 0 1
outer loop
vertex 3.09017 -5 5
vertex 6.69131 -7.43145 5
vertex 6.17449 -5 5
endloop
endfacet
facet normal 0 0 1
outer loop
vertex 2.13142 -5 5
vertex 3.09017 -9.51057 5
vertex 3.09017 -5 5
endloop
endfacet
facet normal 0 0 1
outer loop
vertex -1.04528 -5 5
vertex -1.04528 -9.94522 5
vertex 3.09017 -9.51057 5
endloop
endfacet
facet normal 0 0 1
outer loop
vertex -1.04528 -5 5
vertex 3.09017 -9.51057 5
vertex 2.13142 -5 5
endloop
endfacet
facet normal 0 0 1
outer loop
vertex -2.09642 -5 5
vertex -1.04528 -9.94522 5
vertex -1.04528 -5 5
endloop
endfacet
facet normal 0 0 1
outer loop
vertex -5 -5 5
vertex -5 -8.66025 5
vertex -1.04528 -9.94522 5
endloop
endfacet
facet normal 0 0 1
outer loop
vertex -5 -5 5
vertex -1.04528 -9.94522 5
vertex -2.09642 -5 5
endloop
endfacet
facet normal 0 0 1
outer loop
vertex -5.77801 -5 5
vertex -5 -8.66025 5
vertex -5 -5 5
endloop
endfacet
facet normal 0 0 1
outer loop
vertex -8.09017 -5 5
vertex -8.09017 -5.87785 5
vertex -5 -8.66025 5
endloop
endfacet
facet normal 0 0 1
outer loop
vertex -8.09017 -5 5
vertex -5 -8.66025 5
vertex -5.77801 -5 5
endloop
endfacet
facet normal 0 0 1
outer loop
vertex -8.27676 -5 5
vertex -8.09017 -5.87785 5
vertex -8.09017 -5 5
endloop
endfacet
facet normal 0 0 1
outer loop
vertex -8.27676 -5 5
vertex -8.48102 -5 5
vertex -8.09017 -5.87785 5
endloop
endfacet
facet normal 0 0 1
outer loop
vertex 5 8.40792 5
vertex 3.09017 9.51057 5
vertex 5 0.52552 5
endloop
endfacet
facet normal 0 0 1
outer loop
vertex 5 -5 5
vertex 5 0.52552 5
vertex 3.09017 9.51057 5
endloop
endfacet
facet normal 0 0 1
outer loop
vertex 5 -5 5
vertex 3.09017 9.51057 5
vertex 3.09017 -5 5
endloop
endfacet
facet normal 0 0 1
outer loop
vertex 3.09017 -5 5
vertex 3.09017 9.51057 5
vertex -1.04528 9.94522 5
endloop
endfacet
facet normal 0 0 1
outer loop
vertex 3.09017 -5 5
vertex -1.04528 9.94522 5
vertex 2.13142 -5 5
endloop
endfacet
facet normal 0 0 1
outer loop
vertex 2.13142 -5 5
vertex -1.04528 9.94522 5
vertex -1.04528 -5 5
endloop
endfacet
facet normal 0 0 1
outer loop
vertex -1.04528 -5 5
vertex -1.04528 9.94522 5
vertex -5 8.66025 5
endloop
endfacet
facet normal 0 0 1
outer loop
vertex -1.04528 -5 5
vertex -5 8.66025 5
vertex -2.09642 -5 5
endloop
endfacet
facet normal 0 0 1
outer loop
vertex -2.09642 -5 5
vertex -5 8.66025 5
vertex -5 -5 5
endloop
endfacet
facet normal 0 0 1
outer loop
vertex -5 -5 5
vertex -5 8.66025 5
vertex -8.09017 5.87785 5
endloop
endfacet
facet normal 0 0 1
outer loop
vertex -5 -5 5
vertex -8.09017 5.87785 5
vertex -5.77801 -5 5
endloop
endfacet
facet normal 0 0 1
outer loop
vertex -5.77801 -5 5
vertex -8.09017 5.87785 5
vertex -8.09017 -5 5
endloop
endfacet
facet normal 0 0 1
outer loop
vertex -8.09017 -5 5
vertex -8.09017 5.87785 5
vertex -9.78148 2.07912 5
endloop
endfacet
facet normal 0 0 1
outer loop
vertex -8.09017 -5 5
vertex -9.78148 2.07912 5
vertex -8.27676 -5 5
endloop
endfacet
facet normal 0 0 1
outer loop
vertex -9.78148 2.07912 5
vertex -9.78148 -2.07912 5
vertex -8.48102 -5 5
endloop
endfacet
facet normal 0 0 1
outer loop
vertex -9.78148 2.07912 5
vertex -8.48102 -5 5
vertex -8.27676 -5 5
endloop
endfacet
facet normal 0 0 1
outer loop
vertex 8.45786 5 5
vertex 6.69131 7.43145 5
vertex 6.69131 5 5
endloop
endfacet
facet normal 0 0 1
outer loop
vertex 6.69131 5 5
vertex 6.69131 7.43145 5
vertex 5 8.40792 5
endloop
endfacet
facet normal 0 0 1
outer loop
vertex 6.69131 5 5
vertex 5 8.40792 5
vertex 5 5 5
endloop
endfacet
facet normal 0 0 1
outer loop
vertex 9.13545 4.06737 5
vertex 9.13545 -4.06737 5
vertex 10 0 5
endloop
endfacet
facet normal 0 0 1
outer loop
vertex 7.20813 -5 5
vertex 8.45786 -5 5
vertex 9.13545 -4.06737 5
endloop
endfacet
facet normal 0 0 1
outer loop
vertex 7.20813 -5 5
vertex 9.13545 -4.06737 5
vertex 9.13545 4.06737 5
endloop
endfacet
facet normal 0 0 1
outer loop
vertex 7.20813 -5 5
vertex 9.13545 4.06737 5
vertex 8.45786 5 5
endloop
endfacet
facet normal 0 0 1
outer loop
vertex 7.20813 -5 5
vertex 8.45786 5 5
vertex 6.69131 5 5
endloop
endfacet
facet normal 0 0 1
outer loop
vertex 7.20813 -5 5
vertex 6.69131 5 5
vertex 6.69131 -5 5
endloop
endfacet
facet normal 0 0 1
outer loop
vertex 6.69131 5 5
vertex 5 5 5
vertex 5 0.52552 5
endloop
endfacet
facet normal 0 0 1
outer loop
vertex 6.69131 5 5
vertex 5 0.52552 5
vertex 6.17449 -5 5
endloop
endfacet
facet normal 0 0 1
outer loop
vertex 6.69131 5 5
vertex 6.17449 -5 5
vertex 6.69131 -5 5
endloop
endfacet
facet normal 0 0 1
outer loop
vertex 6.17449 -5 5
vertex 5 0.52552 5
vertex 5 -5 5
endloop
endfacet
facet normal 0.10452767601738049 -0.9945219781112961 0
outer loop
vertex 3.09017 -9.51057 0
vertex 3.09017 -9.51057 5
vertex -1.04528 -9.94522 0
endloop
endfacet
facet normal 0.10452767601738049 -0.9945219781112961 0
outer loop
vertex -1.04528 -9.94522 0
vertex 3.09017 -9.51057 5
vertex -1.04528 -9.94522 5
endloop
endfacet
facet normal -0.9135448825085871 0.40673793484548737 0
outer loop
vertex -9.78148 2.07912 0
vertex -9.78148 2.07912 5
vertex -8.09017 5.87785 0
endloop
endfacet
facet normal -0.9135448825085871 0.40673793484548737 0
outer loop
vertex -8.09017 5.87785 0
vertex -9.78148 2.07912 5
vertex -8.09017 5.87785 5
endloop
endfacet
facet normal -0.9135431380856982 -0.40674185284592357 0
outer loop
vertex -8.09017 -5.87785 5
vertex -8.48102 -5 3.84455
vertex -8.48102 -5 0
endloop
endfacet
facet normal -0.9135431380856981 -0.40674185284592357 0
outer loop
vertex -8.09017 -5.87785 5
vertex -8.48102 -5 0
vertex -8.09017 -5.87785 0
endloop
endfacet
facet normal -0.9135431380856982 -0.40674185284592357 0
outer loop
vertex -8.48102 -5 3.84455
vertex -8.09017 -5.87785 5
vertex -8.48102 -5 5
endloop
endfacet
facet normal -0.9135454067806706 -0.4067367573135466 0
outer loop
vertex -8.48102 -5 3.84455
vertex -9.78148 -2.07912 0
vertex -8.48102 -5 0
endloop
endfacet
facet normal -0.9135454067806708 -0.40673675731354664 0
outer loop
vertex -8.48102 -5 3.84455
vertex -8.48102 -5 5
vertex -9.78148 -2.07912 5
endloop
endfacet
facet normal -0.9135454067806708 -0.40673675731354664 0
outer loop
vertex -8.48102 -5 3.84455
vertex -9.78148 -2.07912 5
vertex -9.78148 -2.07912 0
endloop
endfacet
facet normal -0.6691303984322531 0.7431450126952976 0
outer loop
vertex -8.09017 5.87785 0
vertex -8.09017 5.87785 5
vertex -5 8.66025 0
endloop
endfacet
facet normal -0.6691303984322531 0.7431450126952976 0
outer loop
vertex -5 8.66025 0
vertex -8.09017 5.87785 5
vertex -5 8.66025 5
endloop
endfacet
facet normal -0.30901777286721216 0.9510562633473312 0
outer loop
vertex -5 8.66025 0
vertex -5 8.66025 5
vertex -1.04528 9.94522 0
endloop
endfacet
facet normal -0.30901777286721216 0.9510562633473312 0
outer loop
vertex -1.04528 9.94522 0
vertex -5 8.66025 5
vertex -1.04528 9.94522 5
endloop
endfacet
facet normal 0.8090172838778689 0.58778485382568 0
outer loop
vertex 6.69131 7.43145 5
vertex 8.45786 5 1.38616
vertex 8.45786 5 0
endloop
endfacet
facet normal 0.8090172838778688 0.5877848538256799 0
outer loop
vertex 6.69131 7.43145 5
vertex 8.45786 5 0
vertex 6.69131 7.43145 0
endloop
endfacet
facet normal 0.8090172838778688 0.58778485382568 0
outer loop
vertex 8.45786 5 1.38616
vertex 6.69131 7.43145 5
vertex 8.45786 5 5
endloop
endfacet
facet normal 0.8090192045096504 0.5877822102909991 0
outer loop
vertex 8.45786 5 1.38616
vertex 9.13545 4.06737 0
vertex 8.45786 5 0
endloop
endfacet
facet normal 0.8090192045096505 0.5877822102909992 0
outer loop
vertex 8.45786 5 1.38616
vertex 8.45786 5 5
vertex 9.13545 4.06737 5
endloop
endfacet
facet normal 0.8090192045096506 0.5877822102909992 0
outer loop
vertex 8.45786 5 1.38616
vertex 9.13545 4.06737 5
vertex 9.13545 4.06737 0
endloop
endfacet
facet normal 0.8090172838778688 -0.5877848538256799 0
outer loop
vertex 8.45786 -5 3.61384
vertex 6.69131 -7.43145 0
vertex 8.45786 -5 0
endloop
endfacet
facet normal 0.8090172838778688 -0.58778485382568 0
outer loop
vertex 8.45786 -5 3.61384
vertex 8.45786 -5 5
vertex 6.69131 -7.43145 5
endloop
endfacet
facet normal 0.8090172838778688 -0.5877848538256799 0
outer loop
vertex 8.45786 -5 3.61384
vertex 6.69131 -7.43145 5
vertex 6.69131 -7.43145 0
endloop
endfacet
facet normal 0.8090192045096504 -0.5877822102909991 0
outer loop
vertex 9.13545 -4.06737 5
vertex 8.45786 -5 3.61384
vertex 8.45786 -5 0
endloop
endfacet
facet normal 0.8090192045096504 -0.5877822102909992 0
outer loop
vertex 9.13545 -4.06737 5
vertex 8.45786 -5 0
vertex 9.13545 -4.06737 0
endloop
endfacet
facet normal 0.8090192045096505 -0.5877822102909992 0
outer loop
vertex 8.45786 -5 3.61384
vertex 9.13545 -4.06737 5
vertex 8.45786 -5 5
endloop
endfacet
facet normal 0.10452767601738049 0.9945219781112961 0
outer loop
vertex -1.04528 9.94522 0
vertex -1.04528 9.94522 5
vertex 3.09017 9.51057 0
endloop
endfacet
facet normal 0.10452767601738049 0.9945219781112961 0
outer loop
vertex 3.09017 9.51057 0
vertex -1.04528 9.94522 5
vertex 3.09017 9.51057 5
endloop
endfacet
facet normal 0.9781474140169616 -0.2079125692495061 0
outer loop
vertex 10 0 0
vertex 10 0 5
vertex 9.13545 -4.06737 0
endloop
endfacet
facet normal 0.9781474140169616 -0.2079125692495061 0
outer loop
vertex 9.13545 -4.06737 0
vertex 10 0 5
vertex 9.13545 -4.06737 5
endloop
endfacet
facet normal -0.6691303984322531 -0.7431450126952976 0
outer loop
vertex -5 -8.66025 0
vertex -5 -8.66025 5
vertex -8.09017 -5.87785 0
endloop
endfacet
facet normal -0.6691303984322531 -0.7431450126952976 0
outer loop
vertex -8.09017 -5.87785 0
vertex -5 -8.66025 5
vertex -8.09017 -5.87785 5
endloop
endfacet
facet normal -1 0 0
outer loop
vertex -9.78148 -2.07912 0
vertex -9.78148 -2.07912 5
vertex -9.78148 2.07912 0
endloop
endfacet
facet normal -1 0 0
outer loop
vertex -9.78148 2.07912 0
vertex -9.78148 -2.07912 5
vertex -9.78148 2.07912 5
endloop
endfacet
facet normal 0.5000001536005658 -0.8660253151030924 0
outer loop
vertex 6.69131 -7.43145 0
vertex 6.69131 -7.43145 5
vertex 3.09017 -9.51057 0
endloop
endfacet
facet normal 0.5000001536005658 -0.8660253151030924 0
outer loop
vertex 3.09017 -9.51057 0
vertex 6.69131 -7.43145 5
vertex 3.09017 -9.51057 5
endloop
endfacet
facet normal 0.500003106870113 0.866023610024712 0
outer loop
vertex 3.09017 9.51057 5
vertex 5 8.40792 2.3483
vertex 5 8.40792 0
endloop
endfacet
facet normal 0.500003106870113 0.8660236100247121 0
outer loop
vertex 3.09017 9.51057 5
vertex 5 8.40792 0
vertex 3.09017 9.51057 0
endloop
endfacet
facet normal 0.5000031068701128 0.866023610024712 0
outer loop
vertex 5 8.40792 2.3483
vertex 3.09017 9.51057 5
vertex 5 8.40792 5
endloop
endfacet
facet normal 0.49999681874282487 0.8660272404763344 0
outer loop
vertex 5 8.40792 2.3483
vertex 6.69131 7.43145 0
vertex 5 8.40792 0
endloop
endfacet
facet normal 0.49999681874282487 0.8660272404763344 0
outer loop
vertex 5 8.40792 2.3483
vertex 5 8.40792 5
vertex 6.69131 7.43145 5
endloop
endfacet
facet normal 0.4999968187428249 0.8660272404763344 0
outer loop
vertex 5 8.40792 2.3483
vertex 6.69131 7.43145 5
vertex 6.69131 7.43145 0
endloop
endfacet
facet normal 0.9781474140169616 0.2079125692495061 0
outer loop
vertex 9.13545 4.06737 0
vertex 9.13545 4.06737 5
vertex 10 0 0
endloop
endfacet
facet normal 0.9781474140169616 0.2079125692495061 0
outer loop
vertex 10 0 0
vertex 9.13545 4.06737 5
vertex 10 0 5
endloop
endfacet
facet normal -0.30901777286721216 -0.9510562633473312 0
outer loop
vertex -1.04528 -9.94522 0
vertex -1.04528 -9.94522 5
vertex -5 -8.66025 0
endloop
endfacet
facet normal -0.30901777286721216 -0.9510562633473312 0
outer loop
vertex -5 -8.66025 0
vertex -1.04528 -9.94522 5
vertex -5 -8.66025 5
endloop
endfacet
endsolid JSxCAD
