<svg viewBox="-250 -250 500 500" width="500" height="500" xmlns="http://www.w3.org/2000/svg"><path d="M93.66091443979455,-57.33367339707896L-26.627373037603267,-43.840737548695174L-38.01710966137983,-39.3796781477812zM93.66091443979455,-57.33367339707896L-38.01710966137983,-39.3796781477812L-49.27949540100404,-34.55777102729169zM93.66091443979455,-57.33367339707896L-15.189020615938528,-47.90953901882401L-26.627373037603267,-43.840737548695174zM93.66091443979455,-57.33367339707896L-49.27949540100404,-34.55777102729169L-60.33616314614663,-29.40783392836454zM93.66091443979455,-57.33367339707896L-3.7816005402012833,-51.555594155284794L-15.189020615938528,-47.90953901882401zM93.66091443979455,-57.33367339707896L-60.33616314614663,-29.40783392836454L-71.10860963982297,-23.964129605899313zM93.66091443979455,-57.33367339707896L7.513955061961946,-54.749860963517094L-3.7816005402012833,-51.555594155284794zM93.66091443979455,-57.33367339707896L-71.10860963982297,-23.964129605899313L-81.51865962150868,-18.26264443864377zM93.66091443979455,-57.33367339707896L18.615896673892593,-57.46434633708448L7.513955061961946,-54.749860963517094zM93.66091443979455,-57.33367339707896L-81.51865962150868,-18.26264443864377L-91.48740356715824,-12.34101901515963zM93.66091443979455,-57.33367339707896L29.440333351032354,-59.67225165145342L18.615896673892593,-57.46434633708448zM93.66091443979455,-57.33367339707896L-91.48740356715824,-12.34101901515963L-100.93560090161166,-6.2394081300873605zM93.66091443979455,-57.33367339707896L39.90174452843412,-61.34797713116664L29.440333351032354,-59.67225165145342zM93.66091443979455,-57.33367339707896L-100.93560090161166,-6.2394081300873605L-109.78318920141987,0zM93.66091443979455,-57.33367339707896L49.91284880756301,-62.4679007083567L39.90174452843412,-61.34797713116664zM93.66091443979455,-57.33367339707896L-109.78318920141987,0L-117.95010281447291,6.332347015331747zM93.66091443979455,-57.33367339707896L59.38438285463746,-63.010098789323855L49.91284880756301,-62.4679007083567zM93.66091443979455,-57.33367339707896L-117.95010281447291,6.332347015331747L-125.35580919880088,12.709986249102649zM93.66091443979455,-57.33367339707896L68.22547293300079,-62.95503662959151L59.38438285463746,-63.010098789323855zM93.66091443979455,-57.33367339707896L-125.35580919880088,12.709986249102649L-131.91987324348682,19.08240192035953zM93.66091443979455,-57.33367339707896L76.34389746016251,-62.28612904929007L68.22547293300079,-62.95503662959151zM93.66091443979455,-57.33367339707896L-131.91987324348682,19.08240192035953L-137.56305029044933,25.39569630536059zM93.66091443979455,-57.33367339707896L83.64721018543145,-60.989997418506725L76.34389746016251,-62.28612904929007zM93.66091443979455,-57.33367339707896L-137.56305029044933,25.39569630536059L-142.20761127505557,31.59331722959094zM93.66091443979455,-57.33367339707896L90.04283575542628,-59.05789880415166L83.64721018543145,-60.989997418506725zM93.66091443979455,-57.33367339707896L-142.20761127505557,31.59331722959094L-145.77875966623492,37.615524473746625zM93.66091443979455,-57.33367339707896L-145.77875966623492,37.615524473746625L-148.20592545636325,43.39990518582857zM93.66091443979455,-57.33367339707896L-148.20592545636325,43.39990518582857L-149.4244222142738,48.881705320636044zM93.66091443979455,-57.33367339707896L-149.4244222142738,48.881705320636044L-149.37714748215714,53.99454264798757zM104.70739137673426,-35.317419853695895L95.4398753902348,-56.48591601077248L93.66091443979455,-57.33367339707896zM93.66091443979455,-57.33367339707896L-149.37714748215714,53.99454264798757L-148.01711731822402,58.67079960026557zM104.70739137673426,-35.317419853695895L99.75020232427998,-53.275961645928255L95.4398753902348,-56.48591601077248z" style="fill:rgb(82,237,172)"/><path d="M126.2406167599897,14.484512124745725L104.78379584189398,-44.98459200304955L127.06734743978454,20.13237989110547z" style="fill:rgb(246,166,151)"/><path d="M104.70739137673426,-35.317419853695895L93.66091443979455,-57.33367339707896L65.91878104560993,-34.122066512764555zM93.66091443979455,-57.33367339707896L-148.01711731822402,58.67079960026557L-145.30925470882732,62.84326448547151z" style="fill:rgb(82,237,172)"/><path d="M-117.762985411862,120.5961685617667L-145.30925470882732,62.84326448547151L-120.74011914382486,115.82456943320965z" style="fill:rgb(15,71,152)"/><path d="M104.70739137673426,-35.317419853695895L102.89046510006672,-49.436643182945076L99.75020232427998,-53.275961645928255z" style="fill:rgb(82,237,172)"/><path d="M-120.74011914382486,115.82456943320965L-145.30925470882732,62.84326448547151L-148.01711731822402,58.67079960026557z" style="fill:rgb(15,71,152)"/><path d="M93.66091443979455,-57.33367339707896L-145.30925470882732,62.84326448547151L-141.23327158091948,66.44600930718812z" style="fill:rgb(82,237,172)"/><path d="M105.36260836958581,-39.944707855175054L126.64345812730224,25.248673084232042L127.06734743978454,20.13237989110547z" style="fill:rgb(245,161,162)"/><path d="M127.06734743978454,20.13237989110547L104.78379584189398,-44.98459200304955L105.36260836958581,-39.944707855175054z" style="fill:rgb(246,166,151)"/><path d="M122.96597313583784,15.09530720768115L126.55489266544647,26.316514647906676L126.64345812730224,25.248673084232042z" style="fill:rgb(245,161,162)"/><path d="M104.70739137673426,-35.317419853695895L104.78379584189398,-44.98459200304955L102.89046510006672,-49.436643182945076z" style="fill:rgb(82,237,172)"/><path d="M105.36260836958581,-39.944707855175054L122.96597313583784,15.09530720768115L126.64345812730224,25.248673084232042z" style="fill:rgb(245,161,162)"/><path d="M-113.45222812126934,124.80721301159879L-141.23327158091948,66.44600930718812L-117.762985411862,120.5961685617667z" style="fill:rgb(20,68,163)"/><path d="M93.66091443979455,-57.33367339707896L-141.23327158091948,66.44600930718812L-135.78586684054517,69.41587192977461z" style="fill:rgb(82,237,172)"/><path d="M122.96597313583784,15.09530720768115L104.57056026059144,-34.35136594250308L126.55489266544647,26.316514647906676z" style="fill:rgb(245,161,162)"/><path d="M-117.762985411862,120.5961685617667L-141.23327158091948,66.44600930718812L-145.30925470882732,62.84326448547151z" style="fill:rgb(20,68,163)"/><path d="M104.70739137673426,-35.317419853695895L105.36260836958581,-39.944707855175054L104.78379584189398,-44.98459200304955z" style="fill:rgb(82,237,172)"/><path d="M122.96597313583784,15.09530720768115L105.36260836958581,-39.944707855175054L104.70739137673426,-35.317419853695895z" style="fill:rgb(245,161,162)"/><path d="M126.55489266544647,26.316514647906676L104.57056026059144,-34.35136594250308L124.66032699261525,32.984928220150444z" style="fill:rgb(242,155,174)"/><path d="M93.66091443979455,-57.33367339707896L-135.78586684054517,69.41587192977461L-128.98268598507073,71.69397091451907z" style="fill:rgb(82,237,172)"/><path d="M122.96597313583784,15.09530720768115L104.70739137673426,-35.317419853695895L104.57056026059144,-34.35136594250308z" style="fill:rgb(245,161,162)"/><path d="M-107.80965799916098,128.38830586006077L-135.78586684054517,69.41587192977461L-113.45222812126934,124.80721301159879z" style="fill:rgb(26,66,175)"/><path d="M98.72415445645049,-21.6922041412812L104.70739137673426,-35.317419853695895L65.91878104560993,-34.122066512764555z" style="fill:rgb(82,237,172)"/><path d="M-113.45222812126934,124.80721301159879L-135.78586684054517,69.41587192977461L-141.23327158091948,66.44600930718812z" style="fill:rgb(26,66,175)"/><path d="M93.66091443979455,-57.33367339707896L-128.98268598507073,71.69397091451907L-120.86136216510003,73.22821574003365z" style="fill:rgb(82,237,172)"/><path d="M124.66032699261525,32.984928220150444L102.36605515274007,-28.248918970634378L121.35736004375634,40.074943048127366z" style="fill:rgb(239,149,184)"/><path d="M124.66032699261525,32.984928220150444L104.57056026059144,-34.35136594250308L102.36605515274007,-28.248918970634378z" style="fill:rgb(242,155,174)"/><path d="M-100.85563920713408,131.27447088416835L-128.98268598507073,71.69397091451907L-107.80965799916098,128.38830586006077z" style="fill:rgb(32,65,185)"/><path d="M93.66091443979455,-57.33367339707896L-120.86136216510003,73.22821574003365L-111.48187635164876,73.97440794872024zM98.72415445645049,-21.6922041412812L104.57056026059144,-34.35136594250308L104.70739137673426,-35.317419853695895z" style="fill:rgb(82,237,172)"/><path d="M-107.80965799916098,128.38830586006077L-128.98268598507073,71.69397091451907L-135.78586684054517,69.41587192977461z" style="fill:rgb(32,65,185)"/><path d="M121.35736004375634,40.074943048127366L98.72415445645049,-21.6922041412812L116.63877961620145,47.51356633283944z" style="fill:rgb(234,143,195)"/><path d="M121.35736004375634,40.074943048127366L102.36605515274007,-28.248918970634378L98.72415445645049,-21.6922041412812z" style="fill:rgb(239,149,184)"/><path d="M98.72415445645049,-21.6922041412812L102.36605515274007,-28.248918970634378L104.57056026059144,-34.35136594250308zM98.72415445645049,-21.6922041412812L65.91878104560993,-34.122066512764555L-19.204382907291656,37.09988065511081zM93.66091443979455,-57.33367339707896L-111.48187635164876,73.97440794872024L-100.92870300249254,73.89852974089546z" style="fill:rgb(82,237,172)"/><path d="M-92.63191723530811,133.4062158064337L-120.86136216510003,73.22821574003365L-100.85563920713408,131.27447088416835z" style="fill:rgb(40,64,196)"/><path d="M93.66091443979455,-57.33367339707896L-100.92870300249254,73.89852974089546L-89.31038096873088,72.9785295027326z" style="fill:rgb(82,237,172)"/><path d="M-100.85563920713408,131.27447088416835L-120.86136216510003,73.22821574003365L-128.98268598507073,71.69397091451907z" style="fill:rgb(40,64,196)"/><path d="M116.63877961620145,47.51356633283944L93.63979882415299,-14.746335758079576L110.51863901675098,55.21788260592814z" style="fill:rgb(228,137,204)"/><path d="M116.63877961620145,47.51356633283944L98.72415445645049,-21.6922041412812L93.63979882415299,-14.746335758079576z" style="fill:rgb(234,143,195)"/><path d="M93.66091443979455,-57.33367339707896L-89.31038096873088,72.9785295027326L-76.75953732394736,71.2055498806409z" style="fill:rgb(82,237,172)"/><path d="M-83.20191691694001,134.73225206890592L-111.48187635164876,73.97440794872024L-92.63191723530811,133.4062158064337z" style="fill:rgb(49,63,205)"/><path d="M93.66091443979455,-57.33367339707896L-76.75953732394736,71.2055498806409L-63.43092405806944,68.58592178669309z" style="fill:rgb(82,237,172)"/><path d="M-92.63191723530811,133.4062158064337L-111.48187635164876,73.97440794872024L-120.86136216510003,73.22821574003365z" style="fill:rgb(49,63,205)"/><path d="M110.51863901675098,55.21788260592814L87.1299586910552,-7.487207105251261L103.03416191153616,63.0953043303618z" style="fill:rgb(221,130,213)"/><path d="M93.66091443979455,-57.33367339707896L-63.43092405806944,68.58592178669309L-54.06950073624594,66.2713634681617z" style="fill:rgb(82,237,172)"/><path d="M110.51863901675098,55.21788260592814L93.63979882415299,-14.746335758079576L87.1299586910552,-7.487207105251261z" style="fill:rgb(228,137,204)"/><path d="M98.72415445645049,-21.6922041412812L87.1299586910552,-7.487207105251261L93.63979882415299,-14.746335758079576z" style="fill:rgb(82,237,172)"/><path d="M-72.65262382063044,135.21116069334062L-100.92870300249254,73.89852974089546L-83.20191691694001,134.73225206890592z" style="fill:rgb(58,64,214)"/><path d="M103.03416191153616,63.0953043303618L79.23558016319609,0L94.24739155180089,71.04584421353547z" style="fill:rgb(213,124,221)"/><path d="M-83.20191691694001,134.73225206890592L-100.92870300249254,73.89852974089546L-111.48187635164876,73.97440794872024z" style="fill:rgb(58,64,214)"/><path d="M98.72415445645049,-21.6922041412812L79.23558016319609,0L87.1299586910552,-7.487207105251261z" style="fill:rgb(82,237,172)"/><path d="M103.03416191153616,63.0953043303618L87.1299586910552,-7.487207105251261L79.23558016319609,0z" style="fill:rgb(221,130,213)"/><path d="M-61.09416972535133,134.81318412273225L-89.31038096873088,72.9785295027326L-72.65262382063044,135.21116069334062z" style="fill:rgb(69,65,222)"/><path d="M98.72415445645049,-21.6922041412812L70.02323396068773,7.621437103437246L79.23558016319609,0z" style="fill:rgb(82,237,172)"/><path d="M94.24739155180089,71.04584421353547L70.02323396068773,7.621437103437246L84.24571135965465,78.96321302931868z" style="fill:rgb(204,117,228)"/><path d="M-72.65262382063044,135.21116069334062L-89.31038096873088,72.9785295027326L-100.92870300249254,73.89852974089546z" style="fill:rgb(69,65,222)"/><path d="M156.42475582902424,-105.43855075434014L42.782078183473786,-95.43452407516052L-46.612135873829004,-27.860929300445434z" style="fill:rgb(82,237,172)"/><path d="M-48.65909533761672,133.52249107923842L-76.75953732394736,71.2055498806409L-61.09416972535133,134.81318412273225z" style="fill:rgb(79,66,228)"/><path d="M94.24739155180089,71.04584421353547L79.23558016319609,0L70.02323396068773,7.621437103437246z" style="fill:rgb(213,124,221)"/><path d="M98.72415445645049,-21.6922041412812L59.585634076826324,15.276231315337382L70.02323396068773,7.621437103437246zM98.72415445645049,-21.6922041412812L-19.204382907291656,37.09988065511081L19.846426797729123,38.517306842317545z" style="fill:rgb(82,237,172)"/><path d="M84.24571135965465,78.96321302931868L59.585634076826324,15.276231315337382L73.14107848016238,86.73707437078103z" style="fill:rgb(195,111,234)"/><path d="M98.72415445645049,-21.6922041412812L48.04087489378099,22.858585562496277L59.585634076826324,15.276231315337382z" style="fill:rgb(82,237,172)"/><path d="M-61.09416972535133,134.81318412273225L-76.75953732394736,71.2055498806409L-89.31038096873088,72.9785295027326z" style="fill:rgb(79,66,228)"/><path d="M-35.501084403767884,131.33769937886424L-63.43092405806944,68.58592178669309L-48.65909533761672,133.52249107923842z" style="fill:rgb(91,68,234)"/><path d="M-44.82719078494994,87.2338729234489L-35.501084403767884,131.33769937886424L-26.289520249674922,129.27889509549146z" style="fill:rgb(102,71,239)"/><path d="M84.24571135965465,78.96321302931868L70.02323396068773,7.621437103437246L59.585634076826324,15.276231315337382z" style="fill:rgb(204,117,228)"/><path d="M98.72415445645049,-21.6922041412812L35.531744593838724,30.259653464798568L48.04087489378099,22.858585562496277z" style="fill:rgb(82,237,172)"/><path d="M73.14107848016238,86.73707437078103L48.04087489378099,22.858585562496277L61.069593604583915,94.2558440126988z" style="fill:rgb(184,105,239)"/><path d="M98.72415445645049,-21.6922041412812L22.22296944384933,37.37110332531493L35.531744593838724,30.259653464798568z" style="fill:rgb(82,237,172)"/><path d="M-49.49883177124948,65.14129701203301L-26.289520249674922,129.27889509549146L-21.792341347668348,128.2738126624253z" style="fill:rgb(102,71,239)"/><path d="M-48.65909533761672,133.52249107923842L-63.43092405806944,68.58592178669309L-76.75953732394736,71.2055498806409z" style="fill:rgb(91,68,234)"/><path d="M98.72415445645049,-21.6922041412812L19.846426797729123,38.517306842317545L22.22296944384933,37.37110332531493z" style="fill:rgb(82,237,172)"/><path d="M61.069593604583915,94.2558440126988L35.531744593838724,30.259653464798568L48.188800203298925,101.40883730327356z" style="fill:rgb(174,99,242)"/><path d="M26.999730895823557,56.1096596397036L45.8822690988087,102.54911089542443L46.09863976753757,102.5695190431397z" style="fill:rgb(49,63,205)"/><path d="M73.14107848016238,86.73707437078103L59.585634076826324,15.276231315337382L48.04087489378099,22.858585562496277z" style="fill:rgb(195,111,234)"/><path d="M-44.82719078494994,87.2338729234489L-63.43092405806944,68.58592178669309L-35.501084403767884,131.33769937886424z" style="fill:rgb(102,71,239)"/><path d="M-7.720073171357781,124.36201316475189L-35.15427283454241,60.90909509523009L-21.792341347668348,128.2738126624253z" style="fill:rgb(114,75,243)"/><path d="M24.394084392716778,49.70141363944471L34.674649926557684,108.08991190332497L45.8822690988087,102.54911089542443zM22.22296944384933,37.37110332531493L45.8822690988087,102.54911089542443L48.188800203298925,101.40883730327356z" style="fill:rgb(162,93,245)"/><path d="M139.11625406371246,0L200.4951379424023,26.845172454927877L179.0227230286721,-37.607604765485405z" style="fill:rgb(217,127,217)"/><path d="M-49.49883177124948,65.14129701203301L-44.82719078494994,87.2338729234489L-26.289520249674922,129.27889509549146z" style="fill:rgb(102,71,239)"/><path d="M6.5179295695044255,119.64966664265613L-20.599857224086797,55.94210216613763L-7.720073171357781,124.36201316475189z" style="fill:rgb(126,79,245)"/><path d="M-19.204382907291656,37.09988065511081L-54.06950073624594,66.2713634681617L-49.49883177124948,65.14129701203301z" style="fill:rgb(82,237,172)"/><path d="M34.674649926557684,108.08991190332497L8.298087705328019,44.08719711949464L20.71767828563979,114.19995363204585z" style="fill:rgb(151,88,246)"/><path d="M20.71767828563979,114.19995363204585L-6.045253170013514,50.30800952672868L6.5179295695044255,119.64966664265613z" style="fill:rgb(139,83,246)"/><path d="M61.069593604583915,94.2558440126988L48.04087489378099,22.858585562496277L35.531744593838724,30.259653464798568z" style="fill:rgb(184,105,239)"/><path d="M-19.204382907291656,37.09988065511081L-49.49883177124948,65.14129701203301L-35.15427283454241,60.90909509523009z" style="fill:rgb(82,237,172)"/><path d="M26.999730895823557,56.1096596397036L46.09863976753757,102.5695190431397L27.11354113857779,55.86809574850906z" style="fill:rgb(49,63,205)"/><path d="M-19.204382907291656,37.09988065511081L-35.15427283454241,60.90909509523009L-20.599857224086797,55.94210216613763zM-19.204382907291656,37.09988065511081L8.298087705328019,44.08719711949464L19.846426797729123,38.517306842317545z" style="fill:rgb(82,237,172)"/><path d="M35.02773382367061,39.06833656167626L-46.612135873829004,-27.860929300445434L-19.204382907291656,37.09988065511081z" style="fill:rgb(49,63,205)"/><path d="M-21.792341347668348,128.2738126624253L-35.15427283454241,60.90909509523009L-49.49883177124948,65.14129701203301z" style="fill:rgb(114,75,243)"/><path d="M-19.204382907291656,37.09988065511081L-6.045253170013514,50.30800952672868L8.298087705328019,44.08719711949464zM-19.204382907291656,37.09988065511081L-20.599857224086797,55.94210216613763L-6.045253170013514,50.30800952672868z" style="fill:rgb(82,237,172)"/><path d="M22.22296944384933,37.37110332531493L24.394084392716778,49.70141363944471L45.8822690988087,102.54911089542443z" style="fill:rgb(162,93,245)"/><path d="M48.188800203298925,101.40883730327356L35.531744593838724,30.259653464798568L22.22296944384933,37.37110332531493z" style="fill:rgb(174,99,242)"/><path d="M-44.82719078494994,87.2338729234489L-54.06950073624594,66.2713634681617L-63.43092405806944,68.58592178669309z" style="fill:rgb(102,71,239)"/><path d="M24.394084392716778,49.70141363944471L8.298087705328019,44.08719711949464L34.674649926557684,108.08991190332497z" style="fill:rgb(162,93,245)"/><path d="M-7.720073171357781,124.36201316475189L-20.599857224086797,55.94210216613763L-35.15427283454241,60.90909509523009z" style="fill:rgb(126,79,245)"/><path d="M-44.82719078494994,87.2338729234489L-49.49883177124948,65.14129701203301L-54.06950073624594,66.2713634681617z" style="fill:rgb(102,71,239)"/><path d="M6.5179295695044255,119.64966664265613L-6.045253170013514,50.30800952672868L-20.599857224086797,55.94210216613763z" style="fill:rgb(139,83,246)"/><path d="M20.71767828563979,114.19995363204585L8.298087705328019,44.08719711949464L-6.045253170013514,50.30800952672868z" style="fill:rgb(151,88,246)"/><path d="M35.02773382367061,39.06833656167626L27.11354113857779,55.86809574850906L46.09863976753757,102.5695190431397zM26.999730895823557,56.1096596397036L27.11354113857779,55.86809574850906L20.06313920877518,38.52517291318161zM26.999730895823557,56.1096596397036L20.06313920877518,38.52517291318161L19.846426797729123,38.517306842317545zM35.02773382367061,39.06833656167626L46.09863976753757,102.5695190431397L79.23197373676037,105.69478362012771z" style="fill:rgb(49,63,205)"/><path d="M24.394084392716778,49.70141363944471L22.22296944384933,37.37110332531493L19.846426797729123,38.517306842317545z" style="fill:rgb(162,93,245)"/><path d="M139.11625406371246,0L137.35934497536007,92.70317162223277L200.4951379424023,26.845172454927877z" style="fill:rgb(217,127,217)"/><path d="M24.394084392716778,49.70141363944471L19.846426797729123,38.517306842317545L8.298087705328019,44.08719711949464z" style="fill:rgb(162,93,245)"/><path d="M179.0227230286721,-37.607604765485405L156.42475582902424,-105.43855075434014L139.11625406371246,0z" style="fill:rgb(217,127,217)"/><path d="M27.11354113857779,55.86809574850906L35.02773382367061,39.06833656167626L20.06313920877518,38.52517291318161zM35.02773382367061,39.06833656167626L79.23197373676037,105.69478362012771L53.27583137222861,39.73068741411092zM53.27583137222861,39.73068741411092L79.23197373676037,105.69478362012771L121.11732703772631,109.64553836559446z" style="fill:rgb(49,63,205)"/><path d="M139.11625406371246,0L128.05270933580508,67.39713203537214L137.35934497536007,92.70317162223277z" style="fill:rgb(217,127,217)"/><path d="M156.42475582902424,-105.43855075434014L-46.612135873829004,-27.860929300445434L68.07085684987626,-31.073082364619502z" style="fill:rgb(82,237,172)"/><path d="M128.05270933580508,67.39713203537214L121.11732703772631,109.64553836559446L137.35934497536007,92.70317162223277z" style="fill:rgb(217,127,217)"/><path d="M35.02773382367061,39.06833656167626L68.07085684987626,-31.073082364619502L-46.612135873829004,-27.860929300445434z" style="fill:rgb(49,63,205)"/><path d="M112.49342163039314,25.08942268082258L128.05270933580508,67.39713203537214L139.11625406371246,0zM139.11625406371246,0L156.42475582902424,-105.43855075434014L68.07085684987626,-31.073082364619502zM112.49342163039314,25.08942268082258L121.11732703772631,109.64553836559446L128.05270933580508,67.39713203537214z" style="fill:rgb(217,127,217)"/><path d="M53.27583137222861,39.73068741411092L121.11732703772631,109.64553836559446L95.33707699579324,41.25738859927382z" style="fill:rgb(49,63,205)"/><path d="M112.49342163039314,25.08942268082258L95.33707699579324,41.25738859927382L121.11732703772631,109.64553836559446z" style="fill:rgb(217,127,217)"/><path d="M95.33707699579324,41.25738859927382L68.07085684987626,-31.073082364619502L35.02773382367061,39.06833656167626z" style="fill:rgb(49,63,205)"/><path d="M139.11625406371246,0L68.07085684987626,-31.073082364619502L95.33707699579324,41.25738859927382z" style="fill:rgb(217,127,217)"/></svg>