solid JSxCAD
facet normal 0 -1 0
outer loop
vertex 15 -5 5
vertex 15 -5 29
vertex 6.72414 -5 5
endloop
endfacet
facet normal 0 -1 0
outer loop
vertex 6.72414 -5 5
vertex 15 -5 29
vertex 5 -5 29
endloop
endfacet
facet normal 0 -1 0
outer loop
vertex 6.72414 -5 5
vertex 5 -5 29
vertex 5 -5 5
endloop
endfacet
facet normal 0 -1 0
outer loop
vertex 9.96518 -5 5
vertex 9.96518 -5 0
vertex 15 -5 0
endloop
endfacet
facet normal 0 -1 0
outer loop
vertex 9.96518 -5 5
vertex 15 -5 0
vertex 15 -5 5
endloop
endfacet
facet normal 0 -1 0
outer loop
vertex 9.94954 -5 5
vertex 9.94954 -5 0
vertex 9.96518 -5 0
endloop
endfacet
facet normal 0 -1 0
outer loop
vertex 9.94954 -5 5
vertex 9.96518 -5 0
vertex 9.96518 -5 5
endloop
endfacet
facet normal 0 -1 0
outer loop
vertex 9.74614 -5 5
vertex 9.74614 -5 0
vertex 9.94954 -5 0
endloop
endfacet
facet normal 0 -1 0
outer loop
vertex 9.74614 -5 5
vertex 9.94954 -5 0
vertex 9.94954 -5 5
endloop
endfacet
facet normal -1 0 0
outer loop
vertex 5 -5 5
vertex 5 -5 29
vertex 5 3.27586 5
endloop
endfacet
facet normal -1 0 0
outer loop
vertex 5 3.27586 5
vertex 5 -5 29
vertex 5 5 29
endloop
endfacet
facet normal -1 0 0
outer loop
vertex 5 3.27586 5
vertex 5 5 29
vertex 5 5 5
endloop
endfacet
facet normal 1 0 0
outer loop
vertex 15 5 5
vertex 15 5 29
vertex 15 -3.27586 5
endloop
endfacet
facet normal 1 0 0
outer loop
vertex 15 -3.27586 5
vertex 15 5 29
vertex 15 -5 29
endloop
endfacet
facet normal 1 0 0
outer loop
vertex 15 -3.27586 5
vertex 15 -5 29
vertex 15 -5 5
endloop
endfacet
facet normal 1 0 0
outer loop
vertex 15 5 5
vertex 15 -3.27586 5
vertex 15 -5 0
endloop
endfacet
facet normal 1 0 0
outer loop
vertex 15 5 5
vertex 15 -5 0
vertex 15 5 0
endloop
endfacet
facet normal 1 0 0
outer loop
vertex 15 -3.27586 5
vertex 15 -5 5
vertex 15 -5 0
endloop
endfacet
facet normal 0 1 0
outer loop
vertex 5 5 5
vertex 5 5 29
vertex 13.27586 5 5
endloop
endfacet
facet normal 0 1 0
outer loop
vertex 13.27586 5 5
vertex 5 5 29
vertex 15 5 29
endloop
endfacet
facet normal 0 1 0
outer loop
vertex 13.27586 5 5
vertex 15 5 29
vertex 15 5 5
endloop
endfacet
facet normal 0 1 0
outer loop
vertex 12.81042 5 5
vertex 13.27586 5 5
vertex 15 5 0
endloop
endfacet
facet normal 0 1 0
outer loop
vertex 12.81042 5 5
vertex 15 5 0
vertex 12.81042 5 0
endloop
endfacet
facet normal 0 1 0
outer loop
vertex 13.27586 5 5
vertex 15 5 5
vertex 15 5 0
endloop
endfacet
facet normal 0 1 0
outer loop
vertex 12.81042 5 0
vertex 9.94954 5 0
vertex 9.94954 5 5
endloop
endfacet
facet normal 0 1 0
outer loop
vertex 12.81042 5 0
vertex 9.94954 5 5
vertex 12.81042 5 5
endloop
endfacet
facet normal 0 1 0
outer loop
vertex 9.74614 5 0
vertex 9.74614 5 5
vertex 9.94954 5 5
endloop
endfacet
facet normal 0 1 0
outer loop
vertex 9.74614 5 0
vertex 9.94954 5 5
vertex 9.94954 5 0
endloop
endfacet
facet normal 0 0 1
outer loop
vertex 5 5 29
vertex 15 -5 29
vertex 15 5 29
endloop
endfacet
facet normal 0 0 1
outer loop
vertex 15 -5 29
vertex 5 5 29
vertex 5 -5 29
endloop
endfacet
facet normal 0 0 -1
outer loop
vertex 15 -5 0
vertex 11.0804 -1.0804 0
vertex 12.81042 5 0
endloop
endfacet
facet normal 0 0 -1
outer loop
vertex 15 -5 0
vertex 12.81042 5 0
vertex 15 5 0
endloop
endfacet
facet normal 0 0 -1
outer loop
vertex 11.0804 -1.0804 0
vertex 15 -5 0
vertex 9.96518 -5 0
endloop
endfacet
facet normal 0 0 -1
outer loop
vertex 9.97463 -4.96677 0
vertex 9.96518 -5 0
vertex 9.94954 -5 0
endloop
endfacet
facet normal 0 0 -1
outer loop
vertex 9.94954 5 0
vertex 12.81042 5 0
vertex 12.0275 2.24833 0
endloop
endfacet
facet normal 0 0 -1
outer loop
vertex 10.61881 4.11375 0
vertex 12.0275 2.24833 0
vertex 11.09527 -1.02813 0
endloop
endfacet
facet normal 0 0 -1
outer loop
vertex 9.97463 4.96677 0
vertex 10.61881 4.11375 0
vertex 10.8127 2.02124 0
endloop
endfacet
facet normal 0 0 -1
outer loop
vertex 11 0 0
vertex 11.09527 -1.02813 0
vertex 11.0804 -1.0804 0
endloop
endfacet
facet normal 0 0 -1
outer loop
vertex 11 0 0
vertex 11.0804 -1.0804 0
vertex 10.91519 -0.91519 0
endloop
endfacet
facet normal 0 0 -1
outer loop
vertex 10.91519 -0.91519 0
vertex 11.0804 -1.0804 0
vertex 10.8127 -2.02124 0
endloop
endfacet
facet normal 0 0 -1
outer loop
vertex 10.25719 -3.97366 0
vertex 9.97463 -4.96677 0
vertex 9.94954 -5 0
endloop
endfacet
facet normal 0 0 -1
outer loop
vertex 10.25719 -3.97366 0
vertex 9.94954 -5 0
vertex 9.74614 -5 0
endloop
endfacet
facet normal 0 0 -1
outer loop
vertex 9.74614 5 0
vertex 9.94954 5 0
vertex 9.97463 4.96677 0
endloop
endfacet
facet normal 0 0 -1
outer loop
vertex 9.74614 5 0
vertex 9.97463 4.96677 0
vertex 10.25719 3.97366 0
endloop
endfacet
facet normal 0 0 -1
outer loop
vertex 11 0 5
vertex 10.8127 -2.02124 5
vertex 10.8127 2.02124 5
endloop
endfacet
facet normal 0 0 -1
outer loop
vertex 10.8127 2.02124 5
vertex 10.8127 -2.02124 5
vertex 10.25719 3.97366 5
endloop
endfacet
facet normal 0 0 -1
outer loop
vertex 10.8127 -2.02124 5
vertex 10.25719 -3.97366 5
vertex 10.25719 3.97366 5
endloop
endfacet
facet normal 0 0 -1
outer loop
vertex 10.25719 -3.97366 5
vertex 9.42566 5 5
vertex 9.74614 5 5
endloop
endfacet
facet normal 0 0 -1
outer loop
vertex 10.25719 -3.97366 5
vertex 9.74614 5 5
vertex 10.25719 3.97366 5
endloop
endfacet
facet normal 0 0 -1
outer loop
vertex 9.35239 -5 5
vertex 9.35239 5 5
vertex 9.42566 5 5
endloop
endfacet
facet normal 0 0 -1
outer loop
vertex 9.35239 -5 5
vertex 9.42566 5 5
vertex 10.25719 -3.97366 5
endloop
endfacet
facet normal 0 0 -1
outer loop
vertex 9.35239 -5 5
vertex 10.25719 -3.97366 5
vertex 9.74614 -5 5
endloop
endfacet
facet normal 0 0 -1
outer loop
vertex 9.27911 -5 5
vertex 8.35248 5 5
vertex 9.35239 5 5
endloop
endfacet
facet normal 0 0 -1
outer loop
vertex 9.27911 -5 5
vertex 9.35239 5 5
vertex 9.35239 -5 5
endloop
endfacet
facet normal 0 0 -1
outer loop
vertex 8.1291 5 5
vertex 8.35248 5 5
vertex 9.27911 -5 5
endloop
endfacet
facet normal 0 0 -1
outer loop
vertex 8.1291 5 5
vertex 9.27911 -5 5
vertex 8.1291 -5 5
endloop
endfacet
facet normal 0 0 -1
outer loop
vertex 7.90572 -5 5
vertex 6.97908 5 5
vertex 8.1291 5 5
endloop
endfacet
facet normal 0 0 -1
outer loop
vertex 7.90572 -5 5
vertex 8.1291 5 5
vertex 8.1291 -5 5
endloop
endfacet
facet normal 0 0 -1
outer loop
vertex 6.62898 5 5
vertex 6.97908 5 5
vertex 7.90572 -5 5
endloop
endfacet
facet normal 0 0 -1
outer loop
vertex 6.62898 5 5
vertex 7.90572 -5 5
vertex 6.62898 -5 5
endloop
endfacet
facet normal 0 0 -1
outer loop
vertex 5.35224 5 5
vertex 6.62898 5 5
vertex 6.62898 -5 5
endloop
endfacet
facet normal 0 0 -1
outer loop
vertex 5.35224 5 5
vertex 6.62898 -5 5
vertex 6.27888 -5 5
endloop
endfacet
facet normal 0 0 -1
outer loop
vertex 5.35224 5 5
vertex 6.27888 -5 5
vertex 5 -5 5
endloop
endfacet
facet normal 0 0 -1
outer loop
vertex 5.35224 5 5
vertex 5 -5 5
vertex 5 5 5
endloop
endfacet
facet normal -0.9618258227516902 0.27366235891703183 0
outer loop
vertex 10.25719 -3.97366 0
vertex 10.8127 -2.02124 5
vertex 10.8127 -2.02124 0
endloop
endfacet
facet normal -0.9618258227516902 0.27366235891703183 0
outer loop
vertex 10.25719 -3.97366 5
vertex 10.8127 -2.02124 5
vertex 10.25719 -3.97366 0
endloop
endfacet
facet normal -0.9957339711858467 -0.09227057291717437 0
outer loop
vertex 11 0 0
vertex 10.8127 2.02124 5
vertex 10.8127 2.02124 0
endloop
endfacet
facet normal -0.9957339711858467 -0.09227057291717437 0
outer loop
vertex 11 0 5
vertex 10.8127 2.02124 5
vertex 11 0 0
endloop
endfacet
facet normal -0.9618258227516902 -0.27366235891703183 0
outer loop
vertex 10.8127 2.02124 0
vertex 10.25719 3.97366 5
vertex 10.25719 3.97366 0
endloop
endfacet
facet normal -0.9618258227516902 -0.27366235891703183 0
outer loop
vertex 10.8127 2.02124 5
vertex 10.25719 3.97366 5
vertex 10.8127 2.02124 0
endloop
endfacet
facet normal -0.9957339711858467 0.09227057291717437 0
outer loop
vertex 10.8127 -2.02124 0
vertex 11 0 5
vertex 11 0 0
endloop
endfacet
facet normal -0.9957339711858467 0.09227057291717437 0
outer loop
vertex 10.8127 -2.02124 5
vertex 11 0 5
vertex 10.8127 -2.02124 0
endloop
endfacet
facet normal -0.8951655866460664 -0.4457337461810624 0
outer loop
vertex 9.74614 5 2.82413
vertex 9.74614 5 0
vertex 10.25719 3.97366 0
endloop
endfacet
facet normal -0.8951655866460665 -0.4457337461810624 0
outer loop
vertex 9.74614 5 5
vertex 9.74614 5 2.82413
vertex 10.25719 3.97366 0
endloop
endfacet
facet normal -0.8951655866460664 -0.4457337461810624 0
outer loop
vertex 9.74614 5 5
vertex 10.25719 3.97366 0
vertex 10.25719 3.97366 5
endloop
endfacet
facet normal -0.8951655866460664 0.4457337461810624 0
outer loop
vertex 9.74614 -5 2.17587
vertex 10.25719 -3.97366 5
vertex 10.25719 -3.97366 0
endloop
endfacet
facet normal -0.8951655866460665 0.4457337461810624 0
outer loop
vertex 9.74614 -5 2.17587
vertex 10.25719 -3.97366 0
vertex 9.74614 -5 0
endloop
endfacet
facet normal -0.8951655866460664 0.4457337461810624 0
outer loop
vertex 9.74614 -5 5
vertex 10.25719 -3.97366 5
vertex 9.74614 -5 2.17587
endloop
endfacet
facet normal 0 0 1
outer loop
vertex 9.35239 -5 5
vertex 9.35239 -5.79075 5
vertex 9.74614 -5 5
endloop
endfacet
facet normal 0 0 1
outer loop
vertex 9.27911 -5 5
vertex 9.35239 -5.79075 5
vertex 9.35239 -5 5
endloop
endfacet
facet normal 0 0 1
outer loop
vertex 8.1291 -5 5
vertex 8.1291 -7.41065 5
vertex 9.35239 -5.79075 5
endloop
endfacet
facet normal 0 0 1
outer loop
vertex 8.1291 -5 5
vertex 9.35239 -5.79075 5
vertex 9.27911 -5 5
endloop
endfacet
facet normal 0 0 1
outer loop
vertex 7.90572 -5 5
vertex 8.1291 -7.41065 5
vertex 8.1291 -5 5
endloop
endfacet
facet normal 0 0 1
outer loop
vertex 6.62898 -5 5
vertex 6.62898 -8.77819 5
vertex 8.1291 -7.41065 5
endloop
endfacet
facet normal 0 0 1
outer loop
vertex 6.62898 -5 5
vertex 8.1291 -7.41065 5
vertex 7.90572 -5 5
endloop
endfacet
facet normal 0 0 1
outer loop
vertex 6.27888 -5 5
vertex 6.62898 -8.77819 5
vertex 6.62898 -5 5
endloop
endfacet
facet normal 0 0 1
outer loop
vertex 4.90312 -5 5
vertex 4.90312 -9.8468 5
vertex 6.62898 -8.77819 5
endloop
endfacet
facet normal 0 0 1
outer loop
vertex 4.90312 -5 5
vertex 6.62898 -8.77819 5
vertex 6.27888 -5 5
endloop
endfacet
facet normal 0 0 1
outer loop
vertex 4.454 -5 5
vertex 4.90312 -9.8468 5
vertex 4.90312 -5 5
endloop
endfacet
facet normal 0 0 1
outer loop
vertex 3.01029 -5 5
vertex 3.01029 -10.58008 5
vertex 4.90312 -9.8468 5
endloop
endfacet
facet normal 0 0 1
outer loop
vertex 3.01029 -5 5
vertex 4.90312 -9.8468 5
vertex 4.454 -5 5
endloop
endfacet
facet normal 0 0 1
outer loop
vertex 1.56659 -5 5
vertex 1.01495 -10.95308 5
vertex 3.01029 -10.58008 5
endloop
endfacet
facet normal 0 0 1
outer loop
vertex 1.56659 -5 5
vertex 3.01029 -10.58008 5
vertex 3.01029 -5 5
endloop
endfacet
facet normal 0 0 1
outer loop
vertex 1.01495 -5 5
vertex 1.01495 -10.95308 5
vertex 1.56659 -5 5
endloop
endfacet
facet normal 0 0 1
outer loop
vertex 0.46332 -5 5
vertex 1.01495 -10.95308 5
vertex 1.01495 -5 5
endloop
endfacet
facet normal 0 0 1
outer loop
vertex -1.01495 -5 5
vertex -1.01495 -10.95308 5
vertex 1.01495 -10.95308 5
endloop
endfacet
facet normal 0 0 1
outer loop
vertex -1.01495 -5 5
vertex 1.01495 -10.95308 5
vertex 0.46332 -5 5
endloop
endfacet
facet normal 0 0 1
outer loop
vertex -1.56659 -5 5
vertex -1.01495 -10.95308 5
vertex -1.01495 -5 5
endloop
endfacet
facet normal 0 0 1
outer loop
vertex -3.01029 -5 5
vertex -3.01029 -10.58008 5
vertex -1.01495 -10.95308 5
endloop
endfacet
facet normal 0 0 1
outer loop
vertex -3.01029 -5 5
vertex -1.01495 -10.95308 5
vertex -1.56659 -5 5
endloop
endfacet
facet normal 0 0 1
outer loop
vertex -3.52736 -5 5
vertex -3.01029 -10.58008 5
vertex -3.01029 -5 5
endloop
endfacet
facet normal 0 0 1
outer loop
vertex -4.90312 -5 5
vertex -4.90312 -9.8468 5
vertex -3.01029 -10.58008 5
endloop
endfacet
facet normal 0 0 1
outer loop
vertex -4.90312 -5 5
vertex -3.01029 -10.58008 5
vertex -3.52736 -5 5
endloop
endfacet
facet normal 0 0 1
outer loop
vertex -5.35224 -5 5
vertex -4.90312 -9.8468 5
vertex -4.90312 -5 5
endloop
endfacet
facet normal 0 0 1
outer loop
vertex -6.62898 -5 5
vertex -6.62898 -8.77819 5
vertex -4.90312 -9.8468 5
endloop
endfacet
facet normal 0 0 1
outer loop
vertex -6.62898 -5 5
vertex -4.90312 -9.8468 5
vertex -5.35224 -5 5
endloop
endfacet
facet normal 0 0 1
outer loop
vertex -7.90572 -5 5
vertex -8.1291 -7.41065 5
vertex -6.62898 -8.77819 5
endloop
endfacet
facet normal 0 0 1
outer loop
vertex -7.90572 -5 5
vertex -6.62898 -8.77819 5
vertex -6.62898 -5 5
endloop
endfacet
facet normal 0 0 1
outer loop
vertex -8.1291 -5 5
vertex -8.1291 -7.41065 5
vertex -7.90572 -5 5
endloop
endfacet
facet normal 0 0 1
outer loop
vertex -8.35248 -5 5
vertex -8.1291 -7.41065 5
vertex -8.1291 -5 5
endloop
endfacet
facet normal 0 0 1
outer loop
vertex -9.35239 -5 5
vertex -9.35239 -5.79075 5
vertex -8.1291 -7.41065 5
endloop
endfacet
facet normal 0 0 1
outer loop
vertex -9.35239 -5 5
vertex -8.1291 -7.41065 5
vertex -8.35248 -5 5
endloop
endfacet
facet normal 0 0 1
outer loop
vertex -9.42566 -5 5
vertex -9.35239 -5.79075 5
vertex -9.35239 -5 5
endloop
endfacet
facet normal 0 0 1
outer loop
vertex -9.74614 -5 5
vertex -9.35239 -5.79075 5
vertex -9.42566 -5 5
endloop
endfacet
facet normal 0 0 1
outer loop
vertex 5 9.78681 5
vertex 4.90312 9.8468 5
vertex 5 8.80132 5
endloop
endfacet
facet normal 0 0 1
outer loop
vertex 5 -5 5
vertex 5 8.80132 5
vertex 4.90312 9.8468 5
endloop
endfacet
facet normal 0 0 1
outer loop
vertex 5 -5 5
vertex 4.90312 9.8468 5
vertex 4.90312 -5 5
endloop
endfacet
facet normal 0 0 1
outer loop
vertex 4.90312 -5 5
vertex 4.90312 9.8468 5
vertex 3.01029 10.58008 5
endloop
endfacet
facet normal 0 0 1
outer loop
vertex 4.90312 -5 5
vertex 3.01029 10.58008 5
vertex 4.454 -5 5
endloop
endfacet
facet normal 0 0 1
outer loop
vertex 4.454 -5 5
vertex 3.01029 10.58008 5
vertex 3.01029 -5 5
endloop
endfacet
facet normal 0 0 1
outer loop
vertex 3.01029 -5 5
vertex 3.01029 10.58008 5
vertex 1.56659 -5 5
endloop
endfacet
facet normal 0 0 1
outer loop
vertex 1.56659 -5 5
vertex 3.01029 10.58008 5
vertex 1.01495 10.95308 5
endloop
endfacet
facet normal 0 0 1
outer loop
vertex 1.56659 -5 5
vertex 1.01495 10.95308 5
vertex 1.01495 -5 5
endloop
endfacet
facet normal 0 0 1
outer loop
vertex 1.01495 -5 5
vertex 1.01495 10.95308 5
vertex -1.01495 10.95308 5
endloop
endfacet
facet normal 0 0 1
outer loop
vertex 1.01495 -5 5
vertex -1.01495 10.95308 5
vertex 0.46332 -5 5
endloop
endfacet
facet normal 0 0 1
outer loop
vertex 0.46332 -5 5
vertex -1.01495 10.95308 5
vertex -1.01495 -5 5
endloop
endfacet
facet normal 0 0 1
outer loop
vertex -1.01495 -5 5
vertex -1.01495 10.95308 5
vertex -3.01029 10.58008 5
endloop
endfacet
facet normal 0 0 1
outer loop
vertex -1.01495 -5 5
vertex -3.01029 10.58008 5
vertex -1.56659 -5 5
endloop
endfacet
facet normal 0 0 1
outer loop
vertex -1.56659 -5 5
vertex -3.01029 10.58008 5
vertex -3.01029 -5 5
endloop
endfacet
facet normal 0 0 1
outer loop
vertex -3.01029 -5 5
vertex -3.01029 10.58008 5
vertex -4.90312 9.8468 5
endloop
endfacet
facet normal 0 0 1
outer loop
vertex -3.01029 -5 5
vertex -4.90312 9.8468 5
vertex -3.52736 -5 5
endloop
endfacet
facet normal 0 0 1
outer loop
vertex -3.52736 -5 5
vertex -4.90312 9.8468 5
vertex -4.90312 -5 5
endloop
endfacet
facet normal 0 0 1
outer loop
vertex -4.90312 -5 5
vertex -4.90312 9.8468 5
vertex -6.62898 8.77819 5
endloop
endfacet
facet normal 0 0 1
outer loop
vertex -4.90312 -5 5
vertex -6.62898 8.77819 5
vertex -5.35224 -5 5
endloop
endfacet
facet normal 0 0 1
outer loop
vertex -5.35224 -5 5
vertex -6.62898 8.77819 5
vertex -6.62898 -5 5
endloop
endfacet
facet normal 0 0 1
outer loop
vertex -6.62898 -5 5
vertex -6.62898 8.77819 5
vertex -7.90572 -5 5
endloop
endfacet
facet normal 0 0 1
outer loop
vertex -7.90572 -5 5
vertex -6.62898 8.77819 5
vertex -8.1291 7.41065 5
endloop
endfacet
facet normal 0 0 1
outer loop
vertex -7.90572 -5 5
vertex -8.1291 7.41065 5
vertex -8.1291 -5 5
endloop
endfacet
facet normal 0 0 1
outer loop
vertex -8.1291 -5 5
vertex -8.1291 7.41065 5
vertex -9.35239 5.79075 5
endloop
endfacet
facet normal 0 0 1
outer loop
vertex -8.1291 -5 5
vertex -9.35239 5.79075 5
vertex -8.35248 -5 5
endloop
endfacet
facet normal 0 0 1
outer loop
vertex -8.35248 -5 5
vertex -9.35239 5.79075 5
vertex -9.35239 -5 5
endloop
endfacet
facet normal 0 0 1
outer loop
vertex -9.35239 -5 5
vertex -9.35239 5.79075 5
vertex -10.25719 3.97366 5
endloop
endfacet
facet normal 0 0 1
outer loop
vertex -9.35239 -5 5
vertex -10.25719 3.97366 5
vertex -9.42566 -5 5
endloop
endfacet
facet normal 0 0 1
outer loop
vertex -9.74614 -5 5
vertex -9.42566 -5 5
vertex -10.25719 3.97366 5
endloop
endfacet
facet normal 0 0 1
outer loop
vertex -9.74614 -5 5
vertex -10.25719 3.97366 5
vertex -10.25719 -3.97366 5
endloop
endfacet
facet normal 0 0 1
outer loop
vertex -10.25719 3.97366 5
vertex -10.8127 2.02124 5
vertex -10.25719 -3.97366 5
endloop
endfacet
facet normal 0 0 1
outer loop
vertex -10.25719 -3.97366 5
vertex -10.8127 2.02124 5
vertex -10.8127 -2.02124 5
endloop
endfacet
facet normal 0 0 1
outer loop
vertex -11 0 5
vertex -10.8127 -2.02124 5
vertex -10.8127 2.02124 5
endloop
endfacet
facet normal 0 0 1
outer loop
vertex 9.42566 5 5
vertex 9.74614 5 5
vertex 9.35239 5.79075 5
endloop
endfacet
facet normal 0 0 1
outer loop
vertex 9.42566 5 5
vertex 9.35239 5.79075 5
vertex 9.35239 5 5
endloop
endfacet
facet normal 0 0 1
outer loop
vertex 9.35239 5 5
vertex 9.35239 5.79075 5
vertex 8.1291 7.41065 5
endloop
endfacet
facet normal 0 0 1
outer loop
vertex 9.35239 5 5
vertex 8.1291 7.41065 5
vertex 8.35248 5 5
endloop
endfacet
facet normal 0 0 1
outer loop
vertex 8.35248 5 5
vertex 8.1291 7.41065 5
vertex 8.1291 5 5
endloop
endfacet
facet normal 0 0 1
outer loop
vertex 8.1291 5 5
vertex 8.1291 7.41065 5
vertex 6.62898 8.77819 5
endloop
endfacet
facet normal 0 0 1
outer loop
vertex 8.1291 5 5
vertex 6.62898 8.77819 5
vertex 6.97908 5 5
endloop
endfacet
facet normal 0 0 1
outer loop
vertex 6.97908 5 5
vertex 6.62898 8.77819 5
vertex 6.62898 5 5
endloop
endfacet
facet normal 0 0 1
outer loop
vertex 6.62898 5 5
vertex 6.62898 8.77819 5
vertex 5 9.78681 5
endloop
endfacet
facet normal 0 0 1
outer loop
vertex 6.62898 5 5
vertex 5 9.78681 5
vertex 5 8.80132 5
endloop
endfacet
facet normal 0 0 1
outer loop
vertex 6.62898 5 5
vertex 5 8.80132 5
vertex 5.35224 5 5
endloop
endfacet
facet normal 0 0 1
outer loop
vertex 5.35224 5 5
vertex 5 8.80132 5
vertex 5 5 5
endloop
endfacet
facet normal 0 0 1
outer loop
vertex 10.8127 2.02124 5
vertex 10.8127 -2.02124 5
vertex 11 0 5
endloop
endfacet
facet normal 0 0 1
outer loop
vertex 10.25719 3.97366 5
vertex 10.8127 -2.02124 5
vertex 10.8127 2.02124 5
endloop
endfacet
facet normal 0 0 1
outer loop
vertex 10.25719 3.97366 5
vertex 10.25719 -3.97366 5
vertex 10.8127 -2.02124 5
endloop
endfacet
facet normal 0 0 1
outer loop
vertex 9.42566 5 5
vertex 10.25719 -3.97366 5
vertex 10.25719 3.97366 5
endloop
endfacet
facet normal 0 0 1
outer loop
vertex 9.42566 5 5
vertex 10.25719 3.97366 5
vertex 9.74614 5 5
endloop
endfacet
facet normal 0 0 1
outer loop
vertex 9.74614 -5 5
vertex 10.25719 -3.97366 5
vertex 9.42566 5 5
endloop
endfacet
facet normal 0 0 1
outer loop
vertex 9.74614 -5 5
vertex 9.42566 5 5
vertex 9.35239 5 5
endloop
endfacet
facet normal 0 0 1
outer loop
vertex 9.74614 -5 5
vertex 9.35239 5 5
vertex 9.35239 -5 5
endloop
endfacet
facet normal 0 0 1
outer loop
vertex 9.35239 -5 5
vertex 9.35239 5 5
vertex 8.35248 5 5
endloop
endfacet
facet normal 0 0 1
outer loop
vertex 9.35239 -5 5
vertex 8.35248 5 5
vertex 9.27911 -5 5
endloop
endfacet
facet normal 0 0 1
outer loop
vertex 9.27911 -5 5
vertex 8.35248 5 5
vertex 8.1291 5 5
endloop
endfacet
facet normal 0 0 1
outer loop
vertex 9.27911 -5 5
vertex 8.1291 5 5
vertex 8.1291 -5 5
endloop
endfacet
facet normal 0 0 1
outer loop
vertex 8.1291 -5 5
vertex 8.1291 5 5
vertex 6.97908 5 5
endloop
endfacet
facet normal 0 0 1
outer loop
vertex 8.1291 -5 5
vertex 6.97908 5 5
vertex 7.90572 -5 5
endloop
endfacet
facet normal 0 0 1
outer loop
vertex 7.90572 -5 5
vertex 6.97908 5 5
vertex 6.62898 5 5
endloop
endfacet
facet normal 0 0 1
outer loop
vertex 7.90572 -5 5
vertex 6.62898 5 5
vertex 6.62898 -5 5
endloop
endfacet
facet normal 0 0 1
outer loop
vertex 6.62898 5 5
vertex 5.35224 5 5
vertex 6.27888 -5 5
endloop
endfacet
facet normal 0 0 1
outer loop
vertex 6.62898 5 5
vertex 6.27888 -5 5
vertex 6.62898 -5 5
endloop
endfacet
facet normal 0 0 1
outer loop
vertex 6.27888 -5 5
vertex 5.35224 5 5
vertex 5 5 5
endloop
endfacet
facet normal 0 0 1
outer loop
vertex 6.27888 -5 5
vertex 5 5 5
vertex 5 -5 5
endloop
endfacet
facet normal 0 0 -1
outer loop
vertex 9.74614 -5 0
vertex 9.35239 -5.79075 0
vertex 9.35239 -5 0
endloop
endfacet
facet normal 0 0 -1
outer loop
vertex 9.35239 -5 0
vertex 9.35239 -5.79075 0
vertex 9.27911 -5 0
endloop
endfacet
facet normal 0 0 -1
outer loop
vertex 8.1291 -7.41065 0
vertex 8.1291 -5 0
vertex 9.27911 -5 0
endloop
endfacet
facet normal 0 0 -1
outer loop
vertex 8.1291 -7.41065 0
vertex 9.27911 -5 0
vertex 9.35239 -5.79075 0
endloop
endfacet
facet normal 0 0 -1
outer loop
vertex 8.1291 -5 0
vertex 8.1291 -7.41065 0
vertex 7.90572 -5 0
endloop
endfacet
facet normal 0 0 -1
outer loop
vertex 6.62898 -8.77819 0
vertex 6.62898 -5 0
vertex 7.90572 -5 0
endloop
endfacet
facet normal 0 0 -1
outer loop
vertex 6.62898 -8.77819 0
vertex 7.90572 -5 0
vertex 8.1291 -7.41065 0
endloop
endfacet
facet normal 0 0 -1
outer loop
vertex 6.62898 -5 0
vertex 6.62898 -8.77819 0
vertex 6.27888 -5 0
endloop
endfacet
facet normal 0 0 -1
outer loop
vertex 4.90312 -9.8468 0
vertex 4.90312 -5 0
vertex 6.27888 -5 0
endloop
endfacet
facet normal 0 0 -1
outer loop
vertex 4.90312 -9.8468 0
vertex 6.27888 -5 0
vertex 6.62898 -8.77819 0
endloop
endfacet
facet normal 0 0 -1
outer loop
vertex 4.90312 -5 0
vertex 4.90312 -9.8468 0
vertex 4.454 -5 0
endloop
endfacet
facet normal 0 0 -1
outer loop
vertex 3.01029 -10.58008 0
vertex 3.01029 -5 0
vertex 4.454 -5 0
endloop
endfacet
facet normal 0 0 -1
outer loop
vertex 3.01029 -10.58008 0
vertex 4.454 -5 0
vertex 4.90312 -9.8468 0
endloop
endfacet
facet normal 0 0 -1
outer loop
vertex 1.01495 -10.95308 0
vertex 1.56659 -5 0
vertex 3.01029 -5 0
endloop
endfacet
facet normal 0 0 -1
outer loop
vertex 1.01495 -10.95308 0
vertex 3.01029 -5 0
vertex 3.01029 -10.58008 0
endloop
endfacet
facet normal 0 0 -1
outer loop
vertex 1.56659 -5 0
vertex 1.01495 -10.95308 0
vertex 1.01495 -5 0
endloop
endfacet
facet normal 0 0 -1
outer loop
vertex 1.01495 -5 0
vertex 1.01495 -10.95308 0
vertex 0.46332 -5 0
endloop
endfacet
facet normal 0 0 -1
outer loop
vertex -1.01495 -10.95308 0
vertex -1.01495 -5 0
vertex 0.46332 -5 0
endloop
endfacet
facet normal 0 0 -1
outer loop
vertex -1.01495 -10.95308 0
vertex 0.46332 -5 0
vertex 1.01495 -10.95308 0
endloop
endfacet
facet normal 0 0 -1
outer loop
vertex -1.01495 -5 0
vertex -1.01495 -10.95308 0
vertex -1.56659 -5 0
endloop
endfacet
facet normal 0 0 -1
outer loop
vertex -3.01029 -10.58008 0
vertex -3.01029 -5 0
vertex -1.56659 -5 0
endloop
endfacet
facet normal 0 0 -1
outer loop
vertex -3.01029 -10.58008 0
vertex -1.56659 -5 0
vertex -1.01495 -10.95308 0
endloop
endfacet
facet normal 0 0 -1
outer loop
vertex -3.01029 -5 0
vertex -3.01029 -10.58008 0
vertex -3.52736 -5 0
endloop
endfacet
facet normal 0 0 -1
outer loop
vertex -4.90312 -9.8468 0
vertex -4.90312 -5 0
vertex -3.52736 -5 0
endloop
endfacet
facet normal 0 0 -1
outer loop
vertex -4.90312 -9.8468 0
vertex -3.52736 -5 0
vertex -3.01029 -10.58008 0
endloop
endfacet
facet normal 0 0 -1
outer loop
vertex -4.90312 -5 0
vertex -4.90312 -9.8468 0
vertex -5.35224 -5 0
endloop
endfacet
facet normal 0 0 -1
outer loop
vertex -6.62898 -8.77819 0
vertex -6.62898 -5 0
vertex -5.35224 -5 0
endloop
endfacet
facet normal 0 0 -1
outer loop
vertex -6.62898 -8.77819 0
vertex -5.35224 -5 0
vertex -4.90312 -9.8468 0
endloop
endfacet
facet normal 0 0 -1
outer loop
vertex -8.1291 -7.41065 0
vertex -7.90572 -5 0
vertex -6.62898 -5 0
endloop
endfacet
facet normal 0 0 -1
outer loop
vertex -8.1291 -7.41065 0
vertex -6.62898 -5 0
vertex -6.62898 -8.77819 0
endloop
endfacet
facet normal 0 0 -1
outer loop
vertex -7.90572 -5 0
vertex -8.1291 -7.41065 0
vertex -8.1291 -5 0
endloop
endfacet
facet normal 0 0 -1
outer loop
vertex -8.1291 -5 0
vertex -8.1291 -7.41065 0
vertex -8.35248 -5 0
endloop
endfacet
facet normal 0 0 -1
outer loop
vertex -9.35239 -5.79075 0
vertex -9.35239 -5 0
vertex -8.35248 -5 0
endloop
endfacet
facet normal 0 0 -1
outer loop
vertex -9.35239 -5.79075 0
vertex -8.35248 -5 0
vertex -8.1291 -7.41065 0
endloop
endfacet
facet normal 0 0 -1
outer loop
vertex -9.35239 -5 0
vertex -9.35239 -5.79075 0
vertex -9.42566 -5 0
endloop
endfacet
facet normal 0 0 -1
outer loop
vertex -9.74614 -5 0
vertex -9.42566 -5 0
vertex -9.35239 -5.79075 0
endloop
endfacet
facet normal 0 0 -1
outer loop
vertex 5 8.80132 0
vertex 4.90312 9.8468 0
vertex 5 9.78681 0
endloop
endfacet
facet normal 0 0 -1
outer loop
vertex 4.90312 9.8468 0
vertex 5 8.80132 0
vertex 5 -5 0
endloop
endfacet
facet normal 0 0 -1
outer loop
vertex 4.90312 9.8468 0
vertex 5 -5 0
vertex 4.90312 -5 0
endloop
endfacet
facet normal 0 0 -1
outer loop
vertex 4.454 -5 0
vertex 3.01029 10.58008 0
vertex 4.90312 9.8468 0
endloop
endfacet
facet normal 0 0 -1
outer loop
vertex 4.454 -5 0
vertex 4.90312 9.8468 0
vertex 4.90312 -5 0
endloop
endfacet
facet normal 0 0 -1
outer loop
vertex 3.01029 10.58008 0
vertex 4.454 -5 0
vertex 3.01029 -5 0
endloop
endfacet
facet normal 0 0 -1
outer loop
vertex 3.01029 10.58008 0
vertex 3.01029 -5 0
vertex 1.56659 -5 0
endloop
endfacet
facet normal 0 0 -1
outer loop
vertex 1.01495 -5 0
vertex 1.01495 10.95308 0
vertex 3.01029 10.58008 0
endloop
endfacet
facet normal 0 0 -1
outer loop
vertex 1.01495 -5 0
vertex 3.01029 10.58008 0
vertex 1.56659 -5 0
endloop
endfacet
facet normal 0 0 -1
outer loop
vertex 0.46332 -5 0
vertex -1.01495 10.95308 0
vertex 1.01495 10.95308 0
endloop
endfacet
facet normal 0 0 -1
outer loop
vertex 0.46332 -5 0
vertex 1.01495 10.95308 0
vertex 1.01495 -5 0
endloop
endfacet
facet normal 0 0 -1
outer loop
vertex -1.01495 10.95308 0
vertex 0.46332 -5 0
vertex -1.01495 -5 0
endloop
endfacet
facet normal 0 0 -1
outer loop
vertex -1.56659 -5 0
vertex -3.01029 10.58008 0
vertex -1.01495 10.95308 0
endloop
endfacet
facet normal 0 0 -1
outer loop
vertex -1.56659 -5 0
vertex -1.01495 10.95308 0
vertex -1.01495 -5 0
endloop
endfacet
facet normal 0 0 -1
outer loop
vertex -3.01029 10.58008 0
vertex -1.56659 -5 0
vertex -3.01029 -5 0
endloop
endfacet
facet normal 0 0 -1
outer loop
vertex -3.52736 -5 0
vertex -4.90312 9.8468 0
vertex -3.01029 10.58008 0
endloop
endfacet
facet normal 0 0 -1
outer loop
vertex -3.52736 -5 0
vertex -3.01029 10.58008 0
vertex -3.01029 -5 0
endloop
endfacet
facet normal 0 0 -1
outer loop
vertex -4.90312 9.8468 0
vertex -3.52736 -5 0
vertex -4.90312 -5 0
endloop
endfacet
facet normal 0 0 -1
outer loop
vertex -5.35224 -5 0
vertex -6.62898 8.77819 0
vertex -4.90312 9.8468 0
endloop
endfacet
facet normal 0 0 -1
outer loop
vertex -5.35224 -5 0
vertex -4.90312 9.8468 0
vertex -4.90312 -5 0
endloop
endfacet
facet normal 0 0 -1
outer loop
vertex -6.62898 8.77819 0
vertex -5.35224 -5 0
vertex -6.62898 -5 0
endloop
endfacet
facet normal 0 0 -1
outer loop
vertex -6.62898 8.77819 0
vertex -6.62898 -5 0
vertex -7.90572 -5 0
endloop
endfacet
facet normal 0 0 -1
outer loop
vertex -8.1291 -5 0
vertex -8.1291 7.41065 0
vertex -6.62898 8.77819 0
endloop
endfacet
facet normal 0 0 -1
outer loop
vertex -8.1291 -5 0
vertex -6.62898 8.77819 0
vertex -7.90572 -5 0
endloop
endfacet
facet normal 0 0 -1
outer loop
vertex -8.35248 -5 0
vertex -9.35239 5.79075 0
vertex -8.1291 7.41065 0
endloop
endfacet
facet normal 0 0 -1
outer loop
vertex -8.35248 -5 0
vertex -8.1291 7.41065 0
vertex -8.1291 -5 0
endloop
endfacet
facet normal 0 0 -1
outer loop
vertex -9.35239 5.79075 0
vertex -8.35248 -5 0
vertex -9.35239 -5 0
endloop
endfacet
facet normal 0 0 -1
outer loop
vertex -9.42566 -5 0
vertex -10.25719 3.97366 0
vertex -9.35239 5.79075 0
endloop
endfacet
facet normal 0 0 -1
outer loop
vertex -9.42566 -5 0
vertex -9.35239 5.79075 0
vertex -9.35239 -5 0
endloop
endfacet
facet normal 0 0 -1
outer loop
vertex -10.25719 -3.97366 0
vertex -10.25719 3.97366 0
vertex -9.42566 -5 0
endloop
endfacet
facet normal 0 0 -1
outer loop
vertex -10.25719 -3.97366 0
vertex -9.42566 -5 0
vertex -9.74614 -5 0
endloop
endfacet
facet normal 0 0 -1
outer loop
vertex -10.8127 2.02124 0
vertex -10.25719 3.97366 0
vertex -10.25719 -3.97366 0
endloop
endfacet
facet normal 0 0 -1
outer loop
vertex -10.8127 2.02124 0
vertex -10.25719 -3.97366 0
vertex -10.8127 -2.02124 0
endloop
endfacet
facet normal 0 0 -1
outer loop
vertex -10.8127 -2.02124 0
vertex -11 0 0
vertex -10.8127 2.02124 0
endloop
endfacet
facet normal 0 0 -1
outer loop
vertex 9.42566 5 0
vertex 9.35239 5.79075 0
vertex 9.74614 5 0
endloop
endfacet
facet normal 0 0 -1
outer loop
vertex 9.35239 5 0
vertex 9.35239 5.79075 0
vertex 9.42566 5 0
endloop
endfacet
facet normal 0 0 -1
outer loop
vertex 8.35248 5 0
vertex 8.1291 7.41065 0
vertex 9.35239 5.79075 0
endloop
endfacet
facet normal 0 0 -1
outer loop
vertex 8.35248 5 0
vertex 9.35239 5.79075 0
vertex 9.35239 5 0
endloop
endfacet
facet normal 0 0 -1
outer loop
vertex 8.1291 5 0
vertex 8.1291 7.41065 0
vertex 8.35248 5 0
endloop
endfacet
facet normal 0 0 -1
outer loop
vertex 6.97908 5 0
vertex 6.62898 8.77819 0
vertex 8.1291 7.41065 0
endloop
endfacet
facet normal 0 0 -1
outer loop
vertex 6.97908 5 0
vertex 8.1291 7.41065 0
vertex 8.1291 5 0
endloop
endfacet
facet normal 0 0 -1
outer loop
vertex 6.62898 5 0
vertex 6.62898 8.77819 0
vertex 6.97908 5 0
endloop
endfacet
facet normal 0 0 -1
outer loop
vertex 5.35224 5 0
vertex 5 8.80132 0
vertex 5 9.78681 0
endloop
endfacet
facet normal 0 0 -1
outer loop
vertex 5.35224 5 0
vertex 5 9.78681 0
vertex 6.62898 8.77819 0
endloop
endfacet
facet normal 0 0 -1
outer loop
vertex 5.35224 5 0
vertex 6.62898 8.77819 0
vertex 6.62898 5 0
endloop
endfacet
facet normal 0 0 -1
outer loop
vertex 5.35224 5 0
vertex 5 5 0
vertex 5 8.80132 0
endloop
endfacet
facet normal 0 0 -1
outer loop
vertex 11 0 0
vertex 10.8127 -2.02124 0
vertex 10.8127 2.02124 0
endloop
endfacet
facet normal 0 0 -1
outer loop
vertex 10.8127 2.02124 0
vertex 10.8127 -2.02124 0
vertex 10.25719 3.97366 0
endloop
endfacet
facet normal 0 0 -1
outer loop
vertex 10.8127 -2.02124 0
vertex 10.25719 -3.97366 0
vertex 10.25719 3.97366 0
endloop
endfacet
facet normal 0 0 -1
outer loop
vertex 10.25719 -3.97366 0
vertex 9.42566 5 0
vertex 9.74614 5 0
endloop
endfacet
facet normal 0 0 -1
outer loop
vertex 10.25719 -3.97366 0
vertex 9.74614 5 0
vertex 10.25719 3.97366 0
endloop
endfacet
facet normal 0 0 -1
outer loop
vertex 9.35239 -5 0
vertex 9.35239 5 0
vertex 9.42566 5 0
endloop
endfacet
facet normal 0 0 -1
outer loop
vertex 9.35239 -5 0
vertex 9.42566 5 0
vertex 10.25719 -3.97366 0
endloop
endfacet
facet normal 0 0 -1
outer loop
vertex 9.35239 -5 0
vertex 10.25719 -3.97366 0
vertex 9.74614 -5 0
endloop
endfacet
facet normal 0 0 -1
outer loop
vertex 9.27911 -5 0
vertex 8.35248 5 0
vertex 9.35239 5 0
endloop
endfacet
facet normal 0 0 -1
outer loop
vertex 9.27911 -5 0
vertex 9.35239 5 0
vertex 9.35239 -5 0
endloop
endfacet
facet normal 0 0 -1
outer loop
vertex 8.1291 5 0
vertex 8.35248 5 0
vertex 9.27911 -5 0
endloop
endfacet
facet normal 0 0 -1
outer loop
vertex 8.1291 5 0
vertex 9.27911 -5 0
vertex 8.1291 -5 0
endloop
endfacet
facet normal 0 0 -1
outer loop
vertex 7.90572 -5 0
vertex 6.97908 5 0
vertex 8.1291 5 0
endloop
endfacet
facet normal 0 0 -1
outer loop
vertex 7.90572 -5 0
vertex 8.1291 5 0
vertex 8.1291 -5 0
endloop
endfacet
facet normal 0 0 -1
outer loop
vertex 6.62898 5 0
vertex 6.97908 5 0
vertex 7.90572 -5 0
endloop
endfacet
facet normal 0 0 -1
outer loop
vertex 6.62898 5 0
vertex 7.90572 -5 0
vertex 6.62898 -5 0
endloop
endfacet
facet normal 0 0 -1
outer loop
vertex 5.35224 5 0
vertex 6.62898 5 0
vertex 6.62898 -5 0
endloop
endfacet
facet normal 0 0 -1
outer loop
vertex 5.35224 5 0
vertex 6.62898 -5 0
vertex 6.27888 -5 0
endloop
endfacet
facet normal 0 0 -1
outer loop
vertex 5.35224 5 0
vertex 6.27888 -5 0
vertex 5 -5 0
endloop
endfacet
facet normal 0 0 -1
outer loop
vertex 5.35224 5 0
vertex 5 -5 0
vertex 5 5 0
endloop
endfacet
facet normal -0.5264331349287971 0.8502165338600743 0
outer loop
vertex -6.62898 8.77819 0
vertex -6.62898 8.77819 5
vertex -4.90312 9.8468 0
endloop
endfacet
facet normal -0.5264331349287971 0.8502165338600743 0
outer loop
vertex -4.90312 9.8468 0
vertex -6.62898 8.77819 5
vertex -4.90312 9.8468 5
endloop
endfacet
facet normal -0.5264331349287971 -0.8502165338600743 0
outer loop
vertex -4.90312 -9.8468 0
vertex -4.90312 -9.8468 5
vertex -6.62898 -8.77819 0
endloop
endfacet
facet normal -0.5264331349287971 -0.8502165338600743 0
outer loop
vertex -6.62898 -8.77819 0
vertex -4.90312 -9.8468 5
vertex -6.62898 -8.77819 5
endloop
endfacet
facet normal 0.9618258227516902 -0.27366235891703183 0
outer loop
vertex 10.8127 -2.02124 0
vertex 10.8127 -2.02124 5
vertex 10.25719 -3.97366 0
endloop
endfacet
facet normal 0.9618258227516902 -0.27366235891703183 0
outer loop
vertex 10.25719 -3.97366 0
vertex 10.8127 -2.02124 5
vertex 10.25719 -3.97366 5
endloop
endfacet
facet normal 0.5264331349287971 -0.8502165338600743 0
outer loop
vertex 6.62898 -8.77819 0
vertex 6.62898 -8.77819 5
vertex 4.90312 -9.8468 0
endloop
endfacet
facet normal 0.5264331349287971 -0.8502165338600743 0
outer loop
vertex 4.90312 -9.8468 0
vertex 6.62898 -8.77819 5
vertex 4.90312 -9.8468 5
endloop
endfacet
facet normal 0 -1 0
outer loop
vertex 1.01495 -10.95308 0
vertex 1.01495 -10.95308 5
vertex -1.01495 -10.95308 0
endloop
endfacet
facet normal 0 -1 0
outer loop
vertex -1.01495 -10.95308 0
vertex 1.01495 -10.95308 5
vertex -1.01495 -10.95308 5
endloop
endfacet
facet normal -0.1837525217403461 -0.9829725381484793 0
outer loop
vertex -1.01495 -10.95308 0
vertex -1.01495 -10.95308 5
vertex -3.01029 -10.58008 0
endloop
endfacet
facet normal -0.1837525217403461 -0.9829725381484793 0
outer loop
vertex -3.01029 -10.58008 0
vertex -1.01495 -10.95308 5
vertex -3.01029 -10.58008 5
endloop
endfacet
facet normal -0.9618258227516902 0.27366235891703183 0
outer loop
vertex -10.8127 2.02124 0
vertex -10.8127 2.02124 5
vertex -10.25719 3.97366 0
endloop
endfacet
facet normal -0.9618258227516902 0.27366235891703183 0
outer loop
vertex -10.25719 3.97366 0
vertex -10.8127 2.02124 5
vertex -10.25719 3.97366 5
endloop
endfacet
facet normal -0.673695623881309 0.7390089352390632 0
outer loop
vertex -8.1291 7.41065 0
vertex -8.1291 7.41065 5
vertex -6.62898 8.77819 0
endloop
endfacet
facet normal -0.673695623881309 0.7390089352390632 0
outer loop
vertex -6.62898 8.77819 0
vertex -8.1291 7.41065 5
vertex -6.62898 8.77819 5
endloop
endfacet
facet normal -0.8951618072672033 -0.4457413362143053 0
outer loop
vertex -9.35239 -5.79075 5
vertex -9.74614 -5 2.82413
vertex -9.74614 -5 0
endloop
endfacet
facet normal -0.8951618072672033 -0.4457413362143053 0
outer loop
vertex -9.35239 -5.79075 5
vertex -9.74614 -5 0
vertex -9.35239 -5.79075 0
endloop
endfacet
facet normal -0.8951618072672033 -0.4457413362143053 0
outer loop
vertex -9.74614 -5 2.82413
vertex -9.35239 -5.79075 5
vertex -9.74614 -5 5
endloop
endfacet
facet normal -0.8951655866460664 -0.4457337461810624 0
outer loop
vertex -9.74614 -5 2.82413
vertex -10.25719 -3.97366 0
vertex -9.74614 -5 0
endloop
endfacet
facet normal -0.8951655866460665 -0.4457337461810624 0
outer loop
vertex -9.74614 -5 2.82413
vertex -9.74614 -5 5
vertex -10.25719 -3.97366 5
endloop
endfacet
facet normal -0.8951655866460664 -0.4457337461810624 0
outer loop
vertex -9.74614 -5 2.82413
vertex -10.25719 -3.97366 5
vertex -10.25719 -3.97366 0
endloop
endfacet
facet normal 0.7980176291080615 -0.6026341042728567 0
outer loop
vertex 9.35239 -5.79075 0
vertex 9.35239 -5.79075 5
vertex 8.1291 -7.41065 0
endloop
endfacet
facet normal 0.7980176291080615 -0.6026341042728567 0
outer loop
vertex 8.1291 -7.41065 0
vertex 9.35239 -5.79075 5
vertex 8.1291 -7.41065 5
endloop
endfacet
facet normal -0.1837525217403461 0.9829725381484793 0
outer loop
vertex -3.01029 10.58008 0
vertex -3.01029 10.58008 5
vertex -1.01495 10.95308 0
endloop
endfacet
facet normal -0.1837525217403461 0.9829725381484793 0
outer loop
vertex -1.01495 10.95308 0
vertex -3.01029 10.58008 5
vertex -1.01495 10.95308 5
endloop
endfacet
facet normal 0.1837525217403461 0.9829725381484793 0
outer loop
vertex 1.01495 10.95308 0
vertex 1.01495 10.95308 5
vertex 3.01029 10.58008 0
endloop
endfacet
facet normal 0.1837525217403461 0.9829725381484793 0
outer loop
vertex 3.01029 10.58008 0
vertex 1.01495 10.95308 5
vertex 3.01029 10.58008 5
endloop
endfacet
facet normal 0.7980176291080615 0.6026341042728567 0
outer loop
vertex 8.1291 7.41065 0
vertex 8.1291 7.41065 5
vertex 9.35239 5.79075 0
endloop
endfacet
facet normal 0.7980176291080615 0.6026341042728567 0
outer loop
vertex 9.35239 5.79075 0
vertex 8.1291 7.41065 5
vertex 9.35239 5.79075 5
endloop
endfacet
facet normal 0.9957339711858467 0.09227057291717437 0
outer loop
vertex 10.8127 2.02124 0
vertex 10.8127 2.02124 5
vertex 11 0 0
endloop
endfacet
facet normal 0.9957339711858467 0.09227057291717437 0
outer loop
vertex 11 0 0
vertex 10.8127 2.02124 5
vertex 11 0 5
endloop
endfacet
facet normal -0.8951639419633093 0.44573704917665175 0
outer loop
vertex -10.25719 3.97366 0
vertex -10.25719 3.97366 5
vertex -9.35239 5.79075 0
endloop
endfacet
facet normal -0.8951639419633093 0.44573704917665175 0
outer loop
vertex -9.35239 5.79075 0
vertex -10.25719 3.97366 5
vertex -9.35239 5.79075 5
endloop
endfacet
facet normal 0.5264603517647527 0.8501996812630155 0
outer loop
vertex 4.90312 9.8468 5
vertex 5 9.78681 4.71933
vertex 5 9.78681 0
endloop
endfacet
facet normal 0.5264603517647526 0.8501996812630154 0
outer loop
vertex 4.90312 9.8468 5
vertex 5 9.78681 0
vertex 4.90312 9.8468 0
endloop
endfacet
facet normal 0.5264603517647527 0.8501996812630154 0
outer loop
vertex 5 9.78681 4.71933
vertex 4.90312 9.8468 5
vertex 5 9.78681 5
endloop
endfacet
facet normal 0.5264315162163952 0.8502175361247891 0
outer loop
vertex 5 9.78681 4.71933
vertex 6.62898 8.77819 0
vertex 5 9.78681 0
endloop
endfacet
facet normal 0.5264315162163953 0.8502175361247892 0
outer loop
vertex 5 9.78681 4.71933
vertex 5 9.78681 5
vertex 6.62898 8.77819 5
endloop
endfacet
facet normal 0.5264315162163953 0.8502175361247892 0
outer loop
vertex 5 9.78681 4.71933
vertex 6.62898 8.77819 5
vertex 6.62898 8.77819 0
endloop
endfacet
facet normal 0.673695623881309 0.7390089352390632 0
outer loop
vertex 6.62898 8.77819 0
vertex 6.62898 8.77819 5
vertex 8.1291 7.41065 0
endloop
endfacet
facet normal 0.673695623881309 0.7390089352390632 0
outer loop
vertex 8.1291 7.41065 0
vertex 6.62898 8.77819 5
vertex 8.1291 7.41065 5
endloop
endfacet
facet normal -0.9618258227516902 -0.27366235891703183 0
outer loop
vertex -10.25719 -3.97366 0
vertex -10.25719 -3.97366 5
vertex -10.8127 -2.02124 0
endloop
endfacet
facet normal -0.9618258227516902 -0.27366235891703183 0
outer loop
vertex -10.8127 -2.02124 0
vertex -10.25719 -3.97366 5
vertex -10.8127 -2.02124 5
endloop
endfacet
facet normal -0.9957339711858467 -0.09227057291717437 0
outer loop
vertex -10.8127 -2.02124 0
vertex -10.8127 -2.02124 5
vertex -11 0 0
endloop
endfacet
facet normal -0.9957339711858467 -0.09227057291717437 0
outer loop
vertex -11 0 0
vertex -10.8127 -2.02124 5
vertex -11 0 5
endloop
endfacet
facet normal -0.9957339711858467 0.09227057291717437 0
outer loop
vertex -11 0 0
vertex -11 0 5
vertex -10.8127 2.02124 0
endloop
endfacet
facet normal -0.9957339711858467 0.09227057291717437 0
outer loop
vertex -10.8127 2.02124 0
vertex -11 0 5
vertex -10.8127 2.02124 5
endloop
endfacet
facet normal 0 1 0
outer loop
vertex -1.01495 10.95308 0
vertex -1.01495 10.95308 5
vertex 1.01495 10.95308 0
endloop
endfacet
facet normal 0 1 0
outer loop
vertex 1.01495 10.95308 0
vertex -1.01495 10.95308 5
vertex 1.01495 10.95308 5
endloop
endfacet
facet normal 0.9618258227516902 0.27366235891703183 0
outer loop
vertex 10.25719 3.97366 0
vertex 10.25719 3.97366 5
vertex 10.8127 2.02124 0
endloop
endfacet
facet normal 0.9618258227516902 0.27366235891703183 0
outer loop
vertex 10.8127 2.02124 0
vertex 10.25719 3.97366 5
vertex 10.8127 2.02124 5
endloop
endfacet
facet normal -0.7980176291080615 -0.6026341042728567 0
outer loop
vertex -8.1291 -7.41065 0
vertex -8.1291 -7.41065 5
vertex -9.35239 -5.79075 0
endloop
endfacet
facet normal -0.7980176291080615 -0.6026341042728567 0
outer loop
vertex -9.35239 -5.79075 0
vertex -8.1291 -7.41065 5
vertex -9.35239 -5.79075 5
endloop
endfacet
facet normal 0.9957339711858467 -0.09227057291717437 0
outer loop
vertex 11 0 0
vertex 11 0 5
vertex 10.8127 -2.02124 0
endloop
endfacet
facet normal 0.9957339711858467 -0.09227057291717437 0
outer loop
vertex 10.8127 -2.02124 0
vertex 11 0 5
vertex 10.8127 -2.02124 5
endloop
endfacet
facet normal 0.673695623881309 -0.7390089352390632 0
outer loop
vertex 8.1291 -7.41065 0
vertex 8.1291 -7.41065 5
vertex 6.62898 -8.77819 0
endloop
endfacet
facet normal 0.673695623881309 -0.7390089352390632 0
outer loop
vertex 6.62898 -8.77819 0
vertex 8.1291 -7.41065 5
vertex 6.62898 -8.77819 5
endloop
endfacet
facet normal 0.1837525217403461 -0.9829725381484793 0
outer loop
vertex 3.01029 -10.58008 0
vertex 3.01029 -10.58008 5
vertex 1.01495 -10.95308 0
endloop
endfacet
facet normal 0.1837525217403461 -0.9829725381484793 0
outer loop
vertex 1.01495 -10.95308 0
vertex 3.01029 -10.58008 5
vertex 1.01495 -10.95308 5
endloop
endfacet
facet normal -0.7980176291080615 0.6026341042728567 0
outer loop
vertex -9.35239 5.79075 0
vertex -9.35239 5.79075 5
vertex -8.1291 7.41065 0
endloop
endfacet
facet normal -0.7980176291080615 0.6026341042728567 0
outer loop
vertex -8.1291 7.41065 0
vertex -9.35239 5.79075 5
vertex -8.1291 7.41065 5
endloop
endfacet
facet normal 0.8951618072672033 -0.4457413362143053 0
outer loop
vertex 9.74614 -5 2.17587
vertex 9.35239 -5.79075 0
vertex 9.74614 -5 0
endloop
endfacet
facet normal 0.8951618072672033 -0.4457413362143053 0
outer loop
vertex 9.74614 -5 2.17587
vertex 9.74614 -5 5
vertex 9.35239 -5.79075 5
endloop
endfacet
facet normal 0.8951618072672033 -0.4457413362143053 0
outer loop
vertex 9.74614 -5 2.17587
vertex 9.35239 -5.79075 5
vertex 9.35239 -5.79075 0
endloop
endfacet
facet normal 0.8951655866460665 -0.44573374618106243 0
outer loop
vertex 10.25719 -3.97366 5
vertex 9.74614 -5 2.17587
vertex 9.74614 -5 0
endloop
endfacet
facet normal 0.8951655866460664 -0.4457337461810624 0
outer loop
vertex 10.25719 -3.97366 5
vertex 9.74614 -5 0
vertex 10.25719 -3.97366 0
endloop
endfacet
facet normal 0.8951655866460664 -0.4457337461810624 0
outer loop
vertex 9.74614 -5 2.17587
vertex 10.25719 -3.97366 5
vertex 9.74614 -5 5
endloop
endfacet
facet normal -0.3612389896179769 -0.9324732663083608 0
outer loop
vertex -3.01029 -10.58008 0
vertex -3.01029 -10.58008 5
vertex -4.90312 -9.8468 0
endloop
endfacet
facet normal -0.3612389896179769 -0.9324732663083608 0
outer loop
vertex -4.90312 -9.8468 0
vertex -3.01029 -10.58008 5
vertex -4.90312 -9.8468 5
endloop
endfacet
facet normal 0.8951618072672033 0.4457413362143053 0
outer loop
vertex 9.35239 5.79075 5
vertex 9.74614 5 2.82413
vertex 9.74614 5 0
endloop
endfacet
facet normal 0.8951618072672033 0.4457413362143053 0
outer loop
vertex 9.35239 5.79075 5
vertex 9.74614 5 0
vertex 9.35239 5.79075 0
endloop
endfacet
facet normal 0.8951618072672033 0.4457413362143053 0
outer loop
vertex 9.74614 5 2.82413
vertex 9.35239 5.79075 5
vertex 9.74614 5 5
endloop
endfacet
facet normal 0.8951655866460664 0.4457337461810624 0
outer loop
vertex 9.74614 5 2.82413
vertex 10.25719 3.97366 0
vertex 9.74614 5 0
endloop
endfacet
facet normal 0.8951655866460665 0.4457337461810624 0
outer loop
vertex 9.74614 5 2.82413
vertex 9.74614 5 5
vertex 10.25719 3.97366 5
endloop
endfacet
facet normal 0.8951655866460664 0.4457337461810624 0
outer loop
vertex 9.74614 5 2.82413
vertex 10.25719 3.97366 5
vertex 10.25719 3.97366 0
endloop
endfacet
facet normal 0.3612389896179769 0.9324732663083608 0
outer loop
vertex 3.01029 10.58008 0
vertex 3.01029 10.58008 5
vertex 4.90312 9.8468 0
endloop
endfacet
facet normal 0.3612389896179769 0.9324732663083608 0
outer loop
vertex 4.90312 9.8468 0
vertex 3.01029 10.58008 5
vertex 4.90312 9.8468 5
endloop
endfacet
facet normal 0.3612389896179769 -0.9324732663083608 0
outer loop
vertex 4.90312 -9.8468 0
vertex 4.90312 -9.8468 5
vertex 3.01029 -10.58008 0
endloop
endfacet
facet normal 0.3612389896179769 -0.9324732663083608 0
outer loop
vertex 3.01029 -10.58008 0
vertex 4.90312 -9.8468 5
vertex 3.01029 -10.58008 5
endloop
endfacet
facet normal -0.3612389896179769 0.9324732663083608 0
outer loop
vertex -4.90312 9.8468 0
vertex -4.90312 9.8468 5
vertex -3.01029 10.58008 0
endloop
endfacet
facet normal -0.3612389896179769 0.9324732663083608 0
outer loop
vertex -3.01029 10.58008 0
vertex -4.90312 9.8468 5
vertex -3.01029 10.58008 5
endloop
endfacet
facet normal -0.673695623881309 -0.7390089352390632 0
outer loop
vertex -6.62898 -8.77819 0
vertex -6.62898 -8.77819 5
vertex -8.1291 -7.41065 0
endloop
endfacet
facet normal -0.673695623881309 -0.7390089352390632 0
outer loop
vertex -8.1291 -7.41065 0
vertex -6.62898 -8.77819 5
vertex -8.1291 -7.41065 5
endloop
endfacet
endsolid JSxCAD
