<svg viewBox="-250 -250 500 500" width="500" height="500" xmlns="http://www.w3.org/2000/svg"><path d="M42.92349683799382,-28.031828259755333L23.379111049948108,-22.920097598892994L4.427466367220405,-15.086919526607133zM4.427466367220405,-15.086919526607133L-13.326328069289092,-4.7987682995718455L62.42797830779842,-30.21549361128663zM4.427466367220405,-15.086919526607133L62.42797830779842,-30.21549361128663L42.92349683799382,-28.031828259755333zM-13.326328069289092,-4.7987682995718455L-29.30634257260553,7.620968250437067L81.2353800003743,-29.331126010112953zM-13.326328069289092,-4.7987682995718455L81.2353800003743,-29.331126010112953L62.42797830779842,-30.21549361128663zM-29.30634257260553,7.620968250437067L-42.96950405344757,21.793008929543966L98.66982288682142,-25.316531463297196zM-29.30634257260553,7.620968250437067L98.66982288682142,-25.316531463297196L81.2353800003743,-29.331126010112953zM-42.96950405344757,21.793008929543966L-53.81153254819552,37.27991156290836L114.04897180147002,-18.20128298613254zM-42.96950405344757,21.793008929543966L114.04897180147002,-18.20128298613254L98.66982288682142,-25.316531463297196zM-53.81153254819552,37.27991156290836L-61.3782016193329,53.58502047367108L136.00365261248672,4.652260684650038zM-53.81153254819552,37.27991156290836L126.70303561196356,-8.123797715459801L114.04897180147002,-18.20128298613254zM-61.3782016193329,53.58502047367108L-65.28203294189605,70.15298901858554L136.00365261248672,4.652260684650038zM-53.81153254819552,37.27991156290836L136.00365261248672,4.652260684650038L126.70303561196356,-8.123797715459801z" style="fill:rgb(83,212,212)"/><path d="M149.5851413868611,39.8535543280783L136.00365261248672,4.652260684650038L155.00706065582636,54.94947711667369z" style="fill:rgb(245,171,144)"/><path d="M-65.28203294189605,70.15298901858554L-65.226323358635,86.37397259633202L141.40186583647292,19.723912427353532zM-65.28203294189605,70.15298901858554L141.40186583647292,19.723912427353532L136.00365261248672,4.652260684650038z" style="fill:rgb(83,212,212)"/><path d="M155.00706065582636,54.94947711667369L141.40186583647292,19.723912427353532L156.2432796257286,71.70171631481612z" style="fill:rgb(247,153,162)"/><path d="M-20.231248842541497,158.25180535297298L-40.32269316414581,126.35037116894904L-32.460735991609006,146.9571583966287z" style="fill:rgb(32,47,158)"/><path d="M155.00706065582636,54.94947711667369L136.00365261248672,4.652260684650038L141.40186583647292,19.723912427353532z" style="fill:rgb(245,171,144)"/><path d="M-65.226323358635,86.37397259633202L-61.033768911950474,101.5954350700684L142.4744279093162,36.54376317022021z" style="fill:rgb(83,212,212)"/><path d="M-32.460735991609006,146.9571583966287L-40.32269316414581,126.35037116894904L-52.67930969372533,115.1426501933516z" style="fill:rgb(32,47,158)"/><path d="M-61.033768911950474,101.5954350700684L-54.029222171785364,112.9536383007718L-22.960710317528232,105.72758814656376zM-65.226323358635,86.37397259633202L142.4744279093162,36.54376317022021L141.40186583647292,19.723912427353532z" style="fill:rgb(83,212,212)"/><path d="M156.2432796257286,71.70171631481612L142.4744279093162,36.54376317022021L153.05202997243788,89.42308708003134z" style="fill:rgb(243,134,179)"/><path d="M-52.67930969372533,115.1426501933516L-22.960710317528232,105.72758814656376L-54.029222171785364,112.9536383007718z" style="fill:rgb(83,212,212)"/><path d="M-4.52957459671465,166.6555853316978L-24.334549714548572,134.603524137575L-20.231248842541497,158.25180535297298z" style="fill:rgb(49,39,175)"/><path d="M-4.834468408611715,155.98705192226188L-4.52957459671465,166.6555853316978L2.903510902833596,168.65560984179078z" style="fill:rgb(69,33,191)"/><path d="M156.2432796257286,71.70171631481612L141.40186583647292,19.723912427353532L142.4744279093162,36.54376317022021z" style="fill:rgb(247,153,162)"/><path d="M-52.67930969372533,115.1426501933516L-16.267581836684645,104.17087926608711L-22.960710317528232,105.72758814656376zM-52.67930969372533,115.1426501933516L-16.303578665351996,106.70517160124061L-16.267581836684645,104.17087926608711zM-61.033768911950474,101.5954350700684L-22.960710317528232,105.72758814656376L138.9735175903622,54.42536095020182zM-16.303578665351996,106.70517160124061L-52.67930969372533,115.1426501933516L-40.32269316414581,126.35037116894904z" style="fill:rgb(83,212,212)"/><path d="M-20.231248842541497,158.25180535297298L-24.334549714548572,134.603524137575L-40.32269316414581,126.35037116894904z" style="fill:rgb(49,39,175)"/><path d="M144.40067961847757,99.05737989076172L145.4051736985414,107.31761740346164L146.63624948427608,104.43682768561247z" style="fill:rgb(235,115,194)"/><path d="M-4.834468408611715,155.98705192226188L-24.334549714548572,134.603524137575L-4.52957459671465,166.6555853316978z" style="fill:rgb(69,33,191)"/><path d="M138.9735175903622,54.42536095020182L146.63624948427608,104.43682768561247L153.05202997243788,89.42308708003134z" style="fill:rgb(235,115,194)"/><path d="M-61.033768911950474,101.5954350700684L138.9735175903622,54.42536095020182L142.4744279093162,36.54376317022021zM-16.303578665351996,106.70517160124061L-40.32269316414581,126.35037116894904L-16.47620536110228,118.85861967470929z" style="fill:rgb(83,212,212)"/><path d="M-5.3086711116988905,139.38763014277356L2.903510902833596,168.65560984179078L14.055083916773139,171.655977531351z" style="fill:rgb(69,33,191)"/><path d="M153.05202997243788,89.42308708003134L142.4744279093162,36.54376317022021L138.9735175903622,54.42536095020182z" style="fill:rgb(243,134,179)"/><path d="M91.80550901329636,81.62854392686296L-16.267581836684645,104.17087926608711L-16.303578665351996,106.70517160124061z" style="fill:rgb(83,212,212)"/><path d="M138.9735175903622,54.42536095020182L144.40067961847757,99.05737989076172L146.63624948427608,104.43682768561247z" style="fill:rgb(235,115,194)"/><path d="M-5.3086711116988905,139.38763014277356L-4.834468408611715,155.98705192226188L2.903510902833596,168.65560984179078z" style="fill:rgb(69,33,191)"/><path d="M-16.47620536110228,118.85861967470929L-40.32269316414581,126.35037116894904L-16.505335154363678,120.90944090422741zM-16.47620536110228,118.85861967470929L91.80550901329636,81.62854392686296L-16.303578665351996,106.70517160124061z" style="fill:rgb(83,212,212)"/><path d="M144.40067961847757,99.05737989076172L130.87366192076,72.56642823162521L145.4051736985414,107.31761740346164z" style="fill:rgb(235,115,194)"/><path d="M-16.505335154363678,120.90944090422741L-40.32269316414581,126.35037116894904L-24.334549714548572,134.603524137575z" style="fill:rgb(83,212,212)"/><path d="M145.4051736985414,107.31761740346164L130.87366192076,72.56642823162521L133.52066553637928,124.52178544672456z" style="fill:rgb(222,96,207)"/><path d="M34.73022617207489,172.88874050500334L15.945643302017757,140.3407603359259L14.055083916773139,171.655977531351z" style="fill:rgb(91,32,204)"/><path d="M91.80550901329636,81.62854392686296L91.59738547638548,79.08327223648963L-16.267581836684645,104.17087926608711z" style="fill:rgb(83,212,212)"/><path d="M-4.834468408611715,155.98705192226188L-16.727017718582623,136.5164649776028L-24.334549714548572,134.603524137575z" style="fill:rgb(69,33,191)"/><path d="M-16.505335154363678,120.90944090422741L92.06154582501017,84.75977336277808L-16.47620536110228,118.85861967470929zM-22.960710317528232,105.72758814656376L132.17812492643728,69.64488041830165L138.9735175903622,54.42536095020182zM-16.505335154363678,120.90944090422741L-24.334549714548572,134.603524137575L-16.665877062625313,132.2119732175899z" style="fill:rgb(83,212,212)"/><path d="M144.40067961847757,99.05737989076172L138.9735175903622,54.42536095020182L132.17812492643728,69.64488041830165z" style="fill:rgb(235,115,194)"/><path d="M-4.834468408611715,155.98705192226188L-5.3086711116988905,139.38763014277356L-16.727017718582623,136.5164649776028z" style="fill:rgb(69,33,191)"/><path d="M-16.665877062625313,132.2119732175899L-24.334549714548572,134.603524137575L-16.67531373524516,132.87645352480166zM-16.47620536110228,118.85861967470929L92.06154582501017,84.75977336277808L91.80550901329636,81.62854392686296z" style="fill:rgb(83,212,212)"/><path d="M133.52066553637928,124.52178544672456L118.4062697289933,90.08977229976023L117.87520399922334,140.16129860381716z" style="fill:rgb(205,79,215)"/><path d="M-16.67531373524516,132.87645352480166L-24.334549714548572,134.603524137575L-16.727017718582623,136.5164649776028z" style="fill:rgb(83,212,212)"/><path d="M56.53357667535285,170.18375570389406L38.43704833804072,137.3001601765859L34.73022617207489,172.88874050500334z" style="fill:rgb(115,34,214)"/><path d="M100.88808152798745,125.55223598854809L99.1903422334128,153.41770979695738L110.36130948871957,145.49226455368097z" style="fill:rgb(185,63,221)"/><path d="M144.40067961847757,99.05737989076172L132.17812492643728,69.64488041830165L130.87366192076,72.56642823162521z" style="fill:rgb(235,115,194)"/><path d="M14.055083916773139,171.655977531351L15.945643302017757,140.3407603359259L-5.3086711116988905,139.38763014277356z" style="fill:rgb(91,32,204)"/><path d="M-16.665877062625313,132.2119732175899L92.97246338784926,95.89993663602587L-16.505335154363678,120.90944090422741zM-16.505335154363678,120.90944090422741L92.97246338784926,95.89993663602587L92.06154582501017,84.75977336277808z" style="fill:rgb(83,212,212)"/><path d="M102.07316675710817,106.10061741922493L110.36130948871957,145.49226455368097L117.87520399922334,140.16129860381716z" style="fill:rgb(185,63,221)"/><path d="M91.80550901329636,81.62854392686296L132.17812492643728,69.64488041830165L91.59738547638548,79.08327223648963z" style="fill:rgb(83,212,212)"/><path d="M78.3903168182834,163.59616725065464L61.05126561040204,130.33474706311665L56.53357667535285,170.18375570389406z" style="fill:rgb(139,40,220)"/><path d="M-16.67531373524516,132.87645352480166L93.14161072138945,97.9685447458074L-16.665877062625313,132.2119732175899z" style="fill:rgb(83,212,212)"/><path d="M99.1903422334128,153.41770979695738L82.63204772325504,119.75600244633435L78.3903168182834,163.59616725065464z" style="fill:rgb(163,50,222)"/><path d="M133.52066553637928,124.52178544672456L130.87366192076,72.56642823162521L118.4062697289933,90.08977229976023z" style="fill:rgb(222,96,207)"/><path d="M92.06154582501017,84.75977336277808L130.87366192076,72.56642823162521L91.80550901329636,81.62854392686296zM91.80550901329636,81.62854392686296L130.87366192076,72.56642823162521L132.17812492643728,69.64488041830165zM-16.727017718582623,136.5164649776028L93.95621671907418,107.93085409896206L-16.67531373524516,132.87645352480166z" style="fill:rgb(83,212,212)"/><path d="M112.01753246638764,163.30003925428636L110.36130948871957,145.49226455368097L94.25555266572555,111.59161279747474z" style="fill:rgb(247,158,158)"/><path d="M34.73022617207489,172.88874050500334L38.43704833804072,137.3001601765859L15.945643302017757,140.3407603359259z" style="fill:rgb(115,34,214)"/><path d="M-16.665877062625313,132.2119732175899L93.14161072138945,97.9685447458074L92.97246338784926,95.89993663602587zM92.97246338784926,95.89993663602587L130.87366192076,72.56642823162521L92.06154582501017,84.75977336277808z" style="fill:rgb(83,212,212)"/><path d="M102.07316675710817,106.10061741922493L100.88808152798745,125.55223598854809L110.36130948871957,145.49226455368097z" style="fill:rgb(185,63,221)"/><path d="M-16.727017718582623,136.5164649776028L-5.3086711116988905,139.38763014277356L94.01092032515089,108.59985203194195z" style="fill:rgb(83,212,212)"/><path d="M100.88808152798745,125.55223598854809L82.63204772325504,119.75600244633435L99.1903422334128,153.41770979695738z" style="fill:rgb(185,63,221)"/><path d="M117.87520399922334,140.16129860381716L118.4062697289933,90.08977229976023L102.07316675710817,106.10061741922493z" style="fill:rgb(205,79,215)"/><path d="M-16.67531373524516,132.87645352480166L93.95621671907418,107.93085409896206L93.14161072138945,97.9685447458074z" style="fill:rgb(83,212,212)"/><path d="M56.53357667535285,170.18375570389406L61.05126561040204,130.33474706311665L38.43704833804072,137.3001601765859z" style="fill:rgb(139,40,220)"/><path d="M92.97246338784926,95.89993663602587L118.4062697289933,90.08977229976023L130.87366192076,72.56642823162521zM93.14161072138945,97.9685447458074L118.4062697289933,90.08977229976023L92.97246338784926,95.89993663602587zM-16.727017718582623,136.5164649776028L94.01092032515089,108.59985203194195L93.95621671907418,107.93085409896206z" style="fill:rgb(83,212,212)"/><path d="M78.3903168182834,163.59616725065464L82.63204772325504,119.75600244633435L61.05126561040204,130.33474706311665z" style="fill:rgb(163,50,222)"/><path d="M82.63204772325504,119.75600244633435L-5.3086711116988905,139.38763014277356L15.945643302017757,140.3407603359259zM93.95621671907418,107.93085409896206L118.4062697289933,90.08977229976023L93.14161072138945,97.9685447458074zM94.01092032515089,108.59985203194195L-5.3086711116988905,139.38763014277356L82.63204772325504,119.75600244633435z" style="fill:rgb(83,212,212)"/><path d="M100.88808152798745,125.55223598854809L102.07316675710817,106.10061741922493L94.25555266572555,111.59161279747474zM100.88808152798745,125.55223598854809L94.25555266572555,111.59161279747474L82.63204772325504,119.75600244633435z" style="fill:rgb(185,63,221)"/><path d="M93.95621671907418,107.93085409896206L102.07316675710817,106.10061741922493L118.4062697289933,90.08977229976023zM61.05126561040204,130.33474706311665L15.945643302017757,140.3407603359259L38.43704833804072,137.3001601765859zM94.01092032515089,108.59985203194195L102.07316675710817,106.10061741922493L93.95621671907418,107.93085409896206zM82.63204772325504,119.75600244633435L15.945643302017757,140.3407603359259L61.05126561040204,130.33474706311665z" style="fill:rgb(83,212,212)"/><path d="M112.01753246638764,163.30003925428636L94.25555266572555,111.59161279747474L95.72442286075955,129.55531643380587z" style="fill:rgb(247,158,158)"/><path d="M94.01092032515089,108.59985203194195L94.25555266572555,111.59161279747474L102.07316675710817,106.10061741922493zM94.01092032515089,108.59985203194195L82.63204772325504,119.75600244633435L94.25555266572555,111.59161279747474z" style="fill:rgb(83,212,212)"/><path d="M95.72442286075955,129.55531643380587L116.12598278526387,207.4742410645317L112.01753246638764,163.30003925428636z" style="fill:rgb(247,158,158)"/><path d="M2.086621773248574,194.55764094161856L-17.60995821364849,198.67828552392493L3.0510546477244835,230.13084410784901zM99.37533732815953,174.20456487347982L3.0510546477244835,230.13084410784901L116.12598278526387,207.4742410645317z" style="fill:rgb(127,37,217)"/><path d="M95.72442286075955,129.55531643380587L97.94143142493178,156.66845416016943L116.12598278526387,207.4742410645317z" style="fill:rgb(247,158,158)"/><path d="M99.37533732815953,174.20456487347982L2.086621773248574,194.55764094161856L3.0510546477244835,230.13084410784901z" style="fill:rgb(127,37,217)"/><path d="M97.94143142493178,156.66845416016943L99.37533732815953,174.20456487347982L116.12598278526387,207.4742410645317zM91.59738547638548,79.08327223648963L-3.6502949442463555,-127.17001222189784L97.94143142493178,156.66845416016943z" style="fill:rgb(247,158,158)"/><path d="M2.086621773248574,194.55764094161856L-144.17666433704827,6.004057679972143L-17.60995821364849,198.67828552392493zM99.37533732815953,174.20456487347982L-4.033659548129114,-31.184684783417914L2.086621773248574,194.55764094161856z" style="fill:rgb(127,37,217)"/><path d="M97.94143142493178,156.66845416016943L-4.033659548129114,-31.184684783417914L99.37533732815953,174.20456487347982zM97.94143142493178,156.66845416016943L-3.6502949442463555,-127.17001222189784L-4.033659548129114,-31.184684783417914z" style="fill:rgb(247,158,158)"/><path d="M-144.17666433704827,6.004057679972143L-3.6502949442463555,-127.17001222189784L-130.9052319462375,-90.38320896844891z" style="fill:rgb(83,212,212)"/><path d="M2.086621773248574,194.55764094161856L-4.033659548129114,-31.184684783417914L-144.17666433704827,6.004057679972143z" style="fill:rgb(127,37,217)"/><path d="M-3.6502949442463555,-127.17001222189784L-144.17666433704827,6.004057679972143L-4.033659548129114,-31.184684783417914z" style="fill:rgb(83,212,212)"/></svg>