<?xml version="1.0" encoding="UTF-8"?>
<!-- Generated by jsxcad -->
<!DOCTYPE svg PUBLIC "-//W3C//DTD SVG 1.1 Tiny//EN" "http://www.w3.org/Graphics/SVG/1.1/DTD/svg11-tiny.dtd">
<svg viewBox="-250 -250 500 500" width="500" height="500" xmlns="http://www.w3.org/2000/svg"><path d="M-28.496514274938136,48.29067093956707L-73.50505213722971,-21.799870475989117L-43.11221496366845,31.218090266029463z" style="fill:rgb(23,55,145)"/><path d="M-64.13902623060144,-67.59295321663582L-58.85353593600291,-5.117746095428964L-43.039494728953926,-89.09693253227496zM-73.50505213722971,-21.799870475989117L-64.13902623060144,-67.59295321663582L-75.06808456373179,-43.932543787027576zM-43.039494728953926,-89.09693253227496L-32.88821006765449,2.6432856396377713L-15.192410727373272,-105.35576996194375zM-15.192410727373272,-105.35576996194375L2.7347912767836297e-14,-0.5695529647152705L15.307352580062634,-114.0328356797841zM-64.13902623060144,-67.59295321663582L-73.50505213722971,-21.799870475989117L-58.85353593600291,-5.117746095428964zM15.307352580062634,-114.0328356797841L33.43164702209968,-14.523084476074555L43.974951461903274,-113.6710034669827z" style="fill:rgb(83,212,212)"/><path d="M101.11067783434308,-28.790141750206185L76.27618482928948,-61.887415848736104L100.02053206989994,-4.903670862688661z" style="fill:rgb(246,148,167)"/><path d="M-3.278067681060114,56.71124626014837L-58.85353593600291,-5.117746095428964L-28.496514274938136,48.29067093956707z" style="fill:rgb(57,36,182)"/><path d="M-73.50505213722971,-21.799870475989117L-28.496514274938136,48.29067093956707L-58.85353593600291,-5.117746095428964z" style="fill:rgb(23,55,145)"/><path d="M43.974951461903274,-113.6710034669827L60.61679726721895,-36.47557636254923L66.2388673614662,-103.90452375681599z" style="fill:rgb(83,212,212)"/><path d="M76.27618482928948,-61.887415848736104L101.11067783434308,-28.790141750206185L77.96064171986035,-85.75819852625483z" style="fill:rgb(246,148,167)"/><path d="M-43.039494728953926,-89.09693253227496L-58.85353593600291,-5.117746095428964L-32.88821006765449,2.6432856396377713z" style="fill:rgb(83,212,212)"/><path d="M100.02053206989994,-4.903670862688661L60.61679726721895,-36.47557636254923L85.56620481277915,20.09454481967639z" style="fill:rgb(231,109,199)"/><path d="M66.2388673614662,-103.90452375681599L76.27618482928948,-61.887415848736104L77.96064171986035,-85.75819852625483zM-15.192410727373272,-105.35576996194375L-32.88821006765449,2.6432856396377713L2.7347912767836297e-14,-0.5695529647152705z" style="fill:rgb(83,212,212)"/><path d="M3.061567252164363e-14,-0.5695529647152705L-3.278067681060114,56.71124626014837L28.251477478690063,54.35178899174732z" style="fill:rgb(102,32,209)"/><path d="M-58.85353593600291,-5.117746095428964L-3.278067681060114,56.71124626014837L-32.88821006765449,2.6432856396377713z" style="fill:rgb(57,36,182)"/><path d="M85.56620481277915,20.09454481967639L33.43164702209968,-14.523084476074555L59.99963270194083,41.29844315266777z" style="fill:rgb(197,72,218)"/><path d="M33.43164702209968,-14.523084476074555L28.251477478690063,54.35178899174732L59.99963270194083,41.29844315266777z" style="fill:rgb(152,45,222)"/><path d="M15.307352580062634,-114.0328356797841L2.7347912767836297e-14,-0.5695529647152705L33.43164702209968,-14.523084476074555z" style="fill:rgb(83,212,212)"/><path d="M60.61679726721895,-36.47557636254923L100.02053206989994,-4.903670862688661L76.27618482928948,-61.887415848736104z" style="fill:rgb(231,109,199)"/><path d="M66.2388673614662,-103.90452375681599L60.61679726721895,-36.47557636254923L76.27618482928948,-61.887415848736104zM43.974951461903274,-113.6710034669827L33.43164702209968,-14.523084476074555L60.61679726721895,-36.47557636254923z" style="fill:rgb(83,212,212)"/><path d="M-3.278067681060114,56.71124626014837L3.061567252164363e-14,-0.5695529647152705L-32.88821006765449,2.6432856396377713z" style="fill:rgb(102,32,209)"/><path d="M33.43164702209968,-14.523084476074555L85.56620481277915,20.09454481967639L60.61679726721895,-36.47557636254923z" style="fill:rgb(197,72,218)"/><path d="M28.251477478690063,54.35178899174732L33.43164702209968,-14.523084476074555L3.1856030795741834e-14,-0.5695529647152705z" style="fill:rgb(152,45,222)"/><path d="M64.6848152136139,54.23752165823099L107.9423290587894,35.04522322191144L56.39488304673278,-86.14181730474057z" style="fill:rgb(247,158,158)"/><path d="M95.13182160931204,118.0092788598346L-54.43147780826396,210.73601308976941L121.88418475134897,174.04253645310715z" style="fill:rgb(127,37,217)"/><path d="M107.9423290587894,35.04522322191144L64.6848152136139,54.23752165823099L121.88418475134897,174.04253645310715z" style="fill:rgb(247,158,158)"/><path d="M-54.43147780826396,210.73601308976941L95.13182160931204,118.0092788598346L-90.85965545944322,159.48275943465427z" style="fill:rgb(127,37,217)"/><path d="M-115.86167766103783,-38.797257721483156L64.6848152136139,54.23752165823099L56.39488304673278,-86.14181730474057zM64.6848152136139,54.23752165823099L-115.86167766103783,-38.797257721483156L-132.07797256507948,101.48992381088132z" style="fill:rgb(83,212,212)"/><path d="M64.6848152136139,54.23752165823099L-90.85965545944322,159.48275943465427L95.13182160931204,118.0092788598346zM-90.85965545944322,159.48275943465427L64.6848152136139,54.23752165823099L-132.07797256507948,101.48992381088132z" style="fill:rgb(127,37,217)"/></svg>
