<svg viewBox="-250 -250 500 500" width="500" height="500" xmlns="http://www.w3.org/2000/svg"><path d="M102.4557382136695,-41.534149318996185L-28.825040786949582,-49.18018694950658L-40.23719912670109,-44.70721650742962zM102.4557382136695,-41.534149318996185L-40.23719912670109,-44.70721650742962L-51.5241124096547,-39.87850261909221zM102.4557382136695,-41.534149318996185L-51.5241124096547,-39.87850261909221L-60.709751970915825,-35.60911474932645zM102.4557382136695,-41.534149318996185L-17.366681289518755,-53.26592523960471L-28.825040786949582,-49.18018694950658zM102.4557382136695,-41.534149318996185L-5.941753279646244,-56.934151269137274L-17.366681289518755,-53.26592523960471zM102.4557382136695,-41.534149318996185L5.369115481240854,-60.155699231030624L-5.941753279646244,-56.934151269137274zM102.4557382136695,-41.534149318996185L16.483618080623053,-62.90209064987219L5.369115481240854,-60.155699231030624zM102.4557382136695,-41.534149318996185L27.318165724773035,-65.14673038159474L16.483618080623053,-62.90209064987219zM102.4557382136695,-41.534149318996185L37.78717155158862,-66.86371652979979L27.318165724773035,-65.14673038159474zM91.27692431363378,-21.143208414985327L-60.709751970915825,-35.60911474932645L-62.607321926306135,-34.7271003499866zM91.27692431363378,-21.143208414985327L-62.607321926306135,-34.7271003499866L-73.4085708428301,-29.28716524895697zM91.27692431363378,-21.143208414985327L-73.4085708428301,-29.28716524895697L-83.84921851181605,-23.594654321904432zM102.4557382136695,-41.534149318996185L47.80303898063408,-68.02930163352511L37.78717155158862,-66.86371652979979zM91.27692431363378,-21.143208414985327L-83.84921851181605,-23.594654321904432L-93.85033388769232,-17.68728597828729zM91.27692431363378,-21.143208414985327L-93.85033388769232,-17.68728597828729L-103.33250071355934,-11.604775497507466zM102.4557382136695,-41.534149318996185L57.276423906258685,-68.62103738500652L47.80303898063408,-68.02930163352511zM91.27692431363378,-21.143208414985327L-103.33250071355934,-11.604775497507466L-112.21549313773158,-5.389589103230799zM102.4557382136695,-41.534149318996185L66.11663759308104,-68.61906147740977L57.276423906258685,-68.62103738500652zM-145.440630764026,27.024377120080313L-148.43863458104522,31.98466198398415L-150.90301459931294,37.71506715396395zM91.27692431363378,-21.143208414985327L-112.21549313773158,-5.389589103230799L-120.41902953128081,0.9136624555972938zM102.4557382136695,-41.534149318996185L74.23124745514045,-68.00665008973644L66.11663759308104,-68.61906147740977zM91.27692431363378,-21.143208414985327L-120.41902953128081,0.9136624555972938L-127.86216339082301,7.257480679586564zM-145.440630764026,27.024377120080313L-150.90301459931294,37.71506715396395L-152.15733162302453,43.13984244561774zM102.4557382136695,-41.534149318996185L81.52772877080038,-66.769900651985L74.23124745514045,-68.00665008973644zM91.27692431363378,-21.143208414985327L-127.86216339082301,7.257480679586564L-134.46445151975158,13.591404582825257zM-145.440630764026,27.024377120080313L-152.15733162302453,43.13984244561774L-152.14398593732096,48.19304452581562zM91.27692431363378,-21.143208414985327L-134.46445151975158,13.591404582825257L-140.14618825298868,19.86213592591029zM102.4557382136695,-41.534149318996185L87.91345017640683,-64.89969476324015L81.52772877080038,-66.769900651985zM-145.440630764026,27.024377120080313L-152.14398593732096,48.19304452581562L-150.81543537061867,52.80754224152064zM91.27692431363378,-21.143208414985327L-140.14618825298868,19.86213592591029L-144.8292929470881,26.012995512169603zM102.4557382136695,-41.534149318996185L93.2974201048768,-62.39116268444088L87.91345017640683,-64.89969476324015zM91.27692431363378,-21.143208414985327L-144.8292929470881,26.012995512169603L-145.440630764026,27.024377120080313zM-145.440630764026,27.024377120080313L-150.81543537061867,52.80754224152064L-148.13611109681173,56.91668131142251zM91.27692431363378,-21.143208414985327L102.4557382136695,-41.534149318996185L-60.709751970915825,-35.60911474932645zM102.4557382136695,-41.534149318996185L97.59144735055578,-59.246011070363664L93.2974201048768,-62.39116268444088z" style="fill:rgb(82,237,172)"/><path d="M124.13924767382203,8.66053482160581L102.58259356754172,-51.085354169952815L124.94236250856349,14.250253690716194z" style="fill:rgb(246,166,151)"/><path d="M-120.4599562862383,114.94184876819679L-148.13611109681173,56.91668131142251L-123.41144076110744,110.22747877622561z" style="fill:rgb(15,71,152)"/><path d="M-145.440630764026,27.024377120080313L-148.13611109681173,56.91668131142251L-144.08512957756216,60.45512504364638zM102.4557382136695,-41.534149318996185L100.7121402996755,-55.4721998684021L97.59144735055578,-59.246011070363664z" style="fill:rgb(82,237,172)"/><path d="M-123.41144076110744,110.22747877622561L-148.13611109681173,56.91668131142251L-150.81543537061867,52.80754224152064z" style="fill:rgb(15,71,152)"/><path d="M103.13524951669571,-46.10963325089807L124.49613687503208,19.319928375896236L124.94236250856349,14.250253690716194z" style="fill:rgb(245,161,162)"/><path d="M124.94236250856349,14.250253690716194L102.58259356754172,-51.085354169952815L103.13524951669571,-46.10963325089807z" style="fill:rgb(246,166,151)"/><path d="M120.80149276713767,9.118741239853003L124.40297008147168,20.37807328206723L124.49613687503208,19.319928375896236z" style="fill:rgb(245,161,162)"/><path d="M-145.440630764026,27.024377120080313L-144.08512957756216,60.45512504364638L-138.65848530947846,63.36020124069101zM102.4557382136695,-41.534149318996185L102.58259356754172,-51.085354169952815L100.7121402996755,-55.4721998684021z" style="fill:rgb(82,237,172)"/><path d="M103.13524951669571,-46.10963325089807L120.80149276713767,9.118741239853003L124.49613687503208,19.319928375896236z" style="fill:rgb(245,161,162)"/><path d="M-116.17149944606643,119.09467712315599L-144.08512957756216,60.45512504364638L-120.4599562862383,114.94184876819679z" style="fill:rgb(20,68,163)"/><path d="M120.80149276713767,9.118741239853003L102.31396970403138,-40.5788783539493L124.40297008147168,20.37807328206723z" style="fill:rgb(245,161,162)"/><path d="M-120.4599562862383,114.94184876819679L-144.08512957756216,60.45512504364638L-148.13611109681173,56.91668131142251z" style="fill:rgb(20,68,163)"/><path d="M-145.440630764026,27.024377120080313L-138.65848530947846,63.36020124069101L-131.87181664543505,65.57417643153882zM102.4557382136695,-41.534149318996185L103.13524951669571,-46.10963325089807L102.58259356754172,-51.085354169952815z" style="fill:rgb(82,237,172)"/><path d="M120.80149276713767,9.118741239853003L103.13524951669571,-46.10963325089807L102.4557382136695,-41.534149318996185z" style="fill:rgb(245,161,162)"/><path d="M124.40297008147168,20.37807328206723L102.31396970403138,-40.5788783539493L122.47862053177917,26.992750436369285z" style="fill:rgb(242,155,174)"/><path d="M120.80149276713767,9.118741239853003L102.4557382136695,-41.534149318996185L102.31396970403138,-40.5788783539493z" style="fill:rgb(245,161,162)"/><path d="M-110.54733738479544,122.61753765462038L-138.65848530947846,63.36020124069101L-116.17149944606643,119.09467712315599z" style="fill:rgb(26,66,175)"/><path d="M-145.440630764026,27.024377120080313L-131.87181664543505,65.57417643153882L-123.76169566080073,67.04526053403158z" style="fill:rgb(82,237,172)"/><path d="M-116.17149944606643,119.09467712315599L-138.65848530947846,63.36020124069101L-144.08512957756216,60.45512504364638z" style="fill:rgb(26,66,175)"/><path d="M122.47862053177917,26.992750436369285L100.07693963142813,-34.536481266850664L119.1430340519388,34.03207600325517z" style="fill:rgb(239,149,184)"/><path d="M122.47862053177917,26.992750436369285L102.31396970403138,-40.5788783539493L100.07693963142813,-34.536481266850664z" style="fill:rgb(242,155,174)"/><path d="M-145.440630764026,27.024377120080313L-123.76169566080073,67.04526053403158L-114.38820470067675,67.73017094263167z" style="fill:rgb(82,237,172)"/><path d="M-103.6073942319269,125.4456379622392L-131.87181664543505,65.57417643153882L-110.54733738479544,122.61753765462038z" style="fill:rgb(32,65,185)"/><path d="M-145.440630764026,27.024377120080313L-114.38820470067675,67.73017094263167L-103.83549214554947,67.59567550892793z" style="fill:rgb(82,237,172)"/><path d="M-110.54733738479544,122.61753765462038L-131.87181664543505,65.57417643153882L-138.65848530947846,63.36020124069101z" style="fill:rgb(32,65,185)"/><path d="M119.1430340519388,34.03207600325517L96.39953430844204,-28.03644536665156L114.38919642684841,41.42392234662215z" style="fill:rgb(234,143,195)"/><path d="M91.27692431363378,-21.143208414985327L102.31396970403138,-40.5788783539493L102.4557382136695,-41.534149318996185z" style="fill:rgb(82,237,172)"/><path d="M119.1430340519388,34.03207600325517L100.07693963142813,-34.536481266850664L96.39953430844204,-28.03644536665156z" style="fill:rgb(239,149,184)"/><path d="M-145.440630764026,27.024377120080313L-103.83549214554947,67.59567550892793L-92.21170766135937,66.6204059193865zM91.27692431363378,-21.143208414985327L-145.440630764026,27.024377120080313L17.16784877463104,31.929466613227298z" style="fill:rgb(82,237,172)"/><path d="M-95.39303774042097,127.52032250908788L-123.76169566080073,67.04526053403158L-103.6073942319269,125.4456379622392z" style="fill:rgb(40,64,196)"/><path d="M91.27692431363378,-21.143208414985327L100.07693963142813,-34.536481266850664L102.31396970403138,-40.5788783539493zM-145.440630764026,27.024377120080313L-92.21170766135937,66.6204059193865L-79.64952552319673,64.79672086740149z" style="fill:rgb(82,237,172)"/><path d="M-103.6073942319269,125.4456379622392L-123.76169566080073,67.04526053403158L-131.87181664543505,65.57417643153882z" style="fill:rgb(40,64,196)"/><path d="M114.38919642684841,41.42392234662215L91.27692431363378,-21.143208414985327L108.2314444392005,49.08593486294978z" style="fill:rgb(228,137,204)"/><path d="M114.38919642684841,41.42392234662215L96.39953430844204,-28.03644536665156L91.27692431363378,-21.143208414985327z" style="fill:rgb(234,143,195)"/><path d="M91.27692431363378,-21.143208414985327L96.39953430844204,-28.03644536665156L100.07693963142813,-34.536481266850664zM-145.440630764026,27.024377120080313L-79.64952552319673,64.79672086740149L-66.30369079513405,62.13127977573874z" style="fill:rgb(82,237,172)"/><path d="M-85.9673728758045,128.79098884069367L-114.38820470067675,67.73017094263167L-95.39303774042097,127.52032250908788z" style="fill:rgb(49,63,205)"/><path d="M-145.440630764026,27.024377120080313L-66.30369079513405,62.13127977573874L-52.34916100401556,58.646628644675616z" style="fill:rgb(82,237,172)"/><path d="M-95.39303774042097,127.52032250908788L-114.38820470067675,67.73017094263167L-123.76169566080073,67.04526053403158z" style="fill:rgb(49,63,205)"/><path d="M-145.440630764026,27.024377120080313L-52.34916100401556,58.646628644675616L-37.97671210415314,54.380838439399206z" style="fill:rgb(82,237,172)"/><path d="M108.2314444392005,49.08593486294978L84.72624522359007,-13.931424783318862L100.70737479063203,56.9264880909064z" style="fill:rgb(221,130,213)"/><path d="M-145.440630764026,27.024377120080313L-37.97671210415314,54.380838439399206L-23.38990042253991,49.387258500898554zM-145.440630764026,27.024377120080313L5.584144760343887,37.50201246132642L17.16784877463104,31.929466613227298z" style="fill:rgb(82,237,172)"/><path d="M108.2314444392005,49.08593486294978L91.27692431363378,-21.143208414985327L84.72624522359007,-13.931424783318862z" style="fill:rgb(228,137,204)"/><path d="M-145.440630764026,27.024377120080313L-8.799008563556967,43.73408120516776L5.584144760343887,37.50201246132642zM-145.440630764026,27.024377120080313L-23.38990042253991,49.387258500898554L-8.799008563556967,43.73408120516776z" style="fill:rgb(82,237,172)"/><path d="M-75.4171284932733,129.21688468694654L-103.83549214554947,67.59567550892793L-85.9673728758045,128.79098884069367z" style="fill:rgb(58,64,214)"/><path d="M100.70737479063203,56.9264880909064L76.78911767290269,-6.4859701592537125L91.87944790382043,64.8461663463989z" style="fill:rgb(213,124,221)"/><path d="M-85.9673728758045,128.79098884069367L-103.83549214554947,67.59567550892793L-114.38820470067675,67.73017094263167z" style="fill:rgb(58,64,214)"/><path d="M100.70737479063203,56.9264880909064L84.72624522359007,-13.931424783318862L76.78911767290269,-6.4859701592537125z" style="fill:rgb(221,130,213)"/><path d="M-63.85217383371784,128.76898345199172L-92.21170766135937,66.6204059193865L-75.4171284932733,129.21688468694654z" style="fill:rgb(69,65,222)"/><path d="M91.27692431363378,-21.143208414985327L76.78911767290269,-6.4859701592537125L84.72624522359007,-13.931424783318862zM158.73774766673841,-98.49577486443452L45.14507008265247,-89.17260713647661L-43.807866070160316,-21.214036557971024z" style="fill:rgb(82,237,172)"/><path d="M91.87944790382043,64.8461663463989L67.53259281856187,1.1001357440723878L81.8355382666146,72.73889682855948z" style="fill:rgb(204,117,228)"/><path d="M-75.4171284932733,129.21688468694654L-92.21170766135937,66.6204059193865L-103.83549214554947,67.59567550892793z" style="fill:rgb(69,65,222)"/><path d="M91.27692431363378,-21.143208414985327L67.53259281856187,1.1001357440723878L76.78911767290269,-6.4859701592537125z" style="fill:rgb(82,237,172)"/><path d="M-51.405330347345334,127.43200403150234L-79.64952552319673,64.79672086740149L-63.85217383371784,128.76898345199172z" style="fill:rgb(79,66,228)"/><path d="M91.87944790382043,64.8461663463989L76.78911767290269,-6.4859701592537125L67.53259281856187,1.1001357440723878z" style="fill:rgb(213,124,221)"/><path d="M81.8355382666146,72.73889682855948L57.049511347284636,8.726608885327906L70.68824045067302,80.49489282062066z" style="fill:rgb(195,111,234)"/><path d="M91.27692431363378,-21.143208414985327L57.049511347284636,8.726608885327906L67.53259281856187,1.1001357440723878z" style="fill:rgb(82,237,172)"/><path d="M-63.85217383371784,128.76898345199172L-79.64952552319673,64.79672086740149L-92.21170766135937,66.6204059193865z" style="fill:rgb(79,66,228)"/><path d="M-38.23040424769773,125.20571378659811L-66.30369079513405,62.13127977573874L-51.405330347345334,127.43200403150234z" style="fill:rgb(91,68,234)"/><path d="M81.8355382666146,72.73889682855948L67.53259281856187,1.1001357440723878L57.049511347284636,8.726608885327906z" style="fill:rgb(204,117,228)"/><path d="M91.27692431363378,-21.143208414985327L45.459042128849134,16.28797710331582L57.049511347284636,8.726608885327906z" style="fill:rgb(82,237,172)"/><path d="M70.68824045067302,80.49489282062066L45.459042128849134,16.28797710331582L58.57426882688342,88.00272436055245z" style="fill:rgb(184,105,239)"/><path d="M-24.499539093840713,122.10529659208694L-52.34916100401556,58.646628644675616L-38.23040424769773,125.20571378659811z" style="fill:rgb(102,71,239)"/><path d="M91.27692431363378,-21.143208414985327L32.90453953641649,23.676207272478965L45.459042128849134,16.28797710331582z" style="fill:rgb(82,237,172)"/><path d="M-51.405330347345334,127.43200403150234L-66.30369079513405,62.13127977573874L-79.64952552319673,64.79672086740149z" style="fill:rgb(91,68,234)"/><path d="M26.28883392290751,54.3615627168208L43.33851922816696,96.2930888092221L43.55493569758138,96.31230159829813z" style="fill:rgb(49,63,205)"/><path d="M58.57426882688342,88.00272436055245L32.90453953641649,23.676207272478965L45.651863013111125,95.15216922604831z" style="fill:rgb(174,99,242)"/><path d="M70.68824045067302,80.49489282062066L57.049511347284636,8.726608885327906L45.459042128849134,16.28797710331582z" style="fill:rgb(195,111,234)"/><path d="M141.3393833170251,-11.159710440159829L198.39620673318765,20.544596563947923L176.81496398110968,-44.23435857964021z" style="fill:rgb(217,127,217)"/><path d="M-10.40045370833544,118.16253008066616L-37.97671210415314,54.380838439399206L-24.499539093840713,122.10529659208694z" style="fill:rgb(114,75,243)"/><path d="M21.739177571438965,43.17217021460939L32.097851367121656,101.83714427791637L43.33851922816696,96.2930888092221z" style="fill:rgb(162,93,245)"/><path d="M91.27692431363378,-21.143208414985327L19.55162347518254,30.78272311007097L32.90453953641649,23.676207272478965z" style="fill:rgb(82,237,172)"/><path d="M19.55162347518254,30.78272311007097L43.33851922816696,96.2930888092221L45.651863013111125,95.15216922604831z" style="fill:rgb(162,93,245)"/><path d="M91.27692431363378,-21.143208414985327L17.16784877463104,31.929466613227298L19.55162347518254,30.78272311007097z" style="fill:rgb(82,237,172)"/><path d="M3.8685898836545727,113.42575128207262L-23.38990042253991,49.387258500898554L-10.40045370833544,118.16253008066616z" style="fill:rgb(126,79,245)"/><path d="M-38.23040424769773,125.20571378659811L-52.34916100401556,58.646628644675616L-66.30369079513405,62.13127977573874z" style="fill:rgb(102,71,239)"/><path d="M32.097851367121656,101.83714427791637L5.584144760343887,37.50201246132642L18.103182253236525,107.95811823811141z" style="fill:rgb(151,88,246)"/><path d="M18.103182253236525,107.95811823811141L-8.799008563556967,43.73408120516776L3.8685898836545727,113.42575128207262z" style="fill:rgb(139,83,246)"/><path d="M26.28883392290751,54.3615627168208L43.55493569758138,96.31230159829813L26.41280619158778,54.144627907192984z" style="fill:rgb(49,63,205)"/><path d="M58.57426882688342,88.00272436055245L45.459042128849134,16.28797710331582L32.90453953641649,23.676207272478965z" style="fill:rgb(184,105,239)"/><path d="M38.735298710406916,32.58004955370995L-43.807866070160316,-21.214036557971024L-21.882770116885883,30.7515036903896z" style="fill:rgb(49,63,205)"/><path d="M-24.499539093840713,122.10529659208694L-37.97671210415314,54.380838439399206L-52.34916100401556,58.646628644675616z" style="fill:rgb(114,75,243)"/><path d="M19.55162347518254,30.78272311007097L21.739177571438965,43.17217021460939L43.33851922816696,96.2930888092221z" style="fill:rgb(162,93,245)"/><path d="M45.651863013111125,95.15216922604831L32.90453953641649,23.676207272478965L19.55162347518254,30.78272311007097z" style="fill:rgb(174,99,242)"/><path d="M21.739177571438965,43.17217021460939L5.584144760343887,37.50201246132642L32.097851367121656,101.83714427791637z" style="fill:rgb(162,93,245)"/><path d="M-10.40045370833544,118.16253008066616L-23.38990042253991,49.387258500898554L-37.97671210415314,54.380838439399206z" style="fill:rgb(126,79,245)"/><path d="M3.8685898836545727,113.42575128207262L-8.799008563556967,43.73408120516776L-23.38990042253991,49.387258500898554z" style="fill:rgb(139,83,246)"/><path d="M18.103182253236525,107.95811823811141L5.584144760343887,37.50201246132642L-8.799008563556967,43.73408120516776z" style="fill:rgb(151,88,246)"/><path d="M26.28883392290751,54.3615627168208L26.41280619158778,54.144627907192984L17.3845811508307,31.93600440737743zM38.735298710406916,32.58004955370995L26.41280619158778,54.144627907192984L43.55493569758138,96.31230159829813z" style="fill:rgb(49,63,205)"/><path d="M176.81496398110968,-44.23435857964021L158.73774766673841,-98.49577486443452L141.3393833170251,-11.159710440159829z" style="fill:rgb(217,127,217)"/><path d="M26.28883392290751,54.3615627168208L17.3845811508307,31.93600440737743L17.16784877463104,31.929466613227298z" style="fill:rgb(49,63,205)"/><path d="M141.3393833170251,-11.159710440159829L134.93277318282844,86.10517659812669L198.39620673318765,20.544596563947923z" style="fill:rgb(217,127,217)"/><path d="M21.739177571438965,43.17217021460939L19.55162347518254,30.78272311007097L17.16784877463104,31.929466613227298zM21.739177571438965,43.17217021460939L17.16784877463104,31.929466613227298L5.584144760343887,37.50201246132642z" style="fill:rgb(162,93,245)"/><path d="M38.735298710406916,32.58004955370995L43.55493569758138,96.31230159829813L76.6979721717158,99.25462473028252zM26.41280619158778,54.144627907192984L38.735298710406916,32.58004955370995L17.3845811508307,31.93600440737743zM38.735298710406916,32.58004955370995L76.6979721717158,99.25462473028252L50.60291888078564,32.93803667190453z" style="fill:rgb(49,63,205)"/><path d="M141.3393833170251,-11.159710440159829L126.5202283690434,63.230352160536285L134.93277318282844,86.10517659812669z" style="fill:rgb(217,127,217)"/><path d="M158.73774766673841,-98.49577486443452L-43.807866070160316,-21.214036557971024L70.86790706853536,-23.652827848343335z" style="fill:rgb(82,237,172)"/><path d="M50.60291888078564,32.93803667190453L76.6979721717158,99.25462473028252L118.6026596143833,102.9748072138837z" style="fill:rgb(49,63,205)"/><path d="M126.5202283690434,63.230352160536285L118.6026596143833,102.9748072138837L134.93277318282844,86.10517659812669z" style="fill:rgb(217,127,217)"/><path d="M38.735298710406916,32.58004955370995L70.86790706853536,-23.652827848343335L-43.807866070160316,-21.214036557971024z" style="fill:rgb(49,63,205)"/><path d="M109.93133441053416,18.122766228241463L126.5202283690434,63.230352160536285L141.3393833170251,-11.159710440159829zM141.3393833170251,-11.159710440159829L158.73774766673841,-98.49577486443452L70.86790706853536,-23.652827848343335zM109.93133441053416,18.122766228241463L118.6026596143833,102.9748072138837L126.5202283690434,63.230352160536285z" style="fill:rgb(217,127,217)"/><path d="M50.60291888078564,32.93803667190453L118.6026596143833,102.9748072138837L92.67949191628611,34.207272521919606z" style="fill:rgb(49,63,205)"/><path d="M109.93133441053416,18.122766228241463L92.67949191628611,34.207272521919606L118.6026596143833,102.9748072138837zM141.3393833170251,-11.159710440159829L70.86790706853536,-23.652827848343335L92.67949191628611,34.207272521919606z" style="fill:rgb(217,127,217)"/><path d="M92.67949191628611,34.207272521919606L70.86790706853536,-23.652827848343335L38.735298710406916,32.58004955370995z" style="fill:rgb(49,63,205)"/></svg>