<svg viewBox="-250 -250 500 500" width="500" height="500" xmlns="http://www.w3.org/2000/svg"><path d="M83.80243373300327,-20.81960722107153L81.79847588540665,-31.457271647078503L81.47371377708173,-22.45505158721932zM88.09881253591907,20.773415870883845L86.77426060123024,59.64090233493518L88.24283980519215,33.91186855751873zM81.47371377708173,-22.45505158721932L81.79847588540665,-31.457271647078503L81.26648627174032,-22.600580676054705zM87.37469178309918,7.575769939680076L85.15924393020585,72.04309084424122L88.09881253591907,20.773415870883845zM81.26648627174032,-22.600580676054705L81.79847588540665,-31.457271647078503L78.84125711890607,-43.97707426976181zM87.80208280756975,46.898911881536016L88.24283980519215,33.91186855751873L86.77426060123024,59.64090233493518zM86.0770428962719,-5.589456478470256L82.95947150625545,84.00887567979967L87.37469178309918,7.575769939680076zM81.26648627174032,-22.600580676054705L78.84125711890607,-43.97707426976181L78.13325674751569,-24.801023959372394zM85.15924393020585,72.04309084424122L86.77426060123024,59.64090233493518L88.09881253591907,20.773415870883845zM84.21470163030308,-18.630898437689392L80.18048012227288,95.44012687632271L86.0770428962719,-5.589456478470256zM77.68770469355853,-25.113940308504894L78.84125711890607,-43.97707426976181L75.35854004527991,-56.097773352807245zM78.13325674751569,-24.801023959372394L78.84125711890607,-43.97707426976181L77.68770469355853,-25.113940308504894zM82.95947150625545,84.00887567979967L85.15924393020585,72.04309084424122L87.37469178309918,7.575769939680076zM83.80243373300327,-20.81960722107153L76.83109243046434,106.23691821657972L84.21470163030308,-18.630898437689392zM77.68770469355853,-25.113940308504894L75.35854004527991,-56.097773352807245L74.27511962759128,-27.51057039075614zM83.80243373300327,-20.81960722107153L81.47371377708173,-22.45505158721932L76.83109243046434,106.23691821657972zM73.60401658270555,-27.9818897435199L75.35854004527991,-56.097773352807245L71.36821772703145,-67.72634921443054zM81.26648627174032,-22.600580676054705L76.83109243046434,106.23691821657972L81.47371377708173,-22.45505158721932zM74.27511962759128,-27.51057039075614L75.35854004527991,-56.097773352807245L73.60401658270555,-27.9818897435199zM80.18048012227288,95.44012687632271L82.95947150625545,84.00887567979967L86.0770428962719,-5.589456478470256zM78.13325674751569,-24.801023959372394L73.49995178298923,106.70782873818513L81.26648627174032,-22.600580676054705zM73.60401658270555,-27.9818897435199L71.36821772703145,-67.72634921443054L69.91906613178767,-30.569802932166265zM76.83109243046434,106.23691821657972L80.18048012227288,95.44012687632271L84.21470163030308,-18.630898437689392zM77.68770469355853,-25.113940308504894L73.28172378328557,106.60670085869933L78.13325674751569,-24.801023959372394zM69.03718437756952,-31.189142558160004L71.36821772703145,-67.72634921443054L66.89149071041032,-78.76847661183662zM69.91906613178767,-30.569802932166265L71.36821772703145,-67.72634921443054L69.03718437756952,-31.189142558160004zM74.27511962759128,-27.51057039075614L69.73297581410391,104.96210719675965L77.68770469355853,-25.113940308504894zM81.26648627174032,-22.600580676054705L76.16807671481408,107.94431714110573L76.83109243046434,106.23691821657972zM69.03718437756952,-31.189142558160004L66.89149071041032,-78.76847661183662L65.08898892127532,-33.96193090267795zM81.26648627174032,-22.600580676054705L73.49995178298923,106.70782873818513L76.16807671481408,107.94431714110573zM73.60401658270555,-27.9818897435199L69.26312426128592,104.74436999320439L74.27511962759128,-27.51057039075614zM64.01319310467223,-34.71745506554272L66.89149071041032,-78.76847661183662L61.952488439017486,-89.12902849150198zM65.08898892127532,-33.96193090267795L66.89149071041032,-78.76847661183662L64.01319310467223,-34.71745506554272zM78.13325674751569,-24.801023959372394L73.28172378328557,106.60670085869933L73.49995178298923,106.70782873818513zM69.91906613178767,-30.569802932166265L65.43240258800161,102.9691043910953L73.60401658270555,-27.9818897435199zM77.68770469355853,-25.113940308504894L69.73297581410391,104.96210719675965L73.28172378328557,106.60670085869933zM64.01319310467223,-34.71745506554272L61.952488439017486,-89.12902849150198L59.81321639006246,-37.66706764879927zM69.03718437756952,-31.189142558160004L64.72373612405791,102.6406860607325L69.91906613178767,-30.569802932166265zM57.30654175041577,-39.42749118192225L61.952488439017486,-89.12902849150198L56.579166041052645,-98.71188370585163zM74.27511962759128,-27.51057039075614L69.26312426128592,104.74436999320439L69.73297581410391,104.96210719675965zM59.81321639006246,-37.66706764879927L61.952488439017486,-89.12902849150198L58.56254537321008,-38.545404078272995zM58.56254537321008,-38.545404078272995L61.952488439017486,-89.12902849150198L57.30654175041577,-39.42749118192225zM73.49995178298923,106.70782873818513L72.92392046496393,116.29772004559852L76.16807671481408,107.94431714110573zM73.60401658270555,-27.9818897435199L65.43240258800161,102.9691043910953L69.26312426128592,104.74436999320439zM65.08898892127532,-33.96193090267795L60.62019762684795,100.73910311319415L69.03718437756952,-31.189142558160004zM73.28172378328557,106.60670085869933L72.92392046496393,116.29772004559852L73.49995178298923,106.70782873818513zM64.01319310467223,-34.71745506554272L59.687700979974444,100.30684457878948L65.08898892127532,-33.96193090267795zM69.73297581410391,104.96210719675965L72.92392046496393,116.29772004559852L73.28172378328557,106.60670085869933zM69.91906613178767,-30.569802932166265L64.72373612405791,102.6406860607325L65.43240258800161,102.9691043910953zM57.30654175041577,-39.42749118192225L56.579166041052645,-98.71188370585163L52.72107471996916,-42.6477182649635zM52.72107471996916,-42.6477182649635L56.579166041052645,-98.71188370585163L50.80365481409052,-107.4202795805687zM69.73297581410391,104.96210719675965L68.47587199978665,125.52023792691026L72.92392046496393,116.29772004559852zM69.03718437756952,-31.189142558160004L60.62019762684795,100.73910311319415L64.72373612405791,102.6406860607325zM59.81321639006246,-37.66706764879927L55.32282073129959,98.28404795226587L64.01319310467223,-34.71745506554272zM69.26312426128592,104.74436999320439L68.47587199978665,125.52023792691026L69.73297581410391,104.96210719675965zM65.43240258800161,102.9691043910953L68.47587199978665,125.52023792691026L69.26312426128592,104.74436999320439zM58.56254537321008,-38.545404078272995L54.18373996890067,97.75616622879242L59.81321639006246,-37.66706764879927zM65.08898892127532,-33.96193090267795L59.687700979974444,100.30684457878948L60.62019762684795,100.73910311319415zM52.72107471996916,-42.6477182649635L50.80365481409052,-107.4202795805687L48.06266680564704,-45.91940378185345zM46.530043691892416,-46.995754326967884L50.80365481409052,-107.4202795805687L44.662556171502324,-115.15778551108363zM65.43240258800161,102.9691043910953L63.508495488546814,133.80104374044475L68.47587199978665,125.52023792691026zM64.01319310467223,-34.71745506554272L55.32282073129959,98.28404795226587L59.687700979974444,100.30684457878948zM48.06266680564704,-45.91940378185345L50.80365481409052,-107.4202795805687L46.530043691892416,-46.995754326967884zM57.30654175041577,-39.42749118192225L49.57156384453268,95.61875151813086L58.56254537321008,-38.545404078272995zM64.72373612405791,102.6406860607325L63.508495488546814,133.80104374044475L65.43240258800161,102.9691043910953zM60.62019762684795,100.73910311319415L63.508495488546814,133.80104374044475L64.72373612405791,102.6406860607325zM59.81321639006246,-37.66706764879927L54.18373996890067,97.75616622879242L55.32282073129959,98.28404795226587zM52.72107471996916,-42.6477182649635L44.88589265247994,93.4472784113555L57.30654175041577,-39.42749118192225zM46.530043691892416,-46.995754326967884L44.662556171502324,-115.15778551108363L41.67087271516024,-50.40831542852273zM40.03631247906755,-51.556256623969304L44.662556171502324,-115.15778551108363L38.19743591447814,-121.82871020168794zM58.56254537321008,-38.545404078272995L49.57156384453268,95.61875151813086L54.18373996890067,97.75616622879242zM60.62019762684795,100.73910311319415L58.04918270324158,141.0377821231737L63.508495488546814,133.80104374044475zM59.687700979974444,100.30684457878948L58.04918270324158,141.0377821231737L60.62019762684795,100.73910311319415zM41.67087271516024,-50.40831542852273L44.662556171502324,-115.15778551108363L40.03631247906755,-51.556256623969304zM48.06266680564704,-45.91940378185345L43.40308667849623,92.76010883216094L52.72107471996916,-42.6477182649635zM55.32282073129959,98.28404795226587L58.04918270324158,141.0377821231737L59.687700979974444,100.30684457878948zM57.30654175041577,-39.42749118192225L44.88589265247994,93.4472784113555L49.57156384453268,95.61875151813086zM46.530043691892416,-46.995754326967884L41.91284294458485,92.0694884089065L48.06266680564704,-45.91940378185345zM40.03631247906755,-51.556256623969304L38.19743591447814,-121.82871020168794L34.99980372284672,-55.093361733631646zM33.293282021161524,-56.29184483211863L38.19743591447814,-121.82871020168794L31.455360662862663,-127.33942651043442zM54.18373996890067,97.75616622879242L52.13127565819737,147.12916813572235L55.32282073129959,98.28404795226587zM55.32282073129959,98.28404795226587L52.13127565819737,147.12916813572235L58.04918270324158,141.0377821231737zM34.99980372284672,-55.093361733631646L38.19743591447814,-121.82871020168794L33.293282021161524,-56.29184483211863zM52.72107471996916,-42.6477182649635L43.40308667849623,92.76010883216094L44.88589265247994,93.4472784113555zM41.67087271516024,-50.40831542852273L36.86002374093757,89.72786934170315L46.530043691892416,-46.995754326967884zM49.57156384453268,95.61875151813086L52.13127565819737,147.12916813572235L54.18373996890067,97.75616622879242zM48.06266680564704,-45.91940378185345L41.91284294458485,92.0694884089065L43.40308667849623,92.76010883216094zM40.03631247906755,-51.556256623969304L35.23097732175833,88.97292354843326L41.67087271516024,-50.40831542852273zM33.293282021161524,-56.29184483211863L31.455360662862663,-127.33942651043442L28.106167131528434,-59.934592194240174zM46.530043691892416,-46.995754326967884L36.86002374093757,89.72786934170315L41.91284294458485,92.0694884089065zM49.57156384453268,95.61875151813086L45.79469332307855,151.9777476502639L52.13127565819737,147.12916813572235zM24.604453458797085,-62.39394773356634L31.455360662862663,-127.33942651043442L24.489147042700406,-131.5995735052038zM44.88589265247994,93.4472784113555L45.79469332307855,151.9777476502639L49.57156384453268,95.61875151813086zM28.106167131528434,-59.934592194240174L31.455360662862663,-127.33942651043442L26.36032835345634,-61.160811574032074zM34.99980372284672,-55.093361733631646L29.99131730832434,86.54471835343053L40.03631247906755,-51.556256623969304zM26.36032835345634,-61.160811574032074L31.455360662862663,-127.33942651043442L24.604453458797085,-62.39394773356634zM41.67087271516024,-50.40831542852273L35.23097732175833,88.97292354843326L36.86002374093757,89.72786934170315zM33.293282021161524,-56.29184483211863L28.251871666762526,85.7386113748916L34.99980372284672,-55.093361733631646zM43.40308667849623,92.76010883216094L39.08635721803445,155.49033996435415L44.88589265247994,93.4472784113555zM40.03631247906755,-51.556256623969304L29.99131730832434,86.54471835343053L35.23097732175833,88.97292354843326zM41.91284294458485,92.0694884089065L39.08635721803445,155.49033996435415L43.40308667849623,92.76010883216094zM44.88589265247994,93.4472784113555L39.08635721803445,155.49033996435415L45.79469332307855,151.9777476502639zM24.604453458797085,-62.39394773356634L24.489147042700406,-131.5995735052038L19.303337929721447,-66.116888495651zM19.303337929721447,-66.116888495651L24.489147042700406,-131.5995735052038L17.35731867247666,-134.52409438087153zM28.106167131528434,-59.934592194240174L22.852373821954707,83.23633583232191L33.293282021161524,-56.29184483211863zM36.86002374093757,89.72786934170315L39.08635721803445,155.49033996435415L41.91284294458485,92.0694884089065zM34.99980372284672,-55.093361733631646L28.251871666762526,85.7386113748916L29.99131730832434,86.54471835343053zM26.36032835345634,-61.160811574032074L21.034241153115,82.39376047907234L28.106167131528434,-59.934592194240174zM19.303337929721447,-66.116888495651L17.35731867247666,-134.52409438087153L13.909745197790658,-69.90477240341836zM33.293282021161524,-56.29184483211863L22.852373821954707,83.23633583232191L28.251871666762526,85.7386113748916zM35.23097732175833,88.97292354843326L32.06106538761992,157.5817490505847L36.86002374093757,89.72786934170315z" style="fill:rgb(237,137,191)"/><path d="M-66.82063459615308,-124.09290050913617L-4.353224466367514,-134.55384551927895L-59.10889087520866,-125.67535701166626z" style="fill:rgb(105,251,145)"/><path d="M12.194066554698221,-71.10955159299185L17.35731867247666,-134.52409438087153L10.12473118805647,-136.03487345020105zM36.86002374093757,89.72786934170315L32.06106538761992,157.5817490505847L39.08635721803445,155.49033996435415zM24.604453458797085,-62.39394773356634L15.50550935201602,79.83159504440661L26.36032835345634,-61.160811574032074zM13.909745197790658,-69.90477240341836L17.35731867247666,-134.52409438087153L12.194066554698221,-71.10955159299185zM29.99131730832434,86.54471835343053L32.06106538761992,157.5817490505847L35.23097732175833,88.97292354843326z" style="fill:rgb(237,137,191)"/><path d="M-38.47955921921343,158.42984265438523L24.7810215718258,158.1758344440363L-46.439729492879565,157.50065647208783z" style="fill:rgb(123,2,153)"/><path d="M28.106167131528434,-59.934592194240174L21.034241153115,82.39376047907234L22.852373821954707,83.23633583232191z" style="fill:rgb(237,137,191)"/><path d="M-59.10889087520866,-125.67535701166626L-4.353224466367514,-134.55384551927895L2.8623308752408874,-136.0635587895816z" style="fill:rgb(105,251,145)"/><path d="M19.303337929721447,-66.116888495651L9.876638017007053,77.22301659374341L24.604453458797085,-62.39394773356634zM12.194066554698221,-71.10955159299185L10.12473118805647,-136.03487345020105L6.751536479826498,-74.93193425245735zM26.36032835345634,-61.160811574032074L15.50550935201602,79.83159504440661L21.034241153115,82.39376047907234zM28.251871666762526,85.7386113748916L24.7810215718258,158.1758344440363L29.99131730832434,86.54471835343053z" style="fill:rgb(237,137,191)"/><path d="M-74.4031989010736,-120.98728081258015L-11.44030810619936,-131.46423850225636L-66.82063459615308,-124.09290050913617z" style="fill:rgb(99,248,156)"/><path d="M5.110269791112028,-76.08458481165349L10.12473118805647,-136.03487345020105L2.8623308752408874,-136.0635587895816zM29.99131730832434,86.54471835343053L24.7810215718258,158.1758344440363L32.06106538761992,157.5817490505847zM6.751536479826498,-74.93193425245735L10.12473118805647,-136.03487345020105L5.110269791112028,-76.08458481165349zM13.909745197790658,-69.90477240341836L8.020062505918885,76.36262782076905L19.303337929721447,-66.116888495651zM22.852373821954707,83.23633583232191L24.7810215718258,158.1758344440363L28.251871666762526,85.7386113748916z" style="fill:rgb(237,137,191)"/><path d="M-46.439729492879565,157.50065647208783L17.31692251202739,157.20969799881928L-54.49125760217642,155.0213122858902z" style="fill:rgb(117,5,164)"/><path d="M24.604453458797085,-62.39394773356634L9.876638017007053,77.22301659374341L15.50550935201602,79.83159504440661zM12.194066554698221,-71.10955159299185L6.152369129336798,75.49708671943894L13.909745197790658,-69.90477240341836z" style="fill:rgb(237,137,191)"/><path d="M-66.82063459615308,-124.09290050913617L-11.44030810619936,-131.46423850225636L-4.353224466367514,-134.55384551927895z" style="fill:rgb(99,248,156)"/><path d="M-46.439729492879565,157.50065647208783L24.7810215718258,158.1758344440363L17.31692251202739,157.20969799881928z" style="fill:rgb(123,2,153)"/><path d="M5.110269791112028,-76.08458481165349L2.8623308752408874,-136.0635587895816L-0.340953864273437,-79.91280953164457zM21.034241153115,82.39376047907234L17.31692251202739,157.20969799881928L22.852373821954707,83.23633583232191z" style="fill:rgb(237,137,191)"/><path d="M-81.76541117028098,-116.33921733444883L-18.312319510510232,-126.77083248108306L-74.4031989010736,-120.98728081258015z" style="fill:rgb(93,243,167)"/><path d="M19.303337929721447,-66.116888495651L8.020062505918885,76.36262782076905L9.876638017007053,77.22301659374341zM-1.8657963403236455,-80.98382604658158L2.8623308752408874,-136.0635587895816L-4.353224466367514,-134.55384551927895zM22.852373821954707,83.23633583232191L17.31692251202739,157.20969799881928L24.7810215718258,158.1758344440363zM-0.340953864273437,-79.91280953164457L2.8623308752408874,-136.0635587895816L-1.8657963403236455,-80.98382604658158zM6.751536479826498,-74.93193425245735L0.4718690943691519,72.864584876246L12.194066554698221,-71.10955159299185zM15.50550935201602,79.83159504440661L17.31692251202739,157.20969799881928L21.034241153115,82.39376047907234z" style="fill:rgb(237,137,191)"/><path d="M-54.49125760217642,155.0213122858902L9.746556998642435,154.6352848537718L-62.54305398976327,150.96581679259336z" style="fill:rgb(110,10,174)"/><path d="M13.909745197790658,-69.90477240341836L6.152369129336798,75.49708671943894L8.020062505918885,76.36262782076905zM5.110269791112028,-76.08458481165349L-1.3607780734064414,72.01528516365138L6.751536479826498,-74.93193425245735z" style="fill:rgb(237,137,191)"/><path d="M-74.4031989010736,-120.98728081258015L-18.312319510510232,-126.77083248108306L-11.44030810619936,-131.46423850225636z" style="fill:rgb(93,243,167)"/><path d="M-54.49125760217642,155.0213122858902L17.31692251202739,157.20969799881928L9.746556998642435,154.6352848537718z" style="fill:rgb(117,5,164)"/><path d="M-1.8657963403236455,-80.98382604658158L-4.353224466367514,-134.55384551927895L-7.282251577920116,-84.78777080202003zM12.194066554698221,-71.10955159299185L0.4718690943691519,72.864584876246L6.152369129336798,75.49708671943894z" style="fill:rgb(237,137,191)"/><path d="M-88.8122900045263,-110.14898344776336L-24.879903217700566,-120.47113792728562L-81.76541117028098,-116.33921733444883z" style="fill:rgb(88,237,177)"/><path d="M-8.64750335448981,-85.74657168123856L-4.353224466367514,-134.55384551927895L-11.44030810619936,-131.46423850225636zM-7.282251577920116,-84.78777080202003L-4.353224466367514,-134.55384551927895L-8.64750335448981,-85.74657168123856zM15.50550935201602,79.83159504440661L9.746556998642435,154.6352848537718L17.31692251202739,157.20969799881928zM9.876638017007053,77.22301659374341L9.746556998642435,154.6352848537718L15.50550935201602,79.83159504440661zM-0.340953864273437,-79.91280953164457L-7.056686506669622,69.37564263976766L5.110269791112028,-76.08458481165349z" style="fill:rgb(237,137,191)"/><path d="M-62.54305398976327,150.96581679259336L2.1548987419580476,150.42377003261933L-70.49772944307442,145.3285766142431z" style="fill:rgb(104,15,184)"/><path d="M6.751536479826498,-74.93193425245735L-1.3607780734064414,72.01528516365138L0.4718690943691519,72.864584876246zM-1.8657963403236455,-80.98382604658158L-8.811120303952471,68.56258918026995L-0.340953864273437,-79.91280953164457z" style="fill:rgb(237,137,191)"/><path d="M-81.76541117028098,-116.33921733444883L-24.879903217700566,-120.47113792728562L-18.312319510510232,-126.77083248108306z" style="fill:rgb(88,237,177)"/><path d="M-62.54305398976327,150.96581679259336L9.746556998642435,154.6352848537718L2.1548987419580476,150.42377003261933z" style="fill:rgb(110,10,174)"/><path d="M-8.64750335448981,-85.74657168123856L-11.44030810619936,-131.46423850225636L-13.98374736290741,-89.49418229663847zM8.020062505918885,76.36262782076905L2.1548987419580476,150.42377003261933L9.876638017007053,77.22301659374341zM5.110269791112028,-76.08458481165349L-7.056686506669622,69.37564263976766L-1.3607780734064414,72.01528516365138z" style="fill:rgb(237,137,191)"/><path d="M-95.44705765752144,-102.43968191841837L-31.05172400022532,-112.58507142958278L-88.8122900045263,-110.14898344776336z" style="fill:rgb(83,231,187)"/><path d="M6.152369129336798,75.49708671943894L2.1548987419580476,150.42377003261933L8.020062505918885,76.36262782076905zM-13.98374736290741,-89.49418229663847L-11.44030810619936,-131.46423850225636L-15.145912167020194,-90.31022990044985zM-15.145912167020194,-90.31022990044985L-11.44030810619936,-131.46423850225636L-18.312319510510232,-126.77083248108306zM9.876638017007053,77.22301659374341L2.1548987419580476,150.42377003261933L9.746556998642435,154.6352848537718zM-7.282251577920116,-84.78777080202003L-14.477763155624485,65.93663171366002L-1.8657963403236455,-80.98382604658158z" style="fill:rgb(237,137,191)"/><path d="M-70.49772944307442,145.3285766142431L-5.366032064592005,144.56779864906594L-78.25315250052718,138.1278813396801z" style="fill:rgb(98,22,193)"/><path d="M0.4718690943691519,72.864584876246L2.1548987419580476,150.42377003261933L6.152369129336798,75.49708671943894zM-0.340953864273437,-79.91280953164457L-8.811120303952471,68.56258918026995L-7.056686506669622,69.37564263976766zM-8.64750335448981,-85.74657168123856L-16.108598584260847,65.18073606951393L-7.282251577920116,-84.78777080202003z" style="fill:rgb(237,137,191)"/><path d="M-47.176820417071,-103.03110899490514L-95.44705765752144,-102.43968191841837L-100.51679925027116,-94.84132730070074z" style="fill:rgb(78,223,196)"/><path d="M-15.145912167020194,-90.31022990044985L-18.312319510510232,-126.77083248108306L-20.354880567894895,-93.96858767786522z" style="fill:rgb(237,137,191)"/><path d="M-88.8122900045263,-110.14898344776336L-31.05172400022532,-112.58507142958278L-24.879903217700566,-120.47113792728562z" style="fill:rgb(83,231,187)"/><path d="M-70.49772944307442,145.3285766142431L2.1548987419580476,150.42377003261933L-5.366032064592005,144.56779864906594z" style="fill:rgb(104,15,184)"/><path d="M-1.8657963403236455,-80.98382604658158L-14.477763155624485,65.93663171366002L-8.811120303952471,68.56258918026995zM-20.354880567894895,-93.96858767786522L-18.312319510510232,-126.77083248108306L-21.27065800967925,-94.61159545385912zM-1.3607780734064414,72.01528516365138L-5.366032064592005,144.56779864906594L0.4718690943691519,72.864584876246zM-21.27065800967925,-94.61159545385912L-18.312319510510232,-126.77083248108306L-24.879903217700566,-120.47113792728562zM-13.98374736290741,-89.49418229663847L-21.698871080824222,62.590044503399874L-8.64750335448981,-85.74657168123856z" style="fill:rgb(237,137,191)"/><path d="M-36.73648769090995,-103.15906922450856L-100.51679925027116,-94.84132730070074L-101.57299380790414,-93.25838216334938z" style="fill:rgb(78,223,196)"/><path d="M-78.25315250052718,138.1278813396801L-12.720074958848507,137.08416862193033L-85.70399360930777,129.40691633578854z" style="fill:rgb(93,30,202)"/><path d="M0.4718690943691519,72.864584876246L-5.366032064592005,144.56779864906594L2.1548987419580476,150.42377003261933zM-7.056686506669622,69.37564263976766L-5.366032064592005,144.56779864906594L-1.3607780734064414,72.01528516365138z" style="fill:rgb(237,137,191)"/><path d="M-47.176820417071,-103.03110899490514L-31.05172400022532,-112.58507142958278L-95.44705765752144,-102.43968191841837z" style="fill:rgb(78,223,196)"/><path d="M-15.145912167020194,-90.31022990044985L-23.159561883606,61.91312045882757L-13.98374736290741,-89.49418229663847zM-7.282251577920116,-84.78777080202003L-16.108598584260847,65.18073606951393L-14.477763155624485,65.93663171366002zM-21.27065800967925,-94.61159545385912L-24.879903217700566,-120.47113792728562L-26.304849552343263,-98.14720745753206z" style="fill:rgb(237,137,191)"/><path d="M-78.25315250052718,138.1278813396801L-5.366032064592005,144.56779864906594L-12.720074958848507,137.08416862193033z" style="fill:rgb(98,22,193)"/><path d="M-107.09599473124771,-82.67872609215365L-41.84472179349559,-92.26662863092653L-101.57299380790414,-93.25838216334938z" style="fill:rgb(74,214,204)"/><path d="M-26.304849552343263,-98.14720745753206L-24.879903217700566,-120.47113792728562L-26.93234793946192,-98.58789937851803zM-26.93234793946192,-98.58789937851803L-24.879903217700566,-120.47113792728562L-27.56114705813748,-99.02936290525854zM-8.64750335448981,-85.74657168123856L-21.698871080824222,62.590044503399874L-16.108598584260847,65.18073606951393z" style="fill:rgb(237,137,191)"/><path d="M-36.73648769090995,-103.15906922450856L-47.176820417071,-103.03110899490514L-100.51679925027116,-94.84132730070074z" style="fill:rgb(78,223,196)"/><path d="M-20.354880567894895,-93.96858767786522L-28.62449656946633,59.380519077679416L-15.145912167020194,-90.31022990044985zM-27.56114705813748,-99.02936290525854L-24.879903217700566,-120.47113792728562L-31.05172400022532,-112.58507142958278z" style="fill:rgb(237,137,191)"/><path d="M-85.70399360930777,129.40691633578854L-19.80669703012541,128.0167784000816L-92.74377728791093,119.23602527673086z" style="fill:rgb(87,38,210)"/><path d="M-8.811120303952471,68.56258918026995L-12.720074958848507,137.08416862193033L-7.056686506669622,69.37564263976766zM-7.056686506669622,69.37564263976766L-12.720074958848507,137.08416862193033L-5.366032064592005,144.56779864906594zM-21.27065800967925,-94.61159545385912L-29.86804365542034,58.804224554963405L-20.354880567894895,-93.96858767786522zM-14.477763155624485,65.93663171366002L-12.720074958848507,137.08416862193033L-8.811120303952471,68.56258918026995zM-27.56114705813748,-99.02936290525854L-31.05172400022532,-112.58507142958278L-32.04482268885375,-102.17835398519216zM-13.98374736290741,-89.49418229663847L-23.159561883606,61.91312045882757L-21.698871080824222,62.590044503399874z" style="fill:rgb(237,137,191)"/><path d="M-111.92608843145615,-70.80085241208822L-46.29180447080579,-80.00970289976176L-107.09599473124771,-82.67872609215365z" style="fill:rgb(71,204,212)"/><path d="M-101.57299380790414,-93.25838216334938L-41.84472179349559,-92.26662863092653L-36.73648769090995,-103.15906922450856z" style="fill:rgb(74,214,204)"/><path d="M-85.70399360930777,129.40691633578854L-12.720074958848507,137.08416862193033L-19.80669703012541,128.0167784000816z" style="fill:rgb(93,30,202)"/><path d="M-47.176820417071,-103.03110899490514L-35.7560778152481,-104.78474104306456L-31.05172400022532,-112.58507142958278z" style="fill:rgb(78,223,196)"/><path d="M-92.74377728791093,119.23602527673086L-26.524625837640446,117.4378253573623L-99.26752492728572,107.71348469580829z" style="fill:rgb(82,48,217)"/><path d="M-32.04482268885375,-102.17835398519216L-31.05172400022532,-112.58507142958278L-35.7560778152481,-104.78474104306456zM-15.145912167020194,-90.31022990044985L-28.62449656946633,59.380519077679416L-23.159561883606,61.91312045882757zM-26.304849552343263,-98.14720745753206L-35.15764011020781,56.35287774630586L-21.27065800967925,-94.61159545385912zM-16.108598584260847,65.18073606951393L-19.80669703012541,128.0167784000816L-14.477763155624485,65.93663171366002z" style="fill:rgb(237,137,191)"/><path d="M-47.176820417071,-103.03110899490514L-36.73648769090995,-103.15906922450856L-35.7560778152481,-104.78474104306456z" style="fill:rgb(78,223,196)"/><path d="M-26.93234793946192,-98.58789937851803L-36.137560175901534,55.89875890114493L-26.304849552343263,-98.14720745753206zM-14.477763155624485,65.93663171366002L-19.80669703012541,128.0167784000816L-12.720074958848507,137.08416862193033z" style="fill:rgb(237,137,191)"/><path d="M-115.98059858402496,-57.75187762178002L-49.99991147002256,-66.51919283831938L-111.92608843145615,-70.80085241208822z" style="fill:rgb(68,193,219)"/><path d="M-20.354880567894895,-93.96858767786522L-29.86804365542034,58.804224554963405L-28.62449656946633,59.380519077679416zM-21.698871080824222,62.590044503399874L-19.80669703012541,128.0167784000816L-16.108598584260847,65.18073606951393z" style="fill:rgb(237,137,191)"/><path d="M-107.09599473124771,-82.67872609215365L-46.29180447080579,-80.00970289976176L-41.84472179349559,-92.26662863092653z" style="fill:rgb(71,204,212)"/><path d="M-92.74377728791093,119.23602527673086L-19.80669703012541,128.0167784000816L-26.524625837640446,117.4378253573623z" style="fill:rgb(87,38,210)"/><path d="M-27.56114705813748,-99.02936290525854L-41.20184976087464,53.55182577389453L-26.93234793946192,-98.58789937851803z" style="fill:rgb(237,137,191)"/><path d="M-99.26752492728572,107.71348469580829L-32.77266380543527,105.44937594926425L-105.17404701099584,94.96530546741913z" style="fill:rgb(78,59,223)"/><path d="M-21.27065800967925,-94.61159545385912L-35.15764011020781,56.35287774630586L-29.86804365542034,58.804224554963405z" style="fill:rgb(237,137,191)"/><path d="M-119.18650828391851,-43.68476130060854L-52.90044126825426,-51.95337754498523L-115.98059858402496,-57.75187762178002z" style="fill:rgb(66,182,224)"/><path d="M-32.04482268885375,-102.17835398519216L-46.342836275663295,51.16947732740639L-27.56114705813748,-99.02936290525854zM-23.159561883606,61.91312045882757L-26.524625837640446,117.4378253573623L-21.698871080824222,62.590044503399874z" style="fill:rgb(237,137,191)"/><path d="M-106.59501597674378,52.911404179535886L-118.29830222641633,51.00868694423984L-117.69329523802001,53.65101115128786z" style="fill:rgb(68,94,235)"/><path d="M-105.17404701099584,94.96530546741913L-38.453501643260296,92.18253378931718L-110.36911870273896,81.1437022294406z" style="fill:rgb(74,70,228)"/><path d="M-21.698871080824222,62.590044503399874L-26.524625837640446,117.4378253573623L-19.80669703012541,128.0167784000816z" style="fill:rgb(237,137,191)"/><path d="M-111.92608843145615,-70.80085241208822L-49.99991147002256,-66.51919283831938L-46.29180447080579,-80.00970289976176z" style="fill:rgb(68,193,219)"/><path d="M-99.26752492728572,107.71348469580829L-26.524625837640446,117.4378253573623L-32.77266380543527,105.44937594926425z" style="fill:rgb(82,48,217)"/><path d="M-26.304849552343263,-98.14720745753206L-36.137560175901534,55.89875890114493L-35.15764011020781,56.35287774630586zM-35.7560778152481,-104.78474104306456L-46.66352767959701,51.020729912198895L-32.04482268885375,-102.17835398519216zM-28.62449656946633,59.380519077679416L-26.524625837640446,117.4378253573623L-23.159561883606,61.91312045882757z" style="fill:rgb(237,137,191)"/><path d="M-121.48318170491058,-28.776001159293706L-54.93650335619038,-36.49615033425145L-119.18650828391851,-43.68476130060854z" style="fill:rgb(64,170,229)"/><path d="M-110.36911870273896,81.1437022294406L-43.4756834158273,77.79675137674685L-114.76810130375502,66.42564624298139z" style="fill:rgb(70,82,232)"/><path d="M-35.7560778152481,-104.78474104306456L-36.73648769090995,-103.15906922450856L-46.98464152410665,50.8719152859431zM-26.93234793946192,-98.58789937851803L-41.20184976087464,53.55182577389453L-36.137560175901534,55.89875890114493z" style="fill:rgb(237,137,191)"/><path d="M-122.8243596239429,-13.223235869011734L-56.06551505266284,-20.353664653775713L-121.48318170491058,-28.776001159293706z" style="fill:rgb(63,158,233)"/><path d="M-115.98059858402496,-57.75187762178002L-52.90044126825426,-51.95337754498523L-49.99991147002256,-66.51919283831938z" style="fill:rgb(66,182,224)"/><path d="M-47.75679696356814,62.47731942248826L-117.69329523802001,53.65101115128786L-114.76810130375502,66.42564624298139z" style="fill:rgb(68,94,235)"/><path d="M-105.17404701099584,94.96530546741913L-32.77266380543527,105.44937594926425L-38.453501643260296,92.18253378931718z" style="fill:rgb(78,59,223)"/><path d="M-29.86804365542034,58.804224554963405L-32.77266380543527,105.44937594926425L-28.62449656946633,59.380519077679416zM-28.62449656946633,59.380519077679416L-32.77266380543527,105.44937594926425L-26.524625837640446,117.4378253573623z" style="fill:rgb(237,137,191)"/><path d="M-123.17980098060372,2.75945941658712L-56.26019555157912,-3.7501651426904354L-122.8243596239429,-13.223235869011734z" style="fill:rgb(62,145,235)"/><path d="M-27.56114705813748,-99.02936290525854L-46.342836275663295,51.16947732740639L-41.20184976087464,53.55182577389453zM-51.225358229743605,46.43199457232397L-36.73648769090995,-103.15906922450856L-41.84472179349559,-92.26662863092653z" style="fill:rgb(237,137,191)"/><path d="M-118.29830222641633,51.00868694423984L-51.225358229743605,46.43199457232397L-120.90198129909456,35.10704298743478z" style="fill:rgb(65,106,237)"/><path d="M-117.69329523802001,53.65101115128786L-51.94896394300735,48.57130853199357L-119.0841256765513,53.07179711212186z" style="fill:rgb(117,5,164)"/><path d="M-47.75679696356814,62.47731942248826L-106.59501597674378,52.911404179535886L-117.69329523802001,53.65101115128786z" style="fill:rgb(68,94,235)"/><path d="M-35.15764011020781,56.35287774630586L-32.77266380543527,105.44937594926425L-29.86804365542034,58.804224554963405z" style="fill:rgb(237,137,191)"/><path d="M-122.53709636940786,18.94676833012254L-55.51051383698803,13.077580578676757L-123.17980098060372,2.75945941658712z" style="fill:rgb(63,132,237)"/><path d="M-120.90198129909456,35.10704298743478L-53.823918331833084,29.886202652124265L-122.53709636940786,18.94676833012254z" style="fill:rgb(64,119,237)"/><path d="M-106.59501597674378,52.911404179535886L-51.225358229743605,46.43199457232397L-118.29830222641633,51.00868694423984z" style="fill:rgb(68,94,235)"/><path d="M-119.0841256765513,53.07179711212186L-54.01253282272229,47.614996356029295L-121.26115904715743,52.16534621862063z" style="fill:rgb(117,5,164)"/><path d="M-119.18650828391851,-43.68476130060854L-54.93650335619038,-36.49615033425145L-52.90044126825426,-51.95337754498523z" style="fill:rgb(64,170,229)"/><path d="M-110.36911870273896,81.1437022294406L-38.453501643260296,92.18253378931718L-43.4756834158273,77.79675137674685z" style="fill:rgb(74,70,228)"/><path d="M-32.04482268885375,-102.17835398519216L-46.66352767959701,51.020729912198895L-46.342836275663295,51.16947732740639zM-36.137560175901534,55.89875890114493L-38.453501643260296,92.18253378931718L-35.15764011020781,56.35287774630586zM-53.823918331833084,29.886202652124265L-41.84472179349559,-92.26662863092653L-46.29180447080579,-80.00970289976176zM-35.7560778152481,-104.78474104306456L-46.98464152410665,50.8719152859431L-46.66352767959701,51.020729912198895zM-35.15764011020781,56.35287774630586L-38.453501643260296,92.18253378931718L-32.77266380543527,105.44937594926425z" style="fill:rgb(237,137,191)"/><path d="M-19.319849411722338,63.692553052280594L36.59739175279177,60.48878572342348L-57.824744190133686,45.848311488574865z" style="fill:rgb(117,5,164)"/><path d="M-121.48318170491058,-28.776001159293706L-56.06551505266284,-20.353664653775713L-54.93650335619038,-36.49615033425145z" style="fill:rgb(63,158,233)"/><path d="M-114.76810130375502,66.42564624298139L-43.4756834158273,77.79675137674685L-47.75679696356814,62.47731942248826z" style="fill:rgb(70,82,232)"/><path d="M-41.20184976087464,53.55182577389453L-38.453501643260296,92.18253378931718L-36.137560175901534,55.89875890114493zM-46.98464152410665,50.8719152859431L-36.73648769090995,-103.15906922450856L-51.225358229743605,46.43199457232397z" style="fill:rgb(237,137,191)"/><path d="M-133.6336833244429,47.0138241177408L-121.26115904715743,52.16534621862063L-54.01253282272229,47.614996356029295z" style="fill:rgb(117,5,164)"/><path d="M-122.8243596239429,-13.223235869011734L-56.26019555157912,-3.7501651426904354L-56.06551505266284,-20.353664653775713z" style="fill:rgb(62,145,235)"/><path d="M-55.51051383698803,13.077580578676757L-46.29180447080579,-80.00970289976176L-49.99991147002256,-66.51919283831938z" style="fill:rgb(237,137,191)"/><path d="M-117.69329523802001,53.65101115128786L-50.63076279574255,49.18219964404728L-51.94896394300735,48.57130853199357z" style="fill:rgb(117,5,164)"/><path d="M-106.59501597674378,52.911404179535886L-47.75679696356814,62.47731942248826L-50.63076279574255,49.18219964404728z" style="fill:rgb(68,94,235)"/><path d="M-123.17980098060372,2.75945941658712L-55.51051383698803,13.077580578676757L-56.26019555157912,-3.7501651426904354z" style="fill:rgb(63,132,237)"/><path d="M-120.90198129909456,35.10704298743478L-51.225358229743605,46.43199457232397L-53.823918331833084,29.886202652124265z" style="fill:rgb(65,106,237)"/><path d="M-41.20184976087464,53.55182577389453L-43.4756834158273,77.79675137674685L-38.453501643260296,92.18253378931718z" style="fill:rgb(237,137,191)"/><path d="M-122.53709636940786,18.94676833012254L-53.823918331833084,29.886202652124265L-55.51051383698803,13.077580578676757z" style="fill:rgb(64,119,237)"/><path d="M-106.59501597674378,52.911404179535886L-50.63076279574255,49.18219964404728L-51.225358229743605,46.43199457232397z" style="fill:rgb(68,94,235)"/><path d="M-51.225358229743605,46.43199457232397L-41.84472179349559,-92.26662863092653L-53.823918331833084,29.886202652124265z" style="fill:rgb(237,137,191)"/><path d="M-119.0841256765513,53.07179711212186L-51.94896394300735,48.57130853199357L-54.01253282272229,47.614996356029295z" style="fill:rgb(117,5,164)"/><path d="M-46.342836275663295,51.16947732740639L-43.4756834158273,77.79675137674685L-41.20184976087464,53.55182577389453zM-56.26019555157912,-3.7501651426904354L-49.99991147002256,-66.51919283831938L-52.90044126825426,-51.95337754498523zM-53.823918331833084,29.886202652124265L-46.29180447080579,-80.00970289976176L-55.51051383698803,13.077580578676757zM-56.06551505266284,-20.353664653775713L-52.90044126825426,-51.95337754498523L-54.93650335619038,-36.49615033425145zM-46.342836275663295,51.16947732740639L-47.75679696356814,62.47731942248826L-43.4756834158273,77.79675137674685zM-46.66352767959701,51.020729912198895L-47.75679696356814,62.47731942248826L-46.342836275663295,51.16947732740639zM-55.51051383698803,13.077580578676757L-49.99991147002256,-66.51919283831938L-56.26019555157912,-3.7501651426904354zM-46.98464152410665,50.8719152859431L-47.75679696356814,62.47731942248826L-46.66352767959701,51.020729912198895zM-56.26019555157912,-3.7501651426904354L-52.90044126825426,-51.95337754498523L-56.06551505266284,-20.353664653775713zM-46.98464152410665,50.8719152859431L-50.63076279574255,49.18219964404728L-47.75679696356814,62.47731942248826zM-46.98464152410665,50.8719152859431L-51.225358229743605,46.43199457232397L-50.63076279574255,49.18219964404728z" style="fill:rgb(237,137,191)"/><path d="M-133.6336833244429,47.0138241177408L-54.01253282272229,47.614996356029295L-57.824744190133686,45.848311488574865z" style="fill:rgb(117,5,164)"/><path d="M-35.24199150188715,-156.13174568041723L36.59739175279177,60.48878572342348L47.46207353644195,-91.6941598653409z" style="fill:rgb(237,137,191)"/><path d="M-133.6336833244429,47.0138241177408L-57.824744190133686,45.848311488574865L-76.54647279834731,42.945517571290615z" style="fill:rgb(117,5,164)"/><path d="M-142.67273029572794,-107.61700124826024L-161.47419013563322,-133.07454603291666L-165.43116905530337,-103.85768013669035z" style="fill:rgb(63,164,231)"/><path d="M-76.54647279834731,42.945517571290615L-167.44999012127792,32.93378000810837L-133.6336833244429,47.0138241177408zM-76.54647279834731,42.945517571290615L-57.824744190133686,45.848311488574865L-65.74907192436207,42.17595113290057z" style="fill:rgb(117,5,164)"/><path d="M-97.17110938551244,-115.13303382670108L-161.47419013563322,-133.07454603291666L-142.67273029572794,-107.61700124826024z" style="fill:rgb(63,164,231)"/><path d="M-150.18065891823838,31.528175776949794L-76.54647279834731,42.945517571290615L-65.74907192436207,42.17595113290057zM-76.54647279834731,42.945517571290615L-150.18065891823838,31.528175776949794L-167.44999012127792,32.93378000810837z" style="fill:rgb(117,5,164)"/><path d="M-97.17110938551244,-115.13303382670108L-93.67248945686092,-145.4588963929509L-161.47419013563322,-133.07454603291666zM-104.06875761890474,-55.34693813209468L-142.67273029572794,-107.61700124826024L-165.43116905530337,-103.85768013669035z" style="fill:rgb(63,164,231)"/><path d="M-150.18065891823838,31.528175776949794L-183.07600284616834,26.427727221033052L-167.44999012127792,32.93378000810837z" style="fill:rgb(117,5,164)"/><path d="M-104.06875761890474,-55.34693813209468L-165.43116905530337,-103.85768013669035L-183.07600284616834,26.427727221033052z" style="fill:rgb(63,164,231)"/><path d="M-57.824744190133686,45.848311488574865L36.59739175279177,60.48878572342348L-52.01929913674681,15.128747148898714zM-150.18065891823838,31.528175776949794L-65.74907192436207,42.17595113290057L-97.9062363146197,27.273435589010404z" style="fill:rgb(117,5,164)"/><path d="M-97.17110938551244,-115.13303382670108L-142.67273029572794,-107.61700124826024L-104.06875761890474,-55.34693813209468z" style="fill:rgb(63,164,231)"/><path d="M-97.9062363146197,27.273435589010404L-183.07600284616834,26.427727221033052L-150.18065891823838,31.528175776949794z" style="fill:rgb(117,5,164)"/><path d="M-104.06875761890474,-55.34693813209468L-35.24199150188715,-156.13174568041723L-93.67248945686092,-145.4588963929509z" style="fill:rgb(63,164,231)"/><path d="M36.59739175279177,60.48878572342348L-35.24199150188715,-156.13174568041723L-52.01929913674681,15.128747148898714z" style="fill:rgb(237,137,191)"/><path d="M-104.06875761890474,-55.34693813209468L-183.07600284616834,26.427727221033052L-112.80439070089557,20.369209479229763z" style="fill:rgb(63,164,231)"/><path d="M-97.9062363146197,27.273435589010404L-112.80439070089557,20.369209479229763L-183.07600284616834,26.427727221033052zM-57.824744190133686,45.848311488574865L-52.01929913674681,15.128747148898714L-112.80439070089557,20.369209479229763z" style="fill:rgb(117,5,164)"/><path d="M-104.06875761890474,-55.34693813209468L-52.01929913674681,15.128747148898714L-35.24199150188715,-156.13174568041723zM-112.80439070089557,20.369209479229763L-52.01929913674681,15.128747148898714L-104.06875761890474,-55.34693813209468z" style="fill:rgb(63,164,231)"/></svg>