<svg viewBox="-250 -250 500 500" width="500" height="500" xmlns="http://www.w3.org/2000/svg"><path d="M-29.034146833500902,-10.778517303611961L-27.718768154274365,-10.030885013649598L-29.289706671011842,-21.755873998821986zM-29.034146833500902,-10.778517303611961L-29.289706671011842,-21.755873998821986L-30.240329624297477,-11.464085468690216zM-26.95112047171172,78.7143319490284L-22.509598810460663,28.850533674531864L-27.718768154274365,-10.030885013649598zM-26.95112047171172,78.7143319490284L-27.718768154274365,-10.030885013649598L-29.034146833500902,-10.778517303611961zM-30.240329624297477,-11.464085468690216L-26.95112047171172,78.7143319490284L-29.034146833500902,-10.778517303611961zM-30.240329624297477,-11.464085468690216L-29.289706671011842,-21.755873998821986L-46.56073671374732,-66.84373532956903zM-30.240329624297477,-11.464085468690216L-46.56073671374732,-66.84373532956903L-45.55731956754264,-20.169864999402574zM-30.240329624297477,-11.464085468690216L-42.5138809922465,121.40316377483262L-26.95112047171172,78.7143319490284zM-45.55731956754264,-20.169864999402574L-42.5138809922465,121.40316377483262L-30.240329624297477,-11.464085468690216zM-45.55731956754264,-20.169864999402574L-46.56073671374732,-66.84373532956903L-50.87038596326437,-23.189675701389856zM-50.87038596326437,-23.189675701389856L-42.5138809922465,121.40316377483262L-45.55731956754264,-20.169864999402574zM-50.87038596326437,-23.189675701389856L-46.56073671374732,-66.84373532956903L-72.67034697768709,-100.09749508009929zM-50.87038596326437,-23.189675701389856L-72.67034697768709,-100.09749508009929L-71.45076538814259,-34.88703564559284zM-50.87038596326437,-23.189675701389856L-67.98911139664715,150.20734686003294L-42.5138809922465,121.40316377483262zM-71.45076538814259,-34.88703564559284L-67.98911139664715,150.20734686003294L-50.87038596326437,-23.189675701389856zM-71.45076538814259,-34.88703564559284L-72.67034697768709,-100.09749508009929L-79.20781991630804,-39.29594653345892zM-79.20781991630804,-39.29594653345892L-67.98911139664715,150.20734686003294L-71.45076538814259,-34.88703564559284zM-79.20781991630804,-39.29594653345892L-72.67034697768709,-100.09749508009929L-104.66145135160319,-115.30762418091436zM-79.20781991630804,-39.29594653345892L-104.66145135160319,-115.30762418091436L-103.71746717561167,-53.226602267681734zM-79.20781991630804,-39.29594653345892L-100.49500754286701,158.6854663992065L-67.98911139664715,150.20734686003294zM-103.71746717561167,-53.226602267681734L-100.49500754286701,158.6854663992065L-79.20781991630804,-39.29594653345892z" style="fill:rgb(237,137,191)"/><path d="M-158.26365916952378,-106.40886224547228L-137.84959139953617,-107.4149172213721L-104.66145135160319,-115.30762418091436z" style="fill:rgb(104,251,147)"/><path d="M-103.71746717561167,-53.226602267681734L-104.66145135160319,-115.30762418091436L-111.44731285386834,-57.62004805616953z" style="fill:rgb(237,137,191)"/><path d="M-192.86930317132266,-98.35971233825506L-137.84959139953617,-107.4149172213721L-158.26365916952378,-106.40886224547228z" style="fill:rgb(104,251,147)"/><path d="M-111.44731285386834,-57.62004805616953L-100.49500754286701,158.6854663992065L-103.71746717561167,-53.226602267681734zM-111.44731285386834,-57.62004805616953L-104.66145135160319,-115.30762418091436L-137.84959139953617,-107.4149172213721z" style="fill:rgb(237,137,191)"/><path d="M-155.79953464867424,158.90732260787976L-100.49500754286701,158.6854663992065L-191.54823531268937,143.1244699369321z" style="fill:rgb(110,10,174)"/><path d="M-111.44731285386834,-57.62004805616953L-137.84959139953617,-107.4149172213721L-137.44557150770189,-72.39679399164851zM-111.44731285386834,-57.62004805616953L-134.96815478227154,142.3358767135602L-100.49500754286701,158.6854663992065z" style="fill:rgb(237,137,191)"/><path d="M-173.78856209633352,-81.59219483868239L-192.86930317132266,-98.35971233825506L-213.83279972575113,-75.4932627819587zM-173.78856209633352,-81.59219483868239L-137.84959139953617,-107.4149172213721L-192.86930317132266,-98.35971233825506z" style="fill:rgb(81,228,190)"/><path d="M-127.3356079855104,-66.650547182038L-134.96815478227154,142.3358767135602L-111.44731285386834,-57.62004805616953z" style="fill:rgb(237,137,191)"/><path d="M-191.54823531268937,143.1244699369321L-100.49500754286701,158.6854663992065L-134.96815478227154,142.3358767135602z" style="fill:rgb(110,10,174)"/><path d="M-137.44557150770189,-72.39679399164851L-136.5157518163658,8.195956528092688L-127.3356079855104,-66.650547182038zM-137.44557150770189,-72.39679399164851L-137.84959139953617,-107.4149172213721L-141.97953544033697,-74.9737800486214zM-141.97953544033697,-74.9737800486214L-137.84959139953617,-107.4149172213721L-146.56672365332497,-77.58102020446916z" style="fill:rgb(237,137,191)"/><path d="M-134.96815478227154,142.3358767135602L-207.35991927657724,122.44596996933093L-191.54823531268937,143.1244699369321z" style="fill:rgb(86,40,211)"/><path d="M-127.3356079855104,-66.650547182038L-136.5157518163658,8.195956528092688L-134.96815478227154,142.3358767135602z" style="fill:rgb(237,137,191)"/><path d="M-165.89715341606765,-74.65754813700802L-213.83279972575113,-75.4932627819587L-222.20343437101994,-66.362693673114z" style="fill:rgb(81,228,190)"/><path d="M-146.56672365332497,-77.58102020446916L-137.84959139953617,-107.4149172213721L-157.88568251331262,-84.01442903647454z" style="fill:rgb(237,137,191)"/><path d="M-173.78856209633352,-81.59219483868239L-157.88568251331262,-84.01442903647454L-137.84959139953617,-107.4149172213721zM-165.89715341606765,-74.65754813700802L-173.78856209633352,-81.59219483868239L-213.83279972575113,-75.4932627819587z" style="fill:rgb(81,228,190)"/><path d="M-181.0798246077275,121.7340018075988L-221.8236425112755,103.53053096435356L-207.35991927657724,122.44596996933093zM-134.96815478227154,142.3358767135602L-181.0798246077275,121.7340018075988L-207.35991927657724,122.44596996933093z" style="fill:rgb(86,40,211)"/><path d="M-159.84501067363874,65.36279581835969L-137.44557150770189,-72.39679399164851L-141.97953544033697,-74.9737800486214zM-159.84501067363874,65.36279581835969L-136.5157518163658,8.195956528092688L-137.44557150770189,-72.39679399164851zM-146.56672365332497,-77.58102020446916L-159.84501067363874,65.36279581835969L-141.97953544033697,-74.9737800486214zM-150.33933987412257,120.90120144419414L-134.96815478227154,142.3358767135602L-136.5157518163658,8.195956528092688zM-146.56672365332497,-77.58102020446916L-157.88568251331262,-84.01442903647454L-165.89715341606765,-74.65754813700802z" style="fill:rgb(237,137,191)"/><path d="M-173.78856209633352,-81.59219483868239L-165.89715341606765,-74.65754813700802L-157.88568251331262,-84.01442903647454z" style="fill:rgb(81,228,190)"/><path d="M-159.84501067363874,65.36279581835969L-144.25347246839183,71.28253698634272L-136.5157518163658,8.195956528092688z" style="fill:rgb(237,137,191)"/><path d="M-181.0798246077275,121.7340018075988L-134.96815478227154,142.3358767135602L-150.33933987412257,120.90120144419414z" style="fill:rgb(86,40,211)"/><path d="M-239.28826562342977,-14.49581018245621L-182.0533172463766,-21.112935108888422L-222.20343437101994,-66.362693673114z" style="fill:rgb(67,188,221)"/><path d="M-181.0798246077275,121.7340018075988L-164.41632927359095,101.2710548422436L-221.8236425112755,103.53053096435356z" style="fill:rgb(86,40,211)"/><path d="M-222.20343437101994,-66.362693673114L-182.0533172463766,-21.112935108888422L-165.89715341606765,-74.65754813700802z" style="fill:rgb(67,188,221)"/><path d="M-218.83318074422496,61.6878766875956L-239.26616547650693,46.82484064405145L-234.3796322630085,62.7111662276181zM-164.41632927359095,101.2710548422436L-234.3796322630085,62.7111662276181L-221.8236425112755,103.53053096435356z" style="fill:rgb(69,85,233)"/><path d="M-159.84501067363874,65.36279581835969L-150.33933987412257,120.90120144419414L-144.25347246839183,71.28253698634272z" style="fill:rgb(237,137,191)"/><path d="M-181.0798246077275,121.7340018075988L-150.33933987412257,120.90120144419414L-164.41632927359095,101.2710548422436z" style="fill:rgb(86,40,211)"/><path d="M-146.56672365332497,-77.58102020446916L-165.89715341606765,-74.65754813700802L-181.63365908465877,42.432041766333846zM-146.56672365332497,-77.58102020446916L-176.80826375941555,58.92224111201201L-159.84501067363874,65.36279581835969z" style="fill:rgb(237,137,191)"/><path d="M-164.41632927359095,101.2710548422436L-218.83318074422496,61.6878766875956L-234.3796322630085,62.7111662276181z" style="fill:rgb(69,85,233)"/><path d="M-239.26616547650693,46.82484064405145L-181.63365908465877,42.432041766333846L-239.28826562342977,-14.49581018245621z" style="fill:rgb(63,138,236)"/><path d="M-159.84501067363874,65.36279581835969L-164.41632927359095,101.2710548422436L-150.33933987412257,120.90120144419414z" style="fill:rgb(237,137,191)"/><path d="M-218.83318074422496,61.6878766875956L-181.63365908465877,42.432041766333846L-239.26616547650693,46.82484064405145z" style="fill:rgb(69,85,233)"/><path d="M-146.56672365332497,-77.58102020446916L-181.63365908465877,42.432041766333846L-176.80826375941555,58.92224111201201z" style="fill:rgb(237,137,191)"/><path d="M-218.83318074422496,61.6878766875956L-164.41632927359095,101.2710548422436L-176.80826375941555,58.92224111201201z" style="fill:rgb(69,85,233)"/><path d="M-239.28826562342977,-14.49581018245621L-181.63365908465877,42.432041766333846L-182.0533172463766,-21.112935108888422z" style="fill:rgb(63,138,236)"/><path d="M-176.80826375941555,58.92224111201201L-164.41632927359095,101.2710548422436L-159.84501067363874,65.36279581835969zM-181.63365908465877,42.432041766333846L-165.89715341606765,-74.65754813700802L-182.0533172463766,-21.112935108888422z" style="fill:rgb(237,137,191)"/><path d="M-218.83318074422496,61.6878766875956L-176.80826375941555,58.92224111201201L-181.63365908465877,42.432041766333846z" style="fill:rgb(69,85,233)"/><path d="M-176.80826375941555,58.92224111201201L-306.07577853352075,37.59829984939176L-234.3796322630085,62.7111662276181z" style="fill:rgb(117,5,164)"/><path d="M-225.15615066314575,-106.30435724205502L-280.8616300914203,-110.41672071156759L-250.25357989484192,-101.9618582876535zM-226.8157385270362,-95.48777339794918L-250.25357989484192,-101.9618582876535L-283.27509560428877,-96.24853465910003zM-225.15615066314575,-106.30435724205502L-222.90581998286723,-120.9702050754922L-280.8616300914203,-110.41672071156759zM-226.8157385270362,-95.48777339794918L-283.27509560428877,-96.24853465910003L-306.07577853352075,37.59829984939176z" style="fill:rgb(63,164,231)"/><path d="M-176.80826375941555,58.92224111201201L-226.96675818989772,39.87811317245319L-306.07577853352075,37.59829984939176z" style="fill:rgb(117,5,164)"/><path d="M-225.15615066314575,-106.30435724205502L-250.25357989484192,-101.9618582876535L-226.8157385270362,-95.48777339794918zM-226.8157385270362,-95.48777339794918L-306.07577853352075,37.59829984939176L-246.4509051926137,32.48042789791157z" style="fill:rgb(63,164,231)"/><path d="M-144.25347246839183,71.28253698634272L193.7809302382784,52.00382170546953L-226.96675818989772,39.87811317245319zM-226.96675818989772,39.87811317245319L-246.4509051926137,32.48042789791157L-306.07577853352075,37.59829984939176z" style="fill:rgb(117,5,164)"/><path d="M-226.8157385270362,-95.48777339794918L130.87846162856567,-185.39252469356467L-222.90581998286723,-120.9702050754922zM-246.4509051926137,32.48042789791157L121.97023711439522,0.8574617373189966L-226.8157385270362,-95.48777339794918z" style="fill:rgb(63,164,231)"/><path d="M-226.96675818989772,39.87811317245319L121.97023711439522,0.8574617373189966L-246.4509051926137,32.48042789791157z" style="fill:rgb(117,5,164)"/><path d="M130.87846162856567,-185.39252469356467L193.7809302382784,52.00382170546953L198.1375712344122,-111.92822753175287z" style="fill:rgb(237,137,191)"/><path d="M-226.96675818989772,39.87811317245319L193.7809302382784,52.00382170546953L121.97023711439522,0.8574617373189966z" style="fill:rgb(117,5,164)"/><path d="M-226.8157385270362,-95.48777339794918L121.97023711439522,0.8574617373189966L130.87846162856567,-185.39252469356467z" style="fill:rgb(63,164,231)"/><path d="M193.7809302382784,52.00382170546953L130.87846162856567,-185.39252469356467L121.97023711439522,0.8574617373189966z" style="fill:rgb(237,137,191)"/></svg>