solid JSxCAD
facet normal 0 0 1
outer loop
vertex 5 5 9
vertex 15 -5 9
vertex 15 5 9
endloop
endfacet
facet normal 0 0 1
outer loop
vertex 15 -5 9
vertex 5 5 9
vertex 5 -5 9
endloop
endfacet
facet normal 0 0 -1
outer loop
vertex 15 -3.09675 0
vertex 15 -5 0
vertex 13.77608 -3.77608 0
endloop
endfacet
facet normal 0 0 -1
outer loop
vertex 13.77608 -3.77608 0
vertex 15 -5 0
vertex 11.57101 -5 0
endloop
endfacet
facet normal 0 0 -1
outer loop
vertex 13.77608 -3.77608 0
vertex 10.75409 -0.75409 0
vertex 13.5766 5 0
endloop
endfacet
facet normal 0 0 -1
outer loop
vertex 13.77608 -3.77608 0
vertex 13.5766 5 0
vertex 15 5 0
endloop
endfacet
facet normal 0 0 -1
outer loop
vertex 13.77608 -3.77608 0
vertex 15 5 0
vertex 15 -3.09675 0
endloop
endfacet
facet normal 0 0 -1
outer loop
vertex 10.75409 -0.75409 0
vertex 13.77608 -3.77608 0
vertex 11.57101 -5 0
endloop
endfacet
facet normal 0 0 -1
outer loop
vertex 10.75409 -0.75409 0
vertex 11.57101 -5 0
vertex 8.67137 -5 0
endloop
endfacet
facet normal 0 0 -1
outer loop
vertex 10.29875 5 0
vertex 13.5766 5 0
vertex 12.74233 3.29922 0
endloop
endfacet
facet normal 0 0 -1
outer loop
vertex 9.02648 5 0
vertex 10.29875 5 0
vertex 12.74233 3.29922 0
endloop
endfacet
facet normal 0 0 -1
outer loop
vertex 9.02648 5 0
vertex 12.74233 3.29922 0
vertex 12.02782 1.84259 0
endloop
endfacet
facet normal 0 0 -1
outer loop
vertex 12.02782 1.84259 0
vertex 10.85398 -0.55045 0
vertex 8.79832 5 0
endloop
endfacet
facet normal 0 0 -1
outer loop
vertex 12.02782 1.84259 0
vertex 8.79832 5 0
vertex 9.02648 5 0
endloop
endfacet
facet normal 0 0 -1
outer loop
vertex 8.65185 5 0
vertex 8.79832 5 0
vertex 9.01276 4.42097 0
endloop
endfacet
facet normal 0 0 -1
outer loop
vertex 10.12243 -0.12243 0
vertex 9.71821 2.51622 0
vertex 10.85398 -0.55045 0
endloop
endfacet
facet normal 0 0 -1
outer loop
vertex 10.12243 -0.12243 0
vertex 10.85398 -0.55045 0
vertex 10.75409 -0.75409 0
endloop
endfacet
facet normal 0 0 -1
outer loop
vertex 10.34649 -1.58502 0
vertex 10.12243 -0.12243 0
vertex 10.75409 -0.75409 0
endloop
endfacet
facet normal 0 0 -1
outer loop
vertex 9.54139 2.99363 0
vertex 9.71821 2.51622 0
vertex 9.7953 2.01299 0
endloop
endfacet
facet normal 0 0 -1
outer loop
vertex 8.65185 -5 0
vertex 8.74347 -4.85302 0
vertex 8.67137 -5 0
endloop
endfacet
facet normal 0 0 -1
outer loop
vertex 10.10368 0 0
vertex 10.12243 -0.12243 0
vertex 10.0899 -0.0899 0
endloop
endfacet
facet normal 0 0 -1
outer loop
vertex 10.0899 -0.0899 0
vertex 10.12243 -0.12243 0
vertex 10.34649 -1.58502 0
endloop
endfacet
facet normal 0 0 -1
outer loop
vertex 10.0899 -0.0899 0
vertex 10.34649 -1.58502 0
vertex 9.64032 -3.02467 0
endloop
endfacet
facet normal 0 0 -1
outer loop
vertex 8.74347 4.85302 0
vertex 9.01276 4.42097 0
vertex 9.18958 3.94356 0
endloop
endfacet
facet normal 0 0 -1
outer loop
vertex 9.94869 1.01168 0
vertex 10.10368 0 0
vertex 10.0899 -0.0899 0
endloop
endfacet
facet normal 0 0 -1
outer loop
vertex 9.94869 1.01168 0
vertex 10.0899 -0.0899 0
vertex 10 0 0
endloop
endfacet
facet normal 0 0 -1
outer loop
vertex 10 0 0
vertex 10.0899 -0.0899 0
vertex 10.02579 -0.50845 0
endloop
endfacet
facet normal 0 0 -1
outer loop
vertex 10.02579 -0.50845 0
vertex 9.94869 -1.01168 0
vertex 10 0 0
endloop
endfacet
facet normal 0 0 -1
outer loop
vertex 9.7953 -2.01299 0
vertex 9.64032 -3.02467 0
vertex 9.41378 -3.48648 0
endloop
endfacet
facet normal 0 0 -1
outer loop
vertex 9.54139 -2.99363 0
vertex 9.41378 -3.48648 0
vertex 9.18958 -3.94356 0
endloop
endfacet
facet normal 0 -1 0
outer loop
vertex 15 -5 5
vertex 15 -5 9
vertex 10.55556 -5 5
endloop
endfacet
facet normal 0 -1 0
outer loop
vertex 10.55556 -5 5
vertex 15 -5 9
vertex 5 -5 9
endloop
endfacet
facet normal 0 -1 0
outer loop
vertex 10.55556 -5 5
vertex 5 -5 9
vertex 5 -5 5
endloop
endfacet
facet normal 0 -1 0
outer loop
vertex 11.57101 -5 5
vertex 11.57101 -5 0
vertex 15 -5 0
endloop
endfacet
facet normal 0 -1 0
outer loop
vertex 11.57101 -5 5
vertex 15 -5 0
vertex 15 -5 5
endloop
endfacet
facet normal 0 -1 0
outer loop
vertex 10.55556 -5 5
vertex 8.67137 -5 3.30423
vertex 8.67137 -5 0
endloop
endfacet
facet normal 0 -1 0
outer loop
vertex 10.55556 -5 5
vertex 8.67137 -5 0
vertex 11.57101 -5 0
endloop
endfacet
facet normal 0 -1 0
outer loop
vertex 10.55556 -5 5
vertex 11.57101 -5 0
vertex 11.57101 -5 5
endloop
endfacet
facet normal 0 -1 0
outer loop
vertex 8.67137 -5 3.30423
vertex 10.55556 -5 5
vertex 8.67137 -5 5
endloop
endfacet
facet normal 0 -1 0
outer loop
vertex 8.65185 -5 3.28667
vertex 8.65185 -5 0
vertex 8.67137 -5 0
endloop
endfacet
facet normal 0 -1 0
outer loop
vertex 8.65185 -5 3.28667
vertex 8.67137 -5 0
vertex 8.67137 -5 3.30423
endloop
endfacet
facet normal 0 -1 0
outer loop
vertex 8.65185 -5 3.28667
vertex 8.67137 -5 3.30423
vertex 8.67137 -5 5
endloop
endfacet
facet normal 0 -1 0
outer loop
vertex 8.65185 -5 3.28667
vertex 8.67137 -5 5
vertex 8.65185 -5 5
endloop
endfacet
facet normal -1 0 0
outer loop
vertex 5 -5 5
vertex 5 -5 9
vertex 5 -0.55556 5
endloop
endfacet
facet normal -1 0 0
outer loop
vertex 5 -0.55556 5
vertex 5 -5 9
vertex 5 5 9
endloop
endfacet
facet normal -1 0 0
outer loop
vertex 5 -0.55556 5
vertex 5 5 9
vertex 5 5 5
endloop
endfacet
facet normal 1 0 0
outer loop
vertex 15 5 5
vertex 15 5 9
vertex 15 0.55556 5
endloop
endfacet
facet normal 1 0 0
outer loop
vertex 15 0.55556 5
vertex 15 5 9
vertex 15 -5 9
endloop
endfacet
facet normal 1 0 0
outer loop
vertex 15 0.55556 5
vertex 15 -5 9
vertex 15 -5 5
endloop
endfacet
facet normal 1 0 0
outer loop
vertex 15 -3.09675 1.71292
vertex 15 -5 0
vertex 15 -3.09675 0
endloop
endfacet
facet normal 1 0 0
outer loop
vertex 15 -3.09675 5
vertex 15 -5 5
vertex 15 -5 0
endloop
endfacet
facet normal 1 0 0
outer loop
vertex 15 -3.09675 5
vertex 15 -5 0
vertex 15 -3.09675 1.71292
endloop
endfacet
facet normal 1 0 0
outer loop
vertex 15 0.55556 5
vertex 15 -3.09675 1.71292
vertex 15 -3.09675 0
endloop
endfacet
facet normal 1 0 0
outer loop
vertex 15 0.55556 5
vertex 15 -3.09675 0
vertex 15 5 0
endloop
endfacet
facet normal 1 0 0
outer loop
vertex 15 0.55556 5
vertex 15 5 0
vertex 15 5 5
endloop
endfacet
facet normal 1 0 0
outer loop
vertex 15 -3.09675 5
vertex 15 -3.09675 1.71292
vertex 15 0.55556 5
endloop
endfacet
facet normal 0 1 0
outer loop
vertex 5 5 5
vertex 5 5 9
vertex 9.44444 5 5
endloop
endfacet
facet normal 0 1 0
outer loop
vertex 9.44444 5 5
vertex 5 5 9
vertex 15 5 9
endloop
endfacet
facet normal 0 1 0
outer loop
vertex 9.44444 5 5
vertex 15 5 9
vertex 15 5 5
endloop
endfacet
facet normal 0 1 0
outer loop
vertex 13.5766 5 1.28106
vertex 15 5 0
vertex 13.5766 5 0
endloop
endfacet
facet normal 0 1 0
outer loop
vertex 13.5766 5 5
vertex 15 5 5
vertex 15 5 0
endloop
endfacet
facet normal 0 1 0
outer loop
vertex 13.5766 5 5
vertex 15 5 0
vertex 13.5766 5 1.28106
endloop
endfacet
facet normal 0 1 0
outer loop
vertex 10.29875 5 4.23113
vertex 13.5766 5 1.28106
vertex 13.5766 5 0
endloop
endfacet
facet normal 0 1 0
outer loop
vertex 10.29875 5 4.23113
vertex 13.5766 5 0
vertex 10.29875 5 0
endloop
endfacet
facet normal 0 1 0
outer loop
vertex 13.5766 5 1.28106
vertex 10.29875 5 4.23113
vertex 10.29875 5 5
endloop
endfacet
facet normal 0 1 0
outer loop
vertex 13.5766 5 1.28106
vertex 10.29875 5 5
vertex 13.5766 5 5
endloop
endfacet
facet normal 0 1 0
outer loop
vertex 10.29875 5 0
vertex 9.02648 5 0
vertex 9.02648 5 5
endloop
endfacet
facet normal 0 1 0
outer loop
vertex 10.29875 5 0
vertex 9.02648 5 5
vertex 9.44444 5 5
endloop
endfacet
facet normal 0 1 0
outer loop
vertex 10.29875 5 0
vertex 9.44444 5 5
vertex 10.29875 5 4.23113
endloop
endfacet
facet normal 0 1 0
outer loop
vertex 10.29875 5 4.23113
vertex 9.44444 5 5
vertex 10.29875 5 5
endloop
endfacet
facet normal 0 1 0
outer loop
vertex 8.79832 5 0
vertex 8.79832 5 5
vertex 9.02648 5 5
endloop
endfacet
facet normal 0 1 0
outer loop
vertex 8.79832 5 0
vertex 9.02648 5 5
vertex 9.02648 5 0
endloop
endfacet
facet normal 0 1 0
outer loop
vertex 8.65185 5 0
vertex 8.65185 5 5
vertex 8.79832 5 5
endloop
endfacet
facet normal 0 1 0
outer loop
vertex 8.65185 5 0
vertex 8.79832 5 5
vertex 8.79832 5 0
endloop
endfacet
facet normal 0 0 -1
outer loop
vertex 10 0 5
vertex 9.94869 -1.01168 5
vertex 9.94869 1.01168 5
endloop
endfacet
facet normal 0 0 -1
outer loop
vertex 9.94869 1.01168 5
vertex 9.94869 -1.01168 5
vertex 9.7953 2.01299 5
endloop
endfacet
facet normal 0 0 -1
outer loop
vertex 9.94869 -1.01168 5
vertex 9.7953 -2.01299 5
vertex 9.7953 2.01299 5
endloop
endfacet
facet normal 0 0 -1
outer loop
vertex 9.7953 2.01299 5
vertex 9.7953 -2.01299 5
vertex 9.54139 2.99363 5
endloop
endfacet
facet normal 0 0 -1
outer loop
vertex 9.7953 -2.01299 5
vertex 9.54139 -2.99363 5
vertex 9.54139 2.99363 5
endloop
endfacet
facet normal 0 0 -1
outer loop
vertex 9.54139 2.99363 5
vertex 9.54139 -2.99363 5
vertex 9.18958 3.94356 5
endloop
endfacet
facet normal 0 0 -1
outer loop
vertex 9.54139 -2.99363 5
vertex 9.18958 -3.94356 5
vertex 9.18958 3.94356 5
endloop
endfacet
facet normal 0 0 -1
outer loop
vertex 9.18958 3.94356 5
vertex 9.18958 -3.94356 5
vertex 8.74347 4.85302 5
endloop
endfacet
facet normal 0 0 -1
outer loop
vertex 9.18958 -3.94356 5
vertex 8.74347 -4.85302 5
vertex 8.74347 4.85302 5
endloop
endfacet
facet normal 0 0 -1
outer loop
vertex 8.74347 -4.85302 5
vertex 8.24378 5 5
vertex 8.65185 5 5
endloop
endfacet
facet normal 0 0 -1
outer loop
vertex 8.74347 -4.85302 5
vertex 8.65185 5 5
vertex 8.74347 4.85302 5
endloop
endfacet
facet normal 0 0 -1
outer loop
vertex 8.20763 -5 5
vertex 8.20763 5 5
vertex 8.24378 5 5
endloop
endfacet
facet normal 0 0 -1
outer loop
vertex 8.20763 -5 5
vertex 8.24378 5 5
vertex 8.74347 -4.85302 5
endloop
endfacet
facet normal 0 0 -1
outer loop
vertex 8.20763 -5 5
vertex 8.74347 -4.85302 5
vertex 8.65185 -5 5
endloop
endfacet
facet normal 0 0 -1
outer loop
vertex 8.17149 5 5
vertex 8.20763 5 5
vertex 8.20763 -5 5
endloop
endfacet
facet normal 0 0 -1
outer loop
vertex 8.17149 5 5
vertex 8.20763 -5 5
vertex 7.66435 -5 5
endloop
endfacet
facet normal 0 0 -1
outer loop
vertex 7.58758 -5 5
vertex 7.58758 5 5
vertex 8.17149 5 5
endloop
endfacet
facet normal 0 0 -1
outer loop
vertex 7.58758 -5 5
vertex 8.17149 5 5
vertex 7.66435 -5 5
endloop
endfacet
facet normal 0 0 -1
outer loop
vertex 7.51081 -5 5
vertex 7.00367 5 5
vertex 7.58758 5 5
endloop
endfacet
facet normal 0 0 -1
outer loop
vertex 7.51081 -5 5
vertex 7.58758 5 5
vertex 7.58758 -5 5
endloop
endfacet
facet normal 0 0 -1
outer loop
vertex 6.88967 5 5
vertex 7.00367 5 5
vertex 7.51081 -5 5
endloop
endfacet
facet normal 0 0 -1
outer loop
vertex 6.88967 5 5
vertex 7.51081 -5 5
vertex 6.88967 -5 5
endloop
endfacet
facet normal 0 0 -1
outer loop
vertex 6.77567 -5 5
vertex 6.26852 5 5
vertex 6.88967 5 5
endloop
endfacet
facet normal 0 0 -1
outer loop
vertex 6.77567 -5 5
vertex 6.88967 5 5
vertex 6.88967 -5 5
endloop
endfacet
facet normal 0 0 -1
outer loop
vertex 6.12106 5 5
vertex 6.26852 5 5
vertex 6.77567 -5 5
endloop
endfacet
facet normal 0 0 -1
outer loop
vertex 6.12106 5 5
vertex 6.77567 -5 5
vertex 6.12106 -5 5
endloop
endfacet
facet normal 0 0 -1
outer loop
vertex 5.9736 -5 5
vertex 5.46645 5 5
vertex 6.12106 5 5
endloop
endfacet
facet normal 0 0 -1
outer loop
vertex 5.9736 -5 5
vertex 6.12106 5 5
vertex 6.12106 -5 5
endloop
endfacet
facet normal 0 0 -1
outer loop
vertex 5.28964 5 5
vertex 5.46645 5 5
vertex 5.9736 -5 5
endloop
endfacet
facet normal 0 0 -1
outer loop
vertex 5.28964 5 5
vertex 5.9736 -5 5
vertex 5.28964 -5 5
endloop
endfacet
facet normal 0 0 -1
outer loop
vertex 5 -2.77523 5
vertex 5 5 5
vertex 5.28964 5 5
endloop
endfacet
facet normal 0 0 -1
outer loop
vertex 5 -2.77523 5
vertex 5.28964 5 5
vertex 5.28964 -5 5
endloop
endfacet
facet normal 0 0 -1
outer loop
vertex 5 -2.77523 5
vertex 5.28964 -5 5
vertex 5.11283 -5 5
endloop
endfacet
facet normal 0 0 -1
outer loop
vertex 5.11283 -5 5
vertex 5 -5 5
vertex 5 -2.77523 5
endloop
endfacet
facet normal -0.8978050968886259 0.4403930153860359 0
outer loop
vertex 8.74347 -4.85302 0
vertex 9.18958 -3.94356 5
vertex 9.18958 -3.94356 0
endloop
endfacet
facet normal -0.8978050968886259 0.4403930153860359 0
outer loop
vertex 8.74347 -4.85302 5
vertex 9.18958 -3.94356 5
vertex 8.74347 -4.85302 0
endloop
endfacet
facet normal -0.9377538811078928 -0.34730053047336973 0
outer loop
vertex 9.54139 2.99363 0
vertex 9.18958 3.94356 5
vertex 9.18958 3.94356 0
endloop
endfacet
facet normal -0.9377538811078928 -0.34730053047336973 0
outer loop
vertex 9.54139 2.99363 5
vertex 9.18958 3.94356 5
vertex 9.54139 2.99363 0
endloop
endfacet
facet normal -0.9884690704933199 -0.1514229067151734 0
outer loop
vertex 9.94869 1.01168 0
vertex 9.7953 2.01299 5
vertex 9.7953 2.01299 0
endloop
endfacet
facet normal -0.9884690704933199 -0.1514229067151734 0
outer loop
vertex 9.94869 1.01168 5
vertex 9.7953 2.01299 5
vertex 9.94869 1.01168 0
endloop
endfacet
facet normal -0.9680759900255813 -0.2506568920576305 0
outer loop
vertex 9.7953 2.01299 0
vertex 9.54139 2.99363 5
vertex 9.54139 2.99363 0
endloop
endfacet
facet normal -0.9680759900255813 -0.2506568920576305 0
outer loop
vertex 9.7953 2.01299 5
vertex 9.54139 2.99363 5
vertex 9.7953 2.01299 0
endloop
endfacet
facet normal -0.9884690704933199 0.1514229067151734 0
outer loop
vertex 9.7953 -2.01299 0
vertex 9.94869 -1.01168 5
vertex 9.94869 -1.01168 0
endloop
endfacet
facet normal -0.9884690704933199 0.1514229067151734 0
outer loop
vertex 9.7953 -2.01299 5
vertex 9.94869 -1.01168 5
vertex 9.7953 -2.01299 0
endloop
endfacet
facet normal -0.8978050968886259 -0.4403930153860359 0
outer loop
vertex 9.18958 3.94356 0
vertex 8.74347 4.85302 5
vertex 8.74347 4.85302 0
endloop
endfacet
facet normal -0.8978050968886259 -0.4403930153860359 0
outer loop
vertex 9.18958 3.94356 5
vertex 8.74347 4.85302 5
vertex 9.18958 3.94356 0
endloop
endfacet
facet normal -0.9987163375223298 -0.0506525139157358 0
outer loop
vertex 10 0 0
vertex 9.94869 1.01168 5
vertex 9.94869 1.01168 0
endloop
endfacet
facet normal -0.9987163375223298 -0.0506525139157358 0
outer loop
vertex 10 0 5
vertex 9.94869 1.01168 5
vertex 10 0 0
endloop
endfacet
facet normal -0.9987163375223298 0.0506525139157358 0
outer loop
vertex 9.94869 -1.01168 0
vertex 10 0 5
vertex 10 0 0
endloop
endfacet
facet normal -0.9987163375223298 0.0506525139157358 0
outer loop
vertex 9.94869 -1.01168 5
vertex 10 0 5
vertex 9.94869 -1.01168 0
endloop
endfacet
facet normal -0.9680759900255813 0.2506568920576305 0
outer loop
vertex 9.54139 -2.99363 0
vertex 9.7953 -2.01299 5
vertex 9.7953 -2.01299 0
endloop
endfacet
facet normal -0.9680759900255813 0.2506568920576305 0
outer loop
vertex 9.54139 -2.99363 5
vertex 9.7953 -2.01299 5
vertex 9.54139 -2.99363 0
endloop
endfacet
facet normal -0.9377538811078928 0.34730053047336973 0
outer loop
vertex 9.18958 -3.94356 0
vertex 9.54139 -2.99363 5
vertex 9.54139 -2.99363 0
endloop
endfacet
facet normal -0.9377538811078928 0.34730053047336973 0
outer loop
vertex 9.18958 -3.94356 5
vertex 9.54139 -2.99363 5
vertex 9.18958 -3.94356 0
endloop
endfacet
facet normal -0.8486269810585729 -0.5289917267967547 0
outer loop
vertex 8.65185 5 0.85487
vertex 8.65185 5 0
vertex 8.74347 4.85302 0
endloop
endfacet
facet normal -0.848626981058573 -0.5289917267967547 0
outer loop
vertex 8.65185 5 5
vertex 8.65185 5 0.85487
vertex 8.74347 4.85302 0
endloop
endfacet
facet normal -0.8486269810585731 -0.5289917267967547 0
outer loop
vertex 8.65185 5 5
vertex 8.74347 4.85302 0
vertex 8.74347 4.85302 5
endloop
endfacet
facet normal -0.8486269810585731 0.5289917267967547 0
outer loop
vertex 8.65185 -5 4.14513
vertex 8.74347 -4.85302 5
vertex 8.74347 -4.85302 0
endloop
endfacet
facet normal -0.848626981058573 0.5289917267967547 0
outer loop
vertex 8.65185 -5 4.14513
vertex 8.74347 -4.85302 0
vertex 8.65185 -5 0
endloop
endfacet
facet normal -0.8486269810585729 0.5289917267967547 0
outer loop
vertex 8.65185 -5 5
vertex 8.74347 -4.85302 5
vertex 8.65185 -5 4.14513
endloop
endfacet
facet normal 0 0 1
outer loop
vertex 8.20763 -5 5
vertex 8.20763 -5.71268 5
vertex 8.65185 -5 5
endloop
endfacet
facet normal 0 0 1
outer loop
vertex 7.66435 -5 5
vertex 7.58758 -6.51372 5
vertex 8.20763 -5.71268 5
endloop
endfacet
facet normal 0 0 1
outer loop
vertex 7.66435 -5 5
vertex 8.20763 -5.71268 5
vertex 8.20763 -5 5
endloop
endfacet
facet normal 0 0 1
outer loop
vertex 7.58758 -5 5
vertex 7.58758 -6.51372 5
vertex 7.66435 -5 5
endloop
endfacet
facet normal 0 0 1
outer loop
vertex 7.51081 -5 5
vertex 7.58758 -6.51372 5
vertex 7.58758 -5 5
endloop
endfacet
facet normal 0 0 1
outer loop
vertex 6.88967 -5 5
vertex 6.88967 -7.24793 5
vertex 7.58758 -6.51372 5
endloop
endfacet
facet normal 0 0 1
outer loop
vertex 6.88967 -5 5
vertex 7.58758 -6.51372 5
vertex 7.51081 -5 5
endloop
endfacet
facet normal 0 0 1
outer loop
vertex 6.77567 -5 5
vertex 6.88967 -7.24793 5
vertex 6.88967 -5 5
endloop
endfacet
facet normal 0 0 1
outer loop
vertex 6.12106 -5 5
vertex 6.12106 -7.90776 5
vertex 6.88967 -7.24793 5
endloop
endfacet
facet normal 0 0 1
outer loop
vertex 6.12106 -5 5
vertex 6.88967 -7.24793 5
vertex 6.77567 -5 5
endloop
endfacet
facet normal 0 0 1
outer loop
vertex 5.9736 -5 5
vertex 6.12106 -7.90776 5
vertex 6.12106 -5 5
endloop
endfacet
facet normal 0 0 1
outer loop
vertex 5.28964 -5 5
vertex 5.28964 -8.48644 5
vertex 6.12106 -7.90776 5
endloop
endfacet
facet normal 0 0 1
outer loop
vertex 5.28964 -5 5
vertex 6.12106 -7.90776 5
vertex 5.9736 -5 5
endloop
endfacet
facet normal 0 0 1
outer loop
vertex 5.11283 -5 5
vertex 5.28964 -8.48644 5
vertex 5.28964 -5 5
endloop
endfacet
facet normal 0 0 1
outer loop
vertex 4.40394 -5 5
vertex 4.40394 -8.97805 5
vertex 5.28964 -8.48644 5
endloop
endfacet
facet normal 0 0 1
outer loop
vertex 4.40394 -5 5
vertex 5.28964 -8.48644 5
vertex 5.11283 -5 5
endloop
endfacet
facet normal 0 0 1
outer loop
vertex 4.2022 -5 5
vertex 4.40394 -8.97805 5
vertex 4.40394 -5 5
endloop
endfacet
facet normal 0 0 1
outer loop
vertex 3.47305 -5 5
vertex 3.47305 -9.37752 5
vertex 4.40394 -8.97805 5
endloop
endfacet
facet normal 0 0 1
outer loop
vertex 3.47305 -5 5
vertex 4.40394 -8.97805 5
vertex 4.2022 -5 5
endloop
endfacet
facet normal 0 0 1
outer loop
vertex 3.25105 -5 5
vertex 3.47305 -9.37752 5
vertex 3.47305 -5 5
endloop
endfacet
facet normal 0 0 1
outer loop
vertex 2.50653 -5 5
vertex 2.50653 -9.68077 5
vertex 3.47305 -9.37752 5
endloop
endfacet
facet normal 0 0 1
outer loop
vertex 2.50653 -5 5
vertex 3.47305 -9.37752 5
vertex 3.25105 -5 5
endloop
endfacet
facet normal 0 0 1
outer loop
vertex 2.26914 -5 5
vertex 2.50653 -9.68077 5
vertex 2.50653 -5 5
endloop
endfacet
facet normal 0 0 1
outer loop
vertex 1.51428 -5 5
vertex 1.51428 -9.88468 5
vertex 2.50653 -9.68077 5
endloop
endfacet
facet normal 0 0 1
outer loop
vertex 1.51428 -5 5
vertex 2.50653 -9.68077 5
vertex 2.26914 -5 5
endloop
endfacet
facet normal 0 0 1
outer loop
vertex 0.75941 -5 5
vertex 0.50649 -9.98717 5
vertex 1.51428 -9.88468 5
endloop
endfacet
facet normal 0 0 1
outer loop
vertex 0.75941 -5 5
vertex 1.51428 -9.88468 5
vertex 1.51428 -5 5
endloop
endfacet
facet normal 0 0 1
outer loop
vertex 0.50649 -5 5
vertex 0.50649 -9.98717 5
vertex 0.75941 -5 5
endloop
endfacet
facet normal 0 0 1
outer loop
vertex 0.25357 -5 5
vertex 0.50649 -9.98717 5
vertex 0.50649 -5 5
endloop
endfacet
facet normal 0 0 1
outer loop
vertex -0.50649 -5 5
vertex -0.50649 -9.98717 5
vertex 0.50649 -9.98717 5
endloop
endfacet
facet normal 0 0 1
outer loop
vertex -0.50649 -5 5
vertex 0.50649 -9.98717 5
vertex 0.25357 -5 5
endloop
endfacet
facet normal 0 0 1
outer loop
vertex -0.75941 -5 5
vertex -0.50649 -9.98717 5
vertex -0.50649 -5 5
endloop
endfacet
facet normal 0 0 1
outer loop
vertex -1.51428 -5 5
vertex -1.51428 -9.88468 5
vertex -0.50649 -9.98717 5
endloop
endfacet
facet normal 0 0 1
outer loop
vertex -1.51428 -5 5
vertex -0.50649 -9.98717 5
vertex -0.75941 -5 5
endloop
endfacet
facet normal 0 0 1
outer loop
vertex -1.762 -5 5
vertex -1.51428 -9.88468 5
vertex -1.51428 -5 5
endloop
endfacet
facet normal 0 0 1
outer loop
vertex -2.50653 -5 5
vertex -2.50653 -9.68077 5
vertex -1.51428 -9.88468 5
endloop
endfacet
facet normal 0 0 1
outer loop
vertex -2.50653 -5 5
vertex -1.51428 -9.88468 5
vertex -1.762 -5 5
endloop
endfacet
facet normal 0 0 1
outer loop
vertex -2.74391 -5 5
vertex -2.50653 -9.68077 5
vertex -2.50653 -5 5
endloop
endfacet
facet normal 0 0 1
outer loop
vertex -3.47305 -5 5
vertex -3.47305 -9.37752 5
vertex -2.50653 -9.68077 5
endloop
endfacet
facet normal 0 0 1
outer loop
vertex -3.47305 -5 5
vertex -2.50653 -9.68077 5
vertex -2.74391 -5 5
endloop
endfacet
facet normal 0 0 1
outer loop
vertex -4.2022 -5 5
vertex -4.40394 -8.97805 5
vertex -3.47305 -9.37752 5
endloop
endfacet
facet normal 0 0 1
outer loop
vertex -4.2022 -5 5
vertex -3.47305 -9.37752 5
vertex -3.47305 -5 5
endloop
endfacet
facet normal 0 0 1
outer loop
vertex -4.40394 -5 5
vertex -4.40394 -8.97805 5
vertex -4.2022 -5 5
endloop
endfacet
facet normal 0 0 1
outer loop
vertex -4.60569 -5 5
vertex -4.40394 -8.97805 5
vertex -4.40394 -5 5
endloop
endfacet
facet normal 0 0 1
outer loop
vertex -5.28964 -5 5
vertex -5.28964 -8.48644 5
vertex -4.40394 -8.97805 5
endloop
endfacet
facet normal 0 0 1
outer loop
vertex -5.28964 -5 5
vertex -4.40394 -8.97805 5
vertex -4.60569 -5 5
endloop
endfacet
facet normal 0 0 1
outer loop
vertex -5.46645 -5 5
vertex -5.28964 -8.48644 5
vertex -5.28964 -5 5
endloop
endfacet
facet normal 0 0 1
outer loop
vertex -6.12106 -5 5
vertex -6.12106 -7.90776 5
vertex -5.28964 -8.48644 5
endloop
endfacet
facet normal 0 0 1
outer loop
vertex -6.12106 -5 5
vertex -5.28964 -8.48644 5
vertex -5.46645 -5 5
endloop
endfacet
facet normal 0 0 1
outer loop
vertex -6.26852 -5 5
vertex -6.12106 -7.90776 5
vertex -6.12106 -5 5
endloop
endfacet
facet normal 0 0 1
outer loop
vertex -6.88967 -5 5
vertex -6.88967 -7.24793 5
vertex -6.12106 -7.90776 5
endloop
endfacet
facet normal 0 0 1
outer loop
vertex -6.88967 -5 5
vertex -6.12106 -7.90776 5
vertex -6.26852 -5 5
endloop
endfacet
facet normal 0 0 1
outer loop
vertex -7.00367 -5 5
vertex -6.88967 -7.24793 5
vertex -6.88967 -5 5
endloop
endfacet
facet normal 0 0 1
outer loop
vertex -7.58758 -5 5
vertex -7.58758 -6.51372 5
vertex -6.88967 -7.24793 5
endloop
endfacet
facet normal 0 0 1
outer loop
vertex -7.58758 -5 5
vertex -6.88967 -7.24793 5
vertex -7.00367 -5 5
endloop
endfacet
facet normal 0 0 1
outer loop
vertex -7.66435 -5 5
vertex -7.58758 -6.51372 5
vertex -7.58758 -5 5
endloop
endfacet
facet normal 0 0 1
outer loop
vertex -8.20763 -5 5
vertex -8.20763 -5.71268 5
vertex -7.58758 -6.51372 5
endloop
endfacet
facet normal 0 0 1
outer loop
vertex -8.20763 -5 5
vertex -7.58758 -6.51372 5
vertex -7.66435 -5 5
endloop
endfacet
facet normal 0 0 1
outer loop
vertex -8.24378 -5 5
vertex -8.20763 -5.71268 5
vertex -8.20763 -5 5
endloop
endfacet
facet normal 0 0 1
outer loop
vertex -8.65185 -5 5
vertex -8.20763 -5.71268 5
vertex -8.24378 -5 5
endloop
endfacet
facet normal 0 0 1
outer loop
vertex 8.24378 5 5
vertex 8.65185 5 5
vertex 8.20763 5.71268 5
endloop
endfacet
facet normal 0 0 1
outer loop
vertex 8.24378 5 5
vertex 8.20763 5.71268 5
vertex 8.20763 5 5
endloop
endfacet
facet normal 0 0 1
outer loop
vertex 8.20763 5 5
vertex 8.20763 5.71268 5
vertex 8.17149 5 5
endloop
endfacet
facet normal 0 0 1
outer loop
vertex 8.17149 5 5
vertex 8.20763 5.71268 5
vertex 7.58758 6.51372 5
endloop
endfacet
facet normal 0 0 1
outer loop
vertex 8.17149 5 5
vertex 7.58758 6.51372 5
vertex 7.58758 5 5
endloop
endfacet
facet normal 0 0 1
outer loop
vertex 7.58758 5 5
vertex 7.58758 6.51372 5
vertex 6.88967 7.24793 5
endloop
endfacet
facet normal 0 0 1
outer loop
vertex 7.58758 5 5
vertex 6.88967 7.24793 5
vertex 7.00367 5 5
endloop
endfacet
facet normal 0 0 1
outer loop
vertex 7.00367 5 5
vertex 6.88967 7.24793 5
vertex 6.88967 5 5
endloop
endfacet
facet normal 0 0 1
outer loop
vertex 6.88967 5 5
vertex 6.88967 7.24793 5
vertex 6.12106 7.90776 5
endloop
endfacet
facet normal 0 0 1
outer loop
vertex 6.88967 5 5
vertex 6.12106 7.90776 5
vertex 6.26852 5 5
endloop
endfacet
facet normal 0 0 1
outer loop
vertex 6.26852 5 5
vertex 6.12106 7.90776 5
vertex 6.12106 5 5
endloop
endfacet
facet normal 0 0 1
outer loop
vertex 6.12106 5 5
vertex 6.12106 7.90776 5
vertex 5.28964 8.48644 5
endloop
endfacet
facet normal 0 0 1
outer loop
vertex 6.12106 5 5
vertex 5.28964 8.48644 5
vertex 5.46645 5 5
endloop
endfacet
facet normal 0 0 1
outer loop
vertex 5.46645 5 5
vertex 5.28964 8.48644 5
vertex 5.28964 5 5
endloop
endfacet
facet normal 0 0 1
outer loop
vertex 5.28964 5 5
vertex 5.28964 8.48644 5
vertex 4.40394 8.97805 5
endloop
endfacet
facet normal 0 0 1
outer loop
vertex 5.28964 5 5
vertex 4.40394 8.97805 5
vertex 4.60569 5 5
endloop
endfacet
facet normal 0 0 1
outer loop
vertex 4.60569 5 5
vertex 4.40394 8.97805 5
vertex 4.40394 5 5
endloop
endfacet
facet normal 0 0 1
outer loop
vertex 4.40394 5 5
vertex 4.40394 8.97805 5
vertex 3.47305 9.37752 5
endloop
endfacet
facet normal 0 0 1
outer loop
vertex 4.40394 5 5
vertex 3.47305 9.37752 5
vertex 3.69506 5 5
endloop
endfacet
facet normal 0 0 1
outer loop
vertex 3.69506 5 5
vertex 3.47305 9.37752 5
vertex 3.47305 5 5
endloop
endfacet
facet normal 0 0 1
outer loop
vertex 3.47305 5 5
vertex 3.47305 9.37752 5
vertex 2.50653 9.68077 5
endloop
endfacet
facet normal 0 0 1
outer loop
vertex 3.47305 5 5
vertex 2.50653 9.68077 5
vertex 2.74391 5 5
endloop
endfacet
facet normal 0 0 1
outer loop
vertex 2.74391 5 5
vertex 2.50653 9.68077 5
vertex 2.50653 5 5
endloop
endfacet
facet normal 0 0 1
outer loop
vertex 2.50653 5 5
vertex 2.50653 9.68077 5
vertex 1.51428 9.88468 5
endloop
endfacet
facet normal 0 0 1
outer loop
vertex 2.50653 5 5
vertex 1.51428 9.88468 5
vertex 1.762 5 5
endloop
endfacet
facet normal 0 0 1
outer loop
vertex 1.762 5 5
vertex 1.51428 9.88468 5
vertex 1.51428 5 5
endloop
endfacet
facet normal 0 0 1
outer loop
vertex 1.51428 5 5
vertex 1.51428 9.88468 5
vertex 1.26655 5 5
endloop
endfacet
facet normal 0 0 1
outer loop
vertex 1.26655 5 5
vertex 1.51428 9.88468 5
vertex 0.50649 9.98717 5
endloop
endfacet
facet normal 0 0 1
outer loop
vertex 1.26655 5 5
vertex 0.50649 9.98717 5
vertex 0.50649 5 5
endloop
endfacet
facet normal 0 0 1
outer loop
vertex 0.50649 5 5
vertex 0.50649 9.98717 5
vertex -0.50649 9.98717 5
endloop
endfacet
facet normal 0 0 1
outer loop
vertex 0.50649 5 5
vertex -0.50649 9.98717 5
vertex -0.25357 5 5
endloop
endfacet
facet normal 0 0 1
outer loop
vertex -0.25357 5 5
vertex -0.50649 9.98717 5
vertex -0.50649 5 5
endloop
endfacet
facet normal 0 0 1
outer loop
vertex -0.50649 5 5
vertex -0.50649 9.98717 5
vertex -1.51428 9.88468 5
endloop
endfacet
facet normal 0 0 1
outer loop
vertex -0.50649 5 5
vertex -1.51428 9.88468 5
vertex -1.26655 5 5
endloop
endfacet
facet normal 0 0 1
outer loop
vertex -1.26655 5 5
vertex -1.51428 9.88468 5
vertex -1.51428 5 5
endloop
endfacet
facet normal 0 0 1
outer loop
vertex -1.51428 5 5
vertex -1.51428 9.88468 5
vertex -2.50653 9.68077 5
endloop
endfacet
facet normal 0 0 1
outer loop
vertex -1.51428 5 5
vertex -2.50653 9.68077 5
vertex -2.26914 5 5
endloop
endfacet
facet normal 0 0 1
outer loop
vertex -2.26914 5 5
vertex -2.50653 9.68077 5
vertex -2.50653 5 5
endloop
endfacet
facet normal 0 0 1
outer loop
vertex -2.50653 5 5
vertex -2.50653 9.68077 5
vertex -3.47305 9.37752 5
endloop
endfacet
facet normal 0 0 1
outer loop
vertex -2.50653 5 5
vertex -3.47305 9.37752 5
vertex -3.25105 5 5
endloop
endfacet
facet normal 0 0 1
outer loop
vertex -3.25105 5 5
vertex -3.47305 9.37752 5
vertex -3.47305 5 5
endloop
endfacet
facet normal 0 0 1
outer loop
vertex -3.47305 5 5
vertex -3.47305 9.37752 5
vertex -3.69506 5 5
endloop
endfacet
facet normal 0 0 1
outer loop
vertex -3.69506 5 5
vertex -3.47305 9.37752 5
vertex -4.40394 8.97805 5
endloop
endfacet
facet normal 0 0 1
outer loop
vertex -3.69506 5 5
vertex -4.40394 8.97805 5
vertex -4.40394 5 5
endloop
endfacet
facet normal 0 0 1
outer loop
vertex -4.40394 5 5
vertex -4.40394 8.97805 5
vertex -5.28964 8.48644 5
endloop
endfacet
facet normal 0 0 1
outer loop
vertex -4.40394 5 5
vertex -5.28964 8.48644 5
vertex -5.11283 5 5
endloop
endfacet
facet normal 0 0 1
outer loop
vertex -5.11283 5 5
vertex -5.28964 8.48644 5
vertex -5.28964 5 5
endloop
endfacet
facet normal 0 0 1
outer loop
vertex -5.28964 5 5
vertex -5.28964 8.48644 5
vertex -6.12106 7.90776 5
endloop
endfacet
facet normal 0 0 1
outer loop
vertex -5.28964 5 5
vertex -6.12106 7.90776 5
vertex -5.9736 5 5
endloop
endfacet
facet normal 0 0 1
outer loop
vertex -5.9736 5 5
vertex -6.12106 7.90776 5
vertex -6.12106 5 5
endloop
endfacet
facet normal 0 0 1
outer loop
vertex -6.12106 5 5
vertex -6.12106 7.90776 5
vertex -6.88967 7.24793 5
endloop
endfacet
facet normal 0 0 1
outer loop
vertex -6.12106 5 5
vertex -6.88967 7.24793 5
vertex -6.77567 5 5
endloop
endfacet
facet normal 0 0 1
outer loop
vertex -6.77567 5 5
vertex -6.88967 7.24793 5
vertex -6.88967 5 5
endloop
endfacet
facet normal 0 0 1
outer loop
vertex -6.88967 5 5
vertex -6.88967 7.24793 5
vertex -7.58758 6.51372 5
endloop
endfacet
facet normal 0 0 1
outer loop
vertex -6.88967 5 5
vertex -7.58758 6.51372 5
vertex -7.51081 5 5
endloop
endfacet
facet normal 0 0 1
outer loop
vertex -7.51081 5 5
vertex -7.58758 6.51372 5
vertex -7.58758 5 5
endloop
endfacet
facet normal 0 0 1
outer loop
vertex -7.58758 5 5
vertex -7.58758 6.51372 5
vertex -8.20763 5.71268 5
endloop
endfacet
facet normal 0 0 1
outer loop
vertex -7.58758 5 5
vertex -8.20763 5.71268 5
vertex -8.17149 5 5
endloop
endfacet
facet normal 0 0 1
outer loop
vertex -8.17149 5 5
vertex -8.20763 5.71268 5
vertex -8.20763 5 5
endloop
endfacet
facet normal 0 0 1
outer loop
vertex -8.20763 5 5
vertex -8.20763 5.71268 5
vertex -8.65185 5 5
endloop
endfacet
facet normal 0 0 1
outer loop
vertex 9.94869 1.01168 5
vertex 9.94869 -1.01168 5
vertex 10 0 5
endloop
endfacet
facet normal 0 0 1
outer loop
vertex 9.7953 2.01299 5
vertex 9.94869 -1.01168 5
vertex 9.94869 1.01168 5
endloop
endfacet
facet normal 0 0 1
outer loop
vertex 9.7953 2.01299 5
vertex 9.7953 -2.01299 5
vertex 9.94869 -1.01168 5
endloop
endfacet
facet normal 0 0 1
outer loop
vertex 9.54139 2.99363 5
vertex 9.7953 -2.01299 5
vertex 9.7953 2.01299 5
endloop
endfacet
facet normal 0 0 1
outer loop
vertex 9.54139 2.99363 5
vertex 9.54139 -2.99363 5
vertex 9.7953 -2.01299 5
endloop
endfacet
facet normal 0 0 1
outer loop
vertex 9.18958 3.94356 5
vertex 9.54139 -2.99363 5
vertex 9.54139 2.99363 5
endloop
endfacet
facet normal 0 0 1
outer loop
vertex 9.18958 3.94356 5
vertex 9.18958 -3.94356 5
vertex 9.54139 -2.99363 5
endloop
endfacet
facet normal 0 0 1
outer loop
vertex 8.74347 4.85302 5
vertex 9.18958 -3.94356 5
vertex 9.18958 3.94356 5
endloop
endfacet
facet normal 0 0 1
outer loop
vertex 8.74347 4.85302 5
vertex 8.74347 -4.85302 5
vertex 9.18958 -3.94356 5
endloop
endfacet
facet normal 0 0 1
outer loop
vertex 8.24378 5 5
vertex 8.74347 -4.85302 5
vertex 8.74347 4.85302 5
endloop
endfacet
facet normal 0 0 1
outer loop
vertex 8.24378 5 5
vertex 8.74347 4.85302 5
vertex 8.65185 5 5
endloop
endfacet
facet normal 0 0 1
outer loop
vertex 8.65185 -5 5
vertex 8.74347 -4.85302 5
vertex 8.24378 5 5
endloop
endfacet
facet normal 0 0 1
outer loop
vertex 8.65185 -5 5
vertex 8.24378 5 5
vertex 8.20763 5 5
endloop
endfacet
facet normal 0 0 1
outer loop
vertex 8.65185 -5 5
vertex 8.20763 5 5
vertex 8.20763 -5 5
endloop
endfacet
facet normal 0 0 1
outer loop
vertex 8.20763 -5 5
vertex 8.20763 5 5
vertex 8.17149 5 5
endloop
endfacet
facet normal 0 0 1
outer loop
vertex 8.20763 -5 5
vertex 8.17149 5 5
vertex 7.66435 -5 5
endloop
endfacet
facet normal 0 0 1
outer loop
vertex 7.66435 -5 5
vertex 8.17149 5 5
vertex 7.58758 5 5
endloop
endfacet
facet normal 0 0 1
outer loop
vertex 7.66435 -5 5
vertex 7.58758 5 5
vertex 7.58758 -5 5
endloop
endfacet
facet normal 0 0 1
outer loop
vertex 7.58758 -5 5
vertex 7.58758 5 5
vertex 7.00367 5 5
endloop
endfacet
facet normal 0 0 1
outer loop
vertex 7.58758 -5 5
vertex 7.00367 5 5
vertex 7.51081 -5 5
endloop
endfacet
facet normal 0 0 1
outer loop
vertex 7.51081 -5 5
vertex 7.00367 5 5
vertex 6.88967 5 5
endloop
endfacet
facet normal 0 0 1
outer loop
vertex 7.51081 -5 5
vertex 6.88967 5 5
vertex 6.88967 -5 5
endloop
endfacet
facet normal 0 0 1
outer loop
vertex 6.88967 -5 5
vertex 6.88967 5 5
vertex 6.26852 5 5
endloop
endfacet
facet normal 0 0 1
outer loop
vertex 6.88967 -5 5
vertex 6.26852 5 5
vertex 6.77567 -5 5
endloop
endfacet
facet normal 0 0 1
outer loop
vertex 6.77567 -5 5
vertex 6.26852 5 5
vertex 6.12106 5 5
endloop
endfacet
facet normal 0 0 1
outer loop
vertex 6.77567 -5 5
vertex 6.12106 5 5
vertex 6.12106 -5 5
endloop
endfacet
facet normal 0 0 1
outer loop
vertex 6.12106 -5 5
vertex 6.12106 5 5
vertex 5.46645 5 5
endloop
endfacet
facet normal 0 0 1
outer loop
vertex 6.12106 -5 5
vertex 5.46645 5 5
vertex 5.9736 -5 5
endloop
endfacet
facet normal 0 0 1
outer loop
vertex 5.9736 -5 5
vertex 5.46645 5 5
vertex 5.28964 5 5
endloop
endfacet
facet normal 0 0 1
outer loop
vertex 5.9736 -5 5
vertex 5.28964 5 5
vertex 5.28964 -5 5
endloop
endfacet
facet normal 0 0 1
outer loop
vertex 5.28964 -5 5
vertex 5.28964 5 5
vertex 4.60569 5 5
endloop
endfacet
facet normal 0 0 1
outer loop
vertex 5.28964 -5 5
vertex 4.60569 5 5
vertex 5.11283 -5 5
endloop
endfacet
facet normal 0 0 1
outer loop
vertex 5.11283 -5 5
vertex 4.60569 5 5
vertex 4.40394 5 5
endloop
endfacet
facet normal 0 0 1
outer loop
vertex 5.11283 -5 5
vertex 4.40394 5 5
vertex 4.40394 -5 5
endloop
endfacet
facet normal 0 0 1
outer loop
vertex 4.40394 -5 5
vertex 4.40394 5 5
vertex 3.69506 5 5
endloop
endfacet
facet normal 0 0 1
outer loop
vertex 4.40394 -5 5
vertex 3.69506 5 5
vertex 4.2022 -5 5
endloop
endfacet
facet normal 0 0 1
outer loop
vertex 4.2022 -5 5
vertex 3.69506 5 5
vertex 3.47305 5 5
endloop
endfacet
facet normal 0 0 1
outer loop
vertex 4.2022 -5 5
vertex 3.47305 5 5
vertex 3.47305 -5 5
endloop
endfacet
facet normal 0 0 1
outer loop
vertex 3.47305 -5 5
vertex 3.47305 5 5
vertex 2.74391 5 5
endloop
endfacet
facet normal 0 0 1
outer loop
vertex 3.47305 -5 5
vertex 2.74391 5 5
vertex 3.25105 -5 5
endloop
endfacet
facet normal 0 0 1
outer loop
vertex 3.25105 -5 5
vertex 2.74391 5 5
vertex 2.50653 5 5
endloop
endfacet
facet normal 0 0 1
outer loop
vertex 3.25105 -5 5
vertex 2.50653 5 5
vertex 2.50653 -5 5
endloop
endfacet
facet normal 0 0 1
outer loop
vertex 2.50653 -5 5
vertex 2.50653 5 5
vertex 1.762 5 5
endloop
endfacet
facet normal 0 0 1
outer loop
vertex 2.50653 -5 5
vertex 1.762 5 5
vertex 2.26914 -5 5
endloop
endfacet
facet normal 0 0 1
outer loop
vertex 2.26914 -5 5
vertex 1.762 5 5
vertex 1.51428 5 5
endloop
endfacet
facet normal 0 0 1
outer loop
vertex 2.26914 -5 5
vertex 1.51428 5 5
vertex 1.51428 -5 5
endloop
endfacet
facet normal 0 0 1
outer loop
vertex 1.51428 -5 5
vertex 1.51428 5 5
vertex 1.26655 5 5
endloop
endfacet
facet normal 0 0 1
outer loop
vertex 1.51428 -5 5
vertex 1.26655 5 5
vertex 0.75941 -5 5
endloop
endfacet
facet normal 0 0 1
outer loop
vertex 0.75941 -5 5
vertex 1.26655 5 5
vertex 0.50649 5 5
endloop
endfacet
facet normal 0 0 1
outer loop
vertex 0.75941 -5 5
vertex 0.50649 5 5
vertex 0.50649 -5 5
endloop
endfacet
facet normal 0 0 1
outer loop
vertex 0.50649 -5 5
vertex 0.50649 5 5
vertex -0.25357 5 5
endloop
endfacet
facet normal 0 0 1
outer loop
vertex 0.50649 -5 5
vertex -0.25357 5 5
vertex 0.25357 -5 5
endloop
endfacet
facet normal 0 0 1
outer loop
vertex 0.25357 -5 5
vertex -0.25357 5 5
vertex -0.50649 5 5
endloop
endfacet
facet normal 0 0 1
outer loop
vertex 0.25357 -5 5
vertex -0.50649 5 5
vertex -0.50649 -5 5
endloop
endfacet
facet normal 0 0 1
outer loop
vertex -0.50649 -5 5
vertex -0.50649 5 5
vertex -1.26655 5 5
endloop
endfacet
facet normal 0 0 1
outer loop
vertex -0.50649 -5 5
vertex -1.26655 5 5
vertex -0.75941 -5 5
endloop
endfacet
facet normal 0 0 1
outer loop
vertex -0.75941 -5 5
vertex -1.26655 5 5
vertex -1.51428 5 5
endloop
endfacet
facet normal 0 0 1
outer loop
vertex -0.75941 -5 5
vertex -1.51428 5 5
vertex -1.51428 -5 5
endloop
endfacet
facet normal 0 0 1
outer loop
vertex -1.51428 -5 5
vertex -1.51428 5 5
vertex -2.26914 5 5
endloop
endfacet
facet normal 0 0 1
outer loop
vertex -1.51428 -5 5
vertex -2.26914 5 5
vertex -1.762 -5 5
endloop
endfacet
facet normal 0 0 1
outer loop
vertex -1.762 -5 5
vertex -2.26914 5 5
vertex -2.50653 5 5
endloop
endfacet
facet normal 0 0 1
outer loop
vertex -1.762 -5 5
vertex -2.50653 5 5
vertex -2.50653 -5 5
endloop
endfacet
facet normal 0 0 1
outer loop
vertex -2.50653 -5 5
vertex -2.50653 5 5
vertex -3.25105 5 5
endloop
endfacet
facet normal 0 0 1
outer loop
vertex -2.50653 -5 5
vertex -3.25105 5 5
vertex -2.74391 -5 5
endloop
endfacet
facet normal 0 0 1
outer loop
vertex -2.74391 -5 5
vertex -3.25105 5 5
vertex -3.47305 5 5
endloop
endfacet
facet normal 0 0 1
outer loop
vertex -2.74391 -5 5
vertex -3.47305 5 5
vertex -3.47305 -5 5
endloop
endfacet
facet normal 0 0 1
outer loop
vertex -3.47305 -5 5
vertex -3.47305 5 5
vertex -3.69506 5 5
endloop
endfacet
facet normal 0 0 1
outer loop
vertex -3.47305 -5 5
vertex -3.69506 5 5
vertex -4.2022 -5 5
endloop
endfacet
facet normal 0 0 1
outer loop
vertex -4.2022 -5 5
vertex -3.69506 5 5
vertex -4.40394 5 5
endloop
endfacet
facet normal 0 0 1
outer loop
vertex -4.2022 -5 5
vertex -4.40394 5 5
vertex -4.40394 -5 5
endloop
endfacet
facet normal 0 0 1
outer loop
vertex -4.40394 -5 5
vertex -4.40394 5 5
vertex -5.11283 5 5
endloop
endfacet
facet normal 0 0 1
outer loop
vertex -4.40394 -5 5
vertex -5.11283 5 5
vertex -4.60569 -5 5
endloop
endfacet
facet normal 0 0 1
outer loop
vertex -4.60569 -5 5
vertex -5.11283 5 5
vertex -5.28964 5 5
endloop
endfacet
facet normal 0 0 1
outer loop
vertex -4.60569 -5 5
vertex -5.28964 5 5
vertex -5.28964 -5 5
endloop
endfacet
facet normal 0 0 1
outer loop
vertex -5.28964 -5 5
vertex -5.28964 5 5
vertex -5.9736 5 5
endloop
endfacet
facet normal 0 0 1
outer loop
vertex -5.28964 -5 5
vertex -5.9736 5 5
vertex -5.46645 -5 5
endloop
endfacet
facet normal 0 0 1
outer loop
vertex -5.46645 -5 5
vertex -5.9736 5 5
vertex -6.12106 5 5
endloop
endfacet
facet normal 0 0 1
outer loop
vertex -5.46645 -5 5
vertex -6.12106 5 5
vertex -6.12106 -5 5
endloop
endfacet
facet normal 0 0 1
outer loop
vertex -6.12106 -5 5
vertex -6.12106 5 5
vertex -6.77567 5 5
endloop
endfacet
facet normal 0 0 1
outer loop
vertex -6.12106 -5 5
vertex -6.77567 5 5
vertex -6.26852 -5 5
endloop
endfacet
facet normal 0 0 1
outer loop
vertex -6.26852 -5 5
vertex -6.77567 5 5
vertex -6.88967 5 5
endloop
endfacet
facet normal 0 0 1
outer loop
vertex -6.26852 -5 5
vertex -6.88967 5 5
vertex -6.88967 -5 5
endloop
endfacet
facet normal 0 0 1
outer loop
vertex -6.88967 -5 5
vertex -6.88967 5 5
vertex -7.51081 5 5
endloop
endfacet
facet normal 0 0 1
outer loop
vertex -6.88967 -5 5
vertex -7.51081 5 5
vertex -7.00367 -5 5
endloop
endfacet
facet normal 0 0 1
outer loop
vertex -7.00367 -5 5
vertex -7.51081 5 5
vertex -7.58758 5 5
endloop
endfacet
facet normal 0 0 1
outer loop
vertex -7.00367 -5 5
vertex -7.58758 5 5
vertex -7.58758 -5 5
endloop
endfacet
facet normal 0 0 1
outer loop
vertex -7.58758 -5 5
vertex -7.58758 5 5
vertex -8.17149 5 5
endloop
endfacet
facet normal 0 0 1
outer loop
vertex -7.58758 -5 5
vertex -8.17149 5 5
vertex -7.66435 -5 5
endloop
endfacet
facet normal 0 0 1
outer loop
vertex -7.66435 -5 5
vertex -8.17149 5 5
vertex -8.20763 5 5
endloop
endfacet
facet normal 0 0 1
outer loop
vertex -7.66435 -5 5
vertex -8.20763 5 5
vertex -8.20763 -5 5
endloop
endfacet
facet normal 0 0 1
outer loop
vertex -8.20763 -5 5
vertex -8.20763 5 5
vertex -8.65185 5 5
endloop
endfacet
facet normal 0 0 1
outer loop
vertex -8.20763 -5 5
vertex -8.65185 5 5
vertex -8.74347 4.85302 5
endloop
endfacet
facet normal 0 0 1
outer loop
vertex -8.20763 -5 5
vertex -8.74347 4.85302 5
vertex -8.24378 -5 5
endloop
endfacet
facet normal 0 0 1
outer loop
vertex -8.65185 -5 5
vertex -8.24378 -5 5
vertex -8.74347 4.85302 5
endloop
endfacet
facet normal 0 0 1
outer loop
vertex -8.65185 -5 5
vertex -8.74347 4.85302 5
vertex -8.74347 -4.85302 5
endloop
endfacet
facet normal 0 0 1
outer loop
vertex -8.74347 4.85302 5
vertex -9.18958 3.94356 5
vertex -8.74347 -4.85302 5
endloop
endfacet
facet normal 0 0 1
outer loop
vertex -8.74347 -4.85302 5
vertex -9.18958 3.94356 5
vertex -9.18958 -3.94356 5
endloop
endfacet
facet normal 0 0 1
outer loop
vertex -9.18958 3.94356 5
vertex -9.54139 2.99363 5
vertex -9.18958 -3.94356 5
endloop
endfacet
facet normal 0 0 1
outer loop
vertex -9.18958 -3.94356 5
vertex -9.54139 2.99363 5
vertex -9.54139 -2.99363 5
endloop
endfacet
facet normal 0 0 1
outer loop
vertex -9.54139 2.99363 5
vertex -9.7953 2.01299 5
vertex -9.54139 -2.99363 5
endloop
endfacet
facet normal 0 0 1
outer loop
vertex -9.54139 -2.99363 5
vertex -9.7953 2.01299 5
vertex -9.7953 -2.01299 5
endloop
endfacet
facet normal 0 0 1
outer loop
vertex -9.7953 2.01299 5
vertex -9.94869 1.01168 5
vertex -9.7953 -2.01299 5
endloop
endfacet
facet normal 0 0 1
outer loop
vertex -9.7953 -2.01299 5
vertex -9.94869 1.01168 5
vertex -9.94869 -1.01168 5
endloop
endfacet
facet normal 0 0 1
outer loop
vertex -10 0 5
vertex -9.94869 -1.01168 5
vertex -9.94869 1.01168 5
endloop
endfacet
facet normal 0 0 -1
outer loop
vertex 8.65185 -5 0
vertex 8.20763 -5.71268 0
vertex 8.20763 -5 0
endloop
endfacet
facet normal 0 0 -1
outer loop
vertex 7.58758 -6.51372 0
vertex 7.66435 -5 0
vertex 8.20763 -5 0
endloop
endfacet
facet normal 0 0 -1
outer loop
vertex 7.58758 -6.51372 0
vertex 8.20763 -5 0
vertex 8.20763 -5.71268 0
endloop
endfacet
facet normal 0 0 -1
outer loop
vertex 7.66435 -5 0
vertex 7.58758 -6.51372 0
vertex 7.58758 -5 0
endloop
endfacet
facet normal 0 0 -1
outer loop
vertex 7.58758 -5 0
vertex 7.58758 -6.51372 0
vertex 7.51081 -5 0
endloop
endfacet
facet normal 0 0 -1
outer loop
vertex 6.88967 -7.24793 0
vertex 6.88967 -5 0
vertex 7.51081 -5 0
endloop
endfacet
facet normal 0 0 -1
outer loop
vertex 6.88967 -7.24793 0
vertex 7.51081 -5 0
vertex 7.58758 -6.51372 0
endloop
endfacet
facet normal 0 0 -1
outer loop
vertex 6.88967 -5 0
vertex 6.88967 -7.24793 0
vertex 6.77567 -5 0
endloop
endfacet
facet normal 0 0 -1
outer loop
vertex 6.12106 -7.90776 0
vertex 6.12106 -5 0
vertex 6.77567 -5 0
endloop
endfacet
facet normal 0 0 -1
outer loop
vertex 6.12106 -7.90776 0
vertex 6.77567 -5 0
vertex 6.88967 -7.24793 0
endloop
endfacet
facet normal 0 0 -1
outer loop
vertex 6.12106 -5 0
vertex 6.12106 -7.90776 0
vertex 5.9736 -5 0
endloop
endfacet
facet normal 0 0 -1
outer loop
vertex 5.28964 -8.48644 0
vertex 5.28964 -5 0
vertex 5.9736 -5 0
endloop
endfacet
facet normal 0 0 -1
outer loop
vertex 5.28964 -8.48644 0
vertex 5.9736 -5 0
vertex 6.12106 -7.90776 0
endloop
endfacet
facet normal 0 0 -1
outer loop
vertex 5.28964 -5 0
vertex 5.28964 -8.48644 0
vertex 5.11283 -5 0
endloop
endfacet
facet normal 0 0 -1
outer loop
vertex 4.40394 -8.97805 0
vertex 4.40394 -5 0
vertex 5.11283 -5 0
endloop
endfacet
facet normal 0 0 -1
outer loop
vertex 4.40394 -8.97805 0
vertex 5.11283 -5 0
vertex 5.28964 -8.48644 0
endloop
endfacet
facet normal 0 0 -1
outer loop
vertex 4.40394 -5 0
vertex 4.40394 -8.97805 0
vertex 4.2022 -5 0
endloop
endfacet
facet normal 0 0 -1
outer loop
vertex 3.47305 -9.37752 0
vertex 3.47305 -5 0
vertex 4.2022 -5 0
endloop
endfacet
facet normal 0 0 -1
outer loop
vertex 3.47305 -9.37752 0
vertex 4.2022 -5 0
vertex 4.40394 -8.97805 0
endloop
endfacet
facet normal 0 0 -1
outer loop
vertex 3.47305 -5 0
vertex 3.47305 -9.37752 0
vertex 3.25105 -5 0
endloop
endfacet
facet normal 0 0 -1
outer loop
vertex 2.50653 -9.68077 0
vertex 2.50653 -5 0
vertex 3.25105 -5 0
endloop
endfacet
facet normal 0 0 -1
outer loop
vertex 2.50653 -9.68077 0
vertex 3.25105 -5 0
vertex 3.47305 -9.37752 0
endloop
endfacet
facet normal 0 0 -1
outer loop
vertex 2.50653 -5 0
vertex 2.50653 -9.68077 0
vertex 2.26914 -5 0
endloop
endfacet
facet normal 0 0 -1
outer loop
vertex 1.51428 -9.88468 0
vertex 1.51428 -5 0
vertex 2.26914 -5 0
endloop
endfacet
facet normal 0 0 -1
outer loop
vertex 1.51428 -9.88468 0
vertex 2.26914 -5 0
vertex 2.50653 -9.68077 0
endloop
endfacet
facet normal 0 0 -1
outer loop
vertex 0.50649 -9.98717 0
vertex 0.75941 -5 0
vertex 1.51428 -5 0
endloop
endfacet
facet normal 0 0 -1
outer loop
vertex 0.50649 -9.98717 0
vertex 1.51428 -5 0
vertex 1.51428 -9.88468 0
endloop
endfacet
facet normal 0 0 -1
outer loop
vertex 0.75941 -5 0
vertex 0.50649 -9.98717 0
vertex 0.50649 -5 0
endloop
endfacet
facet normal 0 0 -1
outer loop
vertex 0.50649 -5 0
vertex 0.50649 -9.98717 0
vertex 0.25357 -5 0
endloop
endfacet
facet normal 0 0 -1
outer loop
vertex -0.50649 -9.98717 0
vertex -0.50649 -5 0
vertex 0.25357 -5 0
endloop
endfacet
facet normal 0 0 -1
outer loop
vertex -0.50649 -9.98717 0
vertex 0.25357 -5 0
vertex 0.50649 -9.98717 0
endloop
endfacet
facet normal 0 0 -1
outer loop
vertex -0.50649 -5 0
vertex -0.50649 -9.98717 0
vertex -0.75941 -5 0
endloop
endfacet
facet normal 0 0 -1
outer loop
vertex -1.51428 -9.88468 0
vertex -1.51428 -5 0
vertex -0.75941 -5 0
endloop
endfacet
facet normal 0 0 -1
outer loop
vertex -1.51428 -9.88468 0
vertex -0.75941 -5 0
vertex -0.50649 -9.98717 0
endloop
endfacet
facet normal 0 0 -1
outer loop
vertex -1.51428 -5 0
vertex -1.51428 -9.88468 0
vertex -1.762 -5 0
endloop
endfacet
facet normal 0 0 -1
outer loop
vertex -2.50653 -9.68077 0
vertex -2.50653 -5 0
vertex -1.762 -5 0
endloop
endfacet
facet normal 0 0 -1
outer loop
vertex -2.50653 -9.68077 0
vertex -1.762 -5 0
vertex -1.51428 -9.88468 0
endloop
endfacet
facet normal 0 0 -1
outer loop
vertex -2.50653 -5 0
vertex -2.50653 -9.68077 0
vertex -2.74391 -5 0
endloop
endfacet
facet normal 0 0 -1
outer loop
vertex -3.47305 -9.37752 0
vertex -3.47305 -5 0
vertex -2.74391 -5 0
endloop
endfacet
facet normal 0 0 -1
outer loop
vertex -3.47305 -9.37752 0
vertex -2.74391 -5 0
vertex -2.50653 -9.68077 0
endloop
endfacet
facet normal 0 0 -1
outer loop
vertex -4.40394 -8.97805 0
vertex -4.2022 -5 0
vertex -3.47305 -5 0
endloop
endfacet
facet normal 0 0 -1
outer loop
vertex -4.40394 -8.97805 0
vertex -3.47305 -5 0
vertex -3.47305 -9.37752 0
endloop
endfacet
facet normal 0 0 -1
outer loop
vertex -4.2022 -5 0
vertex -4.40394 -8.97805 0
vertex -4.40394 -5 0
endloop
endfacet
facet normal 0 0 -1
outer loop
vertex -4.40394 -5 0
vertex -4.40394 -8.97805 0
vertex -4.60569 -5 0
endloop
endfacet
facet normal 0 0 -1
outer loop
vertex -5.28964 -8.48644 0
vertex -5.28964 -5 0
vertex -4.60569 -5 0
endloop
endfacet
facet normal 0 0 -1
outer loop
vertex -5.28964 -8.48644 0
vertex -4.60569 -5 0
vertex -4.40394 -8.97805 0
endloop
endfacet
facet normal 0 0 -1
outer loop
vertex -5.28964 -5 0
vertex -5.28964 -8.48644 0
vertex -5.46645 -5 0
endloop
endfacet
facet normal 0 0 -1
outer loop
vertex -6.12106 -7.90776 0
vertex -6.12106 -5 0
vertex -5.46645 -5 0
endloop
endfacet
facet normal 0 0 -1
outer loop
vertex -6.12106 -7.90776 0
vertex -5.46645 -5 0
vertex -5.28964 -8.48644 0
endloop
endfacet
facet normal 0 0 -1
outer loop
vertex -6.12106 -5 0
vertex -6.12106 -7.90776 0
vertex -6.26852 -5 0
endloop
endfacet
facet normal 0 0 -1
outer loop
vertex -6.88967 -7.24793 0
vertex -6.88967 -5 0
vertex -6.26852 -5 0
endloop
endfacet
facet normal 0 0 -1
outer loop
vertex -6.88967 -7.24793 0
vertex -6.26852 -5 0
vertex -6.12106 -7.90776 0
endloop
endfacet
facet normal 0 0 -1
outer loop
vertex -6.88967 -5 0
vertex -6.88967 -7.24793 0
vertex -7.00367 -5 0
endloop
endfacet
facet normal 0 0 -1
outer loop
vertex -7.58758 -6.51372 0
vertex -7.58758 -5 0
vertex -7.00367 -5 0
endloop
endfacet
facet normal 0 0 -1
outer loop
vertex -7.58758 -6.51372 0
vertex -7.00367 -5 0
vertex -6.88967 -7.24793 0
endloop
endfacet
facet normal 0 0 -1
outer loop
vertex -7.58758 -5 0
vertex -7.58758 -6.51372 0
vertex -7.66435 -5 0
endloop
endfacet
facet normal 0 0 -1
outer loop
vertex -8.20763 -5.71268 0
vertex -8.20763 -5 0
vertex -7.66435 -5 0
endloop
endfacet
facet normal 0 0 -1
outer loop
vertex -8.20763 -5.71268 0
vertex -7.66435 -5 0
vertex -7.58758 -6.51372 0
endloop
endfacet
facet normal 0 0 -1
outer loop
vertex -8.20763 -5 0
vertex -8.20763 -5.71268 0
vertex -8.24378 -5 0
endloop
endfacet
facet normal 0 0 -1
outer loop
vertex -8.65185 -5 0
vertex -8.24378 -5 0
vertex -8.20763 -5.71268 0
endloop
endfacet
facet normal 0 0 -1
outer loop
vertex 8.24378 5 0
vertex 8.20763 5.71268 0
vertex 8.65185 5 0
endloop
endfacet
facet normal 0 0 -1
outer loop
vertex 8.20763 5 0
vertex 8.20763 5.71268 0
vertex 8.24378 5 0
endloop
endfacet
facet normal 0 0 -1
outer loop
vertex 8.17149 5 0
vertex 8.20763 5.71268 0
vertex 8.20763 5 0
endloop
endfacet
facet normal 0 0 -1
outer loop
vertex 7.58758 5 0
vertex 7.58758 6.51372 0
vertex 8.20763 5.71268 0
endloop
endfacet
facet normal 0 0 -1
outer loop
vertex 7.58758 5 0
vertex 8.20763 5.71268 0
vertex 8.17149 5 0
endloop
endfacet
facet normal 0 0 -1
outer loop
vertex 7.00367 5 0
vertex 6.88967 7.24793 0
vertex 7.58758 6.51372 0
endloop
endfacet
facet normal 0 0 -1
outer loop
vertex 7.00367 5 0
vertex 7.58758 6.51372 0
vertex 7.58758 5 0
endloop
endfacet
facet normal 0 0 -1
outer loop
vertex 6.88967 5 0
vertex 6.88967 7.24793 0
vertex 7.00367 5 0
endloop
endfacet
facet normal 0 0 -1
outer loop
vertex 6.26852 5 0
vertex 6.12106 7.90776 0
vertex 6.88967 7.24793 0
endloop
endfacet
facet normal 0 0 -1
outer loop
vertex 6.26852 5 0
vertex 6.88967 7.24793 0
vertex 6.88967 5 0
endloop
endfacet
facet normal 0 0 -1
outer loop
vertex 6.12106 5 0
vertex 6.12106 7.90776 0
vertex 6.26852 5 0
endloop
endfacet
facet normal 0 0 -1
outer loop
vertex 5.46645 5 0
vertex 5.28964 8.48644 0
vertex 6.12106 7.90776 0
endloop
endfacet
facet normal 0 0 -1
outer loop
vertex 5.46645 5 0
vertex 6.12106 7.90776 0
vertex 6.12106 5 0
endloop
endfacet
facet normal 0 0 -1
outer loop
vertex 5.28964 5 0
vertex 5.28964 8.48644 0
vertex 5.46645 5 0
endloop
endfacet
facet normal 0 0 -1
outer loop
vertex 4.60569 5 0
vertex 4.40394 8.97805 0
vertex 5.28964 8.48644 0
endloop
endfacet
facet normal 0 0 -1
outer loop
vertex 4.60569 5 0
vertex 5.28964 8.48644 0
vertex 5.28964 5 0
endloop
endfacet
facet normal 0 0 -1
outer loop
vertex 4.40394 5 0
vertex 4.40394 8.97805 0
vertex 4.60569 5 0
endloop
endfacet
facet normal 0 0 -1
outer loop
vertex 3.69506 5 0
vertex 3.47305 9.37752 0
vertex 4.40394 8.97805 0
endloop
endfacet
facet normal 0 0 -1
outer loop
vertex 3.69506 5 0
vertex 4.40394 8.97805 0
vertex 4.40394 5 0
endloop
endfacet
facet normal 0 0 -1
outer loop
vertex 3.47305 5 0
vertex 3.47305 9.37752 0
vertex 3.69506 5 0
endloop
endfacet
facet normal 0 0 -1
outer loop
vertex 2.74391 5 0
vertex 2.50653 9.68077 0
vertex 3.47305 9.37752 0
endloop
endfacet
facet normal 0 0 -1
outer loop
vertex 2.74391 5 0
vertex 3.47305 9.37752 0
vertex 3.47305 5 0
endloop
endfacet
facet normal 0 0 -1
outer loop
vertex 2.50653 5 0
vertex 2.50653 9.68077 0
vertex 2.74391 5 0
endloop
endfacet
facet normal 0 0 -1
outer loop
vertex 1.762 5 0
vertex 1.51428 9.88468 0
vertex 2.50653 9.68077 0
endloop
endfacet
facet normal 0 0 -1
outer loop
vertex 1.762 5 0
vertex 2.50653 9.68077 0
vertex 2.50653 5 0
endloop
endfacet
facet normal 0 0 -1
outer loop
vertex 1.51428 5 0
vertex 1.51428 9.88468 0
vertex 1.762 5 0
endloop
endfacet
facet normal 0 0 -1
outer loop
vertex 1.26655 5 0
vertex 1.51428 9.88468 0
vertex 1.51428 5 0
endloop
endfacet
facet normal 0 0 -1
outer loop
vertex 0.50649 5 0
vertex 0.50649 9.98717 0
vertex 1.51428 9.88468 0
endloop
endfacet
facet normal 0 0 -1
outer loop
vertex 0.50649 5 0
vertex 1.51428 9.88468 0
vertex 1.26655 5 0
endloop
endfacet
facet normal 0 0 -1
outer loop
vertex -0.25357 5 0
vertex -0.50649 9.98717 0
vertex 0.50649 9.98717 0
endloop
endfacet
facet normal 0 0 -1
outer loop
vertex -0.25357 5 0
vertex 0.50649 9.98717 0
vertex 0.50649 5 0
endloop
endfacet
facet normal 0 0 -1
outer loop
vertex -0.50649 5 0
vertex -0.50649 9.98717 0
vertex -0.25357 5 0
endloop
endfacet
facet normal 0 0 -1
outer loop
vertex -1.26655 5 0
vertex -1.51428 9.88468 0
vertex -0.50649 9.98717 0
endloop
endfacet
facet normal 0 0 -1
outer loop
vertex -1.26655 5 0
vertex -0.50649 9.98717 0
vertex -0.50649 5 0
endloop
endfacet
facet normal 0 0 -1
outer loop
vertex -1.51428 5 0
vertex -1.51428 9.88468 0
vertex -1.26655 5 0
endloop
endfacet
facet normal 0 0 -1
outer loop
vertex -2.26914 5 0
vertex -2.50653 9.68077 0
vertex -1.51428 9.88468 0
endloop
endfacet
facet normal 0 0 -1
outer loop
vertex -2.26914 5 0
vertex -1.51428 9.88468 0
vertex -1.51428 5 0
endloop
endfacet
facet normal 0 0 -1
outer loop
vertex -2.50653 5 0
vertex -2.50653 9.68077 0
vertex -2.26914 5 0
endloop
endfacet
facet normal 0 0 -1
outer loop
vertex -3.25105 5 0
vertex -3.47305 9.37752 0
vertex -2.50653 9.68077 0
endloop
endfacet
facet normal 0 0 -1
outer loop
vertex -3.25105 5 0
vertex -2.50653 9.68077 0
vertex -2.50653 5 0
endloop
endfacet
facet normal 0 0 -1
outer loop
vertex -3.47305 5 0
vertex -3.47305 9.37752 0
vertex -3.25105 5 0
endloop
endfacet
facet normal 0 0 -1
outer loop
vertex -3.69506 5 0
vertex -3.47305 9.37752 0
vertex -3.47305 5 0
endloop
endfacet
facet normal 0 0 -1
outer loop
vertex -4.40394 5 0
vertex -4.40394 8.97805 0
vertex -3.47305 9.37752 0
endloop
endfacet
facet normal 0 0 -1
outer loop
vertex -4.40394 5 0
vertex -3.47305 9.37752 0
vertex -3.69506 5 0
endloop
endfacet
facet normal 0 0 -1
outer loop
vertex -5.11283 5 0
vertex -5.28964 8.48644 0
vertex -4.40394 8.97805 0
endloop
endfacet
facet normal 0 0 -1
outer loop
vertex -5.11283 5 0
vertex -4.40394 8.97805 0
vertex -4.40394 5 0
endloop
endfacet
facet normal 0 0 -1
outer loop
vertex -5.28964 5 0
vertex -5.28964 8.48644 0
vertex -5.11283 5 0
endloop
endfacet
facet normal 0 0 -1
outer loop
vertex -5.9736 5 0
vertex -6.12106 7.90776 0
vertex -5.28964 8.48644 0
endloop
endfacet
facet normal 0 0 -1
outer loop
vertex -5.9736 5 0
vertex -5.28964 8.48644 0
vertex -5.28964 5 0
endloop
endfacet
facet normal 0 0 -1
outer loop
vertex -6.12106 5 0
vertex -6.12106 7.90776 0
vertex -5.9736 5 0
endloop
endfacet
facet normal 0 0 -1
outer loop
vertex -6.77567 5 0
vertex -6.88967 7.24793 0
vertex -6.12106 7.90776 0
endloop
endfacet
facet normal 0 0 -1
outer loop
vertex -6.77567 5 0
vertex -6.12106 7.90776 0
vertex -6.12106 5 0
endloop
endfacet
facet normal 0 0 -1
outer loop
vertex -6.88967 5 0
vertex -6.88967 7.24793 0
vertex -6.77567 5 0
endloop
endfacet
facet normal 0 0 -1
outer loop
vertex -7.51081 5 0
vertex -7.58758 6.51372 0
vertex -6.88967 7.24793 0
endloop
endfacet
facet normal 0 0 -1
outer loop
vertex -7.51081 5 0
vertex -6.88967 7.24793 0
vertex -6.88967 5 0
endloop
endfacet
facet normal 0 0 -1
outer loop
vertex -7.58758 5 0
vertex -7.58758 6.51372 0
vertex -7.51081 5 0
endloop
endfacet
facet normal 0 0 -1
outer loop
vertex -8.17149 5 0
vertex -8.20763 5.71268 0
vertex -7.58758 6.51372 0
endloop
endfacet
facet normal 0 0 -1
outer loop
vertex -8.17149 5 0
vertex -7.58758 6.51372 0
vertex -7.58758 5 0
endloop
endfacet
facet normal 0 0 -1
outer loop
vertex -8.20763 5 0
vertex -8.20763 5.71268 0
vertex -8.17149 5 0
endloop
endfacet
facet normal 0 0 -1
outer loop
vertex -8.65185 5 0
vertex -8.20763 5.71268 0
vertex -8.20763 5 0
endloop
endfacet
facet normal 0 0 -1
outer loop
vertex 10 0 0
vertex 9.94869 -1.01168 0
vertex 9.94869 1.01168 0
endloop
endfacet
facet normal 0 0 -1
outer loop
vertex 9.94869 1.01168 0
vertex 9.94869 -1.01168 0
vertex 9.7953 2.01299 0
endloop
endfacet
facet normal 0 0 -1
outer loop
vertex 9.94869 -1.01168 0
vertex 9.7953 -2.01299 0
vertex 9.7953 2.01299 0
endloop
endfacet
facet normal 0 0 -1
outer loop
vertex 9.7953 2.01299 0
vertex 9.7953 -2.01299 0
vertex 9.54139 2.99363 0
endloop
endfacet
facet normal 0 0 -1
outer loop
vertex 9.7953 -2.01299 0
vertex 9.54139 -2.99363 0
vertex 9.54139 2.99363 0
endloop
endfacet
facet normal 0 0 -1
outer loop
vertex 9.54139 2.99363 0
vertex 9.54139 -2.99363 0
vertex 9.18958 3.94356 0
endloop
endfacet
facet normal 0 0 -1
outer loop
vertex 9.54139 -2.99363 0
vertex 9.18958 -3.94356 0
vertex 9.18958 3.94356 0
endloop
endfacet
facet normal 0 0 -1
outer loop
vertex 9.18958 3.94356 0
vertex 9.18958 -3.94356 0
vertex 8.74347 4.85302 0
endloop
endfacet
facet normal 0 0 -1
outer loop
vertex 9.18958 -3.94356 0
vertex 8.74347 -4.85302 0
vertex 8.74347 4.85302 0
endloop
endfacet
facet normal 0 0 -1
outer loop
vertex 8.74347 -4.85302 0
vertex 8.24378 5 0
vertex 8.65185 5 0
endloop
endfacet
facet normal 0 0 -1
outer loop
vertex 8.74347 -4.85302 0
vertex 8.65185 5 0
vertex 8.74347 4.85302 0
endloop
endfacet
facet normal 0 0 -1
outer loop
vertex 8.20763 -5 0
vertex 8.20763 5 0
vertex 8.24378 5 0
endloop
endfacet
facet normal 0 0 -1
outer loop
vertex 8.20763 -5 0
vertex 8.24378 5 0
vertex 8.74347 -4.85302 0
endloop
endfacet
facet normal 0 0 -1
outer loop
vertex 8.20763 -5 0
vertex 8.74347 -4.85302 0
vertex 8.65185 -5 0
endloop
endfacet
facet normal 0 0 -1
outer loop
vertex 8.17149 5 0
vertex 8.20763 5 0
vertex 8.20763 -5 0
endloop
endfacet
facet normal 0 0 -1
outer loop
vertex 8.17149 5 0
vertex 8.20763 -5 0
vertex 7.66435 -5 0
endloop
endfacet
facet normal 0 0 -1
outer loop
vertex 7.58758 -5 0
vertex 7.58758 5 0
vertex 8.17149 5 0
endloop
endfacet
facet normal 0 0 -1
outer loop
vertex 7.58758 -5 0
vertex 8.17149 5 0
vertex 7.66435 -5 0
endloop
endfacet
facet normal 0 0 -1
outer loop
vertex 7.51081 -5 0
vertex 7.00367 5 0
vertex 7.58758 5 0
endloop
endfacet
facet normal 0 0 -1
outer loop
vertex 7.51081 -5 0
vertex 7.58758 5 0
vertex 7.58758 -5 0
endloop
endfacet
facet normal 0 0 -1
outer loop
vertex 6.88967 5 0
vertex 7.00367 5 0
vertex 7.51081 -5 0
endloop
endfacet
facet normal 0 0 -1
outer loop
vertex 6.88967 5 0
vertex 7.51081 -5 0
vertex 6.88967 -5 0
endloop
endfacet
facet normal 0 0 -1
outer loop
vertex 6.77567 -5 0
vertex 6.26852 5 0
vertex 6.88967 5 0
endloop
endfacet
facet normal 0 0 -1
outer loop
vertex 6.77567 -5 0
vertex 6.88967 5 0
vertex 6.88967 -5 0
endloop
endfacet
facet normal 0 0 -1
outer loop
vertex 6.12106 5 0
vertex 6.26852 5 0
vertex 6.77567 -5 0
endloop
endfacet
facet normal 0 0 -1
outer loop
vertex 6.12106 5 0
vertex 6.77567 -5 0
vertex 6.12106 -5 0
endloop
endfacet
facet normal 0 0 -1
outer loop
vertex 5.9736 -5 0
vertex 5.46645 5 0
vertex 6.12106 5 0
endloop
endfacet
facet normal 0 0 -1
outer loop
vertex 5.9736 -5 0
vertex 6.12106 5 0
vertex 6.12106 -5 0
endloop
endfacet
facet normal 0 0 -1
outer loop
vertex 5.28964 5 0
vertex 5.46645 5 0
vertex 5.9736 -5 0
endloop
endfacet
facet normal 0 0 -1
outer loop
vertex 5.28964 5 0
vertex 5.9736 -5 0
vertex 5.28964 -5 0
endloop
endfacet
facet normal 0 0 -1
outer loop
vertex 5.11283 -5 0
vertex 4.60569 5 0
vertex 5.28964 5 0
endloop
endfacet
facet normal 0 0 -1
outer loop
vertex 5.11283 -5 0
vertex 5.28964 5 0
vertex 5.28964 -5 0
endloop
endfacet
facet normal 0 0 -1
outer loop
vertex 4.40394 5 0
vertex 4.60569 5 0
vertex 5.11283 -5 0
endloop
endfacet
facet normal 0 0 -1
outer loop
vertex 4.40394 5 0
vertex 5.11283 -5 0
vertex 4.40394 -5 0
endloop
endfacet
facet normal 0 0 -1
outer loop
vertex 4.2022 -5 0
vertex 3.69506 5 0
vertex 4.40394 5 0
endloop
endfacet
facet normal 0 0 -1
outer loop
vertex 4.2022 -5 0
vertex 4.40394 5 0
vertex 4.40394 -5 0
endloop
endfacet
facet normal 0 0 -1
outer loop
vertex 3.47305 5 0
vertex 3.69506 5 0
vertex 4.2022 -5 0
endloop
endfacet
facet normal 0 0 -1
outer loop
vertex 3.47305 5 0
vertex 4.2022 -5 0
vertex 3.47305 -5 0
endloop
endfacet
facet normal 0 0 -1
outer loop
vertex 3.25105 -5 0
vertex 2.74391 5 0
vertex 3.47305 5 0
endloop
endfacet
facet normal 0 0 -1
outer loop
vertex 3.25105 -5 0
vertex 3.47305 5 0
vertex 3.47305 -5 0
endloop
endfacet
facet normal 0 0 -1
outer loop
vertex 2.50653 5 0
vertex 2.74391 5 0
vertex 3.25105 -5 0
endloop
endfacet
facet normal 0 0 -1
outer loop
vertex 2.50653 5 0
vertex 3.25105 -5 0
vertex 2.50653 -5 0
endloop
endfacet
facet normal 0 0 -1
outer loop
vertex 2.26914 -5 0
vertex 1.762 5 0
vertex 2.50653 5 0
endloop
endfacet
facet normal 0 0 -1
outer loop
vertex 2.26914 -5 0
vertex 2.50653 5 0
vertex 2.50653 -5 0
endloop
endfacet
facet normal 0 0 -1
outer loop
vertex 1.51428 5 0
vertex 1.762 5 0
vertex 2.26914 -5 0
endloop
endfacet
facet normal 0 0 -1
outer loop
vertex 1.51428 5 0
vertex 2.26914 -5 0
vertex 1.51428 -5 0
endloop
endfacet
facet normal 0 0 -1
outer loop
vertex 1.26655 5 0
vertex 1.51428 5 0
vertex 1.51428 -5 0
endloop
endfacet
facet normal 0 0 -1
outer loop
vertex 1.26655 5 0
vertex 1.51428 -5 0
vertex 0.75941 -5 0
endloop
endfacet
facet normal 0 0 -1
outer loop
vertex 0.50649 -5 0
vertex 0.50649 5 0
vertex 1.26655 5 0
endloop
endfacet
facet normal 0 0 -1
outer loop
vertex 0.50649 -5 0
vertex 1.26655 5 0
vertex 0.75941 -5 0
endloop
endfacet
facet normal 0 0 -1
outer loop
vertex 0.25357 -5 0
vertex -0.25357 5 0
vertex 0.50649 5 0
endloop
endfacet
facet normal 0 0 -1
outer loop
vertex 0.25357 -5 0
vertex 0.50649 5 0
vertex 0.50649 -5 0
endloop
endfacet
facet normal 0 0 -1
outer loop
vertex -0.50649 5 0
vertex -0.25357 5 0
vertex 0.25357 -5 0
endloop
endfacet
facet normal 0 0 -1
outer loop
vertex -0.50649 5 0
vertex 0.25357 -5 0
vertex -0.50649 -5 0
endloop
endfacet
facet normal 0 0 -1
outer loop
vertex -0.75941 -5 0
vertex -1.26655 5 0
vertex -0.50649 5 0
endloop
endfacet
facet normal 0 0 -1
outer loop
vertex -0.75941 -5 0
vertex -0.50649 5 0
vertex -0.50649 -5 0
endloop
endfacet
facet normal 0 0 -1
outer loop
vertex -1.51428 5 0
vertex -1.26655 5 0
vertex -0.75941 -5 0
endloop
endfacet
facet normal 0 0 -1
outer loop
vertex -1.51428 5 0
vertex -0.75941 -5 0
vertex -1.51428 -5 0
endloop
endfacet
facet normal 0 0 -1
outer loop
vertex -1.762 -5 0
vertex -2.26914 5 0
vertex -1.51428 5 0
endloop
endfacet
facet normal 0 0 -1
outer loop
vertex -1.762 -5 0
vertex -1.51428 5 0
vertex -1.51428 -5 0
endloop
endfacet
facet normal 0 0 -1
outer loop
vertex -2.50653 5 0
vertex -2.26914 5 0
vertex -1.762 -5 0
endloop
endfacet
facet normal 0 0 -1
outer loop
vertex -2.50653 5 0
vertex -1.762 -5 0
vertex -2.50653 -5 0
endloop
endfacet
facet normal 0 0 -1
outer loop
vertex -2.74391 -5 0
vertex -3.25105 5 0
vertex -2.50653 5 0
endloop
endfacet
facet normal 0 0 -1
outer loop
vertex -2.74391 -5 0
vertex -2.50653 5 0
vertex -2.50653 -5 0
endloop
endfacet
facet normal 0 0 -1
outer loop
vertex -3.47305 5 0
vertex -3.25105 5 0
vertex -2.74391 -5 0
endloop
endfacet
facet normal 0 0 -1
outer loop
vertex -3.47305 5 0
vertex -2.74391 -5 0
vertex -3.47305 -5 0
endloop
endfacet
facet normal 0 0 -1
outer loop
vertex -3.69506 5 0
vertex -3.47305 5 0
vertex -3.47305 -5 0
endloop
endfacet
facet normal 0 0 -1
outer loop
vertex -3.69506 5 0
vertex -3.47305 -5 0
vertex -4.2022 -5 0
endloop
endfacet
facet normal 0 0 -1
outer loop
vertex -4.40394 -5 0
vertex -4.40394 5 0
vertex -3.69506 5 0
endloop
endfacet
facet normal 0 0 -1
outer loop
vertex -4.40394 -5 0
vertex -3.69506 5 0
vertex -4.2022 -5 0
endloop
endfacet
facet normal 0 0 -1
outer loop
vertex -4.60569 -5 0
vertex -5.11283 5 0
vertex -4.40394 5 0
endloop
endfacet
facet normal 0 0 -1
outer loop
vertex -4.60569 -5 0
vertex -4.40394 5 0
vertex -4.40394 -5 0
endloop
endfacet
facet normal 0 0 -1
outer loop
vertex -5.28964 5 0
vertex -5.11283 5 0
vertex -4.60569 -5 0
endloop
endfacet
facet normal 0 0 -1
outer loop
vertex -5.28964 5 0
vertex -4.60569 -5 0
vertex -5.28964 -5 0
endloop
endfacet
facet normal 0 0 -1
outer loop
vertex -5.46645 -5 0
vertex -5.9736 5 0
vertex -5.28964 5 0
endloop
endfacet
facet normal 0 0 -1
outer loop
vertex -5.46645 -5 0
vertex -5.28964 5 0
vertex -5.28964 -5 0
endloop
endfacet
facet normal 0 0 -1
outer loop
vertex -6.12106 5 0
vertex -5.9736 5 0
vertex -5.46645 -5 0
endloop
endfacet
facet normal 0 0 -1
outer loop
vertex -6.12106 5 0
vertex -5.46645 -5 0
vertex -6.12106 -5 0
endloop
endfacet
facet normal 0 0 -1
outer loop
vertex -6.26852 -5 0
vertex -6.77567 5 0
vertex -6.12106 5 0
endloop
endfacet
facet normal 0 0 -1
outer loop
vertex -6.26852 -5 0
vertex -6.12106 5 0
vertex -6.12106 -5 0
endloop
endfacet
facet normal 0 0 -1
outer loop
vertex -6.88967 5 0
vertex -6.77567 5 0
vertex -6.26852 -5 0
endloop
endfacet
facet normal 0 0 -1
outer loop
vertex -6.88967 5 0
vertex -6.26852 -5 0
vertex -6.88967 -5 0
endloop
endfacet
facet normal 0 0 -1
outer loop
vertex -7.00367 -5 0
vertex -7.51081 5 0
vertex -6.88967 5 0
endloop
endfacet
facet normal 0 0 -1
outer loop
vertex -7.00367 -5 0
vertex -6.88967 5 0
vertex -6.88967 -5 0
endloop
endfacet
facet normal 0 0 -1
outer loop
vertex -7.58758 5 0
vertex -7.51081 5 0
vertex -7.00367 -5 0
endloop
endfacet
facet normal 0 0 -1
outer loop
vertex -7.58758 5 0
vertex -7.00367 -5 0
vertex -7.58758 -5 0
endloop
endfacet
facet normal 0 0 -1
outer loop
vertex -7.66435 -5 0
vertex -8.17149 5 0
vertex -7.58758 5 0
endloop
endfacet
facet normal 0 0 -1
outer loop
vertex -7.66435 -5 0
vertex -7.58758 5 0
vertex -7.58758 -5 0
endloop
endfacet
facet normal 0 0 -1
outer loop
vertex -8.20763 5 0
vertex -8.17149 5 0
vertex -7.66435 -5 0
endloop
endfacet
facet normal 0 0 -1
outer loop
vertex -8.20763 5 0
vertex -7.66435 -5 0
vertex -8.20763 -5 0
endloop
endfacet
facet normal 0 0 -1
outer loop
vertex -8.24378 -5 0
vertex -8.74347 4.85302 0
vertex -8.65185 5 0
endloop
endfacet
facet normal 0 0 -1
outer loop
vertex -8.24378 -5 0
vertex -8.65185 5 0
vertex -8.20763 5 0
endloop
endfacet
facet normal 0 0 -1
outer loop
vertex -8.24378 -5 0
vertex -8.20763 5 0
vertex -8.20763 -5 0
endloop
endfacet
facet normal 0 0 -1
outer loop
vertex -8.74347 -4.85302 0
vertex -8.74347 4.85302 0
vertex -8.24378 -5 0
endloop
endfacet
facet normal 0 0 -1
outer loop
vertex -8.74347 -4.85302 0
vertex -8.24378 -5 0
vertex -8.65185 -5 0
endloop
endfacet
facet normal 0 0 -1
outer loop
vertex -9.18958 3.94356 0
vertex -8.74347 4.85302 0
vertex -8.74347 -4.85302 0
endloop
endfacet
facet normal 0 0 -1
outer loop
vertex -9.18958 3.94356 0
vertex -8.74347 -4.85302 0
vertex -9.18958 -3.94356 0
endloop
endfacet
facet normal 0 0 -1
outer loop
vertex -9.54139 2.99363 0
vertex -9.18958 3.94356 0
vertex -9.18958 -3.94356 0
endloop
endfacet
facet normal 0 0 -1
outer loop
vertex -9.54139 2.99363 0
vertex -9.18958 -3.94356 0
vertex -9.54139 -2.99363 0
endloop
endfacet
facet normal 0 0 -1
outer loop
vertex -9.7953 2.01299 0
vertex -9.54139 2.99363 0
vertex -9.54139 -2.99363 0
endloop
endfacet
facet normal 0 0 -1
outer loop
vertex -9.7953 2.01299 0
vertex -9.54139 -2.99363 0
vertex -9.7953 -2.01299 0
endloop
endfacet
facet normal 0 0 -1
outer loop
vertex -9.94869 1.01168 0
vertex -9.7953 2.01299 0
vertex -9.7953 -2.01299 0
endloop
endfacet
facet normal 0 0 -1
outer loop
vertex -9.94869 1.01168 0
vertex -9.7953 -2.01299 0
vertex -9.94869 -1.01168 0
endloop
endfacet
facet normal 0 0 -1
outer loop
vertex -9.94869 -1.01168 0
vertex -10 0 0
vertex -9.94869 1.01168 0
endloop
endfacet
facet normal 0 -1 0
outer loop
vertex 0.50649 -9.98717 0
vertex 0.50649 -9.98717 5
vertex -0.50649 -9.98717 0
endloop
endfacet
facet normal 0 -1 0
outer loop
vertex -0.50649 -9.98717 0
vertex 0.50649 -9.98717 5
vertex -0.50649 -9.98717 5
endloop
endfacet
facet normal 0.485306788964283 -0.8743439372381883 0
outer loop
vertex 5.28964 -8.48644 0
vertex 5.28964 -8.48644 5
vertex 4.40394 -8.97805 0
endloop
endfacet
facet normal 0.485306788964283 -0.8743439372381883 0
outer loop
vertex 4.40394 -8.97805 0
vertex 5.28964 -8.48644 5
vertex 4.40394 -8.97805 5
endloop
endfacet
facet normal 0.8978050968886259 -0.4403930153860359 0
outer loop
vertex 9.18958 -3.94356 0
vertex 9.18958 -3.94356 5
vertex 8.74347 -4.85302 0
endloop
endfacet
facet normal 0.8978050968886259 -0.4403930153860359 0
outer loop
vertex 8.74347 -4.85302 0
vertex 9.18958 -3.94356 5
vertex 8.74347 -4.85302 5
endloop
endfacet
facet normal 0.7247970499683982 -0.6889624346487312 0
outer loop
vertex 7.58758 -6.51372 0
vertex 7.58758 -6.51372 5
vertex 6.88967 -7.24793 0
endloop
endfacet
facet normal 0.7247970499683982 -0.6889624346487312 0
outer loop
vertex 6.88967 -7.24793 0
vertex 7.58758 -6.51372 5
vertex 6.88967 -7.24793 5
endloop
endfacet
facet normal 0.6513724588664768 -0.7587581431722761 0
outer loop
vertex 6.88967 -7.24793 0
vertex 6.88967 -7.24793 5
vertex 6.12106 -7.90776 0
endloop
endfacet
facet normal 0.6513724588664768 -0.7587581431722761 0
outer loop
vertex 6.12106 -7.90776 0
vertex 6.88967 -7.24793 5
vertex 6.12106 -7.90776 5
endloop
endfacet
facet normal -0.6513724588664768 -0.7587581431722761 0
outer loop
vertex -6.12106 -7.90776 0
vertex -6.12106 -7.90776 5
vertex -6.88967 -7.24793 0
endloop
endfacet
facet normal -0.6513724588664768 -0.7587581431722761 0
outer loop
vertex -6.88967 -7.24793 0
vertex -6.12106 -7.90776 5
vertex -6.88967 -7.24793 5
endloop
endfacet
facet normal -0.20129609662326395 -0.9795304392841692 0
outer loop
vertex -1.51428 -9.88468 0
vertex -1.51428 -9.88468 5
vertex -2.50653 -9.68077 0
endloop
endfacet
facet normal -0.20129609662326395 -0.9795304392841692 0
outer loop
vertex -2.50653 -9.68077 0
vertex -1.51428 -9.88468 5
vertex -2.50653 -9.68077 5
endloop
endfacet
facet normal -0.485306788964283 -0.8743439372381883 0
outer loop
vertex -4.40394 -8.97805 0
vertex -4.40394 -8.97805 5
vertex -5.28964 -8.48644 0
endloop
endfacet
facet normal -0.485306788964283 -0.8743439372381883 0
outer loop
vertex -5.28964 -8.48644 0
vertex -4.40394 -8.97805 5
vertex -5.28964 -8.48644 5
endloop
endfacet
facet normal -0.39435055267252495 0.9189600870586676 0
outer loop
vertex -4.40394 8.97805 0
vertex -4.40394 8.97805 5
vertex -3.47305 9.37752 0
endloop
endfacet
facet normal -0.39435055267252495 0.9189600870586676 0
outer loop
vertex -3.47305 9.37752 0
vertex -4.40394 8.97805 5
vertex -3.47305 9.37752 5
endloop
endfacet
facet normal -0.7247970499683982 0.6889624346487312 0
outer loop
vertex -7.58758 6.51372 0
vertex -7.58758 6.51372 5
vertex -6.88967 7.24793 0
endloop
endfacet
facet normal -0.7247970499683982 0.6889624346487312 0
outer loop
vertex -6.88967 7.24793 0
vertex -7.58758 6.51372 5
vertex -6.88967 7.24793 5
endloop
endfacet
facet normal 0 1 0
outer loop
vertex -0.50649 9.98717 0
vertex -0.50649 9.98717 5
vertex 0.50649 9.98717 0
endloop
endfacet
facet normal 0 1 0
outer loop
vertex 0.50649 9.98717 0
vertex -0.50649 9.98717 5
vertex 0.50649 9.98717 5
endloop
endfacet
facet normal -0.79077626903439 -0.6121052951347914 0
outer loop
vertex -7.58758 -6.51372 0
vertex -7.58758 -6.51372 5
vertex -8.20763 -5.71268 0
endloop
endfacet
facet normal -0.79077626903439 -0.6121052951347914 0
outer loop
vertex -8.20763 -5.71268 0
vertex -7.58758 -6.51372 5
vertex -8.20763 -5.71268 5
endloop
endfacet
facet normal -0.8978050968886259 0.4403930153860359 0
outer loop
vertex -9.18958 3.94356 0
vertex -9.18958 3.94356 5
vertex -8.74347 4.85302 0
endloop
endfacet
facet normal -0.8978050968886259 0.4403930153860359 0
outer loop
vertex -8.74347 4.85302 0
vertex -9.18958 3.94356 5
vertex -8.74347 4.85302 5
endloop
endfacet
facet normal -0.6513724588664768 0.7587581431722761 0
outer loop
vertex -6.88967 7.24793 0
vertex -6.88967 7.24793 5
vertex -6.12106 7.90776 0
endloop
endfacet
facet normal -0.6513724588664768 0.7587581431722761 0
outer loop
vertex -6.12106 7.90776 0
vertex -6.88967 7.24793 5
vertex -6.12106 7.90776 5
endloop
endfacet
facet normal 0.5712646246981277 0.820765940185451 0
outer loop
vertex 5.28964 8.48644 0
vertex 5.28964 8.48644 5
vertex 6.12106 7.90776 0
endloop
endfacet
facet normal 0.5712646246981277 0.820765940185451 0
outer loop
vertex 6.12106 7.90776 0
vertex 5.28964 8.48644 5
vertex 6.12106 7.90776 5
endloop
endfacet
facet normal 0.7247970499683982 0.6889624346487312 0
outer loop
vertex 6.88967 7.24793 0
vertex 6.88967 7.24793 5
vertex 7.58758 6.51372 0
endloop
endfacet
facet normal 0.7247970499683982 0.6889624346487312 0
outer loop
vertex 7.58758 6.51372 0
vertex 6.88967 7.24793 5
vertex 7.58758 6.51372 5
endloop
endfacet
facet normal -0.9884690704933199 -0.1514229067151734 0
outer loop
vertex -9.7953 -2.01299 0
vertex -9.7953 -2.01299 5
vertex -9.94869 -1.01168 0
endloop
endfacet
facet normal -0.9884690704933199 -0.1514229067151734 0
outer loop
vertex -9.94869 -1.01168 0
vertex -9.7953 -2.01299 5
vertex -9.94869 -1.01168 5
endloop
endfacet
facet normal 0.9377538811078928 0.34730053047336973 0
outer loop
vertex 9.18958 3.94356 0
vertex 9.18958 3.94356 5
vertex 9.54139 2.99363 0
endloop
endfacet
facet normal 0.9377538811078928 0.34730053047336973 0
outer loop
vertex 9.54139 2.99363 0
vertex 9.18958 3.94356 5
vertex 9.54139 2.99363 5
endloop
endfacet
facet normal -0.7247970499683982 -0.6889624346487312 0
outer loop
vertex -6.88967 -7.24793 0
vertex -6.88967 -7.24793 5
vertex -7.58758 -6.51372 0
endloop
endfacet
facet normal -0.7247970499683982 -0.6889624346487312 0
outer loop
vertex -7.58758 -6.51372 0
vertex -6.88967 -7.24793 5
vertex -7.58758 -6.51372 5
endloop
endfacet
facet normal -0.8978050968886259 -0.4403930153860359 0
outer loop
vertex -8.74347 -4.85302 0
vertex -8.74347 -4.85302 5
vertex -9.18958 -3.94356 0
endloop
endfacet
facet normal -0.8978050968886259 -0.4403930153860359 0
outer loop
vertex -9.18958 -3.94356 0
vertex -8.74347 -4.85302 5
vertex -9.18958 -3.94356 5
endloop
endfacet
facet normal -0.8486425686715843 0.5289667197834808 0
outer loop
vertex -8.65185 5 4.14513
vertex -8.20763 5.71268 0
vertex -8.65185 5 0
endloop
endfacet
facet normal -0.8486425686715843 0.5289667197834806 0
outer loop
vertex -8.65185 5 4.14513
vertex -8.65185 5 5
vertex -8.20763 5.71268 5
endloop
endfacet
facet normal -0.8486425686715844 0.5289667197834806 0
outer loop
vertex -8.65185 5 4.14513
vertex -8.20763 5.71268 5
vertex -8.20763 5.71268 0
endloop
endfacet
facet normal -0.848626981058573 0.5289917267967547 0
outer loop
vertex -8.74347 4.85302 5
vertex -8.65185 5 4.14513
vertex -8.65185 5 0
endloop
endfacet
facet normal -0.8486269810585731 0.5289917267967547 0
outer loop
vertex -8.74347 4.85302 5
vertex -8.65185 5 0
vertex -8.74347 4.85302 0
endloop
endfacet
facet normal -0.8486269810585729 0.5289917267967547 0
outer loop
vertex -8.65185 5 4.14513
vertex -8.74347 4.85302 5
vertex -8.65185 5 5
endloop
endfacet
facet normal 0.8486425686715845 0.5289667197834804 0
outer loop
vertex 8.20763 5.71268 5
vertex 8.65185 5 0.85487
vertex 8.65185 5 0
endloop
endfacet
facet normal 0.8486425686715844 0.5289667197834806 0
outer loop
vertex 8.20763 5.71268 5
vertex 8.65185 5 0
vertex 8.20763 5.71268 0
endloop
endfacet
facet normal 0.8486425686715843 0.5289667197834808 0
outer loop
vertex 8.65185 5 0.85487
vertex 8.20763 5.71268 5
vertex 8.65185 5 5
endloop
endfacet
facet normal 0.8486269810585729 0.5289917267967547 0
outer loop
vertex 8.65185 5 0.85487
vertex 8.74347 4.85302 0
vertex 8.65185 5 0
endloop
endfacet
facet normal 0.848626981058573 0.5289917267967547 0
outer loop
vertex 8.65185 5 0.85487
vertex 8.65185 5 5
vertex 8.74347 4.85302 5
endloop
endfacet
facet normal 0.8486269810585731 0.5289917267967547 0
outer loop
vertex 8.65185 5 0.85487
vertex 8.74347 4.85302 5
vertex 8.74347 4.85302 0
endloop
endfacet
facet normal 0.9884690704933199 0.1514229067151734 0
outer loop
vertex 9.7953 2.01299 0
vertex 9.7953 2.01299 5
vertex 9.94869 1.01168 0
endloop
endfacet
facet normal 0.9884690704933199 0.1514229067151734 0
outer loop
vertex 9.94869 1.01168 0
vertex 9.7953 2.01299 5
vertex 9.94869 1.01168 5
endloop
endfacet
facet normal -0.29936527420340614 0.9541385814446032 0
outer loop
vertex -3.47305 9.37752 0
vertex -3.47305 9.37752 5
vertex -2.50653 9.68077 0
endloop
endfacet
facet normal -0.29936527420340614 0.9541385814446032 0
outer loop
vertex -2.50653 9.68077 0
vertex -3.47305 9.37752 5
vertex -2.50653 9.68077 5
endloop
endfacet
facet normal 0.9680759900255813 0.2506568920576305 0
outer loop
vertex 9.54139 2.99363 0
vertex 9.54139 2.99363 5
vertex 9.7953 2.01299 0
endloop
endfacet
facet normal 0.9680759900255813 0.2506568920576305 0
outer loop
vertex 9.7953 2.01299 0
vertex 9.54139 2.99363 5
vertex 9.7953 2.01299 5
endloop
endfacet
facet normal -0.9377538811078928 0.34730053047336973 0
outer loop
vertex -9.54139 2.99363 0
vertex -9.54139 2.99363 5
vertex -9.18958 3.94356 0
endloop
endfacet
facet normal -0.9377538811078928 0.34730053047336973 0
outer loop
vertex -9.18958 3.94356 0
vertex -9.54139 2.99363 5
vertex -9.18958 3.94356 5
endloop
endfacet
facet normal 0.20129609662326395 0.9795304392841692 0
outer loop
vertex 1.51428 9.88468 0
vertex 1.51428 9.88468 5
vertex 2.50653 9.68077 0
endloop
endfacet
facet normal 0.20129609662326395 0.9795304392841692 0
outer loop
vertex 2.50653 9.68077 0
vertex 1.51428 9.88468 5
vertex 2.50653 9.68077 5
endloop
endfacet
facet normal -0.9680759900255813 0.2506568920576305 0
outer loop
vertex -9.7953 2.01299 0
vertex -9.7953 2.01299 5
vertex -9.54139 2.99363 0
endloop
endfacet
facet normal -0.9680759900255813 0.2506568920576305 0
outer loop
vertex -9.54139 2.99363 0
vertex -9.7953 2.01299 5
vertex -9.54139 2.99363 5
endloop
endfacet
facet normal -0.485306788964283 0.8743439372381883 0
outer loop
vertex -5.28964 8.48644 0
vertex -5.28964 8.48644 5
vertex -4.40394 8.97805 0
endloop
endfacet
facet normal -0.485306788964283 0.8743439372381883 0
outer loop
vertex -4.40394 8.97805 0
vertex -5.28964 8.48644 5
vertex -4.40394 8.97805 5
endloop
endfacet
facet normal 0.6513724588664768 0.7587581431722761 0
outer loop
vertex 6.12106 7.90776 0
vertex 6.12106 7.90776 5
vertex 6.88967 7.24793 0
endloop
endfacet
facet normal 0.6513724588664768 0.7587581431722761 0
outer loop
vertex 6.88967 7.24793 0
vertex 6.12106 7.90776 5
vertex 6.88967 7.24793 5
endloop
endfacet
facet normal -0.79077626903439 0.6121052951347914 0
outer loop
vertex -8.20763 5.71268 0
vertex -8.20763 5.71268 5
vertex -7.58758 6.51372 0
endloop
endfacet
facet normal -0.79077626903439 0.6121052951347914 0
outer loop
vertex -7.58758 6.51372 0
vertex -8.20763 5.71268 5
vertex -7.58758 6.51372 5
endloop
endfacet
facet normal 0.485306788964283 0.8743439372381883 0
outer loop
vertex 4.40394 8.97805 0
vertex 4.40394 8.97805 5
vertex 5.28964 8.48644 0
endloop
endfacet
facet normal 0.485306788964283 0.8743439372381883 0
outer loop
vertex 5.28964 8.48644 0
vertex 4.40394 8.97805 5
vertex 5.28964 8.48644 5
endloop
endfacet
facet normal 0.10117591739398024 0.9948685509852477 0
outer loop
vertex 0.50649 9.98717 0
vertex 0.50649 9.98717 5
vertex 1.51428 9.88468 0
endloop
endfacet
facet normal 0.10117591739398024 0.9948685509852477 0
outer loop
vertex 1.51428 9.88468 0
vertex 0.50649 9.98717 5
vertex 1.51428 9.88468 5
endloop
endfacet
facet normal 0.8486425686715843 -0.5289667197834808 0
outer loop
vertex 8.65185 -5 4.14513
vertex 8.20763 -5.71268 0
vertex 8.65185 -5 0
endloop
endfacet
facet normal 0.8486425686715843 -0.5289667197834806 0
outer loop
vertex 8.65185 -5 4.14513
vertex 8.65185 -5 5
vertex 8.20763 -5.71268 5
endloop
endfacet
facet normal 0.8486425686715844 -0.5289667197834806 0
outer loop
vertex 8.65185 -5 4.14513
vertex 8.20763 -5.71268 5
vertex 8.20763 -5.71268 0
endloop
endfacet
facet normal 0.848626981058573 -0.5289917267967547 0
outer loop
vertex 8.74347 -4.85302 5
vertex 8.65185 -5 4.14513
vertex 8.65185 -5 0
endloop
endfacet
facet normal 0.8486269810585731 -0.5289917267967547 0
outer loop
vertex 8.74347 -4.85302 5
vertex 8.65185 -5 0
vertex 8.74347 -4.85302 0
endloop
endfacet
facet normal 0.8486269810585729 -0.5289917267967547 0
outer loop
vertex 8.65185 -5 4.14513
vertex 8.74347 -4.85302 5
vertex 8.65185 -5 5
endloop
endfacet
facet normal 0.5712646246981277 -0.820765940185451 0
outer loop
vertex 6.12106 -7.90776 0
vertex 6.12106 -7.90776 5
vertex 5.28964 -8.48644 0
endloop
endfacet
facet normal 0.5712646246981277 -0.820765940185451 0
outer loop
vertex 5.28964 -8.48644 0
vertex 6.12106 -7.90776 5
vertex 5.28964 -8.48644 5
endloop
endfacet
facet normal -0.39435055267252495 -0.9189600870586676 0
outer loop
vertex -3.47305 -9.37752 0
vertex -3.47305 -9.37752 5
vertex -4.40394 -8.97805 0
endloop
endfacet
facet normal -0.39435055267252495 -0.9189600870586676 0
outer loop
vertex -4.40394 -8.97805 0
vertex -3.47305 -9.37752 5
vertex -4.40394 -8.97805 5
endloop
endfacet
facet normal 0.10117591739398024 -0.9948685509852477 0
outer loop
vertex 1.51428 -9.88468 0
vertex 1.51428 -9.88468 5
vertex 0.50649 -9.98717 0
endloop
endfacet
facet normal 0.10117591739398024 -0.9948685509852477 0
outer loop
vertex 0.50649 -9.98717 0
vertex 1.51428 -9.88468 5
vertex 0.50649 -9.98717 5
endloop
endfacet
facet normal 0.79077626903439 -0.6121052951347914 0
outer loop
vertex 8.20763 -5.71268 0
vertex 8.20763 -5.71268 5
vertex 7.58758 -6.51372 0
endloop
endfacet
facet normal 0.79077626903439 -0.6121052951347914 0
outer loop
vertex 7.58758 -6.51372 0
vertex 8.20763 -5.71268 5
vertex 7.58758 -6.51372 5
endloop
endfacet
facet normal 0.20129609662326395 -0.9795304392841692 0
outer loop
vertex 2.50653 -9.68077 0
vertex 2.50653 -9.68077 5
vertex 1.51428 -9.88468 0
endloop
endfacet
facet normal 0.20129609662326395 -0.9795304392841692 0
outer loop
vertex 1.51428 -9.88468 0
vertex 2.50653 -9.68077 5
vertex 1.51428 -9.88468 5
endloop
endfacet
facet normal -0.5712646246981277 0.820765940185451 0
outer loop
vertex -6.12106 7.90776 0
vertex -6.12106 7.90776 5
vertex -5.28964 8.48644 0
endloop
endfacet
facet normal -0.5712646246981277 0.820765940185451 0
outer loop
vertex -5.28964 8.48644 0
vertex -6.12106 7.90776 5
vertex -5.28964 8.48644 5
endloop
endfacet
facet normal 0.9884690704933199 -0.1514229067151734 0
outer loop
vertex 9.94869 -1.01168 0
vertex 9.94869 -1.01168 5
vertex 9.7953 -2.01299 0
endloop
endfacet
facet normal 0.9884690704933199 -0.1514229067151734 0
outer loop
vertex 9.7953 -2.01299 0
vertex 9.94869 -1.01168 5
vertex 9.7953 -2.01299 5
endloop
endfacet
facet normal 0.29936527420340614 -0.9541385814446032 0
outer loop
vertex 3.47305 -9.37752 0
vertex 3.47305 -9.37752 5
vertex 2.50653 -9.68077 0
endloop
endfacet
facet normal 0.29936527420340614 -0.9541385814446032 0
outer loop
vertex 2.50653 -9.68077 0
vertex 3.47305 -9.37752 5
vertex 2.50653 -9.68077 5
endloop
endfacet
facet normal -0.9987163375223298 0.0506525139157358 0
outer loop
vertex -10 0 0
vertex -10 0 5
vertex -9.94869 1.01168 0
endloop
endfacet
facet normal -0.9987163375223298 0.0506525139157358 0
outer loop
vertex -9.94869 1.01168 0
vertex -10 0 5
vertex -9.94869 1.01168 5
endloop
endfacet
facet normal -0.9680759900255813 -0.2506568920576305 0
outer loop
vertex -9.54139 -2.99363 0
vertex -9.54139 -2.99363 5
vertex -9.7953 -2.01299 0
endloop
endfacet
facet normal -0.9680759900255813 -0.2506568920576305 0
outer loop
vertex -9.7953 -2.01299 0
vertex -9.54139 -2.99363 5
vertex -9.7953 -2.01299 5
endloop
endfacet
facet normal -0.10117591739398024 0.9948685509852477 0
outer loop
vertex -1.51428 9.88468 0
vertex -1.51428 9.88468 5
vertex -0.50649 9.98717 0
endloop
endfacet
facet normal -0.10117591739398024 0.9948685509852477 0
outer loop
vertex -0.50649 9.98717 0
vertex -1.51428 9.88468 5
vertex -0.50649 9.98717 5
endloop
endfacet
facet normal 0.39435055267252495 0.9189600870586676 0
outer loop
vertex 3.47305 9.37752 0
vertex 3.47305 9.37752 5
vertex 4.40394 8.97805 0
endloop
endfacet
facet normal 0.39435055267252495 0.9189600870586676 0
outer loop
vertex 4.40394 8.97805 0
vertex 3.47305 9.37752 5
vertex 4.40394 8.97805 5
endloop
endfacet
facet normal 0.8978050968886259 0.4403930153860359 0
outer loop
vertex 8.74347 4.85302 0
vertex 8.74347 4.85302 5
vertex 9.18958 3.94356 0
endloop
endfacet
facet normal 0.8978050968886259 0.4403930153860359 0
outer loop
vertex 9.18958 3.94356 0
vertex 8.74347 4.85302 5
vertex 9.18958 3.94356 5
endloop
endfacet
facet normal 0.29936527420340614 0.9541385814446032 0
outer loop
vertex 2.50653 9.68077 0
vertex 2.50653 9.68077 5
vertex 3.47305 9.37752 0
endloop
endfacet
facet normal 0.29936527420340614 0.9541385814446032 0
outer loop
vertex 3.47305 9.37752 0
vertex 2.50653 9.68077 5
vertex 3.47305 9.37752 5
endloop
endfacet
facet normal 0.9987163375223298 0.0506525139157358 0
outer loop
vertex 9.94869 1.01168 0
vertex 9.94869 1.01168 5
vertex 10 0 0
endloop
endfacet
facet normal 0.9987163375223298 0.0506525139157358 0
outer loop
vertex 10 0 0
vertex 9.94869 1.01168 5
vertex 10 0 5
endloop
endfacet
facet normal -0.9987163375223298 -0.0506525139157358 0
outer loop
vertex -9.94869 -1.01168 0
vertex -9.94869 -1.01168 5
vertex -10 0 0
endloop
endfacet
facet normal -0.9987163375223298 -0.0506525139157358 0
outer loop
vertex -10 0 0
vertex -9.94869 -1.01168 5
vertex -10 0 5
endloop
endfacet
facet normal -0.8486425686715845 -0.5289667197834804 0
outer loop
vertex -8.20763 -5.71268 5
vertex -8.65185 -5 0.85487
vertex -8.65185 -5 0
endloop
endfacet
facet normal -0.8486425686715844 -0.5289667197834806 0
outer loop
vertex -8.20763 -5.71268 5
vertex -8.65185 -5 0
vertex -8.20763 -5.71268 0
endloop
endfacet
facet normal -0.8486425686715843 -0.5289667197834808 0
outer loop
vertex -8.65185 -5 0.85487
vertex -8.20763 -5.71268 5
vertex -8.65185 -5 5
endloop
endfacet
facet normal -0.8486269810585729 -0.5289917267967547 0
outer loop
vertex -8.65185 -5 0.85487
vertex -8.74347 -4.85302 0
vertex -8.65185 -5 0
endloop
endfacet
facet normal -0.848626981058573 -0.5289917267967547 0
outer loop
vertex -8.65185 -5 0.85487
vertex -8.65185 -5 5
vertex -8.74347 -4.85302 5
endloop
endfacet
facet normal -0.8486269810585731 -0.5289917267967547 0
outer loop
vertex -8.65185 -5 0.85487
vertex -8.74347 -4.85302 5
vertex -8.74347 -4.85302 0
endloop
endfacet
facet normal 0.79077626903439 0.6121052951347914 0
outer loop
vertex 7.58758 6.51372 0
vertex 7.58758 6.51372 5
vertex 8.20763 5.71268 0
endloop
endfacet
facet normal 0.79077626903439 0.6121052951347914 0
outer loop
vertex 8.20763 5.71268 0
vertex 7.58758 6.51372 5
vertex 8.20763 5.71268 5
endloop
endfacet
facet normal 0.9987163375223298 -0.0506525139157358 0
outer loop
vertex 10 0 0
vertex 10 0 5
vertex 9.94869 -1.01168 0
endloop
endfacet
facet normal 0.9987163375223298 -0.0506525139157358 0
outer loop
vertex 9.94869 -1.01168 0
vertex 10 0 5
vertex 9.94869 -1.01168 5
endloop
endfacet
facet normal -0.20129609662326395 0.9795304392841692 0
outer loop
vertex -2.50653 9.68077 0
vertex -2.50653 9.68077 5
vertex -1.51428 9.88468 0
endloop
endfacet
facet normal -0.20129609662326395 0.9795304392841692 0
outer loop
vertex -1.51428 9.88468 0
vertex -2.50653 9.68077 5
vertex -1.51428 9.88468 5
endloop
endfacet
facet normal -0.5712646246981277 -0.820765940185451 0
outer loop
vertex -5.28964 -8.48644 0
vertex -5.28964 -8.48644 5
vertex -6.12106 -7.90776 0
endloop
endfacet
facet normal -0.5712646246981277 -0.820765940185451 0
outer loop
vertex -6.12106 -7.90776 0
vertex -5.28964 -8.48644 5
vertex -6.12106 -7.90776 5
endloop
endfacet
facet normal -0.29936527420340614 -0.9541385814446032 0
outer loop
vertex -2.50653 -9.68077 0
vertex -2.50653 -9.68077 5
vertex -3.47305 -9.37752 0
endloop
endfacet
facet normal -0.29936527420340614 -0.9541385814446032 0
outer loop
vertex -3.47305 -9.37752 0
vertex -2.50653 -9.68077 5
vertex -3.47305 -9.37752 5
endloop
endfacet
facet normal 0.9680759900255813 -0.2506568920576305 0
outer loop
vertex 9.7953 -2.01299 0
vertex 9.7953 -2.01299 5
vertex 9.54139 -2.99363 0
endloop
endfacet
facet normal 0.9680759900255813 -0.2506568920576305 0
outer loop
vertex 9.54139 -2.99363 0
vertex 9.7953 -2.01299 5
vertex 9.54139 -2.99363 5
endloop
endfacet
facet normal 0.9377538811078928 -0.34730053047336973 0
outer loop
vertex 9.54139 -2.99363 0
vertex 9.54139 -2.99363 5
vertex 9.18958 -3.94356 0
endloop
endfacet
facet normal 0.9377538811078928 -0.34730053047336973 0
outer loop
vertex 9.18958 -3.94356 0
vertex 9.54139 -2.99363 5
vertex 9.18958 -3.94356 5
endloop
endfacet
facet normal -0.10117591739398024 -0.9948685509852477 0
outer loop
vertex -0.50649 -9.98717 0
vertex -0.50649 -9.98717 5
vertex -1.51428 -9.88468 0
endloop
endfacet
facet normal -0.10117591739398024 -0.9948685509852477 0
outer loop
vertex -1.51428 -9.88468 0
vertex -0.50649 -9.98717 5
vertex -1.51428 -9.88468 5
endloop
endfacet
facet normal -0.9377538811078928 -0.34730053047336973 0
outer loop
vertex -9.18958 -3.94356 0
vertex -9.18958 -3.94356 5
vertex -9.54139 -2.99363 0
endloop
endfacet
facet normal -0.9377538811078928 -0.34730053047336973 0
outer loop
vertex -9.54139 -2.99363 0
vertex -9.18958 -3.94356 5
vertex -9.54139 -2.99363 5
endloop
endfacet
facet normal -0.9884690704933199 0.1514229067151734 0
outer loop
vertex -9.94869 1.01168 0
vertex -9.94869 1.01168 5
vertex -9.7953 2.01299 0
endloop
endfacet
facet normal -0.9884690704933199 0.1514229067151734 0
outer loop
vertex -9.7953 2.01299 0
vertex -9.94869 1.01168 5
vertex -9.7953 2.01299 5
endloop
endfacet
facet normal 0.39435055267252495 -0.9189600870586676 0
outer loop
vertex 4.40394 -8.97805 0
vertex 4.40394 -8.97805 5
vertex 3.47305 -9.37752 0
endloop
endfacet
facet normal 0.39435055267252495 -0.9189600870586676 0
outer loop
vertex 3.47305 -9.37752 0
vertex 4.40394 -8.97805 5
vertex 3.47305 -9.37752 5
endloop
endfacet
endsolid JSxCAD
