<?xml version="1.0" encoding="UTF-8"?>
<!-- Generated by jsxcad -->
<!DOCTYPE svg PUBLIC "-//W3C//DTD SVG 1.1 Tiny//EN" "http://www.w3.org/Graphics/SVG/1.1/DTD/svg11-tiny.dtd">
<svg viewBox="-250 -250 500 500" width="500" height="500" xmlns="http://www.w3.org/2000/svg"><path d="M-34.709299506620205,43.66126778949736L-71.40932641859771,-17.421866779777936L-41.11907645809845,35.38112359701158z" style="fill:rgb(21,57,142)"/><path d="M-61.16879324156073,-70.26682973458429L-55.898789013637135,-2.9325486352881125L-51.720028352350965,-80.54286491609305zM-51.720028352350965,-80.54286491609305L-44.365959202445055,1.395239016856468L-40.4809315117038,-89.89519850442868z" style="fill:rgb(83,212,212)"/><path d="M76.12038241681856,-89.28207306093721L101.65304563029768,-22.458742344486645L99.14416225914358,-32.674989839548005z" style="fill:rgb(246,167,149)"/><path d="M-68.48154220409883,-59.39338488875688L-65.00926052850022,-9.312266096385429L-61.16879324156073,-70.26682973458429zM-40.4809315117038,-89.89519850442868L-30.82940773996314,3.4240524204401925L-27.834953252102512,-98.03199035732878zM-73.36035433488608,-48.28015099682641L-71.40932641859771,-17.421866779777936L-68.48154220409883,-59.39338488875688zM-27.834953252102512,-98.03199035732878L-15.828251789086387,3.004695793845238L-14.195540363739877,-104.69822587231926zM-74.94097920349228,-26.888452741458092L-73.36035433488608,-48.28015099682641L-75.56764898803829,-37.31103746655093zM-14.195540363739877,-104.69822587231926L2.509534975913604e-15,0.10413249425225028L-1.7728903774252964e-14,-109.6779533927698z" style="fill:rgb(83,212,212)"/><path d="M-25.744097142272572,50.27340089063858L-65.00926052850022,-9.312266096385429L-34.709299506620205,43.66126778949736z" style="fill:rgb(34,46,160)"/><path d="M-1.7728903774252964e-14,-109.6779533927698L15.953055641942456,-5.183976201633619L14.295843090786589,-112.79725822602522zM-73.36035433488608,-48.28015099682641L-74.94097920349228,-26.888452741458092L-71.40932641859771,-17.421866779777936zM14.295843090786589,-112.79725822602522L31.306442562958946,-12.638994627428762L28.223236379173315,-113.92833272260498z" style="fill:rgb(83,212,212)"/><path d="M101.65304563029768,-22.458742344486645L77.82356105029989,-67.98496596231465L101.24908935359537,-11.264793384169334z" style="fill:rgb(246,149,167)"/><path d="M-68.48154220409883,-59.39338488875688L-71.40932641859771,-17.421866779777936L-65.00926052850022,-9.312266096385429z" style="fill:rgb(83,212,212)"/><path d="M-71.40932641859771,-17.421866779777936L-34.709299506620205,43.66126778949736L-65.00926052850022,-9.312266096385429z" style="fill:rgb(21,57,142)"/><path d="M28.223236379173315,-113.92833272260498L45.36063176522988,-21.92436768360226L41.307406190957124,-112.99488794472268z" style="fill:rgb(83,212,212)"/><path d="M-14.513588471380329,54.891762214407265L-55.898789013637135,-2.9325486352881125L-25.744097142272572,50.27340089063858z" style="fill:rgb(51,38,177)"/><path d="M101.65304563029768,-22.458742344486645L76.12038241681856,-89.28207306093721L78.49958454024411,-79.16892110550663z" style="fill:rgb(246,167,149)"/><path d="M41.307406190957124,-112.99488794472268L57.4870563715452,-32.60923625756821L53.07682558232374,-109.97884520551604zM-61.16879324156073,-70.26682973458429L-65.00926052850022,-9.312266096385429L-55.898789013637135,-2.9325486352881125z" style="fill:rgb(83,212,212)"/><path d="M101.24908935359537,-11.264793384169334L74.02188610989822,-56.16447275520567L97.85984798053539,0.4695447074758753z" style="fill:rgb(242,130,183)"/><path d="M53.07682558232374,-109.97884520551604L67.16742770448131,-44.19806905249412L63.075761971181784,-104.92777091035484zM-51.720028352350965,-80.54286491609305L-55.898789013637135,-2.9325486352881125L-44.365959202445055,1.395239016856468z" style="fill:rgb(83,212,212)"/><path d="M-65.00926052850022,-9.312266096385429L-25.744097142272572,50.27340089063858L-55.898789013637135,-2.9325486352881125z" style="fill:rgb(34,46,160)"/><path d="M77.82356105029989,-67.98496596231465L101.65304563029768,-22.458742344486645L78.49958454024411,-79.16892110550663z" style="fill:rgb(246,149,167)"/><path d="M-30.82940773996314,3.4240524204401925L-14.513588471380329,54.891762214407265L-1.4293709499674814,57.262837024234z" style="fill:rgb(71,33,192)"/><path d="M63.075761971181784,-104.92777091035484L74.02188610989822,-56.16447275520567L70.8806646016566,-97.96228405273881zM-40.4809315117038,-89.89519850442868L-44.365959202445055,1.395239016856468L-30.82940773996314,3.4240524204401925z" style="fill:rgb(83,212,212)"/><path d="M97.85984798053539,0.4695447074758753L67.16742770448131,-44.19806905249412L91.54820545634053,12.256583159706084z" style="fill:rgb(233,112,197)"/><path d="M-15.828251789086387,3.004695793845238L-1.4293709499674814,57.262837024234L12.986340352814143,57.227567964931666z" style="fill:rgb(92,32,204)"/><path d="M-27.834953252102512,-98.03199035732878L-30.82940773996314,3.4240524204401925L-15.828251789086387,3.004695793845238zM70.8806646016566,-97.96228405273881L74.02188610989822,-56.16447275520567L76.12038241681856,-89.28207306093721z" style="fill:rgb(83,212,212)"/><path d="M-55.898789013637135,-2.9325486352881125L-14.513588471380329,54.891762214407265L-44.365959202445055,1.395239016856468z" style="fill:rgb(51,38,177)"/><path d="M74.02188610989822,-56.16447275520567L101.24908935359537,-11.264793384169334L77.82356105029989,-67.98496596231465z" style="fill:rgb(242,130,183)"/><path d="M91.54820545634053,12.256583159706084L57.4870563715452,-32.60923625756821L82.52222143777433,23.58184485264564z" style="fill:rgb(220,94,208)"/><path d="M-14.195540363739877,-104.69822587231926L-15.828251789086387,3.004695793845238L2.509534975913604e-15,0.10413249425225028zM76.12038241681856,-89.28207306093721L77.82356105029989,-67.98496596231465L78.49958454024411,-79.16892110550663z" style="fill:rgb(83,212,212)"/><path d="M8.248997501640077e-15,0.10413249425225636L12.986340352814143,57.227567964931666L28.122470443845113,54.739340883902535z" style="fill:rgb(115,34,214)"/><path d="M82.52222143777433,23.58184485264564L45.36063176522988,-21.92436768360226L71.13426918312996,33.93339238707697z" style="fill:rgb(203,77,216)"/><path d="M-14.513588471380329,54.891762214407265L-30.82940773996314,3.4240524204401925L-44.365959202445055,1.395239016856468z" style="fill:rgb(71,33,192)"/><path d="M-1.7728903774252964e-14,-109.6779533927698L2.509534975913604e-15,0.10413249425225028L15.953055641942456,-5.183976201633619z" style="fill:rgb(83,212,212)"/><path d="M45.36063176522988,-21.92436768360226L57.867707197338845,42.83429773687843L71.13426918312996,33.93339238707697z" style="fill:rgb(183,62,221)"/><path d="M15.953055641942456,-5.183976201633619L28.122470443845113,54.739340883902535L43.31116019455671,49.87468050955057z" style="fill:rgb(139,40,220)"/><path d="M63.075761971181784,-104.92777091035484L67.16742770448131,-44.19806905249412L74.02188610989822,-56.16447275520567z" style="fill:rgb(83,212,212)"/><path d="M31.306442562958946,-12.638994627428762L43.31116019455671,49.87468050955057L57.867707197338845,42.83429773687843z" style="fill:rgb(162,50,222)"/><path d="M14.295843090786589,-112.79725822602522L15.953055641942456,-5.183976201633619L31.306442562958946,-12.638994627428762z" style="fill:rgb(83,212,212)"/><path d="M67.16742770448131,-44.19806905249412L97.85984798053539,0.4695447074758753L74.02188610989822,-56.16447275520567z" style="fill:rgb(233,112,197)"/><path d="M76.12038241681856,-89.28207306093721L74.02188610989822,-56.16447275520567L77.82356105029989,-67.98496596231465zM53.07682558232374,-109.97884520551604L57.4870563715452,-32.60923625756821L67.16742770448131,-44.19806905249412zM28.223236379173315,-113.92833272260498L31.306442562958946,-12.638994627428762L45.36063176522988,-21.92436768360226zM41.307406190957124,-112.99488794472268L45.36063176522988,-21.92436768360226L57.4870563715452,-32.60923625756821z" style="fill:rgb(83,212,212)"/><path d="M-1.4293709499674814,57.262837024234L-15.828251789086387,3.004695793845238L-30.82940773996314,3.4240524204401925z" style="fill:rgb(92,32,204)"/><path d="M57.4870563715452,-32.60923625756821L91.54820545634053,12.256583159706084L67.16742770448131,-44.19806905249412z" style="fill:rgb(220,94,208)"/><path d="M12.986340352814143,57.227567964931666L8.248997501640077e-15,0.10413249425225636L-15.828251789086387,3.004695793845238z" style="fill:rgb(115,34,214)"/><path d="M45.36063176522988,-21.92436768360226L82.52222143777433,23.58184485264564L57.4870563715452,-32.60923625756821z" style="fill:rgb(203,77,216)"/><path d="M28.122470443845113,54.739340883902535L15.953055641942456,-5.183976201633619L7.379892444694244e-15,0.10413249425225782z" style="fill:rgb(139,40,220)"/><path d="M57.867707197338845,42.83429773687843L45.36063176522988,-21.92436768360226L31.306442562958946,-12.638994627428762z" style="fill:rgb(183,62,221)"/><path d="M43.31116019455671,49.87468050955057L31.306442562958946,-12.638994627428762L15.953055641942456,-5.183976201633619z" style="fill:rgb(162,50,222)"/><path d="M56.100903976194,-84.96702252225377L121.24388020215298,173.85962280703214L107.43982856235152,35.53019273854785z" style="fill:rgb(247,158,158)"/><path d="M-115.28293618992997,-37.908030194872154L64.29835059193131,54.74527030725652L56.100903976194,-84.96702252225377z" style="fill:rgb(83,212,212)"/><path d="M64.29835059193131,54.74527030725652L-54.15756263570381,210.3761278338149L121.24388020215298,173.85962280703214z" style="fill:rgb(127,37,217)"/><path d="M121.24388020215298,173.85962280703214L56.100903976194,-84.96702252225377L64.29835059193131,54.74527030725652z" style="fill:rgb(247,158,158)"/><path d="M64.29835059193131,54.74527030725652L-115.28293618992997,-37.908030194872154L-131.32641685896402,101.70463305130868z" style="fill:rgb(83,212,212)"/><path d="M-54.15756263570381,210.3761278338149L64.29835059193131,54.74527030725652L-131.32641685896402,101.70463305130868z" style="fill:rgb(127,37,217)"/></svg>
