<svg viewBox="-250 -250 500 500" width="500" height="500" xmlns="http://www.w3.org/2000/svg"><path d="M88.38758416049082,33.99992452245317L87.51922932510371,7.670478557646276L86.9203829802036,59.72283723099366zM83.8874489293487,-20.759906989646264L78.98910963879582,-43.86803345155567L78.72891044854754,-24.382708508104233zM84.3602786005968,-18.52916024828689L83.10839630746041,84.08516245433742L87.51922932510371,7.670478557646276zM78.72891044854754,-24.382708508104233L78.98910963879582,-43.86803345155567L77.83668468660565,-25.00931266116665zM83.10839630746041,84.08516245433742L86.9203829802036,59.72283723099366L87.51922932510371,7.670478557646276zM77.83668468660565,-25.00931266116665L78.98910963879582,-43.86803345155567L71.51956711155208,-67.60985388708374zM83.8874489293487,-20.759906989646264L76.98399117563218,106.30832498861596L84.3602786005968,-18.52916024828689zM83.8874489293487,-20.759906989646264L78.72891044854754,-24.382708508104233L76.98399117563218,106.30832498861596zM77.83668468660565,-25.00931266116665L71.51956711155208,-67.60985388708374L70.95542066490289,-29.841857229149312zM76.98399117563218,106.30832498861596L83.10839630746041,84.08516245433742L84.3602786005968,-18.52916024828689zM77.83668468660565,-25.00931266116665L76.98399117563218,106.30832498861596L78.72891044854754,-24.382708508104233zM70.95542066490289,-29.841857229149312L71.51956711155208,-67.60985388708374L69.1908019359088,-31.08125522400297zM69.1908019359088,-31.08125522400297L71.51956711155208,-67.60985388708374L62.10853048048696,-89.00508457900303zM70.95542066490289,-29.841857229149312L69.88982291805826,105.03479451155671L77.83668468660565,-25.00931266116665zM77.83668468660565,-25.00931266116665L76.25750695217124,107.9857616021492L76.98399117563218,106.30832498861596zM69.1908019359088,-31.08125522400297L62.10853048048696,-89.00508457900303L61.222814818844626,-36.677121753475525zM77.83668468660565,-25.00931266116665L69.88982291805826,105.03479451155671L76.25750695217124,107.9857616021492zM69.1908019359088,-31.08125522400297L68.94743039290724,104.59806357798473L70.95542066490289,-29.841857229149312zM61.222814818844626,-36.677121753475525L62.10853048048696,-89.00508457900303L58.72188254818497,-38.43351247691438zM70.95542066490289,-29.841857229149312L68.94743039290724,104.59806357798473L69.88982291805826,105.03479451155671zM58.72188254818497,-38.43351247691438L62.10853048048696,-89.00508457900303L56.19923952616388,-40.20514349230825zM56.19923952616388,-40.20514349230825L62.10853048048696,-89.00508457900303L50.96553884453155,-107.28909114324945zM61.222814818844626,-36.677121753475525L60.78211765177691,100.81414132965021L69.1908019359088,-31.08125522400297zM69.88982291805826,105.03479451155671L68.63397936859289,125.58763452048738L76.25750695217124,107.9857616021492zM69.1908019359088,-31.08125522400297L60.78211765177691,100.81414132965021L68.94743039290724,104.59806357798473zM68.94743039290724,104.59806357798473L68.63397936859289,125.58763452048738L69.88982291805826,105.03479451155671zM58.72188254818497,-38.43351247691438L58.91030031984306,99.94657805554792L61.222814818844626,-36.677121753475525zM56.19923952616388,-40.20514349230825L50.96553884453155,-107.28909114324945L46.69606074734546,-46.87915987517423zM60.78211765177691,100.81414132965021L68.63397936859289,125.58763452048738L68.94743039290724,104.59806357798473zM61.222814818844626,-36.677121753475525L58.91030031984306,99.94657805554792L60.78211765177691,100.81414132965021zM56.19923952616388,-40.20514349230825L49.73974388379097,95.69668951403634L58.72188254818497,-38.43351247691438zM46.69606074734546,-46.87915987517423L50.96553884453155,-107.28909114324945L38.36623988404581,-121.6907484316254zM60.78211765177691,100.81414132965021L58.21367492248788,141.10223667068223L68.63397936859289,125.58763452048738zM58.72188254818497,-38.43351247691438L49.73974388379097,95.69668951403634L58.91030031984306,99.94657805554792zM58.91030031984306,99.94657805554792L58.21367492248788,141.10223667068223L60.78211765177691,100.81414132965021zM46.69606074734546,-46.87915987517423L40.27389574111986,91.30995332241069L56.19923952616388,-40.20514349230825zM46.69606074734546,-46.87915987517423L38.36623988404581,-121.6907484316254L36.877005281020075,-53.77489702942437zM49.73974388379097,95.69668951403634L58.21367492248788,141.10223667068223L58.91030031984306,99.94657805554792zM56.19923952616388,-40.20514349230825L40.27389574111986,91.30995332241069L49.73974388379097,95.69668951403634zM36.877005281020075,-53.77489702942437L38.36623988404581,-121.6907484316254L33.46681599061023,-56.169970163180714zM33.46681599061023,-56.169970163180714L38.36623988404581,-121.6907484316254L24.66569504604995,-131.45555984144616zM36.877005281020075,-53.77489702942437L37.03555204360755,89.80921202721456L46.69606074734546,-46.87915987517423zM49.73974388379097,95.69668951403634L45.966649615096635,152.0405631547477L58.21367492248788,141.10223667068223zM46.69606074734546,-46.87915987517423L37.03555204360755,89.80921202721456L40.27389574111986,91.30995332241069zM33.46681599061023,-56.169970163180714L33.762006692585594,88.29216268168489L36.877005281020075,-53.77489702942437zM40.27389574111986,91.30995332241069L45.966649615096635,152.0405631547477L49.73974388379097,95.69668951403634zM33.46681599061023,-56.169970163180714L24.66569504604995,-131.45555984144616L22.98153052413772,-63.533715589770004zM36.877005281020075,-53.77489702942437L33.762006692585594,88.29216268168489L37.03555204360755,89.80921202721456zM22.98153052413772,-63.533715589770004L24.66569504604995,-131.45555984144616L19.484997416637686,-65.98930726265303zM19.484997416637686,-65.98930726265303L24.66569504604995,-131.45555984144616L10.30996396529118,-135.88605721973275zM22.98153052413772,-63.533715589770004L23.036077554228353,83.32158271350193L33.46681599061023,-56.169970163180714zM40.27389574111986,91.30995332241069L32.24139236796752,157.64445141149767L45.966649615096635,152.0405631547477z" style="fill:rgb(237,137,191)"/><path d="M-30.5025485693593,157.9136023415152L32.24139236796752,157.64445141149767L-46.238258060176236,157.56269637207754z" style="fill:rgb(127,1,148)"/><path d="M33.46681599061023,-56.169970163180714L23.036077554228353,83.32158271350193L33.762006692585594,88.29216268168489zM37.03555204360755,89.80921202721456L32.24139236796752,157.64445141149767L40.27389574111986,91.30995332241069zM33.762006692585594,88.29216268168489L32.24139236796752,157.64445141149767L37.03555204360755,89.80921202721456zM19.484997416637686,-65.98930726265303L19.38198917576747,81.6280595359173L22.98153052413772,-63.533715589770004zM19.484997416637686,-65.98930726265303L10.30996396529118,-135.88605721973275L8.580838362486856,-73.64722784094873zM23.036077554228353,83.32158271350193L32.24139236796752,157.64445141149767L33.762006692585594,88.29216268168489zM22.98153052413772,-63.533715589770004L19.38198917576747,81.6280595359173L23.036077554228353,83.32158271350193zM8.580838362486856,-73.64722784094873L10.30996396529118,-135.88605721973275L5.300365197979022,-75.9510820856599z" style="fill:rgb(237,137,191)"/><path d="M-46.238258060176236,157.56269637207754L32.24139236796752,157.64445141149767L17.506275740476227,157.27409559063776z" style="fill:rgb(127,1,148)"/><path d="M5.300365197979022,-75.9510820856599L10.30996396529118,-135.88605721973275L-4.158958835188477,-134.40173346661604zM8.580838362486856,-73.64722784094873L8.212844221497557,76.45196823419582L19.484997416637686,-65.98930726265303zM19.484997416637686,-65.98930726265303L8.212844221497557,76.45196823419582L19.38198917576747,81.6280595359173z" style="fill:rgb(237,137,191)"/><path d="M-81.55031808686361,-116.19436689756563L-18.108940189309017,-126.61738116827966L-66.6148947718849,-123.9491403480841z" style="fill:rgb(96,246,162)"/><path d="M-46.238258060176236,157.56269637207754L17.506275740476227,157.27409559063776L-62.332027343267306,151.03126889404368z" style="fill:rgb(114,7,169)"/><path d="M23.036077554228353,83.32158271350193L17.506275740476227,157.27409559063776L32.24139236796752,157.64445141149767z" style="fill:rgb(237,137,191)"/><path d="M-66.6148947718849,-123.9491403480841L-18.108940189309017,-126.61738116827966L-4.158958835188477,-134.40173346661604z" style="fill:rgb(96,246,162)"/><path d="M19.38198917576747,81.6280595359173L17.506275740476227,157.27409559063776L23.036077554228353,83.32158271350193zM5.300365197979022,-75.9510820856599L4.458968907412612,74.7123179177424L8.580838362486856,-73.64722784094873zM5.300365197979022,-75.9510820856599L-4.158958835188477,-134.40173346661604L-5.718925056416208,-83.6898524158123zM8.212844221497557,76.45196823419582L17.506275740476227,157.27409559063776L19.38198917576747,81.6280595359173zM8.580838362486856,-73.64722784094873L4.458968907412612,74.7123179177424L8.212844221497557,76.45196823419582zM-5.718925056416208,-83.6898524158123L-4.158958835188477,-134.40173346661604L-8.449051842683652,-85.60720208651702z" style="fill:rgb(237,137,191)"/><path d="M-62.332027343267306,151.03126889404368L17.506275740476227,157.27409559063776L2.353568413745163,150.49183730782966z" style="fill:rgb(114,7,169)"/><path d="M-8.449051842683652,-85.60720208651702L-4.158958835188477,-134.40173346661604L-18.108940189309017,-126.61738116827966zM-5.718925056416208,-83.6898524158123L-6.854566345932179,69.46931074863348L5.300365197979022,-75.9510820856599z" style="fill:rgb(237,137,191)"/><path d="M-95.22301724424328,-102.29586117120908L-30.8396251658661,-112.43259601320689L-81.55031808686361,-116.19436689756563z" style="fill:rgb(85,234,182)"/><path d="M-62.332027343267306,151.03126889404368L2.353568413745163,150.49183730782966L-78.03279021044564,138.19868595388812z" style="fill:rgb(101,18,189)"/><path d="M5.300365197979022,-75.9510820856599L-6.854566345932179,69.46931074863348L4.458968907412612,74.7123179177424zM8.212844221497557,76.45196823419582L2.353568413745163,150.49183730782966L17.506275740476227,157.27409559063776z" style="fill:rgb(237,137,191)"/><path d="M-81.55031808686361,-116.19436689756563L-30.8396251658661,-112.43259601320689L-18.108940189309017,-126.61738116827966z" style="fill:rgb(85,234,182)"/><path d="M-74.36488346575241,-98.3349617323503L-95.22301724424328,-102.29586117120908L-99.8584449913607,-94.42827152836551z" style="fill:rgb(76,218,200)"/><path d="M4.458968907412612,74.7123179177424L2.353568413745163,150.49183730782966L8.212844221497557,76.45196823419582zM-8.449051842683652,-85.60720208651702L-10.379916784210796,67.83556667105476L-5.718925056416208,-83.6898524158123zM-8.449051842683652,-85.60720208651702L-18.108940189309017,-126.61738116827966L-19.231986198283895,-93.17998392696317zM-6.854566345932179,69.46931074863348L2.353568413745163,150.49183730782966L4.458968907412612,74.7123179177424zM-5.718925056416208,-83.6898524158123L-10.379916784210796,67.83556667105476L-6.854566345932179,69.46931074863348zM-19.231986198283895,-93.17998392696317L-18.108940189309017,-126.61738116827966L-21.06437980210367,-94.46672989429305z" style="fill:rgb(237,137,191)"/><path d="M-74.36488346575241,-98.3349617323503L-30.8396251658661,-112.43259601320689L-95.22301724424328,-102.29586117120908z" style="fill:rgb(76,218,200)"/><path d="M-19.231986198283895,-93.17998392696317L-21.48746769437453,62.68801693049961L-8.449051842683652,-85.60720208651702z" style="fill:rgb(237,137,191)"/><path d="M-78.03279021044564,138.19868595388812L2.353568413745163,150.49183730782966L-12.51224869048684,137.15801268483122z" style="fill:rgb(101,18,189)"/><path d="M-21.06437980210367,-94.46672989429305L-18.108940189309017,-126.61738116827966L-30.8396251658661,-112.43259601320689z" style="fill:rgb(237,137,191)"/><path d="M-78.03279021044564,138.19868595388812L-12.51224869048684,137.15801268483122L-92.51481886809366,119.31404340314742z" style="fill:rgb(90,34,206)"/><path d="M-8.449051842683652,-85.60720208651702L-21.48746769437453,62.68801693049961L-10.379916784210796,67.83556667105476z" style="fill:rgb(237,137,191)"/><path d="M-41.624828811456595,-92.11763709703374L-99.8584449913607,-94.42827152836551L-106.86394834898397,-82.5382558397705zM-41.624828811456595,-92.11763709703374L-74.36488346575241,-98.3349617323503L-99.8584449913607,-94.42827152836551z" style="fill:rgb(76,218,200)"/><path d="M-6.854566345932179,69.46931074863348L-12.51224869048684,137.15801268483122L2.353568413745163,150.49183730782966zM-21.06437980210367,-94.46672989429305L-24.42109338838948,61.32849312111782L-19.231986198283895,-93.17998392696317zM-21.06437980210367,-94.46672989429305L-30.8396251658661,-112.43259601320689L-31.23047934668767,-101.60644856683633zM-10.379916784210796,67.83556667105476L-12.51224869048684,137.15801268483122L-6.854566345932179,69.46931074863348z" style="fill:rgb(237,137,191)"/><path d="M-74.36488346575241,-98.3349617323503L-35.13244883123096,-104.34677223637819L-30.8396251658661,-112.43259601320689z" style="fill:rgb(76,218,200)"/><path d="M-31.23047934668767,-101.60644856683633L-30.8396251658661,-112.43259601320689L-31.831744739773676,-102.02871320934162zM-19.231986198283895,-93.17998392696317L-24.42109338838948,61.32849312111782L-21.48746769437453,62.68801693049961zM-31.831744739773676,-102.02871320934162L-30.8396251658661,-112.43259601320689L-35.13244883123096,-104.34677223637819zM-21.48746769437453,62.68801693049961L-12.51224869048684,137.15801268483122L-10.379916784210796,67.83556667105476z" style="fill:rgb(237,137,191)"/><path d="M-74.36488346575241,-98.3349617323503L-41.624828811456595,-92.11763709703374L-35.13244883123096,-104.34677223637819z" style="fill:rgb(76,218,200)"/><path d="M-115.74205510550395,-57.61706942953664L-49.77370638249133,-66.37620810510043L-106.86394834898397,-82.5382558397705z" style="fill:rgb(69,199,215)"/><path d="M-92.51481886809366,119.31404340314742L-26.308343373925183,117.51947141000825L-104.93783824149612,95.05216468181597z" style="fill:rgb(80,53,220)"/><path d="M-31.23047934668767,-101.60644856683633L-34.93752002684103,56.45488958995895L-21.06437980210367,-94.46672989429305z" style="fill:rgb(237,137,191)"/><path d="M-92.51481886809366,119.31404340314742L-12.51224869048684,137.15801268483122L-26.308343373925183,117.51947141000825z" style="fill:rgb(90,34,206)"/><path d="M-21.06437980210367,-94.46672989429305L-34.93752002684103,56.45488958995895L-24.42109338838948,61.32849312111782z" style="fill:rgb(237,137,191)"/><path d="M-106.86394834898397,-82.5382558397705L-49.77370638249133,-66.37620810510043L-41.624828811456595,-92.11763709703374z" style="fill:rgb(69,199,215)"/><path d="M-31.831744739773676,-102.02871320934162L-36.90404722193464,55.54354218766541L-31.23047934668767,-101.60644856683633zM-21.48746769437453,62.68801693049961L-26.308343373925183,117.51947141000825L-12.51224869048684,137.15801268483122zM-24.42109338838948,61.32849312111782L-26.308343373925183,117.51947141000825L-21.48746769437453,62.68801693049961z" style="fill:rgb(237,137,191)"/><path d="M-121.24014845948999,-28.648924302614763L-54.7059594603584,-36.361455167318695L-115.74205510550395,-57.61706942953664z" style="fill:rgb(65,176,227)"/><path d="M-104.93783824149612,95.05216468181597L-38.23003272301088,92.27374415699305L-114.52653247304114,66.52251907573897z" style="fill:rgb(72,76,230)"/><path d="M-35.13244883123096,-104.34677223637819L-46.43581614368289,51.12625930740139L-31.831744739773676,-102.02871320934162zM-31.23047934668767,-101.60644856683633L-36.90404722193464,55.54354218766541L-34.93752002684103,56.45488958995895z" style="fill:rgb(237,137,191)"/><path d="M-77.59846265408304,51.32698033818916L-120.65735189391152,35.214450398041535L-116.98964670809117,53.943868651432986z" style="fill:rgb(66,100,236)"/><path d="M-104.93783824149612,95.05216468181597L-26.308343373925183,117.51947141000825L-38.23003272301088,92.27374415699305z" style="fill:rgb(80,53,220)"/><path d="M-34.93752002684103,56.45488958995895L-26.308343373925183,117.51947141000825L-24.42109338838948,61.32849312111782zM-35.13244883123096,-104.34677223637819L-41.624828811456595,-92.11763709703374L-47.07955414597566,50.827933198968076z" style="fill:rgb(237,137,191)"/><path d="M-47.527973799822085,62.57937020715355L-116.98964670809117,53.943868651432986L-114.52653247304114,66.52251907573897z" style="fill:rgb(66,100,236)"/><path d="M-122.93466778578001,2.877182359797331L-56.02768735253013,-3.6255468143531955L-121.24014845948999,-28.648924302614763z" style="fill:rgb(63,151,234)"/><path d="M-115.74205510550395,-57.61706942953664L-54.7059594603584,-36.361455167318695L-49.77370638249133,-66.37620810510043z" style="fill:rgb(65,176,227)"/><path d="M-31.831744739773676,-102.02871320934162L-46.43581614368289,51.12625930740139L-36.90404722193464,55.54354218766541z" style="fill:rgb(237,137,191)"/><path d="M-120.65735189391152,35.214450398041535L-53.59199381038223,29.999661467302786L-122.93466778578001,2.877182359797331z" style="fill:rgb(63,126,237)"/><path d="M-34.93752002684103,56.45488958995895L-38.23003272301088,92.27374415699305L-26.308343373925183,117.51947141000825z" style="fill:rgb(237,137,191)"/><path d="M-47.527973799822085,62.57937020715355L-77.59846265408304,51.32698033818916L-116.98964670809117,53.943868651432986z" style="fill:rgb(66,100,236)"/><path d="M-114.52653247304114,66.52251907573897L-38.23003272301088,92.27374415699305L-47.527973799822085,62.57937020715355z" style="fill:rgb(72,76,230)"/><path d="M-35.13244883123096,-104.34677223637819L-47.07955414597566,50.827933198968076L-46.43581614368289,51.12625930740139zM-36.90404722193464,55.54354218766541L-38.23003272301088,92.27374415699305L-34.93752002684103,56.45488958995895z" style="fill:rgb(237,137,191)"/><path d="M-77.59846265408304,51.32698033818916L-53.59199381038223,29.999661467302786L-120.65735189391152,35.214450398041535z" style="fill:rgb(66,100,236)"/><path d="M-19.109963068357732,63.78981728677933L36.795453569668055,60.59016675003564L-57.589545731791326,45.957309001345045z" style="fill:rgb(117,5,164)"/><path d="M-53.59199381038223,29.999661467302786L-41.624828811456595,-92.11763709703374L-49.77370638249133,-66.37620810510043z" style="fill:rgb(237,137,191)"/><path d="M-121.24014845948999,-28.648924302614763L-56.02768735253013,-3.6255468143531955L-54.7059594603584,-36.361455167318695z" style="fill:rgb(63,151,234)"/><path d="M-46.43581614368289,51.12625930740139L-38.23003272301088,92.27374415699305L-36.90404722193464,55.54354218766541z" style="fill:rgb(237,137,191)"/><path d="M-80.92657622417609,42.33928008114887L-135.45695468503257,46.25466328461017L-116.98964670809117,53.943868651432986z" style="fill:rgb(117,5,164)"/><path d="M-47.07955414597566,50.827933198968076L-41.624828811456595,-92.11763709703374L-53.59199381038223,29.999661467302786z" style="fill:rgb(237,137,191)"/><path d="M-122.93466778578001,2.877182359797331L-53.59199381038223,29.999661467302786L-56.02768735253013,-3.6255468143531955z" style="fill:rgb(63,126,237)"/><path d="M-80.92657622417609,42.33928008114887L-116.98964670809117,53.943868651432986L-49.96397963893491,49.49120860019412z" style="fill:rgb(117,5,164)"/><path d="M-56.02768735253013,-3.6255468143531955L-49.77370638249133,-66.37620810510043L-54.7059594603584,-36.361455167318695zM-46.43581614368289,51.12625930740139L-47.527973799822085,62.57937020715355L-38.23003272301088,92.27374415699305z" style="fill:rgb(237,137,191)"/><path d="M-77.59846265408304,51.32698033818916L-47.527973799822085,62.57937020715355L-49.96397963893491,49.49120860019412zM-77.59846265408304,51.32698033818916L-49.96397963893491,49.49120860019412L-53.59199381038223,29.999661467302786z" style="fill:rgb(66,100,236)"/><path d="M-53.59199381038223,29.999661467302786L-49.77370638249133,-66.37620810510043L-56.02768735253013,-3.6255468143531955zM-47.07955414597566,50.827933198968076L-47.527973799822085,62.57937020715355L-46.43581614368289,51.12625930740139zM-47.07955414597566,50.827933198968076L-49.96397963893491,49.49120860019412L-47.527973799822085,62.57937020715355zM-47.07955414597566,50.827933198968076L-53.59199381038223,29.999661467302786L-49.96397963893491,49.49120860019412zM-35.00018303146299,-155.94334436230963L36.795453569668055,60.59016675003564L47.64810474344364,-91.54921653560699z" style="fill:rgb(237,137,191)"/><path d="M-80.92657622417609,42.33928008114887L-49.96397963893491,49.49120860019412L-57.589545731791326,45.957309001345045zM-80.92657622417609,42.33928008114887L-182.78901417443498,26.547220206456284L-135.45695468503257,46.25466328461017zM-67.48008706876635,41.37389566965858L-80.92657622417609,42.33928008114887L-57.589545731791326,45.957309001345045zM-67.48008706876635,41.37389566965858L-182.78901417443498,26.547220206456284L-80.92657622417609,42.33928008114887z" style="fill:rgb(117,5,164)"/><path d="M-103.80414590775828,-55.195716653618945L-93.41839622311576,-145.28045556605593L-161.20760177178843,-132.9073385343149z" style="fill:rgb(63,164,231)"/><path d="M-57.589545731791326,45.957309001345045L36.795453569668055,60.59016675003564L-51.758548510630796,15.262217385340737z" style="fill:rgb(117,5,164)"/><path d="M-112.53054434143665,20.496124220771826L-161.20760177178843,-132.9073385343149L-182.78901417443498,26.547220206456284zM-112.53054434143665,20.496124220771826L-103.80414590775828,-55.195716653618945L-161.20760177178843,-132.9073385343149z" style="fill:rgb(63,164,231)"/><path d="M-67.48008706876635,41.37389566965858L-112.53054434143665,20.496124220771826L-182.78901417443498,26.547220206456284z" style="fill:rgb(117,5,164)"/><path d="M-103.80414590775828,-55.195716653618945L-35.00018303146299,-155.94334436230963L-93.41839622311576,-145.28045556605593z" style="fill:rgb(63,164,231)"/><path d="M36.795453569668055,60.59016675003564L-35.00018303146299,-155.94334436230963L-51.758548510630796,15.262217385340737z" style="fill:rgb(237,137,191)"/><path d="M-57.589545731791326,45.957309001345045L-51.758548510630796,15.262217385340737L-112.53054434143665,20.496124220771826z" style="fill:rgb(117,5,164)"/><path d="M-103.80414590775828,-55.195716653618945L-51.758548510630796,15.262217385340737L-35.00018303146299,-155.94334436230963zM-112.53054434143665,20.496124220771826L-51.758548510630796,15.262217385340737L-103.80414590775828,-55.195716653618945z" style="fill:rgb(63,164,231)"/></svg>