<?xml version="1.0" encoding="UTF-8"?>
<!-- Generated by jsxcad -->
<!DOCTYPE svg PUBLIC "-//W3C//DTD SVG 1.1 Tiny//EN" "http://www.w3.org/Graphics/SVG/1.1/DTD/svg11-tiny.dtd">
<svg viewBox="-250 -250 500 500" width="500" height="500" xmlns="http://www.w3.org/2000/svg"><path d="M11.048866441271576,95.29180824824611L-11.766018746179466,56.659099053229056L6.444648241048766,89.39819602468249z" style="fill:rgb(21,57,142)"/><path d="M-0.7599143250321518,11.867184370181148L-0.7998287892818028,67.17511207652L6.62224057146193,5.380079150846935zM-6.85858740208933,19.07067670663943L-0.7998287892818028,67.17511207652L-0.7599143250321518,11.867184370181148zM-11.44541373778512,26.74647901189811L-7.1396062021891495,62.510023604324715L-6.85858740208933,19.07067670663943z" style="fill:rgb(83,212,212)"/><path d="M84.91898513722437,9.84311438006559L101.62496681197467,51.5593230311911L99.95477466988787,44.2279203173674z" style="fill:rgb(246,167,149)"/><path d="M6.62224057146193,5.380079150846935L16.068465723682767,72.14392308489111L15.024661337043623,-0.17326539751398343zM-14.334526552827155,34.628554133251185L-11.766018746179466,56.659099053229056L-11.44541373778512,26.74647901189811zM15.024661337043623,-0.17326539751398343L25.94610427973938,72.18799483519776L24.15638037791727,-4.606117373654053zM-14.537687168856804,49.87489686649436L-14.334526552827155,34.628554133251185L-15.390707493574563,42.43485777483061zM24.15638037791727,-4.606117373654053L36.25977761029578,70.54817896879975L33.705365012515216,-7.765893029286448z" style="fill:rgb(83,212,212)"/><path d="M17.30155944067655,100.02791439920225L-7.1396062021891495,62.510023604324715L11.048866441271576,95.29180824824611z" style="fill:rgb(34,46,160)"/><path d="M33.705365012515216,-7.765893029286448L36.25977761029578,70.54817896879975L43.34512615165767,-9.537542671827559zM-14.334526552827155,34.628554133251185L-14.537687168856804,49.87489686649436L-11.766018746179466,56.659099053229056zM43.34512615165767,-9.537542671827559L56.44213912578037,62.5101528839249L52.74162043980972,-9.846988141715695z" style="fill:rgb(83,212,212)"/><path d="M101.62496681197467,51.5593230311911L86.15258287910154,25.11015435609043L101.35772019416405,59.461608602686056z" style="fill:rgb(246,149,167)"/><path d="M-11.44541373778512,26.74647901189811L-11.766018746179466,56.659099053229056L-7.1396062021891495,62.510023604324715z" style="fill:rgb(83,212,212)"/><path d="M-11.766018746179466,56.659099053229056L11.048866441271576,95.29180824824611L-7.1396062021891495,62.510023604324715z" style="fill:rgb(21,57,142)"/><path d="M52.74162043980972,-9.846988141715695L56.44213912578037,62.5101528839249L61.56088007870422,-8.664633451416579z" style="fill:rgb(83,212,212)"/><path d="M24.984697485877394,103.39143763074276L-0.7998287892818028,67.17511207652L17.30155944067655,100.02791439920225z" style="fill:rgb(51,38,177)"/><path d="M101.62496681197467,51.5593230311911L84.91898513722437,9.84311438006559L86.53508908519726,17.17281109567398z" style="fill:rgb(246,167,149)"/><path d="M-6.85858740208933,19.07067670663943L-7.1396062021891495,62.510023604324715L-0.7998287892818028,67.17511207652zM61.56088007870422,-8.664633451416579L65.44324491159853,56.44741979535298L69.47780850947746,-6.008783273723051z" style="fill:rgb(83,212,212)"/><path d="M101.35772019416405,59.461608602686056L83.7452252540682,33.344871868881775L99.12474225721289,67.62535610661419z" style="fill:rgb(242,130,183)"/><path d="M69.47780850947746,-6.008783273723051L79.37475855193092,41.54142703654214L76.18629894783379,-1.9486203744114434zM6.62224057146193,5.380079150846935L-0.7998287892818028,67.17511207652L7.033942755328912,70.44038152097173z" style="fill:rgb(83,212,212)"/><path d="M-7.1396062021891495,62.510023604324715L17.30155944067655,100.02791439920225L-0.7998287892818028,67.17511207652z" style="fill:rgb(34,46,160)"/><path d="M86.15258287910154,25.11015435609043L101.62496681197467,51.5593230311911L86.53508908519726,17.17281109567398z" style="fill:rgb(246,149,167)"/><path d="M16.068465723682767,72.14392308489111L24.984697485877394,103.39143763074276L33.809753869240964,105.21818155450653z" style="fill:rgb(71,33,192)"/><path d="M6.62224057146193,5.380079150846935L7.033942755328912,70.44038152097173L16.068465723682767,72.14392308489111z" style="fill:rgb(83,212,212)"/><path d="M99.12474225721289,67.62535610661419L79.37475855193092,41.54142703654214L94.9826842281382,75.71796898174568z" style="fill:rgb(233,112,197)"/><path d="M76.18629894783379,-1.9486203744114434L79.37475855193092,41.54142703654214L81.41079016997543,3.393785296520026zM81.41079016997543,3.393785296520026L86.15258287910154,25.11015435609043L84.91898513722437,9.84311438006559zM15.024661337043623,-0.17326539751398343L16.068465723682767,72.14392308489111L25.94610427973938,72.18799483519776z" style="fill:rgb(83,212,212)"/><path d="M25.94610427973938,72.18799483519776L33.809753869240964,105.21818155450653L43.42723023516599,105.40677910245955z" style="fill:rgb(92,32,204)"/><path d="M-0.7998287892818028,67.17511207652L24.984697485877394,103.39143763074276L7.033942755328912,70.44038152097173z" style="fill:rgb(51,38,177)"/><path d="M83.7452252540682,33.344871868881775L101.35772019416405,59.461608602686056L86.15258287910154,25.11015435609043z" style="fill:rgb(242,130,183)"/><path d="M94.9826842281382,75.71796898174568L73.19387169405177,49.354592872785226L89.07603227459515,83.39911310402394z" style="fill:rgb(220,94,208)"/><path d="M24.15638037791727,-4.606117373654053L25.94610427973938,72.18799483519776L36.25977761029578,70.54817896879975zM84.91898513722437,9.84311438006559L86.15258287910154,25.11015435609043L86.53508908519726,17.17281109567398z" style="fill:rgb(83,212,212)"/><path d="M36.25977761029578,70.54817896879975L43.42723023516599,105.40677910245955L53.441311963368626,103.92777761198747z" style="fill:rgb(115,34,214)"/><path d="M89.07603227459515,83.39911310402394L65.44324491159853,56.44741979535298L81.6342443744468,90.33836331347767z" style="fill:rgb(203,77,216)"/><path d="M24.984697485877394,103.39143763074276L16.068465723682767,72.14392308489111L7.033942755328912,70.44038152097173z" style="fill:rgb(71,33,192)"/><path d="M81.41079016997543,3.393785296520026L83.7452252540682,33.344871868881775L86.15258287910154,25.11015435609043zM43.34512615165767,-9.537542671827559L36.25977761029578,70.54817896879975L46.572791843693544,67.27830862602559z" style="fill:rgb(83,212,212)"/><path d="M46.572791843693544,67.27830862602559L53.441311963368626,103.92777761198747L63.42909551308376,100.82862400787195z" style="fill:rgb(139,40,220)"/><path d="M65.44324491159853,56.44741979535298L72.96295347549292,96.23362077408842L81.6342443744468,90.33836331347767z" style="fill:rgb(183,62,221)"/><path d="M43.34512615165767,-9.537542671827559L46.572791843693544,67.27830862602559L56.44213912578037,62.5101528839249z" style="fill:rgb(83,212,212)"/><path d="M56.44213912578037,62.5101528839249L63.42909551308376,100.82862400787195L72.96295347549292,96.23362077408842z" style="fill:rgb(162,50,222)"/><path d="M79.37475855193092,41.54142703654214L99.12474225721289,67.62535610661419L83.7452252540682,33.344871868881775z" style="fill:rgb(233,112,197)"/><path d="M69.47780850947746,-6.008783273723051L73.19387169405177,49.354592872785226L79.37475855193092,41.54142703654214zM81.41079016997543,3.393785296520026L79.37475855193092,41.54142703654214L83.7452252540682,33.344871868881775zM61.56088007870422,-8.664633451416579L56.44213912578037,62.5101528839249L65.44324491159853,56.44741979535298zM69.47780850947746,-6.008783273723051L65.44324491159853,56.44741979535298L73.19387169405177,49.354592872785226z" style="fill:rgb(83,212,212)"/><path d="M33.809753869240964,105.21818155450653L25.94610427973938,72.18799483519776L16.068465723682767,72.14392308489111z" style="fill:rgb(92,32,204)"/><path d="M73.19387169405177,49.354592872785226L94.9826842281382,75.71796898174568L79.37475855193092,41.54142703654214z" style="fill:rgb(220,94,208)"/><path d="M43.42723023516599,105.40677910245955L36.25977761029578,70.54817896879975L25.94610427973938,72.18799483519776z" style="fill:rgb(115,34,214)"/><path d="M65.44324491159853,56.44741979535298L89.07603227459515,83.39911310402394L73.19387169405177,49.354592872785226z" style="fill:rgb(203,77,216)"/><path d="M53.441311963368626,103.92777761198747L46.572791843693544,67.27830862602559L36.25977761029578,70.54817896879975z" style="fill:rgb(139,40,220)"/><path d="M72.96295347549292,96.23362077408842L65.44324491159853,56.44741979535298L56.44213912578037,62.5101528839249z" style="fill:rgb(183,62,221)"/><path d="M63.42909551308376,100.82862400787195L56.44213912578037,62.5101528839249L46.572791843693544,67.27830862602559z" style="fill:rgb(162,50,222)"/><path d="M105.39060235570425,92.04760383222519L-3.9314793485140456,-56.764396225074776L113.8260797130405,182.74621599911939z" style="fill:rgb(247,158,158)"/><path d="M-3.9314793485140456,-56.764396225074776L2.992227485930623,205.62489749800244L113.8260797130405,182.74621599911939z" style="fill:rgb(127,37,217)"/><path d="M-3.9314793485140456,-56.764396225074776L105.39060235570425,92.04760383222519L-3.5664113993577193,-148.16905803499765z" style="fill:rgb(247,158,158)"/><path d="M2.992227485930623,205.62489749800244L-3.9314793485140456,-56.764396225074776L-140.64836335188932,-19.620665900261866z" style="fill:rgb(127,37,217)"/><path d="M-127.99002278342095,-111.55522543992348L-3.9314793485140456,-56.764396225074776L-3.5664113993577193,-148.16905803499765zM-3.9314793485140456,-56.764396225074776L-127.99002278342095,-111.55522543992348L-140.64836335188932,-19.620665900261866z" style="fill:rgb(83,212,212)"/></svg>
