<svg viewBox="-250 -250 500 500" width="500" height="500" xmlns="http://www.w3.org/2000/svg"><path d="M115.59206934676367,43.296601612722235L11.884570750400565,47.25617856840551L2.2019771343255297,51.0026694107085zM115.59206934676367,43.296601612722235L2.2019771343255297,51.0026694107085L-7.334350605089362,55.14084170673647zM115.59206934676367,43.296601612722235L21.64164190451007,43.92967894838713L11.884570750400565,47.25617856840551zM115.59206934676367,43.296601612722235L-7.334350605089362,55.14084170673647L-16.653230275924855,59.64049176846184zM115.59206934676367,43.296601612722235L31.400464567825512,41.049933365615L21.64164190451007,43.92967894838713zM115.59206934676367,43.296601612722235L-16.653230275924855,59.64049176846184L-25.68388513733615,64.46952794286888zM115.59206934676367,43.296601612722235L41.0875719194716,38.641652242781944L31.400464567825512,41.049933365615zM115.59206934676367,43.296601612722235L-25.68388513733615,64.46952794286888L-34.35612240359595,69.5939523945467zM115.59206934676367,43.296601612722235L50.62832832009236,36.72775428002672L41.0875719194716,38.641652242781944zM115.59206934676367,43.296601612722235L-34.35612240359595,69.5939523945467L-42.600174824163105,74.97737914889946zM115.59206934676367,43.296601612722235L59.94700708607767,35.32928709953047L50.62832832009236,36.72775428002672zM115.59206934676367,43.296601612722235L-42.600174824163105,74.97737914889946L-50.34666421554841,80.58146426510943zM115.59206934676367,43.296601612722235L68.96681041396279,34.464834343071814L59.94700708607767,35.32928709953047zM115.59206934676367,43.296601612722235L-50.34666421554841,80.58146426510943L-57.527044066758194,86.365302055982zM115.59206934676367,43.296601612722235L77.61008086391793,34.1508388124138L68.96681041396279,34.464834343071814zM115.59206934676367,43.296601612722235L-57.527044066758194,86.365302055982L-64.07329259860286,92.28545508283653zM115.59206934676367,43.296601612722235L85.79812637197064,34.400741757371115L77.61008086391793,34.1508388124138zM115.59206934676367,43.296601612722235L-64.07329259860286,92.28545508283653L-69.91865491494309,98.29583837123336zM115.59206934676367,43.296601612722235L93.45171229072965,35.22487593450916L85.79812637197064,34.400741757371115zM115.59206934676367,43.296601612722235L-69.91865491494309,98.29583837123336L-74.99818185733234,104.34766005045137zM115.59206934676367,43.296601612722235L100.49175137844865,36.62998027707958L93.45171229072965,35.22487593450916zM115.59206934676367,43.296601612722235L-74.99818185733234,104.34766005045137L-79.2491427952259,110.38912140467966zM115.59206934676367,43.296601612722235L106.83930119783442,38.61840884043877L100.49175137844865,36.62998027707958zM115.59206934676367,43.296601612722235L-79.2491427952259,110.38912140467966L-82.61188370976694,116.36604162852001zM115.59206934676367,43.296601612722235L-82.61188370976694,116.36604162852001L-83.02224483011356,117.35926249493872zM115.59206934676367,43.296601612722235L112.4171437648132,41.18809090732321L106.83930119783442,38.61840884043877zM-83.02224483011356,117.35926249493872L-85.03084720659777,122.22148550841592L-86.4558845187927,127.89631412969985zM-83.02224483011356,117.35926249493872L-86.4558845187927,127.89631412969985L-86.84291238640722,133.32956108130492zM-83.02224483011356,117.35926249493872L-86.84291238640722,133.32956108130492L-86.15639375730827,138.4585712827317zM-83.02224483011356,117.35926249493872L-86.15639375730827,138.4585712827317L-84.36960077854935,143.22048050394605zM125.9196240224539,66.95719969053573L117.1501304788082,44.33131215576348L115.59206934676367,43.296601612722235zM-83.02224483011356,117.35926249493872L-84.36960077854935,143.22048050394605L-81.46750078996968,147.552537264862zM125.9196240224539,66.95719969053573L120.9668063081407,48.03453301002966L117.1501304788082,44.33131215576348z" style="fill:rgb(82,237,172)"/><path d="M143.08763084117192,104.68087271481485L125.59050964446483,57.033318462564196L143.94672212719098,110.29636955118124z" style="fill:rgb(246,166,151)"/><path d="M125.9196240224539,66.95719969053573L115.59206934676367,43.296601612722235L93.03338086068898,65.07073094969488zM115.59206934676367,43.296601612722235L-83.02224483011356,117.35926249493872L25.13742430908492,130.60511864641495z" style="fill:rgb(82,237,172)"/><path d="M-59.77786446513805,193.97602794986997L-81.46750078996968,147.552537264862L-62.84205410696181,189.261099368485z" style="fill:rgb(15,71,152)"/><path d="M-83.02224483011356,117.35926249493872L-81.46750078996968,147.552537264862L-77.4473589331744,151.39331496636132zM125.9196240224539,66.95719969053573L123.80020157916069,52.277696697785835L120.9668063081407,48.03453301002966z" style="fill:rgb(82,237,172)"/><path d="M-62.84205410696181,189.261099368485L-81.46750078996968,147.552537264862L-84.36960077854935,143.22048050394605z" style="fill:rgb(15,71,152)"/><path d="M126.28542219130975,62.26654762017653L143.73384651160026,115.2925841903421L143.94672212719098,110.29636955118124z" style="fill:rgb(245,161,162)"/><path d="M143.94672212719098,110.29636955118124L125.59050964446483,57.033318462564196L126.28542219130975,62.26654762017653z" style="fill:rgb(246,166,151)"/><path d="M140.7373929650877,107.16225318546293L143.68958774504463,116.33327178489868L143.73384651160026,115.2925841903421z" style="fill:rgb(245,161,162)"/><path d="M-83.02224483011356,117.35926249493872L-77.4473589331744,151.39331496636132L-72.3208112660748,154.68392894441718zM125.9196240224539,66.95719969053573L125.59050964446483,57.033318462564196L123.80020157916069,52.277696697785835z" style="fill:rgb(82,237,172)"/><path d="M126.28542219130975,62.26654762017653L140.7373929650877,107.16225318546293L143.73384651160026,115.2925841903421z" style="fill:rgb(245,161,162)"/><path d="M-55.62003577998261,198.20446937794114L-77.4473589331744,151.39331496636132L-59.77786446513805,193.97602794986997z" style="fill:rgb(20,68,163)"/><path d="M140.7373929650877,107.16225318546293L125.84333602726977,67.93442462240354L143.68958774504463,116.33327178489868z" style="fill:rgb(245,161,162)"/><path d="M-59.77786446513805,193.97602794986997L-77.4473589331744,151.39331496636132L-81.46750078996968,147.552537264862z" style="fill:rgb(20,68,163)"/><path d="M-83.02224483011356,117.35926249493872L-72.3208112660748,154.68392894441718L-66.11475377956457,157.36924931356216zM125.9196240224539,66.95719969053573L126.28542219130975,62.26654762017653L125.59050964446483,57.033318462564196z" style="fill:rgb(82,237,172)"/><path d="M140.7373929650877,107.16225318546293L126.28542219130975,62.26654762017653L125.9196240224539,66.95719969053573z" style="fill:rgb(245,161,162)"/><path d="M143.68958774504463,116.33327178489868L125.84333602726977,67.93442462240354L142.2854522862723,122.73568650340313z" style="fill:rgb(242,155,174)"/><path d="M140.7373929650877,107.16225318546293L125.9196240224539,66.95719969053573L125.84333602726977,67.93442462240354z" style="fill:rgb(245,161,162)"/><path d="M-50.382951024838825,201.88353979331163L-72.3208112660748,154.68392894441718L-55.62003577998261,198.20446937794114z" style="fill:rgb(26,66,175)"/><path d="M-83.02224483011356,117.35926249493872L-66.11475377956457,157.36924931356216L-58.87323249578318,159.39980726447257zM121.44187706041718,80.3615054909401L125.9196240224539,66.95719969053573L93.03338086068898,65.07073094969488z" style="fill:rgb(82,237,172)"/><path d="M-55.62003577998261,198.20446937794114L-72.3208112660748,154.68392894441718L-77.4473589331744,151.39331496636132z" style="fill:rgb(26,66,175)"/><path d="M142.2854522862723,122.73568650340313L124.23417805021234,73.98582225669581L139.71710231633,129.4395719942814z" style="fill:rgb(239,149,184)"/><path d="M142.2854522862723,122.73568650340313L125.84333602726977,67.93442462240354L124.23417805021234,73.98582225669581z" style="fill:rgb(242,155,174)"/><path d="M-83.02224483011356,117.35926249493872L-58.87323249578318,159.39980726447257L-50.65723465904032,160.7328083355414z" style="fill:rgb(82,237,172)"/><path d="M-44.09647311497083,204.95430198392327L-66.11475377956457,157.36924931356216L-50.382951024838825,201.88353979331163z" style="fill:rgb(32,65,185)"/><path d="M121.44187706041718,80.3615054909401L125.84333602726977,67.93442462240354L125.9196240224539,66.95719969053573zM-83.02224483011356,117.35926249493872L-50.65723465904032,160.7328083355414L-41.545850469757895,161.33392307149245z" style="fill:rgb(82,237,172)"/><path d="M-50.382951024838825,201.88353979331163L-66.11475377956457,157.36924931356216L-72.3208112660748,154.68392894441718z" style="fill:rgb(32,65,185)"/><path d="M139.71710231633,129.4395719942814L121.44187706041718,80.3615054909401L135.98254880008167,136.37333935832325z" style="fill:rgb(234,143,195)"/><path d="M139.71710231633,129.4395719942814L124.23417805021234,73.98582225669581L121.44187706041718,80.3615054909401z" style="fill:rgb(239,149,184)"/><path d="M121.44187706041718,80.3615054909401L93.03338086068898,65.07073094969488L25.13742430908492,130.60511864641495zM121.44187706041718,80.3615054909401L124.23417805021234,73.98582225669581L125.84333602726977,67.93442462240354zM-83.02224483011356,117.35926249493872L-41.545850469757895,161.33392307149245L-31.635587101991504,161.1785868315038z" style="fill:rgb(82,237,172)"/><path d="M-36.80637496155171,207.3627447054789L-58.87323249578318,159.39980726447257L-44.09647311497083,204.95430198392327z" style="fill:rgb(40,64,196)"/><path d="M-83.02224483011356,117.35926249493872L-31.635587101991504,161.1785868315038L-21.039490259770442,160.2531467617627z" style="fill:rgb(82,237,172)"/><path d="M-44.09647311497083,204.95430198392327L-58.87323249578318,159.39980726447257L-66.11475377956457,157.36924931356216z" style="fill:rgb(40,64,196)"/><path d="M135.98254880008167,136.37333935832325L117.46601258419449,86.99403730254721L131.09638497294512,143.457908280888z" style="fill:rgb(228,137,204)"/><path d="M135.98254880008167,136.37333935832325L121.44187706041718,80.3615054909401L117.46601258419449,86.99403730254721z" style="fill:rgb(234,143,195)"/><path d="M-83.02224483011356,117.35926249493872L-21.039490259770442,160.2531467617627L-9.885999093225019,158.5562885161939z" style="fill:rgb(82,237,172)"/><path d="M-28.57571494919881,209.0617995884861L-50.65723465904032,160.7328083355414L-36.80637496155171,207.3627447054789z" style="fill:rgb(49,63,205)"/><path d="M-83.02224483011356,117.35926249493872L-9.885999093225019,158.5562885161939L1.683232484321143,156.09937627295702zM-83.02224483011356,117.35926249493872L1.683232484321143,156.09937627295702L13.516069771625263,152.90679520710185z" style="fill:rgb(82,237,172)"/><path d="M-36.80637496155171,207.3627447054789L-50.65723465904032,160.7328083355414L-58.87323249578318,159.39980726447257z" style="fill:rgb(49,63,205)"/><path d="M131.09638497294512,143.457908280888L112.32330187882702,93.80898367386206L125.091441047112,150.60836014912834z" style="fill:rgb(221,130,213)"/><path d="M-83.02224483011356,117.35926249493872L13.516069771625263,152.90679520710185L25.45322876211261,149.01596976971152zM-83.02224483011356,117.35926249493872L48.98785598067624,139.35007081464158L58.337860267498506,134.67103509346538zM-83.02224483011356,117.35926249493872L37.33146158633232,144.47654067493966L48.98785598067624,139.35007081464158zM-83.02224483011356,117.35926249493872L25.45322876211261,149.01596976971152L37.33146158633232,144.47654067493966z" style="fill:rgb(82,237,172)"/><path d="M131.09638497294512,143.457908280888L117.46601258419449,86.99403730254721L112.32330187882702,93.80898367386206z" style="fill:rgb(228,137,204)"/><path d="M121.44187706041718,80.3615054909401L112.32330187882702,93.80898367386206L117.46601258419449,86.99403730254721z" style="fill:rgb(82,237,172)"/><path d="M-19.48457274754847,210.01261140041322L-41.545850469757895,161.33392307149245L-28.57571494919881,209.0617995884861z" style="fill:rgb(58,64,214)"/><path d="M125.091441047112,150.60836014912834L106.04867587757916,100.72521875860967L118.01870802684236,157.73479909911669z" style="fill:rgb(213,124,221)"/><path d="M-28.57571494919881,209.0617995884861L-41.545850469757895,161.33392307149245L-50.65723465904032,160.7328083355414z" style="fill:rgb(58,64,214)"/><path d="M121.44187706041718,80.3615054909401L106.04867587757916,100.72521875860967L112.32330187882702,93.80898367386206z" style="fill:rgb(82,237,172)"/><path d="M125.091441047112,150.60836014912834L112.32330187882702,93.80898367386206L106.04867587757916,100.72521875860967z" style="fill:rgb(221,130,213)"/><path d="M-9.629942892242262,210.18610663489017L-31.635587101991504,161.1785868315038L-19.48457274754847,210.01261140041322z" style="fill:rgb(69,65,222)"/><path d="M121.44187706041718,80.3615054909401L98.69646153655562,107.65639898739032L106.04867587757916,100.72521875860967z" style="fill:rgb(82,237,172)"/><path d="M118.01870802684236,157.73479909911669L98.69646153655562,107.65639898739032L109.94855060918589,164.74416734345957z" style="fill:rgb(204,117,228)"/><path d="M-19.48457274754847,210.01261140041322L-31.635587101991504,161.1785868315038L-41.545850469757895,161.33392307149245z" style="fill:rgb(69,65,222)"/><path d="M0.8753862536905888,209.56448247692092L-21.039490259770442,160.2531467617627L-9.629942892242262,210.18610663489017z" style="fill:rgb(79,66,228)"/><path d="M118.01870802684236,157.73479909911669L106.04867587757916,100.72521875860967L98.69646153655562,107.65639898739032z" style="fill:rgb(213,124,221)"/><path d="M121.44187706041718,80.3615054909401L90.34038533545059,114.51232553098475L98.69646153655562,107.65639898739032zM121.44187706041718,80.3615054909401L25.13742430908492,130.60511864641495L58.337860267498506,134.67103509346538z" style="fill:rgb(82,237,172)"/><path d="M109.94855060918589,164.74416734345957L90.34038533545059,114.51232553098475L100.96987185839559,171.54181701517305z" style="fill:rgb(195,111,234)"/><path d="M121.44187706041718,80.3615054909401L81.07292275066617,121.20081461489389L90.34038533545059,114.51232553098475z" style="fill:rgb(82,237,172)"/><path d="M-9.629942892242262,210.18610663489017L-21.039490259770442,160.2531467617627L-31.635587101991504,161.1785868315038z" style="fill:rgb(79,66,228)"/><path d="M11.90396792598418,208.14196369790477L-9.885999093225019,158.5562885161939L0.8753862536905888,209.56448247692092z" style="fill:rgb(91,68,234)"/><path d="M109.94855060918589,164.74416734345957L98.69646153655562,107.65639898739032L90.34038533545059,114.51232553098475z" style="fill:rgb(204,117,228)"/><path d="M121.44187706041718,80.3615054909401L71.0047678292344,127.62934043472082L81.07292275066617,121.20081461489389z" style="fill:rgb(82,237,172)"/><path d="M100.96987185839559,171.54181701517305L81.07292275066617,121.20081461489389L91.18911142486853,178.0339604862197z" style="fill:rgb(184,105,239)"/><path d="M23.31576532420365,205.9260030318048L1.683232484321143,156.09937627295702L11.90396792598418,208.14196369790477z" style="fill:rgb(102,71,239)"/><path d="M121.44187706041718,80.3615054909401L60.26278845142883,133.7077893970946L71.0047678292344,127.62934043472082z" style="fill:rgb(82,237,172)"/><path d="M0.8753862536905888,209.56448247692092L-9.885999093225019,158.5562885161939L-21.039490259770442,160.2531467617627z" style="fill:rgb(91,68,234)"/><path d="M121.44187706041718,80.3615054909401L58.337860267498506,134.67103509346538L60.26278845142883,133.7077893970946z" style="fill:rgb(82,237,172)"/><path d="M91.18911142486853,178.0339604862197L71.0047678292344,127.62934043472082L80.72885750456939,184.12924177750935z" style="fill:rgb(174,99,242)"/><path d="M100.96987185839559,171.54181701517305L90.34038533545059,114.51232553098475L81.07292275066617,121.20081461489389z" style="fill:rgb(195,111,234)"/><path d="M34.96145925183925,202.93736430929468L13.516069771625263,152.90679520710185L23.31576532420365,205.9260030318048z" style="fill:rgb(114,75,243)"/><path d="M61.90664151705569,143.4426804736031L69.72512159365567,189.7415558769009L78.85019053066355,185.08741001618637zM60.26278845142883,133.7077893970946L78.85019053066355,185.08741001618637L80.72885750456939,184.12924177750935z" style="fill:rgb(162,93,245)"/><path d="M58.337860267498506,134.67103509346538L78.85019053066355,185.08741001618637L79.03269825708247,185.1175654257062z" style="fill:rgb(49,63,205)"/><path d="M46.684485061715364,199.2102092718305L25.45322876211261,149.01596976971152L34.96145925183925,202.93736430929468z" style="fill:rgb(126,79,245)"/><path d="M11.90396792598418,208.14196369790477L1.683232484321143,156.09937627295702L-9.885999093225019,158.5562885161939z" style="fill:rgb(102,71,239)"/><path d="M69.72512159365567,189.7415558769009L48.98785598067624,139.35007081464158L58.32536175329256,194.79187780808473z" style="fill:rgb(151,88,246)"/><path d="M58.32536175329256,194.79187780808473L37.33146158633232,144.47654067493966L46.684485061715364,199.2102092718305z" style="fill:rgb(139,83,246)"/><path d="M91.18911142486853,178.0339604862197L81.07292275066617,121.20081461489389L71.0047678292344,127.62934043472082z" style="fill:rgb(184,105,239)"/><path d="M23.31576532420365,205.9260030318048L13.516069771625263,152.90679520710185L1.683232484321143,156.09937627295702z" style="fill:rgb(114,75,243)"/><path d="M60.26278845142883,133.7077893970946L61.90664151705569,143.4426804736031L78.85019053066355,185.08741001618637z" style="fill:rgb(162,93,245)"/><path d="M80.72885750456939,184.12924177750935L71.0047678292344,127.62934043472082L60.26278845142883,133.7077893970946z" style="fill:rgb(174,99,242)"/><path d="M61.90664151705569,143.4426804736031L48.98785598067624,139.35007081464158L69.72512159365567,189.7415558769009z" style="fill:rgb(162,93,245)"/><path d="M58.337860267498506,134.67103509346538L79.03269825708247,185.1175654257062L58.52083889133563,134.69344370873324z" style="fill:rgb(49,63,205)"/><path d="M34.96145925183925,202.93736430929468L25.45322876211261,149.01596976971152L13.516069771625263,152.90679520710185z" style="fill:rgb(126,79,245)"/><path d="M134.72052986020375,127.846549693685L205.33828663784496,121.28598735774307L187.86606121776805,70.51066974468112z" style="fill:rgb(217,127,217)"/><path d="M58.52083889133563,134.69344370873324L79.03269825708247,185.1175654257062L106.82595510910053,189.70988774432573z" style="fill:rgb(49,63,205)"/><path d="M46.684485061715364,199.2102092718305L37.33146158633232,144.47654067493966L25.45322876211261,149.01596976971152z" style="fill:rgb(139,83,246)"/><path d="M58.32536175329256,194.79187780808473L48.98785598067624,139.35007081464158L37.33146158633232,144.47654067493966z" style="fill:rgb(151,88,246)"/><path d="M61.90664151705569,143.4426804736031L60.26278845142883,133.7077893970946L58.337860267498506,134.67103509346538zM61.90664151705569,143.4426804736031L58.337860267498506,134.67103509346538L48.98785598067624,139.35007081464158z" style="fill:rgb(162,93,245)"/><path d="M134.72052986020375,127.846549693685L154.41130609881785,180.46959344307447L205.33828663784496,121.28598735774307z" style="fill:rgb(217,127,217)"/><path d="M58.52083889133563,134.69344370873324L106.82595510910053,189.70988774432573L86.40156207937373,138.1078775164067zM40.55881829281183,132.49371166026867L-86.78112166465206,-135.9354502426618L25.13742430908492,130.60511864641495zM86.40156207937373,138.1078775164067L106.82595510910053,189.70988774432573L141.52656428254033,195.44347659668887z" style="fill:rgb(49,63,205)"/><path d="M134.72052986020375,127.846549693685L141.52656428254033,195.44347659668887L154.41130609881785,180.46959344307447zM187.86606121776805,70.51066974468112L92.69956000286847,-206.04909636551497L133.4698536380486,129.19566258620202z" style="fill:rgb(217,127,217)"/><path d="M86.40156207937373,138.1078775164067L141.52656428254033,195.44347659668887L121.25284854245322,142.37596661645938z" style="fill:rgb(49,63,205)"/><path d="M134.72052986020375,127.846549693685L133.4698536380486,129.19566258620202L141.52656428254033,195.44347659668887zM121.25284854245322,142.37596661645938L141.52656428254033,195.44347659668887L133.4698536380486,129.19566258620202z" style="fill:rgb(217,127,217)"/><path d="M92.69956000286847,-206.04909636551497L-3.7174271092757554,-188.5303985893288L-86.78112166465206,-135.9354502426618z" style="fill:rgb(82,237,172)"/><path d="M121.25284854245322,142.37596661645938L9.67990406446206,-149.6723496856401L40.55881829281183,132.49371166026867zM40.55881829281183,132.49371166026867L9.67990406446206,-149.6723496856401L-86.78112166465206,-135.9354502426618z" style="fill:rgb(49,63,205)"/><path d="M133.4698536380486,129.19566258620202L9.67990406446206,-149.6723496856401L121.25284854245322,142.37596661645938zM133.4698536380486,129.19566258620202L92.69956000286847,-206.04909636551497L9.67990406446206,-149.6723496856401z" style="fill:rgb(217,127,217)"/><path d="M92.69956000286847,-206.04909636551497L-86.78112166465206,-135.9354502426618L9.67990406446206,-149.6723496856401z" style="fill:rgb(82,237,172)"/></svg>