<svg viewBox="-250 -250 500 500" width="500" height="500" xmlns="http://www.w3.org/2000/svg"><path d="M-5.230710034028219,-77.46511411642737L-18.716701676333706,-73.73093935909326L-25.318719326924953,-70.77879620769755zM-5.225790362030483,-78.37142890539036L-12.041556177594336,-76.48266341737701L-18.716701676333706,-73.73093935909326zM-5.236851035054128,-76.3337255356085L-25.318719326924953,-70.77879620769755L-31.83744491048672,-67.63119502099707zM-5.222096956575792,-79.05189100386092L-5.303531691262504,-79.02929220037942L-12.041556177594336,-76.48266341737701zM-5.244208178120247,-74.97832200946237L-31.83744491048672,-67.63119502099707L-38.26282364258604,-64.29304858506926zM-5.222096956575792,-79.05189100386092L-12.041556177594336,-76.48266341737701L-5.225171325815535,-78.48550807997823zM-5.222067313482115,-79.05731777926731L-5.303531691262504,-79.02929220037942L-5.222089580249132,-79.05322245362785z" style="fill:rgb(83,212,212)"/><path d="M-5.222089580249132,-79.05322245362785L-5.303531691262504,-79.02929220037942L-5.222096956575792,-79.05189100386092z" style="fill:rgb(83,213,211)"/><path d="M-5.225171325815535,-78.48550807997823L-12.041556177594336,-76.48266341737701L-5.225790362030483,-78.37142890539036zM-5.225790362030483,-78.37142890539036L-18.716701676333706,-73.73093935909326L-5.22948173662835,-77.69136843880568zM-5.222089580249132,-79.05322245362785L1.4869906039910818,-81.36624390383514L-5.222067313482115,-79.05731777926731zM-5.22948173662835,-77.69136843880568L-18.716701676333706,-73.73093935909326L-5.230710034028219,-77.46511411642737zM-5.252774575447204,-73.40017261600778L-38.26282364258604,-64.29304858506926L-44.584833168574114,-60.76962082625186zM-5.230710034028219,-77.46511411642737L-25.318719326924953,-70.77879620769755L-5.2350171905367775,-76.67156708899546zM-5.2350171905367775,-76.67156708899546L-25.318719326924953,-70.77879620769755L-5.236851035054128,-76.3337255356085zM-5.262542038323409,-71.60070997380188L-44.584833168574114,-60.76962082625186L-50.793582381467594,-57.066161332045795zM-5.236851035054128,-76.3337255356085L-31.83744491048672,-67.63119502099707L-5.241772602279352,-75.42702027516168zM-5.241772602279352,-75.42702027516168L-31.83744491048672,-67.63119502099707L-5.244208178120247,-74.97832200946237zM-5.244208178120247,-74.97832200946237L-38.26282364258604,-64.29304858506926L-5.2497418450226725,-73.95885676804232zM-5.222089580249132,-79.05322245362785L22.067821596265404,-87.07532709318444L1.4869906039910818,-81.36624390383514zM-5.273501330812521,-69.58168395705886L-50.793582381467594,-57.066161332045795L-56.879200026752294,-53.1881693616312zM1.4869906039910818,-81.36624390383514L15.183366734255218,-85.3934845467868L8.319490032129002,-83.4890797363386z" style="fill:rgb(83,212,212)"/><path d="M28.96191958291343,-88.53061770734868L-5.222089580249132,-79.05322245362785L-5.222096956575792,-79.05189100386092z" style="fill:rgb(83,213,211)"/><path d="M-5.2497418450226725,-73.95885676804232L-38.26282364258604,-64.29304858506926L-5.252774575447204,-73.40017261600778zM28.96191958291343,-88.53061770734868L-5.222096956575792,-79.05189100386092L-5.225171325815535,-78.48550807997823zM-5.252774575447204,-73.40017261600778L-44.584833168574114,-60.76962082625186L-5.25891732688285,-72.26845449228483zM-5.28564164188707,-67.34505154220469L-56.879200026752294,-53.1881693616312L-62.831934912048666,-49.14127310508336zM15.183366734255218,-85.3934845467868L1.4869906039910818,-81.36624390383514L22.067821596265404,-87.07532709318444zM35.85461570423961,-89.75553139246573L-5.225171325815535,-78.48550807997823L-5.225790362030483,-78.37142890539036zM-5.25891732688285,-72.26845449228483L-44.584833168574114,-60.76962082625186L-5.262542038323409,-71.60070997380188zM35.85461570423961,-89.75553139246573L-5.225790362030483,-78.37142890539036L-5.22948173662835,-77.69136843880568zM28.96191958291343,-88.53061770734868L22.067821596265404,-87.07532709318444L-5.222089580249132,-79.05322245362785zM-5.262542038323409,-71.60070997380188L-50.793582381467594,-57.066161332045795L-5.26929052853258,-70.3574106193512zM-5.298951167720075,-64.89307081079298L-62.831934912048666,-49.14127310508336L-68.64200902086277,-44.93137747730184zM42.73460455039091,-90.74639779390091L-5.22948173662835,-77.69136843880568L-5.230710034028219,-77.46511411642737zM-5.26929052853258,-70.3574106193512L-50.793582381467594,-57.066161332045795L-5.273501330812521,-69.58168395705886zM42.73460455039091,-90.74639779390091L-5.230710034028219,-77.46511411642737L-5.2350171905367775,-76.67156708899546zM35.85461570423961,-89.75553139246573L28.96191958291343,-88.53061770734868L-5.225171325815535,-78.48550807997823zM-5.273501330812521,-69.58168395705886L-56.879200026752294,-53.1881693616312L-5.280851413620539,-68.22759507673713zM49.59045484077388,-91.49972592953056L-5.2350171905367775,-76.67156708899546L-5.236851035054128,-76.3337255356085zM-5.313415988882927,-62.228222666230245L-68.64200902086277,-44.93137747730184L-74.29969523157567,-40.56441967671415zM-5.280851413620539,-68.22759507673713L-56.879200026752294,-53.1881693616312L-5.28564164188707,-67.34505154220469zM49.59045484077388,-91.49972592953056L-5.236851035054128,-76.3337255356085L-5.241772602279352,-75.42702027516168zM42.73460455039091,-90.74639779390091L35.85461570423961,-89.75553139246573L-5.22948173662835,-77.69136843880568zM-5.28564164188707,-67.34505154220469L-62.831934912048666,-49.14127310508336L-5.293588521409411,-65.88102896872886zM56.41052013590695,-92.01221661899662L-5.241772602279352,-75.42702027516168L-5.244208178120247,-74.97832200946237zM-5.329021054402782,-59.353279714807115L-74.29969523157567,-40.56441967671415L-79.79538852582141,-36.046628320852285zM-5.293588521409411,-65.88102896872886L-62.831934912048666,-49.14127310508336L-5.298951167720075,-64.89307081079298zM56.41052013590695,-92.01221661899662L-5.244208178120247,-74.97832200946237L-5.2497418450226725,-73.95885676804232zM49.59045484077388,-91.49972592953056L42.73460455039091,-90.74639779390091L-5.2350171905367775,-76.67156708899546zM-5.298951167720075,-64.89307081079298L-68.64200902086277,-44.93137747730184L-5.307488979120617,-63.32015327429449zM63.18299342854766,-92.28082891638336L-5.2497418450226725,-73.95885676804232L-5.252774575447204,-73.40017261600778zM-5.345749710054147,-56.27136265387173L-79.79538852582141,-36.046628320852285L-85.11944792739014,-31.384441941020214zM-5.307488979120617,-63.32015327429449L-68.64200902086277,-44.93137747730184L-5.313415988882927,-62.228222666230245zM63.18299342854766,-92.28082891638336L-5.252774575447204,-73.40017261600778L-5.25891732688285,-72.26845449228483zM56.41052013590695,-92.01221661899662L49.59045484077388,-91.49972592953056L-5.241772602279352,-75.42702027516168zM-5.313415988882927,-62.228222666230245L-74.29969523157567,-40.56441967671415L-5.322538540711515,-60.54758564165475zM69.8958008469625,-92.30265314764421L-5.25891732688285,-72.26845449228483L-5.262542038323409,-71.60070997380188zM-5.322538540711515,-60.54758564165475L-74.29969523157567,-40.56441967671415L-5.329021054402782,-59.353279714807115zM-5.363583275366622,-52.985892033362774L-85.11944792739014,-31.384441941020214L-90.2622634283685,-26.58448088130617zM69.8958008469625,-92.30265314764421L-5.262542038323409,-71.60070997380188L-5.26929052853258,-70.3574106193512zM-5.329021054402782,-59.353279714807115L-79.79538852582141,-36.046628320852285L-5.338721185866527,-57.566263500032214zM63.18299342854766,-92.28082891638336L56.41052013590695,-92.01221661899662L-5.2497418450226725,-73.95885676804232zM76.5367444337183,-92.07503301041692L-5.26929052853258,-70.3574106193512L-5.273501330812521,-69.58168395705886zM-5.338721185866527,-57.566263500032214L-79.79538852582141,-36.046628320852285L-5.345749710054147,-56.27136265387173zM-5.382501548345134,-49.50062156777291L-90.2622634283685,-26.58448088130617L-95.21430205095571,-21.653571534751777zM76.5367444337183,-92.07503301041692L-5.273501330812521,-69.58168395705886L-5.280851413620539,-68.22759507673713zM-5.345749710054147,-56.27136265387173L-85.11944792739014,-31.384441941020214L-5.356019167572108,-54.37942106955661zM69.8958008469625,-92.30265314764421L63.18299342854766,-92.28082891638336L-5.25891732688285,-72.26845449228483zM83.09336123470935,-91.59560189009075L-5.280851413620539,-68.22759507673713L-5.28564164188707,-67.34505154220469zM-5.356019167572108,-54.37942106955661L-85.11944792739014,-31.384441941020214L-5.363583275366622,-52.985892033362774zM83.09336123470935,-91.59560189009075L-5.28564164188707,-67.34505154220469L-5.293588521409411,-65.88102896872886zM-5.411109404840753,-44.230172167042696L-95.21430205095571,-21.653571534751777L-99.96601478884855,-16.59888099597901zM-5.363583275366622,-52.985892033362774L-90.2622634283685,-26.58448088130617L-5.374413345685661,-50.99067603675727zM76.5367444337183,-92.07503301041692L69.8958008469625,-92.30265314764421L-5.26929052853258,-70.3574106193512zM89.55304724085107,-90.86231226083353L-5.293588521409411,-65.88102896872886L-5.298951167720075,-64.89307081079298zM-5.374413345685661,-50.99067603675727L-90.2622634283685,-26.58448088130617L-5.382501548345134,-49.50062156777291zM89.55304724085107,-90.86231226083353L-5.298951167720075,-64.89307081079298L-5.307488979120617,-63.32015327429449zM-5.432629721489173,-40.26553213891494L-99.96601478884855,-16.59888099597901L-104.5079327655006,-11.427699128298107zM-5.382501548345134,-49.50062156777291L-95.21430205095571,-21.653571534751777L-5.3938820949659005,-47.40395259022242zM83.09336123470935,-91.59560189009075L76.5367444337183,-92.07503301041692L-5.280851413620539,-68.22759507673713zM95.90295127665009,-89.87327646761273L-5.307488979120617,-63.32015327429449L-5.313415988882927,-62.228222666230245zM-5.3938820949659005,-47.40395259022242L-95.21430205095571,-21.653571534751777L-5.402482034870111,-45.81959264840984zM95.90295127665009,-89.87327646761273L-5.313415988882927,-62.228222666230245L-5.322538540711515,-60.54758564165475zM-5.445531106247413,-37.88867227087909L-104.5079327655006,-11.427699128298107L-108.83063769973047,-6.14770653954383zM-5.402482034870111,-45.81959264840984L-95.21430205095571,-21.653571534751777L-5.411109404840753,-44.230172167042696zM89.55304724085107,-90.86231226083353L83.09336123470935,-91.59560189009075L-5.293588521409411,-65.88102896872886zM102.13002289426659,-88.62707296400683L-5.322538540711515,-60.54758564165475L-5.329021054402782,-59.353279714807115zM-5.411109404840753,-44.230172167042696L-99.96601478884855,-16.59888099597901L-5.423500663412959,-41.94733554538129zM102.13002289426659,-88.62707296400683L-5.329021054402782,-59.353279714807115L-5.338721185866527,-57.566263500032214zM-5.468544557677212,-33.648916881168084L-108.83063769973047,-6.14770653954383L-112.92477340214232,-0.7667881336647072zM-5.423500663412959,-41.94733554538129L-99.96601478884855,-16.59888099597901L-5.432629721489173,-40.26553213891494zM95.90295127665009,-89.87327646761273L89.55304724085107,-90.86231226083353L-5.307488979120617,-63.32015327429449zM108.22104082362968,-87.12253740295638L-5.338721185866527,-57.566263500032214L-5.345749710054147,-56.27136265387173zM-5.432629721489173,-40.26553213891494L-104.5079327655006,-11.427699128298107L-5.445531106247413,-37.88867227087909zM108.22104082362968,-87.12253740295638L-5.345749710054147,-56.27136265387173L-5.356019167572108,-54.37942106955661zM-5.49251033899626,-29.23371055300931L-112.92477340214232,-0.7667881336647072L-116.78099639439766,4.706849149607984zM-5.445531106247413,-37.88867227087909L-108.83063769973047,-6.14770653954383L-5.458493950806276,-35.50053976554605zM102.13002289426659,-88.62707296400683L95.90295127665009,-89.87327646761273L-5.322538540711515,-60.54758564165475zM114.16258130953247,-85.35894005752228L-5.356019167572108,-54.37942106955661L-5.363583275366622,-52.985892033362774zM-5.458493950806276,-35.50053976554605L-108.83063769973047,-6.14770653954383L-5.468544557677212,-33.648916881168084zM114.16258130953247,-85.35894005752228L-5.363583275366622,-52.985892033362774L-5.374413345685661,-50.99067603675727zM-5.517394882499677,-24.649241034283303L-116.78099639439766,4.706849149607984L-120.3901114558469,10.264710452804875zM-5.468544557677212,-33.648916881168084L-112.92477340214232,-0.7667881336647072L-5.482008020747941,-31.168548452638273zM108.22104082362968,-87.12253740295638L102.13002289426659,-88.62707296400683L-5.338721185866527,-57.566263500032214zM119.94116095575752,-83.33597196373258L-5.374413345685661,-50.99067603675727L-5.382501548345134,-49.50062156777291zM-5.482008020747941,-31.168548452638273L-112.92477340214232,-0.7667881336647072L-5.49251033899626,-29.23371055300931zM119.94116095575752,-83.33597196373258L-5.382501548345134,-49.50062156777291L-5.3938820949659005,-47.40395259022242zM-5.554559991170661,-17.80236444310178L-120.3901114558469,10.264710452804875L-123.74292812380732,15.89796981018201zM-5.49251033899626,-29.23371055300931L-116.78099639439766,4.706849149607984L-5.5064588835207555,-26.664011992791053zM125.54303523615407,-81.05364307406879L-5.3938820949659005,-47.40395259022242L-5.402482034870111,-45.81959264840984zM114.16258130953247,-85.35894005752228L108.22104082362968,-87.12253740295638L-5.356019167572108,-54.37942106955661zM-5.5064588835207555,-26.664011992791053L-116.78099639439766,4.706849149607984L-5.517394882499677,-24.649241034283303zM-5.569774716970886,-14.999327781931914L-123.74292812380732,15.89796981018201L-126.8304262512753,21.59750888229756zM130.95437777652086,-78.51259362585756L-5.402482034870111,-45.81959264840984L-5.411109404840753,-44.230172167042696zM-5.517394882499677,-24.649241034283303L-120.3901114558469,10.264710452804875L-5.531811933957571,-21.99322797562412zM130.95437777652086,-78.51259362585756L-5.411109404840753,-44.230172167042696L-5.423500663412959,-41.94733554538129zM119.94116095575752,-83.33597196373258L114.16258130953247,-85.35894005752228L-5.374413345685661,-50.99067603675727zM-5.531811933957571,-21.99322797562412L-120.3901114558469,10.264710452804875L-5.5431625271916865,-19.902076312388004zM-5.597190227998715,-9.948618729804512L-126.8304262512753,21.59750888229756L-129.64378029040174,27.353758033819084zM-5.5431625271916865,-19.902076312388004L-120.3901114558469,10.264710452804875L-5.554559991170661,-17.80236444310178zM136.16126692781845,-75.71392253441616L-5.423500663412959,-41.94733554538129L-5.432629721489173,-40.26553213891494zM136.16126692781845,-75.71392253441616L-5.432629721489173,-40.26553213891494L-5.445531106247413,-37.88867227087909zM125.54303523615407,-81.05364307406879L119.94116095575752,-83.33597196373258L-5.3938820949659005,-47.40395259022242zM-5.554559991170661,-17.80236444310178L-123.74292812380732,15.89796981018201L-5.569774716970886,-14.999327781931914zM136.16126692781845,-75.71392253441616L-5.445531106247413,-37.88867227087909L-5.458493950806276,-35.50053976554605zM-5.6253648974641335,-4.757971041989166L-129.64378029040174,27.353758033819084L-132.17418641462598,33.15696011549393zM-5.569774716970886,-14.999327781931914L-126.8304262512753,21.59750888229756L-5.585072982837065,-12.180931618062006zM130.95437777652086,-78.51259362585756L125.54303523615407,-81.05364307406879L-5.402482034870111,-45.81959264840984zM141.14979414383026,-72.65917789800926L-5.458493950806276,-35.50053976554605L-5.468544557677212,-33.648916881168084zM-5.585072982837065,-12.180931618062006L-126.8304262512753,21.59750888229756L-5.597190227998715,-9.948618729804512zM141.14979414383026,-72.65917789800926L-5.468544557677212,-33.648916881168084L-5.482008020747941,-31.168548452638273zM-5.654252153420137,0.5638791733742526L-132.17418641462598,33.15696011549393L-134.4130977059571,38.996865704620554zM-5.597190227998715,-9.948618729804512L-129.64378029040174,27.353758033819084L-5.6128987390430805,-7.05460134870763zM136.16126692781845,-75.71392253441616L130.95437777652086,-78.51259362585756L-5.423500663412959,-41.94733554538129zM145.90583313898543,-69.35058623426013L-5.482008020747941,-31.168548452638273L-5.49251033899626,-29.23371055300931zM-5.6128987390430805,-7.05460134870763L-129.64378029040174,27.353758033819084L-5.6253648974641335,-4.757971041989166zM145.90583313898543,-69.35058623426013L-5.49251033899626,-29.23371055300931L-5.5064588835207555,-26.664011992791053zM-5.683801752389915,6.007831598460046L-134.4130977059571,38.996865704620554L-136.35220214011076,44.862934685523385zM-5.6253648974641335,-4.757971041989166L-132.17418641462598,33.15696011549393L-5.641461441391949,-1.7925089819555593zM150.4154692970254,-65.79101079746809L-5.5064588835207555,-26.664011992791053L-5.517394882499677,-24.649241034283303zM141.14979414383026,-72.65917789800926L136.16126692781845,-75.71392253441616L-5.458493950806276,-35.50053976554605zM-5.641461441391949,-1.7925089819555593L-132.17418641462598,33.15696011549393L-5.654252153420137,0.5638791733742526zM150.4154692970254,-65.79101079746809L-5.517394882499677,-24.649241034283303L-5.531811933957571,-21.99322797562412zM-5.727383654431665,14.036904732325539L-136.35220214011076,44.862934685523385L-137.9833950561517,50.74424438924629zM-5.654252153420137,0.5638791733742526L-134.4130977059571,38.996865704620554L-5.670712858951213,3.5964685813376267zM154.66477734447795,-61.98387791304484L-5.531811933957571,-21.99322797562412L-5.5431625271916865,-19.902076312388004zM145.90583313898543,-69.35058623426013L141.14979414383026,-72.65917789800926L-5.482008020747941,-31.168548452638273zM-5.670712858951213,3.5964685813376267L-134.4130977059571,38.996865704620554L-5.683801752389915,6.007831598460046zM-5.744674174540397,17.222332235895852L-137.9833950561517,50.74424438924629L-139.2989034651528,56.629434344287695zM158.63986593908183,-57.93329184031276L-5.5431625271916865,-19.902076312388004L-5.554559991170661,-17.80236444310178zM-5.683801752389915,6.007831598460046L-136.35220214011076,44.862934685523385L-5.700601478018818,9.102836006521763zM158.63986593908183,-57.93329184031276L-5.554559991170661,-17.80236444310178L-5.569774716970886,-14.999327781931914zM150.4154692970254,-65.79101079746809L145.90583313898543,-69.35058623426013L-5.5064588835207555,-26.664011992791053zM-5.700601478018818,9.102836006521763L-136.35220214011076,44.862934685523385L-5.713961276230634,11.56406964091275zM158.63986593908183,-57.93329184031276L-5.569774716970886,-14.999327781931914L-5.585072982837065,-12.180931618062006zM-5.713961276230634,11.56406964091275L-136.35220214011076,44.862934685523385L-5.727383654431665,14.036904732325539zM-5.775881932858333,22.971687092754745L-139.2989034651528,56.629434344287695L-140.29119387216645,62.50689814450562zM162.32705560863832,-53.644180577048004L-5.585072982837065,-12.180931618062006L-5.597190227998715,-9.948618729804512zM154.66477734447795,-61.98387791304484L150.4154692970254,-65.79101079746809L-5.531811933957571,-21.99322797562412zM-5.727383654431665,14.036904732325539L-137.9833950561517,50.74424438924629L-5.744674174540397,17.222332235895852zM162.32705560863832,-53.644180577048004L-5.597190227998715,-9.948618729804512L-5.6128987390430805,-7.05460134870763zM-5.807522043704852,28.80072996831634L-140.29119387216645,62.50689814450562L-140.95322774243678,68.3645278040978zM-5.744674174540397,17.222332235895852L-139.2989034651528,56.629434344287695L-5.7620696389950545,20.427050006126063zM165.71286210741363,-49.122148490913695L-5.6128987390430805,-7.05460134870763L-5.6253648974641335,-4.757971041989166zM158.63986593908183,-57.93329184031276L154.66477734447795,-61.98387791304484L-5.5431625271916865,-19.902076312388004zM-5.7620696389950545,20.427050006126063L-139.2989034651528,56.629434344287695L-5.775881932858333,22.971687092754745zM165.71286210741363,-49.122148490913695L-5.6253648974641335,-4.757971041989166L-5.641461441391949,-1.7925089819555593zM-5.853734246244353,37.31442379649155L-140.95322774243678,68.3645278040978L-141.2782145820336,74.18999133749628zM-5.775881932858333,22.971687092754745L-140.29119387216645,62.50689814450562L-5.7935308165779915,26.223131875006644zM168.78416414290135,-44.37355630888633L-5.641461441391949,-1.7925089819555593L-5.654252153420137,0.5638791733742526zM162.32705560863832,-53.644180577048004L158.63986593908183,-57.93329184031276L-5.585072982837065,-12.180931618062006zM-5.7935308165779915,26.223131875006644L-140.29119387216645,62.50689814450562L-5.807522043704852,28.80072996831634zM168.78416414290135,-44.37355630888633L-5.654252153420137,0.5638791733742526L-5.670712858951213,3.5964685813376267zM-5.871834747653746,40.64907194165196L-141.2782145820336,74.18999133749628L-141.2600707850431,79.97042332587576zM-5.807522043704852,28.80072996831634L-140.95322774243678,68.3645278040978L-5.825392545919478,32.093045582024985zM171.52803679528208,-39.405686191981836L-5.670712858951213,3.5964685813376267L-5.683801752389915,6.007831598460046zM165.71286210741363,-49.122148490913695L162.32705560863832,-53.644180577048004L-5.6128987390430805,-7.05460134870763zM-5.825392545919478,32.093045582024985L-140.95322774243678,68.3645278040978L-5.839529007724849,34.69740029885767zM171.52803679528208,-39.405686191981836L-5.683801752389915,6.007831598460046L-5.700601478018818,9.102836006521763zM-5.839529007724849,34.69740029885767L-140.95322774243678,68.3645278040978L-5.853734246244353,37.31442379649155zM-5.904367771827033,46.642577199598605L-141.2600707850431,79.97042332587576L-140.89294498418568,85.6927656249953zM173.93214858923866,-34.22656401975566L-5.700601478018818,9.102836006521763L-5.713961276230634,11.56406964091275zM-5.853734246244353,37.31442379649155L-141.2782145820336,74.18999133749628L-5.871834747653746,40.64907194165196zM168.78416414290135,-44.37355630888633L165.71286210741363,-49.122148490913695L-5.641461441391949,-1.7925089819555593zM175.98450769970145,-28.845158298167505L-5.713961276230634,11.56406964091275L-5.727383654431665,14.036904732325539zM-5.937053300507324,52.66421984428319L-140.89294498418568,85.6927656249953L-140.1717714041779,91.34358322941559zM-5.871834747653746,40.64907194165196L-141.2600707850431,79.97042332587576L-5.890047534434563,44.00440637594239zM175.98450769970145,-28.845158298167505L-5.727383654431665,14.036904732325539L-5.744674174540397,17.222332235895852zM-5.890047534434563,44.00440637594239L-141.2600707850431,79.97042332587576L-5.904367771827033,46.642577199598605zM171.52803679528208,-39.405686191981836L168.78416414290135,-44.37355630888633L-5.670712858951213,3.5964685813376267zM175.98450769970145,-28.845158298167505L-5.744674174540397,17.222332235895852L-5.7620696389950545,20.427050006126063zM-5.969814114390689,58.69973373510722L-140.1717714041779,91.34358322941559L-139.09210471713612,96.90910017668521zM-5.904367771827033,46.642577199598605L-140.89294498418568,85.6927656249953L-5.922697699228686,50.01949617401108zM177.67384580212934,-23.271284665700232L-5.7620696389950545,20.427050006126063L-5.775881932858333,22.971687092754745zM-5.922697699228686,50.01949617401108L-140.89294498418568,85.6927656249953L-5.937053300507324,52.66421984428319zM173.93214858923866,-34.22656401975566L171.52803679528208,-39.405686191981836L-5.700601478018818,9.102836006521763zM177.67384580212934,-23.271284665700232L-5.775881932858333,22.971687092754745L-5.7935308165779915,26.223131875006644zM-6.002570035308777,64.73434079327265L-139.09210471713612,96.90910017668521L-137.65000135158093,102.37528192686497zM-5.937053300507324,52.66421984428319L-140.1717714041779,91.34358322941559L-5.955462246830228,56.055734672674745zM178.9894185387246,-17.515623637447824L-5.7935308165779915,26.223131875006644L-5.807522043704852,28.80072996831634zM175.98450769970145,-28.845158298167505L173.93214858923866,-34.22656401975566L-5.713961276230634,11.56406964091275zM-5.955462246830228,56.055734672674745L-140.1717714041779,91.34358322941559L-5.969814114390689,58.69973373510722zM178.9894185387246,-17.515623637447824L-5.807522043704852,28.80072996831634L-5.825392545919478,32.093045582024985zM-6.035238402845184,70.7528635619127L-137.65000135158093,102.37528192686497L-135.84253845595885,107.7278386445493zM32.64046744039969,35.56520267733642L-5.895824915741182,45.06877199634786L-5.904367771827033,46.642577199598605zM-5.969814114390689,58.69973373510722L-139.09210471713612,96.90910017668521L-5.988262890907121,62.09854217715956zM179.9213827542308,-11.58983505693613L-5.825392545919478,32.093045582024985L-5.839529007724849,34.69740029885767zM-5.988262890907121,62.09854217715956L-139.09210471713612,96.90910017668521L-6.002570035308777,64.73434079327265zM32.768642879545325,39.7932077893188L-5.904367771827033,46.642577199598605L-5.922697699228686,50.01949617401108zM177.67384580212934,-23.271284665700232L175.98450769970145,-28.845158298167505L-5.7620696389950545,20.427050006126063zM32.64046744039969,35.56520267733642L-5.904367771827033,46.642577199598605L32.68821412827091,37.140177016994556zM180.4605969003663,-5.506474566377719L-5.839529007724849,34.69740029885767L-5.853734246244353,37.31442379649155zM32.768642879545325,39.7932077893188L32.68821412827091,37.140177016994556L-5.904367771827033,46.642577199598605zM32.870908286773385,43.166546456493215L-5.922697699228686,50.01949617401108L-5.937053300507324,52.66421984428319zM-6.081891257014319,79.34769876281968L-135.84253845595885,107.7278386445493L-133.6674717175866,112.95225047676212zM-6.002570035308777,64.73434079327265L-137.65000135158093,102.37528192686497L-6.0210176843351775,68.13294714578169zM180.4605969003663,-5.506474566377719L-5.853734246244353,37.31442379649155L-5.871834747653746,40.64907194165196z" style="fill:rgb(83,212,212)"/><path d="M180.6804638111268,-14.885708778332964L175.98450769970145,-28.845158298167505L182.37467930924223,-9.30441834366096z" style="fill:rgb(246,165,150)"/><path d="M32.870908286773385,43.166546456493215L32.768642879545325,39.7932077893188L-5.922697699228686,50.01949617401108zM-6.0210176843351775,68.13294714578169L-137.65000135158093,102.37528192686497L-6.035238402845184,70.7528635619127zM32.95154296143172,45.826369405749574L-5.937053300507324,52.66421984428319L-5.955462246830228,56.055734672674745zM180.4605969003663,-5.506474566377719L-5.871834747653746,40.64907194165196L-5.890047534434563,44.00440637594239zM178.9894185387246,-17.515623637447824L177.67384580212934,-23.271284665700232L-5.7935308165779915,26.223131875006644zM32.95154296143172,45.826369405749574L32.870908286773385,43.166546456493215L-5.937053300507324,52.66421984428319z" style="fill:rgb(83,212,212)"/><path d="M-112.64327404751774,144.21758048593398L-121.2782992149567,132.2731777532262L-116.29438384421383,139.64490542419864z" style="fill:rgb(27,51,151)"/><path d="M-6.099969759036561,82.67829396967241L-133.6674717175866,112.95225047676212L-131.1233716094122,118.03384934633239zM33.05404261711958,49.20743359934056L-5.955462246830228,56.055734672674745L-5.969814114390689,58.69973373510722zM180.56258337478462,-0.9143381668201742L-5.890047534434563,44.00440637594239L-5.895824915741182,45.06877199634786zM-6.035238402845184,70.7528635619127L-135.84253845595885,107.7278386445493L-6.053642664684542,74.14347685953823z" style="fill:rgb(83,212,212)"/><path d="M182.37467930924223,-9.30441834366096L177.67384580212934,-23.271284665700232L183.69979780059916,-3.544801022956396z" style="fill:rgb(247,161,155)"/><path d="M33.05404261711958,49.20743359934056L32.95154296143172,45.826369405749574L-5.955462246830228,56.055734672674745z" style="fill:rgb(83,212,212)"/><path d="M-116.29438384421383,139.64490542419864L-121.2782992149567,132.2731777532262L-124.92765632449104,127.70926517973507z" style="fill:rgb(27,51,151)"/><path d="M-6.053642664684542,74.14347685953823L-135.84253845595885,107.7278386445493L-6.067734079990647,76.7395306885429z" style="fill:rgb(83,212,212)"/><path d="M182.37467930924223,-9.30441834366096L175.98450769970145,-28.845158298167505L177.67384580212934,-23.271284665700232z" style="fill:rgb(246,165,150)"/><path d="M33.13466258481395,51.86677433467907L-5.969814114390689,58.69973373510722L-5.988262890907121,62.09854217715956zM179.9213827542308,-11.58983505693613L178.9894185387246,-17.515623637447824L-5.825392545919478,32.093045582024985zM-6.067734079990647,76.7395306885429L-135.84253845595885,107.7278386445493L-6.081891257014319,79.34769876281968zM33.13466258481395,51.86677433467907L33.05404261711958,49.20743359934056L-5.969814114390689,58.69973373510722zM-6.131856259258462,88.55272915252324L-131.1233716094122,118.03384934633239L-128.20986772749734,122.95781864794724zM33.237169014757875,55.24806124087443L-5.988262890907121,62.09854217715956L-6.002570035308777,64.73434079327265z" style="fill:rgb(83,212,212)"/><path d="M-108.63340893286052,148.58968451094265L-117.26470472999088,136.63473128437445L-112.64327404751774,144.21758048593398z" style="fill:rgb(31,49,156)"/><path d="M180.56258337478462,-0.9143381668201742L32.64046744039969,35.56520267733642L32.68821412827091,37.140177016994556zM-6.081891257014319,79.34769876281968L-133.6674717175866,112.95225047676212L-6.099969759036561,82.67829396967241zM180.4605969003663,-5.506474566377719L179.9213827542308,-11.58983505693613L-5.839529007724849,34.69740029885767zM33.237169014757875,55.24806124087443L33.13466258481395,51.86677433467907L-5.988262890907121,62.09854217715956z" style="fill:rgb(83,212,212)"/><path d="M183.69979780059916,-3.544801022956396L178.9894185387246,-17.515623637447824L184.64607448628735,2.381515385985333z" style="fill:rgb(247,157,159)"/><path d="M-112.64327404751774,144.21758048593398L-117.26470472999088,136.63473128437445L-121.2782992149567,132.2731777532262z" style="fill:rgb(31,49,156)"/><path d="M33.31754429224134,57.89932761437886L-6.002570035308777,64.73434079327265L-6.0210176843351775,68.13294714578169z" style="fill:rgb(83,212,212)"/><path d="M183.69979780059916,-3.544801022956396L177.67384580212934,-23.271284665700232L178.9894185387246,-17.515623637447824z" style="fill:rgb(247,161,155)"/><path d="M32.768642879545325,39.7932077893188L180.59893007708806,0.7209826931289569L32.68821412827091,37.140177016994556zM33.31754429224134,57.89932761437886L33.237169014757875,55.24806124087443L-6.002570035308777,64.73434079327265zM32.870908286773385,43.166546456493215L180.59893007708806,0.7209826931289569L32.768642879545325,39.7932077893188zM33.41982529871871,61.27317866673026L-6.0210176843351775,68.13294714578169L-6.035238402845184,70.7528635619127zM-6.163302702956693,94.34605840720896L-128.20986772749734,122.95781864794724L-124.92765632449104,127.70926517973507z" style="fill:rgb(83,212,212)"/><path d="M-104.26893192048172,152.74649616041003L-112.89086193715609,140.77907322715444L-108.63340893286052,148.58968451094265z" style="fill:rgb(34,46,160)"/><path d="M-6.099969759036561,82.67829396967241L-131.1233716094122,118.03384934633239L-6.118156046833245,86.0287485194871zM33.41982529871871,61.27317866673026L33.31754429224134,57.89932761437886L-6.0210176843351775,68.13294714578169zM-6.118156046833245,86.0287485194871L-131.1233716094122,118.03384934633239L-6.131856259258462,88.55272915252324z" style="fill:rgb(83,212,212)"/><path d="M184.64607448628735,2.381515385985333L179.9213827542308,-11.58983505693613L185.20453597811772,8.461860099804067z" style="fill:rgb(247,152,163)"/><path d="M33.4997190905524,63.90856369844068L-6.035238402845184,70.7528635619127L-6.053642664684542,74.14347685953823zM180.56258337478462,-0.9143381668201742L180.4605969003663,-5.506474566377719L-5.890047534434563,44.00440637594239z" style="fill:rgb(83,212,212)"/><path d="M-108.63340893286052,148.58968451094265L-112.89086193715609,140.77907322715444L-117.26470472999088,136.63473128437445z" style="fill:rgb(34,46,160)"/><path d="M184.64607448628735,2.381515385985333L178.9894185387246,-17.515623637447824L179.9213827542308,-11.58983505693613z" style="fill:rgb(247,157,159)"/><path d="M32.95154296143172,45.826369405749574L180.32925433577677,7.078199960878401L32.870908286773385,43.166546456493215zM33.4997190905524,63.90856369844068L33.41982529871871,61.27317866673026L-6.035238402845184,70.7528635619127zM33.5769532596007,66.45622216149229L-6.053642664684542,74.14347685953823L-6.063338239683331,75.92963990559355zM33.05404261711958,49.20743359934056L180.32925433577677,7.078199960878401L32.95154296143172,45.826369405749574z" style="fill:rgb(83,212,212)"/><path d="M-99.55521468306813,156.67346533444106L-108.16200271796006,144.6915957104883L-104.26893192048172,152.74649616041003z" style="fill:rgb(38,44,164)"/><path d="M-6.131856259258462,88.55272915252324L-128.20986772749734,122.95781864794724L-6.149866013771658,91.87062058614558zM-6.207399851726127,102.4701031638335L-124.92765632449104,127.70926517973507L-121.2782992149567,132.2731777532262zM33.5769532596007,66.45622216149229L33.4997190905524,63.90856369844068L-6.053642664684542,74.14347685953823z" style="fill:rgb(83,212,212)"/><path d="M184.09148108254067,9.433711947403127L185.36712799517912,14.682699587276796L185.32440414891866,13.049205729279056zM180.4605969003663,-5.506474566377719L185.32440414891866,13.049205729279056L185.20453597811772,8.461860099804067z" style="fill:rgb(246,148,167)"/><path d="M-6.149866013771658,91.87062058614558L-128.20986772749734,122.95781864794724L-6.163302702956693,94.34605840720896z" style="fill:rgb(83,212,212)"/><path d="M-104.26893192048172,152.74649616041003L-108.16200271796006,144.6915957104883L-112.89086193715609,140.77907322715444z" style="fill:rgb(38,44,164)"/><path d="M180.56258337478462,-0.9143381668201742L32.68821412827091,37.140177016994556L180.59893007708806,0.7209826931289569z" style="fill:rgb(83,212,212)"/><path d="M185.20453597811772,8.461860099804067L179.9213827542308,-11.58983505693613L180.4605969003663,-5.506474566377719z" style="fill:rgb(247,152,163)"/><path d="M33.13466258481395,51.86677433467907L179.6456504342401,13.549880526704937L33.05404261711958,49.20743359934056z" style="fill:rgb(83,212,212)"/><path d="M180.4605969003663,-5.506474566377719L184.09148108254067,9.433711947403127L185.32440414891866,13.049205729279056z" style="fill:rgb(246,148,167)"/><path d="M33.237169014757875,55.24806124087443L179.6456504342401,13.549880526704937L33.13466258481395,51.86677433467907zM-6.224505442861591,105.62145121238655L-121.2782992149567,132.2731777532262L-117.26470472999088,136.63473128437445zM-6.163302702956693,94.34605840720896L-124.92765632449104,127.70926517973507L-6.181089513091873,97.62291522303143z" style="fill:rgb(83,212,212)"/><path d="M-94.49902444202358,160.35622212008752L-103.08478901624238,148.35795411010815L-99.55521468306813,156.67346533444106z" style="fill:rgb(42,42,168)"/><path d="M184.09148108254067,9.433711947403127L180.59893007708806,0.7209826931289569L185.36712799517912,14.682699587276796z" style="fill:rgb(246,148,167)"/><path d="M32.870908286773385,43.166546456493215L180.32925433577677,7.078199960878401L180.59893007708806,0.7209826931289569zM-6.181089513091873,97.62291522303143L-124.92765632449104,127.70926517973507L-6.194216610461655,100.04135580254551z" style="fill:rgb(83,212,212)"/><path d="M32.64046744039969,35.56520267733642L-1.143098882913076,-31.94396661239965L33.411675294096376,61.00434175591262z" style="fill:rgb(247,158,158)"/><path d="M185.36712799517912,14.682699587276796L180.59893007708806,0.7209826931289569L185.1268818367501,21.029653313112398z" style="fill:rgb(245,143,171)"/><path d="M-99.55521468306813,156.67346533444106L-103.08478901624238,148.35795411010815L-108.16200271796006,144.6915957104883z" style="fill:rgb(42,42,168)"/><path d="M33.31754429224134,57.89932761437886L178.543220206813,20.119929572065946L33.237169014757875,55.24806124087443zM-6.194216610461655,100.04135580254551L-124.92765632449104,127.70926517973507L-6.207399851726127,102.4701031638335z" style="fill:rgb(83,212,212)"/><path d="M184.09148108254067,9.433711947403127L180.4605969003663,-5.506474566377719L180.56258337478462,-0.9143381668201742z" style="fill:rgb(246,148,167)"/><path d="M33.41982529871871,61.27317866673026L178.543220206813,20.119929572065946L33.31754429224134,57.89932761437886z" style="fill:rgb(83,212,212)"/><path d="M184.09148108254067,9.433711947403127L180.56258337478462,-0.9143381668201742L180.59893007708806,0.7209826931289569z" style="fill:rgb(246,148,167)"/><path d="M-6.2540751805086225,111.06907627397601L-117.26470472999088,136.63473128437445L-112.89086193715609,140.77907322715444z" style="fill:rgb(83,212,212)"/><path d="M-89.10828771739413,163.7808199126594L-97.6670549216094,151.7640417792745L-94.49902444202358,160.35622212008752z" style="fill:rgb(46,40,173)"/><path d="M-6.063338239683331,75.92963990559355L-6.067734079990647,76.7395306885429L175.0694301977726,33.4866476362433zM-6.207399851726127,102.4701031638335L-121.2782992149567,132.2731777532262L-6.224505442861591,105.62145121238655zM33.05404261711958,49.20743359934056L179.6456504342401,13.549880526704937L180.32925433577677,7.078199960878401z" style="fill:rgb(83,212,212)"/><path d="M185.1268818367501,21.029653313112398L180.32925433577677,7.078199960878401L184.47792981332992,27.48740548686919z" style="fill:rgb(244,139,175)"/><path d="M-94.49902444202358,160.35622212008752L-97.6670549216094,151.7640417792745L-103.08478901624238,148.35795411010815z" style="fill:rgb(46,40,173)"/><path d="M33.4997190905524,63.90856369844068L177.01852705295997,26.77145587997517L33.41982529871871,61.27317866673026z" style="fill:rgb(83,212,212)"/><path d="M185.1268818367501,21.029653313112398L180.59893007708806,0.7209826931289569L180.32925433577677,7.078199960878401z" style="fill:rgb(245,143,171)"/><path d="M-6.067734079990647,76.7395306885429L-6.081891257014319,79.34769876281968L172.69524504209332,40.247100560719225zM33.5769532596007,66.45622216149229L177.01852705295997,26.77145587997517L33.4997190905524,63.90856369844068zM-6.224505442861591,105.62145121238655L-117.26470472999088,136.63473128437445L-6.241705569466554,108.79018259261612zM-6.2828322869429325,116.36694104280122L-112.89086193715609,140.77907322715444L-108.16200271796006,144.6915957104883zM-6.081891257014319,79.34769876281968L-6.099969759036561,82.67829396967241L172.69524504209332,40.247100560719225z" style="fill:rgb(83,212,212)"/><path d="M-83.39238170259321,166.9337038666397L-91.9181000311212,154.8962702351764L-89.10828771739413,163.7808199126594z" style="fill:rgb(50,38,176)"/><path d="M-6.241705569466554,108.79018259261612L-117.26470472999088,136.63473128437445L-6.2540751805086225,111.06907627397601zM33.237169014757875,55.24806124087443L178.543220206813,20.119929572065946L179.6456504342401,13.549880526704937zM-6.099969759036561,82.67829396967241L-6.118156046833245,86.0287485194871L172.69524504209332,40.247100560719225z" style="fill:rgb(83,212,212)"/><path d="M184.47792981332992,27.48740548686919L179.6456504342401,13.549880526704937L183.4154578167313,34.03989691773888z" style="fill:rgb(243,134,179)"/><path d="M-89.10828771739413,163.7808199126594L-91.9181000311212,154.8962702351764L-97.6670549216094,151.7640417792745z" style="fill:rgb(50,38,176)"/><path d="M184.47792981332992,27.48740548686919L180.32925433577677,7.078199960878401L179.6456504342401,13.549880526704937z" style="fill:rgb(244,139,175)"/><path d="M0.7161553495223378,74.30945803065315L-43.17106699278468,9.834806281627255L-6.063338239683331,75.92963990559355z" style="fill:rgb(127,37,217)"/><path d="M-6.2540751805086225,111.06907627397601L-112.89086193715609,140.77907322715444L-6.270910811000777,114.1706523738772zM-6.31068305171918,121.49788027354006L-108.16200271796006,144.6915957104883L-103.08478901624238,148.35795411010815zM-6.118156046833245,86.0287485194871L-6.131856259258462,88.55272915252324L169.8968563290541,47.03366743341608z" style="fill:rgb(83,212,212)"/><path d="M-77.36206436284263,169.8018027705847L-85.84865974469855,157.7414556742634L-83.39238170259321,166.9337038666397z" style="fill:rgb(55,36,180)"/><path d="M-6.270910811000777,114.1706523738772L-112.89086193715609,140.77907322715444L-6.2828322869429325,116.36694104280122zM33.41982529871871,61.27317866673026L177.01852705295997,26.77145587997517L178.543220206813,20.119929572065946zM-6.131856259258462,88.55272915252324L-6.149866013771658,91.87062058614558L169.8968563290541,47.03366743341608z" style="fill:rgb(83,212,212)"/><path d="M183.4154578167313,34.03989691773888L178.543220206813,20.119929572065946L181.93609662933406,40.670128008858875z" style="fill:rgb(241,130,183)"/><path d="M-83.39238170259321,166.9337038666397L-85.84865974469855,157.7414556742634L-91.9181000311212,154.8962702351764z" style="fill:rgb(55,36,180)"/><path d="M183.4154578167313,34.03989691773888L179.6456504342401,13.549880526704937L178.543220206813,20.119929572065946z" style="fill:rgb(243,134,179)"/><path d="M-6.2828322869429325,116.36694104280122L-108.16200271796006,144.6915957104883L-6.2992557761644585,119.39267523627242zM-6.063338239683331,75.92963990559355L175.0694301977726,33.4866476362433L175.3330114440764,32.57861477359299zM-6.149866013771658,91.87062058614558L-6.163302702956693,94.34605840720896L166.6767193045838,53.82666469870587z" style="fill:rgb(83,212,212)"/><path d="M33.5769532596007,66.45622216149229L-1.1781639177660441,-0.9872151585779814L0.7161553495223378,74.30945803065315z" style="fill:rgb(127,37,217)"/><path d="M-71.02943042318545,172.3726084785154L-79.47079667151199,160.28712672639642L-77.36206436284263,169.8018027705847z" style="fill:rgb(59,35,184)"/><path d="M-6.34846055009356,128.45761347426537L-103.08478901624238,148.35795411010815L-97.6670549216094,151.7640417792745z" style="fill:rgb(83,212,212)"/><path d="M179.6343060410363,44.60954717504378L180.03772777289032,47.360499135913486L180.2944177355253,46.45583603441208z" style="fill:rgb(240,125,187)"/><path d="M-6.2992557761644585,119.39267523627242L-108.16200271796006,144.6915957104883L-6.31068305171918,121.49788027354006z" style="fill:rgb(83,212,212)"/><path d="M33.411675294096376,61.00434175591262L-1.1781639177660441,-0.9872151585779814L33.5769532596007,66.45622216149229z" style="fill:rgb(247,158,158)"/><path d="M33.5769532596007,66.45622216149229L175.3330114440764,32.57861477359299L177.01852705295997,26.77145587997517zM-6.163302702956693,94.34605840720896L-6.181089513091873,97.62291522303143L166.6767193045838,53.82666469870587zM-6.067734079990647,76.7395306885429L172.69524504209332,40.247100560719225L175.0694301977726,33.4866476362433z" style="fill:rgb(83,212,212)"/><path d="M177.01852705295997,26.77145587997517L180.2944177355253,46.45583603441208L181.93609662933406,40.670128008858875z" style="fill:rgb(240,125,187)"/><path d="M-77.36206436284263,169.8018027705847L-79.47079667151199,160.28712672639642L-85.84865974469855,157.7414556742634z" style="fill:rgb(59,35,184)"/><path d="M181.93609662933406,40.670128008858875L178.543220206813,20.119929572065946L177.01852705295997,26.77145587997517z" style="fill:rgb(241,130,183)"/><path d="M177.01852705295997,26.77145587997517L179.6343060410363,44.60954717504378L180.2944177355253,46.45583603441208z" style="fill:rgb(240,125,187)"/><path d="M-6.31068305171918,121.49788027354006L-103.08478901624238,148.35795411010815L-6.326647568619175,124.43901674587421zM-6.181089513091873,97.62291522303143L-6.194216610461655,100.04135580254551L163.03887872246807,60.605785582074965zM-6.363297370654246,131.19103677617875L-97.6670549216094,151.7640417792745L-91.9181000311212,154.8962702351764z" style="fill:rgb(83,212,212)"/><path d="M-64.40807973089457,174.63432092354645L-72.79816783196131,162.52141524291227L-71.02943042318545,172.3726084785154z" style="fill:rgb(64,34,188)"/><path d="M-6.326647568619175,124.43901674587421L-103.08478901624238,148.35795411010815L-6.337535163148833,126.44487139870228z" style="fill:rgb(83,212,212)"/><path d="M179.6343060410363,44.60954717504378L175.0694301977726,33.4866476362433L180.03772777289032,47.360499135913486z" style="fill:rgb(240,125,187)"/><path d="M-6.337535163148833,126.44487139870228L-103.08478901624238,148.35795411010815L-6.34846055009356,128.45761347426537z" style="fill:rgb(83,212,212)"/><path d="M180.03772777289032,47.360499135913486L175.0694301977726,33.4866476362433L177.71967865722576,54.09253278859563z" style="fill:rgb(238,121,190)"/><path d="M-6.194216610461655,100.04135580254551L-6.207399851726127,102.4701031638335L158.98912295946835,67.35034760549959zM-6.118156046833245,86.0287485194871L169.8968563290541,47.03366743341608L172.69524504209332,40.247100560719225z" style="fill:rgb(83,212,212)"/><path d="M-71.02943042318545,172.3726084785154L-72.79816783196131,162.52141524291227L-79.47079667151199,160.28712672639642z" style="fill:rgb(64,34,188)"/><path d="M179.6343060410363,44.60954717504378L177.01852705295997,26.77145587997517L175.3330114440764,32.57861477359299z" style="fill:rgb(240,125,187)"/><path d="M-6.207399851726127,102.4701031638335L-6.224505442861591,105.62145121238655L158.98912295946835,67.35034760549959z" style="fill:rgb(83,212,212)"/><path d="M-57.51289543007953,176.57595730545393L-65.84568645954519,164.43327587904852L-64.40807973089457,174.63432092354645z" style="fill:rgb(69,33,191)"/><path d="M-6.34846055009356,128.45761347426537L-97.6670549216094,151.7640417792745L-6.363297370654246,131.19103677617875z" style="fill:rgb(83,212,212)"/><path d="M179.6343060410363,44.60954717504378L175.3330114440764,32.57861477359299L175.0694301977726,33.4866476362433z" style="fill:rgb(240,125,187)"/><path d="M-6.39758610070823,137.5079979452106L-91.9181000311212,154.8962702351764L-85.84865974469855,157.7414556742634zM-6.224505442861591,105.62145121238655L-6.241705569466554,108.79018259261612L158.98912295946835,67.35034760549959z" style="fill:rgb(83,212,212)"/><path d="M177.71967865722576,54.09253278859563L172.69524504209332,40.247100560719225L174.9827705229409,60.84720721405986z" style="fill:rgb(235,116,194)"/><path d="M-6.149866013771658,91.87062058614558L166.6767193045838,53.82666469870587L169.8968563290541,47.03366743341608z" style="fill:rgb(83,212,212)"/><path d="M-64.40807973089457,174.63432092354645L-65.84568645954519,164.43327587904852L-72.79816783196131,162.52141524291227z" style="fill:rgb(69,33,191)"/><path d="M33.411675294096376,61.00434175591262L-1.143098882913076,-31.94396661239965L-1.1781639177660441,-0.9872151585779814z" style="fill:rgb(247,158,158)"/><path d="M177.71967865722576,54.09253278859563L175.0694301977726,33.4866476362433L172.69524504209332,40.247100560719225z" style="fill:rgb(238,121,190)"/><path d="M-6.363297370654246,131.19103677617875L-91.9181000311212,154.8962702351764L-6.3782039602076175,133.93722985389257zM-6.241705569466554,108.79018259261612L-6.2540751805086225,111.06907627397601L154.5349944564934,74.03946976631525z" style="fill:rgb(83,212,212)"/><path d="M-50.36024559208984,178.18734340474776L-58.62985785875772,166.01253009852599L-57.51289543007953,176.57595730545393z" style="fill:rgb(74,32,194)"/><path d="M-6.411196954275926,140.0155115488008L-85.84865974469855,157.7414556742634L-79.47079667151199,160.28712672639642zM-6.3782039602076175,133.93722985389257L-91.9181000311212,154.8962702351764L-6.387880212118188,135.71991964552933zM-6.2540751805086225,111.06907627397601L-6.270910811000777,114.1706523738772L154.5349944564934,74.03946976631525zM-6.387880212118188,135.71991964552933L-91.9181000311212,154.8962702351764L-6.39758610070823,137.5079979452106z" style="fill:rgb(83,212,212)"/><path d="M174.9827705229409,60.84720721405986L169.8968563290541,47.03366743341608L171.82946175528156,67.60490102472616z" style="fill:rgb(233,112,197)"/><path d="M-6.181089513091873,97.62291522303143L163.03887872246807,60.605785582074965L166.6767193045838,53.82666469870587z" style="fill:rgb(83,212,212)"/><path d="M-57.51289543007953,176.57595730545393L-58.62985785875772,166.01253009852599L-65.84568645954519,164.43327587904852z" style="fill:rgb(74,32,194)"/><path d="M174.9827705229409,60.84720721405986L172.69524504209332,40.247100560719225L169.8968563290541,47.03366743341608z" style="fill:rgb(235,116,194)"/><path d="M-6.270910811000777,114.1706523738772L-6.2828322869429325,116.36694104280122L149.6856943870418,80.65179223201557zM-6.39758610070823,137.5079979452106L-85.84865974469855,157.7414556742634L-6.411196954275926,140.0155115488008z" style="fill:rgb(83,212,212)"/><path d="M-42.967889702113304,179.45926796465736L-51.168441108082554,167.24999422543058L-50.36024559208984,178.18734340474776z" style="fill:rgb(79,32,198)"/><path d="M-6.433163101341357,144.06233436312561L-79.47079667151199,160.28712672639642L-72.79816783196131,162.52141524291227z" style="fill:rgb(83,212,212)"/><path d="M0.7161553495223378,74.30945803065315L-1.1781639177660441,-0.9872151585779814L-43.17106699278468,9.834806281627255z" style="fill:rgb(127,37,217)"/><path d="M-6.2828322869429325,116.36694104280122L-6.2992557761644585,119.39267523627242L149.6856943870418,80.65179223201557zM-43.17106699278468,9.834806281627255L-1.143098882913076,-31.94396661239965L-41.89913532246923,-21.128949351096075zM-6.194216610461655,100.04135580254551L158.98912295946835,67.35034760549959L163.03887872246807,60.605785582074965z" style="fill:rgb(83,212,212)"/><path d="M171.82946175528156,67.60490102472616L166.6767193045838,53.82666469870587L168.26370570054408,74.34552771559534z" style="fill:rgb(230,107,200)"/><path d="M-6.411196954275926,140.0155115488008L-79.47079667151199,160.28712672639642L-6.424865532438193,142.53371887843127zM-6.2992557761644585,119.39267523627242L-6.31068305171918,121.49788027354006L144.45219248359527,87.16599172715291z" style="fill:rgb(83,212,212)"/><path d="M-50.36024559208984,178.18734340474776L-51.168441108082554,167.24999422543058L-58.62985785875772,166.01253009852599z" style="fill:rgb(79,32,198)"/><path d="M171.82946175528156,67.60490102472616L169.8968563290541,47.03366743341608L166.6767193045838,53.82666469870587z" style="fill:rgb(233,112,197)"/><path d="M-35.354793302858695,180.38362486496288L-43.48069002427984,168.13741714723957L-42.967889702113304,179.45926796465736z" style="fill:rgb(85,32,201)"/><path d="M-6.424865532438193,142.53371887843127L-79.47079667151199,160.28712672639642L-6.433163101341357,144.06233436312561zM-6.453698134944597,147.84553775065962L-72.79816783196131,162.52141524291227L-65.84568645954519,164.43327587904852zM-6.31068305171918,121.49788027354006L-6.326647568619175,124.43901674587421L144.45219248359527,87.16599172715291z" style="fill:rgb(83,212,212)"/><path d="M168.26370570054408,74.34552771559534L163.03887872246807,60.605785582074965L164.29115034006318,81.04854922204065z" style="fill:rgb(227,103,203)"/><path d="M-6.241705569466554,108.79018259261612L154.5349944564934,74.03946976631525L158.98912295946835,67.35034760549959zM-6.433163101341357,144.06233436312561L-72.79816783196131,162.52141524291227L-6.446148976868785,146.4547084694791zM-6.326647568619175,124.43901674587421L-6.337535163148833,126.44487139870228L138.8471853158873,93.56077374616515z" style="fill:rgb(83,212,212)"/><path d="M-42.967889702113304,179.45926796465736L-43.48069002427984,168.13741714723957L-51.168441108082554,167.24999422543058z" style="fill:rgb(85,32,201)"/><path d="M168.26370570054408,74.34552771559534L166.6767193045838,53.82666469870587L163.03887872246807,60.605785582074965z" style="fill:rgb(230,107,200)"/><path d="M-6.446148976868785,146.4547084694791L-72.79816783196131,162.52141524291227L-6.453698134944597,147.84553775065962z" style="fill:rgb(83,212,212)"/><path d="M-27.54129945631043,180.95336115088654L-35.58714150493312,168.66789407077147L-35.354793302858695,180.38362486496288z" style="fill:rgb(90,32,203)"/><path d="M-6.472725929452884,151.35101223409657L-65.84568645954519,164.43327587904852L-58.62985785875772,166.01253009852599zM-6.337535163148833,126.44487139870228L-6.34846055009356,128.45761347426537L132.88513538572857,99.81487854330538z" style="fill:rgb(83,212,212)"/><path d="M164.29115034006318,81.04854922204065L158.98912295946835,67.35034760549959L159.91918676821436,87.69310409732032z" style="fill:rgb(223,98,205)"/><path d="M-6.34846055009356,128.45761347426537L-6.363297370654246,131.19103677617875L132.88513538572857,99.81487854330538zM-6.453698134944597,147.84553775065962L-65.84568645954519,164.43327587904852L-6.465961090383791,150.10468609234871zM-6.270910811000777,114.1706523738772L149.6856943870418,80.65179223201557L154.5349944564934,74.03946976631525z" style="fill:rgb(83,212,212)"/><path d="M-35.354793302858695,180.38362486496288L-35.58714150493312,168.66789407077147L-43.48069002427984,168.13741714723957z" style="fill:rgb(90,32,203)"/><path d="M-6.465961090383791,150.10468609234871L-65.84568645954519,164.43327587904852L-6.472725929452884,151.35101223409657z" style="fill:rgb(83,212,212)"/><path d="M-19.548969090345917,181.16264165907748L-27.50946175368055,168.83560974017837L-27.54129945631043,180.95336115088654z" style="fill:rgb(96,32,206)"/><path d="M164.29115034006318,81.04854922204065L163.03887872246807,60.605785582074965L158.98912295946835,67.35034760549959z" style="fill:rgb(227,103,203)"/><path d="M-6.363297370654246,131.19103677617875L-6.3782039602076175,133.93722985389257L132.88513538572857,99.81487854330538zM-6.490174225775439,154.56546218734115L-58.62985785875772,166.01253009852599L-51.168441108082554,167.24999422543058z" style="fill:rgb(83,212,212)"/><path d="M159.91918676821436,87.69310409732032L154.5349944564934,74.03946976631525L155.15682789704198,94.25817389458842z" style="fill:rgb(220,94,208)"/><path d="M-6.472725929452884,151.35101223409657L-58.62985785875772,166.01253009852599L-6.484227275374534,153.46990912860335zM-6.3782039602076175,133.93722985389257L-6.387880212118188,135.71991964552933L126.58216454976426,105.9073108276501zM-6.2992557761644585,119.39267523627242L144.45219248359527,87.16599172715291L149.6856943870418,80.65179223201557zM-1.143098882913076,-31.94396661239965L-43.17106699278468,9.834806281627255L-1.1781639177660441,-0.9872151585779814zM-6.484227275374534,153.46990912860335L-58.62985785875772,166.01253009852599L-6.490174225775439,154.56546218734115z" style="fill:rgb(83,212,212)"/><path d="M-11.400464279567053,181.0070214372183L-19.27071469766052,168.63604553088646L-19.548969090345917,181.16264165907748z" style="fill:rgb(101,32,208)"/><path d="M-27.54129945631043,180.95336115088654L-27.50946175368055,168.83560974017837L-35.58714150493312,168.66789407077147z" style="fill:rgb(96,32,206)"/><path d="M159.91918676821436,87.69310409732032L158.98912295946835,67.35034760549959L154.5349944564934,74.03946976631525z" style="fill:rgb(223,98,205)"/><path d="M-6.387880212118188,135.71991964552933L-6.39758610070823,137.5079979452106L119.955873370536,111.8175139136521zM-6.505976095894446,157.47664286029516L-51.168441108082554,167.24999422543058L-43.48069002427984,168.13741714723957z" style="fill:rgb(83,212,212)"/><path d="M155.15682789704198,94.25817389458842L149.6856943870418,80.65179223201557L150.01485576925188,100.72259679882269z" style="fill:rgb(216,90,210)"/><path d="M-6.39758610070823,137.5079979452106L-6.411196954275926,140.0155115488008L119.955873370536,111.8175139136521zM-6.490174225775439,154.56546218734115L-51.168441108082554,167.24999422543058L-6.500878387213453,156.5375368285276zM-6.326647568619175,124.43901674587421L138.8471853158873,93.56077374616515L144.45219248359527,87.16599172715291z" style="fill:rgb(83,212,212)"/><path d="M-2.7582108238690863,173.70981680313602L-3.1194949903393963,180.48325631974194L1.1639675558216185,180.0269370966276z" style="fill:rgb(113,34,213)"/><path d="M-6.500878387213453,156.5375368285276L-51.168441108082554,167.24999422543058L-6.505976095894446,157.47664286029516zM-6.411196954275926,140.0155115488008L-6.424865532438193,142.53371887843127L119.955873370536,111.8175139136521z" style="fill:rgb(83,212,212)"/><path d="M-3.1194949903393963,180.48325631974194L-10.894865644437692,168.06616575188858L-11.400464279567053,181.0070214372183z" style="fill:rgb(107,33,211)"/><path d="M-19.548969090345917,181.16264165907748L-19.27071469766052,168.63604553088646L-27.50946175368055,168.83560974017837z" style="fill:rgb(101,32,208)"/><path d="M155.15682789704198,94.25817389458842L154.5349944564934,74.03946976631525L149.6856943870418,80.65179223201557z" style="fill:rgb(220,94,208)"/><path d="M-6.520070026064551,160.07320480770522L-43.48069002427984,168.13741714723957L-35.58714150493312,168.66789407077147z" style="fill:rgb(83,212,212)"/><path d="M150.01485576925188,100.72259679882269L144.45219248359527,87.16599172715291L144.50569266780346,107.06527018723469z" style="fill:rgb(212,86,212)"/><path d="M-6.424865532438193,142.53371887843127L-6.433163101341357,144.06233436312561L113.02567382201086,117.52538483729403zM-6.505976095894446,157.47664286029516L-43.48069002427984,168.13741714723957L-6.515850084258479,159.2957151631315zM-6.337535163148833,126.44487139870228L132.88513538572857,99.81487854330538L138.8471853158873,93.56077374616515zM-6.515850084258479,159.2957151631315L-43.48069002427984,168.13741714723957L-6.520070026064551,160.07320480770522zM-6.433163101341357,144.06233436312561L-6.446148976868785,146.4547084694791L113.02567382201086,117.52538483729403z" style="fill:rgb(83,212,212)"/><path d="M-2.406909465635512,167.12426866380997L1.1639675558216185,180.0269370966276L5.269280511202048,179.58960093260987z" style="fill:rgb(113,34,213)"/><path d="M-11.400464279567053,181.0070214372183L-10.894865644437692,168.06616575188858L-19.27071469766052,168.63604553088646z" style="fill:rgb(107,33,211)"/><path d="M-2.7582108238690863,173.70981680313602L-10.894865644437692,168.06616575188858L-3.1194949903393963,180.48325631974194z" style="fill:rgb(113,34,213)"/><path d="M150.01485576925188,100.72259679882269L149.6856943870418,80.65179223201557L144.45219248359527,87.16599172715291z" style="fill:rgb(216,90,210)"/><path d="M144.50569266780346,107.06527018723469L138.8471853158873,93.56077374616515L138.64354413826172,113.26521173899752z" style="fill:rgb(208,82,214)"/><path d="M-6.532401208212416,162.34492200416088L-35.58714150493312,168.66789407077147L-27.50946175368055,168.83560974017837zM-6.446148976868785,146.4547084694791L-6.453698134944597,147.84553775065962L105.81217674323436,123.01148070654703zM-6.520070026064551,160.07320480770522L-35.58714150493312,168.66789407077147L-6.529083581203206,161.73372552017005zM-6.529083581203206,161.73372552017005L-35.58714150493312,168.66789407077147L-6.532401208212416,162.34492200416088z" style="fill:rgb(83,212,212)"/><path d="M-2.406909465635512,167.12426866380997L-2.7582108238690863,173.70981680313602L1.1639675558216185,180.0269370966276z" style="fill:rgb(113,34,213)"/><path d="M-6.453698134944597,147.84553775065962L-6.465961090383791,150.10468609234871L105.81217674323436,123.01148070654703z" style="fill:rgb(83,212,212)"/><path d="M13.740327619453227,178.3257274619217L6.16725242017487,165.81008638160617L5.269280511202048,179.58960093260987z" style="fill:rgb(118,35,215)"/><path d="M-6.3782039602076175,133.93722985389257L126.58216454976426,105.9073108276501L132.88513538572857,99.81487854330538z" style="fill:rgb(83,212,212)"/><path d="M138.64354413826172,113.26521173899752L132.88513538572857,99.81487854330538L132.4441601508195,119.3016980253824z" style="fill:rgb(204,78,216)"/><path d="M-6.465961090383791,150.10468609234871L-6.472725929452884,151.35101223409657L98.33750480808803,128.25699737004692zM-6.532401208212416,162.34492200416088L-27.50946175368055,168.83560974017837L-6.540526604611864,163.84191212313775zM-6.542920116234076,164.28286781567155L-27.50946175368055,168.83560974017837L-19.27071469766052,168.63604553088646z" style="fill:rgb(83,212,212)"/><path d="M144.50569266780346,107.06527018723469L144.45219248359527,87.16599172715291L138.8471853158873,93.56077374616515z" style="fill:rgb(212,86,212)"/><path d="M-6.540526604611864,163.84191212313775L-27.50946175368055,168.83560974017837L-6.542920116234076,164.28286781567155zM-6.472725929452884,151.35101223409657L-6.484227275374534,153.46990912860335L98.33750480808803,128.25699737004692zM-6.387880212118188,135.71991964552933L119.955873370536,111.8175139136521L126.58216454976426,105.9073108276501z" style="fill:rgb(83,212,212)"/><path d="M22.267449607980748,176.69291117239706L14.801028255422757,164.12496612809647L13.740327619453227,178.3257274619217z" style="fill:rgb(124,36,216)"/><path d="M132.4441601508195,119.3016980253824L126.58216454976426,105.9073108276501L125.92485269034326,125.15434155197752z" style="fill:rgb(199,74,218)"/><path d="M-6.484227275374534,153.46990912860335L-6.490174225775439,154.56546218734115L90.625051441048,133.24420305644242zM-6.542920116234076,164.28286781567155L-19.27071469766052,168.63604553088646L-6.550134166884589,165.6118577751313z" style="fill:rgb(83,212,212)"/><path d="M-2.7582108238690863,173.70981680313602L-6.560845562084805,167.5852137606443L-10.894865644437692,168.06616575188858z" style="fill:rgb(113,34,213)"/><path d="M-6.550134166884589,165.6118577751313L-19.27071469766052,168.63604553088646L-6.551585136479609,165.87922104317627z" style="fill:rgb(83,212,212)"/><path d="M5.269280511202048,179.58960093260987L6.16725242017487,165.81008638160617L-2.406909465635512,167.12426866380997z" style="fill:rgb(118,35,215)"/><path d="M-6.551585136479609,165.87922104317627L-19.27071469766052,168.63604553088646L-10.894865644437692,168.06616575188858z" style="fill:rgb(83,212,212)"/><path d="M138.64354413826172,113.26521173899752L138.8471853158873,93.56077374616515L132.88513538572857,99.81487854330538z" style="fill:rgb(208,82,214)"/><path d="M-6.490174225775439,154.56546218734115L-6.500878387213453,156.5375368285276L90.625051441048,133.24420305644242z" style="fill:rgb(83,212,212)"/><path d="M30.82392367143047,174.69379798112698L23.467271797131303,162.07177472833922L22.267449607980748,176.69291117239706z" style="fill:rgb(130,38,218)"/><path d="M-2.7582108238690863,173.70981680313602L-2.406909465635512,167.12426866380997L-6.560845562084805,167.5852137606443z" style="fill:rgb(113,34,213)"/><path d="M-6.500878387213453,156.5375368285276L-6.505976095894446,157.47664286029516L82.69917202989284,137.95619440498152z" style="fill:rgb(83,212,212)"/><path d="M125.92485269034326,125.15434155197752L119.955873370536,111.8175139136521L119.10461056822561,130.80336173097456z" style="fill:rgb(195,70,219)"/><path d="M-6.424865532438193,142.53371887843127L113.02567382201086,117.52538483729403L119.955873370536,111.8175139136521zM-6.551585136479609,165.87922104317627L-10.894865644437692,168.06616575188858L-6.557867133158409,167.03649900972076zM-6.557867133158409,167.03649900972076L-10.894865644437692,168.06616575188858L-6.5583613930215146,167.12760808608576zM-6.5583613930215146,167.12760808608576L-10.894865644437692,168.06616575188858L-6.560845562084805,167.5852137606443zM-6.505976095894446,157.47664286029516L-6.515850084258479,159.2957151631315L82.69917202989284,137.95619440498152z" style="fill:rgb(83,212,212)"/><path d="M39.3824624006471,172.33256329194637L32.13825497671359,159.6549292600801L30.82392367143047,174.69379798112698z" style="fill:rgb(136,39,219)"/><path d="M13.740327619453227,178.3257274619217L14.801028255422757,164.12496612809647L6.16725242017487,165.81008638160617z" style="fill:rgb(124,36,216)"/><path d="M132.4441601508195,119.3016980253824L132.88513538572857,99.81487854330538L126.58216454976426,105.9073108276501z" style="fill:rgb(204,78,216)"/><path d="M-6.515850084258479,159.2957151631315L-6.520070026064551,160.07320480770522L74.58537733159581,142.3772043899145z" style="fill:rgb(83,212,212)"/><path d="M119.10461056822561,130.80336173097456L113.02567382201086,117.52538483729403L112.00364761064698,136.22953458555173z" style="fill:rgb(190,66,220)"/><path d="M-6.5583613930215146,167.12760808608576L-6.560845562084805,167.5852137606443L-2.406909465635512,167.12426866380997zM-6.520070026064551,160.07320480770522L-6.529083581203206,161.73372552017005L74.58537733159581,142.3772043899145zM-6.446148976868785,146.4547084694791L105.81217674323436,123.01148070654703L113.02567382201086,117.52538483729403z" style="fill:rgb(83,212,212)"/><path d="M47.915638290089674,169.61514953250352L40.786039075016674,156.88030820379137L39.3824624006471,172.33256329194637z" style="fill:rgb(141,41,220)"/><path d="M-6.529083581203206,161.73372552017005L-6.532401208212416,162.34492200416088L66.30997866708086,146.49273382861023z" style="fill:rgb(83,212,212)"/><path d="M112.00364761064698,136.22953458555173L105.81217674323436,123.01148070654703L104.64366564982521,141.41447359038028z" style="fill:rgb(185,63,221)"/><path d="M-6.532401208212416,162.34492200416088L-6.540526604611864,163.84191212313775L66.30997866708086,146.49273382861023z" style="fill:rgb(83,212,212)"/><path d="M22.267449607980748,176.69291117239706L23.467271797131303,162.07177472833922L14.801028255422757,164.12496612809647z" style="fill:rgb(130,38,218)"/><path d="M125.92485269034326,125.15434155197752L126.58216454976426,105.9073108276501L119.955873370536,111.8175139136521z" style="fill:rgb(199,74,218)"/><path d="M56.395807995296764,166.54873863383108L49.38264717296048,153.75549339824707L47.915638290089674,169.61514953250352z" style="fill:rgb(147,43,221)"/><path d="M-6.540526604611864,163.84191212313775L-6.542920116234076,164.28286781567155L57.899894879280396,150.28950081671184z" style="fill:rgb(83,212,212)"/><path d="M104.64366564982521,141.41447359038028L98.33750480808803,128.25699737004692L97.04760023101403,146.34055232919854z" style="fill:rgb(180,60,222)"/><path d="M-6.465961090383791,150.10468609234871L98.33750480808803,128.25699737004692L105.81217674323436,123.01148070654703zM-6.542920116234076,164.28286781567155L-6.550134166884589,165.6118577751313L57.899894879280396,150.28950081671184zM-6.550134166884589,165.6118577751313L-6.551585136479609,165.87922104317627L49.38264717296048,153.75549339824707z" style="fill:rgb(83,212,212)"/><path d="M64.79542838848856,163.1421844153204L57.899894879280396,150.28950081671184L56.395807995296764,166.54873863383108z" style="fill:rgb(153,46,222)"/><path d="M97.04760023101403,146.34055232919854L90.625051441048,133.24420305644242L89.23934112373759,150.99124874942726z" style="fill:rgb(175,56,222)"/><path d="M-6.557867133158409,167.03649900972076L-6.5583613930215146,167.12760808608576L40.786039075016674,156.88030820379137zM-6.551585136479609,165.87922104317627L-6.557867133158409,167.03649900972076L49.38264717296048,153.75549339824707z" style="fill:rgb(83,212,212)"/><path d="M73.08713708707997,159.4057445879477L66.30997866708086,146.49273382861023L64.79542838848856,163.1421844153204z" style="fill:rgb(158,48,222)"/><path d="M89.23934112373759,150.99124874942726L82.69917202989284,137.95619440498152L81.24391236389947,155.35109571826874z" style="fill:rgb(169,53,222)"/><path d="M81.24391236389947,155.35109571826874L74.58537733159581,142.3772043899145L73.08713708707997,159.4057445879477z" style="fill:rgb(164,51,222)"/><path d="M30.82392367143047,174.69379798112698L32.13825497671359,159.6549292600801L23.467271797131303,162.07177472833922z" style="fill:rgb(136,39,219)"/><path d="M119.10461056822561,130.80336173097456L119.955873370536,111.8175139136521L113.02567382201086,117.52538483729403z" style="fill:rgb(195,70,219)"/><path d="M-6.5583613930215146,167.12760808608576L-2.406909465635512,167.12426866380997L40.786039075016674,156.88030820379137zM-6.484227275374534,153.46990912860335L90.625051441048,133.24420305644242L98.33750480808803,128.25699737004692zM32.13825497671359,159.6549292600801L-2.406909465635512,167.12426866380997L6.16725242017487,165.81008638160617z" style="fill:rgb(83,212,212)"/><path d="M39.3824624006471,172.33256329194637L40.786039075016674,156.88030820379137L32.13825497671359,159.6549292600801z" style="fill:rgb(141,41,220)"/><path d="M112.00364761064698,136.22953458555173L113.02567382201086,117.52538483729403L105.81217674323436,123.01148070654703z" style="fill:rgb(190,66,220)"/><path d="M-6.500878387213453,156.5375368285276L82.69917202989284,137.95619440498152L90.625051441048,133.24420305644242zM23.467271797131303,162.07177472833922L6.16725242017487,165.81008638160617L14.801028255422757,164.12496612809647zM-6.515850084258479,159.2957151631315L74.58537733159581,142.3772043899145L82.69917202989284,137.95619440498152z" style="fill:rgb(83,212,212)"/><path d="M47.915638290089674,169.61514953250352L49.38264717296048,153.75549339824707L40.786039075016674,156.88030820379137z" style="fill:rgb(147,43,221)"/><path d="M104.64366564982521,141.41447359038028L105.81217674323436,123.01148070654703L98.33750480808803,128.25699737004692z" style="fill:rgb(185,63,221)"/><path d="M32.13825497671359,159.6549292600801L6.16725242017487,165.81008638160617L23.467271797131303,162.07177472833922zM-6.529083581203206,161.73372552017005L66.30997866708086,146.49273382861023L74.58537733159581,142.3772043899145zM40.786039075016674,156.88030820379137L-2.406909465635512,167.12426866380997L32.13825497671359,159.6549292600801zM-6.557867133158409,167.03649900972076L40.786039075016674,156.88030820379137L49.38264717296048,153.75549339824707z" style="fill:rgb(83,212,212)"/><path d="M56.395807995296764,166.54873863383108L57.899894879280396,150.28950081671184L49.38264717296048,153.75549339824707z" style="fill:rgb(153,46,222)"/><path d="M97.04760023101403,146.34055232919854L98.33750480808803,128.25699737004692L90.625051441048,133.24420305644242z" style="fill:rgb(180,60,222)"/><path d="M-6.540526604611864,163.84191212313775L57.899894879280396,150.28950081671184L66.30997866708086,146.49273382861023zM-6.550134166884589,165.6118577751313L49.38264717296048,153.75549339824707L57.899894879280396,150.28950081671184z" style="fill:rgb(83,212,212)"/><path d="M64.79542838848856,163.1421844153204L66.30997866708086,146.49273382861023L57.899894879280396,150.28950081671184z" style="fill:rgb(158,48,222)"/><path d="M89.23934112373759,150.99124874942726L90.625051441048,133.24420305644242L82.69917202989284,137.95619440498152z" style="fill:rgb(175,56,222)"/><path d="M73.08713708707997,159.4057445879477L74.58537733159581,142.3772043899145L66.30997866708086,146.49273382861023z" style="fill:rgb(164,51,222)"/><path d="M81.24391236389947,155.35109571826874L82.69917202989284,137.95619440498152L74.58537733159581,142.3772043899145z" style="fill:rgb(169,53,222)"/></svg>