<svg viewBox="-250 -250 500 500" width="500" height="500" xmlns="http://www.w3.org/2000/svg"><path d="M-117.75413835247694,-79.68577162886272L-54.242006998852595,-6.12644874312854L-74.55340477249855,-42.72989023889528zM-120.53071941866986,-57.015727282314195L-40.16296334267789,33.92272355876261L-54.242006998852595,-6.12644874312854zM-74.55340477249855,-42.72989023889528L-98.61999113876655,-70.94391737621332L-117.41204099999628,-82.47889423341063zM-74.55340477249855,-42.72989023889528L-117.41204099999628,-82.47889423341063L-117.59057141101292,-81.02124656734017zM-117.75413835247694,-79.68577162886272L-74.55340477249855,-42.72989023889528L-117.59057141101292,-81.02124656734017zM-119.81940872807063,-62.823388140323885L-54.242006998852595,-6.12644874312854L-117.75413835247694,-79.68577162886272zM-124.28107799038064,-26.39505621932471L-34.222410029135816,72.28724054194203L-40.16296334267789,33.92272355876261zM-120.53071941866986,-57.015727282314195L-54.242006998852595,-6.12644874312854L-119.81940872807063,-62.823388140323885zM-117.59057141101292,-81.02124656734017L-117.41204099999628,-82.47889423341063L-123.27082099024601,-86.0750581536007zM-117.59057141101292,-81.02124656734017L-123.27082099024601,-86.0750581536007L-117.75413835247694,-79.68577162886272zM-123.26166824019961,-34.71826319855999L-40.16296334267789,33.92272355876261L-120.53071941866986,-57.015727282314195zM-128.46085951439773,7.73173753703732L-37.72300028145502,103.5700002343747L-34.222410029135816,72.28724054194203zM-124.28107799038064,-26.39505621932471L-40.16296334267789,33.92272355876261L-123.26166824019961,-34.71826319855999zM-117.75413835247694,-79.68577162886272L-123.27082099024601,-86.0750581536007L-144.5905840745447,-84.23999920546044zM-117.75413835247694,-79.68577162886272L-144.5905840745447,-84.23999920546044L-119.81940872807063,-62.823388140323885zM-44.65700447894129,113.29892137971348L-37.72300028145502,103.5700002343747L-93.19761892036358,62.95467227365377z" style="fill:rgb(237,172,172)"/><path d="M-51.05252725853751,122.27218441050599L-115.02261395888448,141.04905212587028L-98.16671035943116,139.59690487035854z" style="fill:rgb(164,8,154)"/><path d="M-65.87544392984728,107.15512372310658L-51.05252725853751,122.27218441050599L-44.65700447894129,113.29892137971348zM-119.81940872807063,-62.823388140323885L-144.5905840745447,-84.23999920546044L-120.53071941866986,-57.015727282314195zM-65.87544392984728,107.15512372310658L-44.65700447894129,113.29892137971348L-65.01650011698952,92.18291106698341zM-127.466990887625,-0.3829333317227072L-34.222410029135816,72.28724054194203L-124.28107799038064,-26.39505621932471z" style="fill:rgb(237,172,172)"/><path d="M-51.05252725853751,122.27218441050599L-101.84160237626969,136.17641471137654L-115.02261395888448,141.04905212587028z" style="fill:rgb(164,8,154)"/><path d="M-128.46085951439773,7.73173753703732L-34.222410029135816,72.28724054194203L-127.466990887625,-0.3829333317227072z" style="fill:rgb(237,172,172)"/><path d="M-101.84160237626969,136.17641471137654L-51.05252725853751,122.27218441050599L-66.79717567210298,123.2217843913304z" style="fill:rgb(164,8,154)"/><path d="M-66.79717567210298,123.2217843913304L-51.05252725853751,122.27218441050599L-65.87544392984728,107.15512372310658z" style="fill:rgb(237,172,172)"/><path d="M-101.84160237626969,136.17641471137654L-121.76021815782853,141.6294499936865L-115.02261395888448,141.04905212587028z" style="fill:rgb(164,8,154)"/><path d="M-65.87544392984728,107.15512372310658L-65.01650011698952,92.18291106698341L-93.19761892036358,62.95467227365377zM-120.53071941866986,-57.015727282314195L-158.25926337795116,-63.626876340215674L-123.26166824019961,-34.71826319855999zM-130.48755073134095,24.279127762944885L-93.19761892036358,62.95467227365377L-37.72300028145502,103.5700002343747zM-120.53071941866986,-57.015727282314195L-144.5905840745447,-84.23999920546044L-158.25926337795116,-63.626876340215674z" style="fill:rgb(237,172,172)"/><path d="M-190.72178847142482,-62.65860971359313L-158.25926337795116,-63.626876340215674L-144.5905840745447,-84.23999920546044z" style="fill:rgb(66,229,173)"/><path d="M-101.84160237626969,136.17641471137654L-73.09571613579486,123.60170847918744L-121.76021815782853,141.6294499936865zM-101.84160237626969,136.17641471137654L-66.79717567210298,123.2217843913304L-73.09571613579486,123.60170847918744z" style="fill:rgb(164,8,154)"/><path d="M-130.48755073134095,24.279127762944885L-37.72300028145502,103.5700002343747L-128.46085951439773,7.73173753703732z" style="fill:rgb(237,172,172)"/><path d="M-205.9831768993752,-41.58383330785482L-158.25926337795116,-63.626876340215674L-190.72178847142482,-62.65860971359313z" style="fill:rgb(66,229,173)"/><path d="M-123.26166824019961,-34.71826319855999L-158.25926337795116,-63.626876340215674L-124.28107799038064,-26.39505621932471z" style="fill:rgb(237,172,172)"/><path d="M-121.76021815782853,141.6294499936865L-73.09571613579486,123.60170847918744L-150.47625322278276,124.16003483457914z" style="fill:rgb(140,23,199)"/><path d="M-65.87544392984728,107.15512372310658L-93.19761892036358,62.95467227365377L-131.76597794840686,34.71713990528996zM-132.91198823666608,44.07400922396528L-66.79717567210298,123.2217843913304L-65.87544392984728,107.15512372310658zM-124.28107799038064,-26.39505621932471L-160.56815861033,-26.180398936820378L-127.466990887625,-0.3829333317227072zM-132.91198823666608,44.07400922396528L-73.09571613579486,123.60170847918744L-66.79717567210298,123.2217843913304zM-124.28107799038064,-26.39505621932471L-158.25926337795116,-63.626876340215674L-160.56815861033,-26.180398936820378z" style="fill:rgb(237,172,172)"/><path d="M-150.47625322278276,124.16003483457914L-73.09571613579486,123.60170847918744L-100.63482347537506,105.11259881830763z" style="fill:rgb(140,23,199)"/><path d="M-205.9831768993752,-41.58383330785482L-160.56815861033,-26.180398936820378L-158.25926337795116,-63.626876340215674z" style="fill:rgb(64,195,214)"/><path d="M-65.87544392984728,107.15512372310658L-131.76597794840686,34.71713990528996L-132.3365099286928,39.375383309831236zM-131.76597794840686,34.71713990528996L-93.19761892036358,62.95467227365377L-130.48755073134095,24.279127762944885zM-127.466990887625,-0.3829333317227072L-160.56815861033,-26.180398936820378L-128.46085951439773,7.73173753703732zM-132.91198823666608,44.07400922396528L-65.87544392984728,107.15512372310658L-132.3365099286928,39.375383309831236z" style="fill:rgb(237,172,172)"/><path d="M-209.72047054403242,-4.225671870117074L-160.56815861033,-26.180398936820378L-205.9831768993752,-41.58383330785482z" style="fill:rgb(64,195,214)"/><path d="M-150.47625322278276,124.16003483457914L-100.63482347537506,105.11259881830763L-178.71045502112798,88.90789806266687z" style="fill:rgb(114,55,231)"/><path d="M-73.09571613579486,123.60170847918744L-128.34352403268934,68.68208760392912L-100.63482347537506,105.11259881830763zM-132.91198823666608,44.07400922396528L-128.34352403268934,68.68208760392912L-73.09571613579486,123.60170847918744zM-128.46085951439773,7.73173753703732L-149.9796588293819,21.382134236486024L-131.76597794840686,34.71713990528996zM-128.46085951439773,7.73173753703732L-160.56815861033,-26.180398936820378L-149.9796588293819,21.382134236486024z" style="fill:rgb(237,172,172)"/><path d="M-200.0919861762307,42.674319063464644L-149.9796588293819,21.382134236486024L-209.72047054403242,-4.225671870117074z" style="fill:rgb(72,150,240)"/><path d="M-178.71045502112798,88.90789806266687L-100.63482347537506,105.11259881830763L-128.34352403268934,68.68208760392912z" style="fill:rgb(114,55,231)"/><path d="M-148.48136166492162,61.382424828193145L-200.0919861762307,42.674319063464644L-184.62144756196977,76.12652555397659zM-128.34352403268934,68.68208760392912L-184.62144756196977,76.12652555397659L-178.71045502112798,88.90789806266687z" style="fill:rgb(90,100,246)"/><path d="M-209.72047054403242,-4.225671870117074L-149.9796588293819,21.382134236486024L-160.56815861033,-26.180398936820378z" style="fill:rgb(72,150,240)"/><path d="M-131.76597794840686,34.71713990528996L-149.9796588293819,21.382134236486024L-132.3365099286928,39.375383309831236z" style="fill:rgb(237,172,172)"/><path d="M-128.34352403268934,68.68208760392912L-148.48136166492162,61.382424828193145L-184.62144756196977,76.12652555397659z" style="fill:rgb(90,100,246)"/><path d="M-132.3365099286928,39.375383309831236L-149.9796588293819,21.382134236486024L-132.91198823666608,44.07400922396528z" style="fill:rgb(237,172,172)"/><path d="M-148.48136166492162,61.382424828193145L-149.9796588293819,21.382134236486024L-200.0919861762307,42.674319063464644z" style="fill:rgb(90,100,246)"/><path d="M-132.91198823666608,44.07400922396528L-134.3245046242069,55.60682339402832L-128.34352403268934,68.68208760392912z" style="fill:rgb(237,172,172)"/><path d="M-129.07189174792234,132.43528238618958L-121.17994265241788,204.33200110651325L-70.44758527206014,186.85178230037852z" style="fill:rgb(127,37,217)"/><path d="M-132.91198823666608,44.07400922396528L-149.9796588293819,21.382134236486024L-134.3245046242069,55.60682339402832z" style="fill:rgb(237,172,172)"/><path d="M-148.48136166492162,61.382424828193145L-128.34352403268934,68.68208760392912L-134.3245046242069,55.60682339402832zM-148.48136166492162,61.382424828193145L-134.3245046242069,55.60682339402832L-149.9796588293819,21.382134236486024z" style="fill:rgb(90,100,246)"/><path d="M-134.3245046242069,55.60682339402832L-184.62144756196977,76.12652555397659L-195.25807281063175,140.49456334652703z" style="fill:rgb(63,205,205)"/><path d="M-129.07189174792234,132.43528238618958L-187.38094119990075,147.28267003938058L-121.17994265241788,204.33200110651325z" style="fill:rgb(127,37,217)"/><path d="M-132.3729118262121,39.67259209027803L135.79812645565588,-87.63251392469685L-130.48755073134095,24.279127762944885zM-134.3245046242069,55.60682339402832L-195.25807281063175,140.49456334652703L-142.23754395113573,120.2146684575425z" style="fill:rgb(63,205,205)"/><path d="M-157.18628515872788,135.85872854427396L-195.25807281063175,140.49456334652703L-187.38094119990075,147.28267003938058zM-129.07189174792234,132.43528238618958L-157.18628515872788,135.85872854427396L-187.38094119990075,147.28267003938058zM-70.44758527206014,186.85178230037852L205.841919670988,91.6543023100666L-129.07189174792234,132.43528238618958zM-134.59298308287197,127.31057452932407L-195.25807281063175,140.49456334652703L-157.18628515872788,135.85872854427396zM-134.59298308287197,127.31057452932407L-157.18628515872788,135.85872854427396L-129.07189174792234,132.43528238618958zM-134.59298308287197,127.31057452932407L-142.23754395113573,120.2146684575425L-195.25807281063175,140.49456334652703z" style="fill:rgb(127,37,217)"/><path d="M-142.23754395113573,120.2146684575425L149.50739726392254,8.624863060012503L-132.3729118262121,39.67259209027803zM-132.3729118262121,39.67259209027803L149.50739726392254,8.624863060012503L135.79812645565588,-87.63251392469685z" style="fill:rgb(63,205,205)"/><path d="M149.50739726392254,8.624863060012503L188.3553392389625,-4.576176959436332L135.79812645565588,-87.63251392469685zM188.3553392389625,-4.576176959436332L149.50739726392254,8.624863060012503L205.841919670988,91.6543023100666z" style="fill:rgb(237,172,172)"/><path d="M-129.07189174792234,132.43528238618958L149.50739726392254,8.624863060012503L-142.23754395113573,120.2146684575425zM-129.07189174792234,132.43528238618958L205.841919670988,91.6543023100666L149.50739726392254,8.624863060012503z" style="fill:rgb(127,37,217)"/></svg>